G04 MADE WITH FRITZING*
G04 WWW.FRITZING.ORG*
G04 DOUBLE SIDED*
G04 HOLES PLATED*
G04 CONTOUR ON CENTER OF CONTOUR VECTOR*
%ASAXBY*%
%FSLAX23Y23*%
%MOIN*%
%OFA0B0*%
%SFA1.0B1.0*%
%ADD10C,0.039370*%
%ADD11C,0.078000*%
%ADD12C,0.138425*%
%ADD13C,0.095000*%
%ADD14C,0.051496*%
%ADD15C,0.062000*%
%ADD16C,0.053528*%
%ADD17C,0.060000*%
%ADD18C,0.070000*%
%ADD19C,0.075000*%
%ADD20C,0.062992*%
%ADD21C,0.080000*%
%ADD22C,0.082000*%
%ADD23C,0.090000*%
%ADD24C,0.071181*%
%ADD25C,0.070925*%
%ADD26C,0.070866*%
%ADD27R,0.095000X0.095000*%
%ADD28R,0.062992X0.062992*%
%ADD29R,0.080000X0.080000*%
%ADD30R,0.075000X0.075000*%
%ADD31R,0.082000X0.082000*%
%ADD32C,0.024000*%
%ADD33R,0.001000X0.001000*%
%LNCOPPER1*%
G90*
G70*
G54D10*
X5268Y3775D03*
X5968Y2925D03*
X6068Y4125D03*
X6068Y2825D03*
X6020Y3474D03*
X5768Y4175D03*
X6118Y4027D03*
X6168Y4175D03*
X5268Y4775D03*
G54D11*
X3168Y1025D03*
X3268Y1025D03*
X3368Y1025D03*
X3468Y1025D03*
X3568Y1025D03*
X3668Y1025D03*
X3168Y1025D03*
X3268Y1025D03*
X3368Y1025D03*
X3468Y1025D03*
X3568Y1025D03*
X3668Y1025D03*
X3668Y1125D03*
X3568Y1125D03*
X3468Y1125D03*
X3368Y1125D03*
X3268Y1125D03*
X3168Y1125D03*
G54D10*
X2968Y2675D03*
X3268Y3225D03*
X2768Y1075D03*
X2768Y2375D03*
X2568Y1625D03*
X2718Y1625D03*
X2718Y1175D03*
X2568Y2325D03*
X3318Y2225D03*
X3468Y2175D03*
X1268Y2425D03*
X3568Y2425D03*
X1468Y2475D03*
X3668Y2475D03*
X3768Y2625D03*
X1768Y2625D03*
X3568Y775D03*
X3818Y1575D03*
X3518Y1575D03*
X3518Y2725D03*
X1868Y2725D03*
X3868Y875D03*
X3868Y2075D03*
X6818Y575D03*
X7168Y475D03*
G54D12*
X318Y2125D03*
G54D13*
X318Y2617D03*
G54D14*
X429Y2605D03*
G54D15*
X1968Y2075D03*
X1868Y2075D03*
X1768Y2075D03*
X1668Y2075D03*
X1568Y2075D03*
X1468Y2075D03*
X1368Y2075D03*
X1268Y2075D03*
X1168Y2075D03*
G54D12*
X318Y2825D03*
G54D15*
X1068Y2075D03*
X968Y2075D03*
X868Y2075D03*
X768Y2075D03*
X668Y2075D03*
X568Y2075D03*
X468Y2075D03*
X868Y2875D03*
X968Y2875D03*
X1068Y2875D03*
X1168Y2875D03*
X1268Y2875D03*
X1368Y2875D03*
X1468Y2875D03*
X1568Y2875D03*
X1668Y2875D03*
X1768Y2875D03*
X1868Y2875D03*
X1968Y2875D03*
G54D14*
X429Y2345D03*
G54D13*
X318Y2333D03*
G54D16*
X1768Y3925D03*
X1868Y3925D03*
X1968Y3925D03*
G54D17*
X768Y3925D03*
X868Y3925D03*
X968Y3925D03*
X768Y3925D03*
X868Y3925D03*
X968Y3925D03*
G54D18*
X568Y3725D03*
X568Y3625D03*
X1118Y3625D03*
X1118Y3725D03*
X1468Y3625D03*
X1468Y3725D03*
X2268Y3625D03*
X2268Y3725D03*
G54D19*
X2268Y3375D03*
X2668Y3375D03*
G54D20*
X2917Y3375D03*
X2818Y3375D03*
G54D21*
X168Y3225D03*
X168Y3363D03*
G54D16*
X2918Y3925D03*
X3018Y3925D03*
X3118Y3925D03*
G54D18*
X5268Y2975D03*
X4068Y2675D03*
X5168Y2975D03*
X3968Y2675D03*
X5068Y2975D03*
X4968Y2975D03*
X4868Y2975D03*
X4768Y2975D03*
X3968Y2975D03*
X4068Y2975D03*
X4168Y2975D03*
X4268Y2975D03*
X4668Y2975D03*
X4468Y2975D03*
X4568Y2975D03*
X4368Y2975D03*
X4468Y2675D03*
X4368Y2675D03*
X4268Y2675D03*
X4168Y2675D03*
X4668Y2675D03*
X4568Y2675D03*
X5068Y2675D03*
X4968Y2675D03*
X4868Y2675D03*
X4768Y2675D03*
X5268Y2675D03*
X5168Y2675D03*
X4468Y3125D03*
X4368Y3125D03*
G54D19*
X3968Y2475D03*
X4368Y2475D03*
X1868Y3025D03*
X1868Y3425D03*
X1968Y3025D03*
X1968Y3425D03*
G54D18*
X2568Y3625D03*
X2568Y3725D03*
X3468Y3625D03*
X3468Y3725D03*
G54D10*
X2417Y4125D03*
X2417Y3175D03*
G54D20*
X1268Y3177D03*
X1268Y3275D03*
G54D21*
X418Y325D03*
X280Y325D03*
G54D19*
X318Y625D03*
X318Y925D03*
X418Y625D03*
X418Y925D03*
X618Y625D03*
X618Y925D03*
X718Y625D03*
X718Y925D03*
X918Y625D03*
X918Y925D03*
X1018Y625D03*
X1018Y925D03*
X1218Y625D03*
X1218Y925D03*
X1318Y625D03*
X1318Y925D03*
G54D21*
X718Y325D03*
X580Y325D03*
X1018Y325D03*
X880Y325D03*
X1318Y325D03*
X1180Y325D03*
G54D22*
X318Y1425D03*
X318Y1127D03*
G54D19*
X468Y1125D03*
X468Y1525D03*
G54D22*
X618Y1425D03*
X618Y1127D03*
G54D19*
X768Y1125D03*
X768Y1525D03*
G54D22*
X918Y1425D03*
X918Y1127D03*
G54D19*
X1068Y1125D03*
X1068Y1525D03*
G54D22*
X1218Y1425D03*
X1218Y1127D03*
G54D19*
X1368Y1125D03*
X1368Y1525D03*
X1518Y625D03*
X1518Y925D03*
X1618Y625D03*
X1618Y925D03*
X1818Y625D03*
X1818Y925D03*
X1918Y625D03*
X1918Y925D03*
X2118Y625D03*
X2118Y925D03*
X2218Y625D03*
X2218Y925D03*
X2418Y625D03*
X2418Y925D03*
X2518Y625D03*
X2518Y925D03*
G54D21*
X1618Y325D03*
X1480Y325D03*
X1918Y325D03*
X1780Y325D03*
X2218Y325D03*
X2080Y325D03*
X2518Y325D03*
X2380Y325D03*
G54D22*
X1518Y1425D03*
X1518Y1127D03*
X1818Y1425D03*
X1818Y1127D03*
X2418Y1425D03*
X2418Y1127D03*
G54D19*
X1668Y1125D03*
X1668Y1525D03*
X1968Y1125D03*
X1968Y1525D03*
X2268Y1125D03*
X2268Y1525D03*
X2568Y1125D03*
X2568Y1525D03*
G54D11*
X4168Y3425D03*
X4068Y3425D03*
G54D22*
X2118Y1425D03*
X2118Y1127D03*
G54D11*
X1268Y1875D03*
X1368Y1875D03*
X1468Y1875D03*
X1568Y1875D03*
X1668Y1875D03*
X1768Y1875D03*
G54D10*
X3719Y3324D03*
X3869Y2823D03*
X618Y2725D03*
X618Y2176D03*
X1368Y2476D03*
X1470Y2674D03*
X4568Y3526D03*
X3617Y3526D03*
X3617Y2776D03*
X2117Y2776D03*
X3218Y3727D03*
X3368Y1876D03*
X1166Y2275D03*
X2018Y2275D03*
X1517Y1624D03*
X2220Y1624D03*
X2220Y2674D03*
X768Y1774D03*
X2318Y1975D03*
X918Y1975D03*
X2318Y2524D03*
X2669Y2575D03*
X1667Y2575D03*
X3719Y1426D03*
X219Y2476D03*
X618Y1726D03*
X168Y2725D03*
X168Y1726D03*
G54D18*
X4868Y3975D03*
X5068Y4275D03*
X4968Y3975D03*
X5168Y4275D03*
X5068Y3975D03*
X5268Y4275D03*
X5168Y3975D03*
X5368Y4275D03*
X5268Y3975D03*
X5468Y4275D03*
X5368Y3975D03*
X5568Y4275D03*
X5468Y3975D03*
X5668Y3975D03*
X5568Y3975D03*
X5668Y4275D03*
X4868Y4275D03*
X4968Y4275D03*
G54D10*
X4666Y3324D03*
X5668Y3123D03*
G54D23*
X7068Y4025D03*
X6568Y4325D03*
X6568Y4025D03*
X7168Y4325D03*
X6983Y4325D03*
X7068Y4025D03*
X6568Y4325D03*
X6568Y4025D03*
X7168Y4325D03*
X6983Y4325D03*
X7068Y3475D03*
X6568Y3775D03*
X6568Y3475D03*
X7168Y3775D03*
X6983Y3775D03*
X7068Y3475D03*
X6568Y3775D03*
X6568Y3475D03*
X7168Y3775D03*
X6983Y3775D03*
X7068Y2925D03*
X6568Y3225D03*
X6568Y2925D03*
X7168Y3225D03*
X6983Y3225D03*
X7068Y2925D03*
X6568Y3225D03*
X6568Y2925D03*
X7168Y3225D03*
X6983Y3225D03*
X7068Y2375D03*
X6568Y2675D03*
X6568Y2375D03*
X7168Y2675D03*
X6983Y2675D03*
X7068Y2375D03*
X6568Y2675D03*
X6568Y2375D03*
X7168Y2675D03*
X6983Y2675D03*
G54D19*
X5868Y4275D03*
X6268Y4275D03*
X5868Y3725D03*
X6268Y3725D03*
X5868Y3175D03*
X6268Y3175D03*
X5868Y2625D03*
X6268Y2625D03*
G54D20*
X6268Y4027D03*
X6268Y4125D03*
X6268Y3477D03*
X6268Y3575D03*
X6268Y2927D03*
X6268Y3025D03*
X6268Y2377D03*
X6268Y2475D03*
G54D21*
X7418Y4225D03*
X7418Y4087D03*
X7418Y3675D03*
X7418Y3537D03*
X7418Y3125D03*
X7418Y2987D03*
X7418Y2575D03*
X7418Y2437D03*
G54D10*
X4666Y4425D03*
X5668Y4425D03*
X4867Y4524D03*
X6118Y4524D03*
X6020Y4626D03*
X4970Y4626D03*
X5917Y4725D03*
X5069Y4725D03*
X4568Y3676D03*
X5570Y3676D03*
X4666Y3924D03*
X4769Y3826D03*
X3368Y3826D03*
G54D21*
X4468Y325D03*
X4330Y325D03*
X4768Y325D03*
X4630Y325D03*
X5068Y325D03*
X4930Y325D03*
X5368Y325D03*
X5230Y325D03*
X5668Y325D03*
X5530Y325D03*
G54D10*
X2867Y1975D03*
G54D21*
X5968Y325D03*
X5830Y325D03*
G54D19*
X4318Y975D03*
X4318Y575D03*
X4618Y975D03*
X4618Y575D03*
X4768Y975D03*
X4768Y575D03*
X5068Y975D03*
X5068Y575D03*
X5218Y975D03*
X5218Y575D03*
X5518Y975D03*
X5518Y575D03*
X5668Y975D03*
X5668Y575D03*
X5968Y975D03*
X5968Y575D03*
G54D10*
X5570Y2374D03*
X4216Y1825D03*
X5767Y1375D03*
X5270Y1375D03*
X5870Y1474D03*
X5369Y1474D03*
G54D19*
X6618Y1025D03*
X6918Y1025D03*
X6618Y925D03*
X6918Y925D03*
X6618Y825D03*
X6918Y825D03*
X6618Y725D03*
X6918Y725D03*
G54D24*
X6381Y1725D03*
X7168Y1725D03*
X6381Y1725D03*
X7168Y1725D03*
G54D10*
X4118Y176D03*
X4118Y1675D03*
X466Y1623D03*
X4469Y3727D03*
X5468Y3425D03*
X5468Y2275D03*
X6818Y2275D03*
G54D19*
X7068Y825D03*
X7468Y825D03*
X7068Y725D03*
X7468Y725D03*
G54D10*
X6168Y1725D03*
X6168Y575D03*
X3818Y2325D03*
X4666Y1675D03*
X4568Y1825D03*
G54D25*
X6318Y932D03*
G54D26*
X6318Y1125D03*
G54D20*
X6068Y1927D03*
X6068Y2025D03*
G54D10*
X5968Y2525D03*
G54D18*
X5768Y4425D03*
X5768Y4325D03*
X7468Y475D03*
X7468Y575D03*
G54D10*
X3768Y2825D03*
X3068Y3175D03*
G54D27*
X318Y2617D03*
X318Y2333D03*
G54D28*
X2917Y3375D03*
G54D29*
X168Y3225D03*
G54D28*
X1268Y3177D03*
G54D29*
X418Y325D03*
G54D30*
X318Y625D03*
X618Y625D03*
X918Y625D03*
X1218Y625D03*
G54D29*
X718Y325D03*
X1018Y325D03*
X1318Y325D03*
G54D31*
X318Y1426D03*
X618Y1426D03*
X918Y1426D03*
X1218Y1426D03*
G54D30*
X1518Y625D03*
X1818Y625D03*
X2118Y625D03*
X2418Y625D03*
G54D29*
X1618Y325D03*
X1918Y325D03*
X2218Y325D03*
X2518Y325D03*
G54D31*
X1518Y1426D03*
X1818Y1426D03*
X2418Y1426D03*
X2118Y1426D03*
G54D28*
X6268Y4027D03*
X6268Y3477D03*
X6268Y2927D03*
X6268Y2377D03*
G54D29*
X7418Y4225D03*
X7418Y3675D03*
X7418Y3125D03*
X7418Y2575D03*
X4468Y325D03*
X4768Y325D03*
X5068Y325D03*
X5368Y325D03*
X5668Y325D03*
X5968Y325D03*
G54D30*
X6618Y1025D03*
G54D28*
X6068Y1927D03*
G54D32*
X2818Y1225D02*
X2818Y1125D01*
D02*
X2668Y1225D02*
X2818Y1225D01*
D02*
X2668Y925D02*
X2668Y1225D01*
D02*
X2547Y925D02*
X2668Y925D01*
D02*
X2818Y1125D02*
X3138Y1125D01*
D02*
X3939Y2475D02*
X3768Y2475D01*
D02*
X3768Y2475D02*
X3768Y2606D01*
D02*
X5568Y4075D02*
X5168Y4075D01*
D02*
X5568Y4001D02*
X5568Y4075D01*
D02*
X5168Y4075D02*
X5168Y4001D01*
D02*
X6468Y2825D02*
X6468Y2375D01*
D02*
X6087Y2825D02*
X6468Y2825D01*
D02*
X5568Y4249D02*
X5568Y4125D01*
D02*
X5568Y4125D02*
X6049Y4125D01*
D02*
X5468Y3875D02*
X5068Y3875D01*
D02*
X5468Y3949D02*
X5468Y3875D01*
D02*
X5068Y3875D02*
X5068Y3949D01*
D02*
X5249Y3775D02*
X4868Y3775D01*
D02*
X4868Y3775D02*
X4868Y3949D01*
D02*
X5987Y2925D02*
X6241Y2927D01*
D02*
X6418Y4025D02*
X6418Y4775D01*
D02*
X6149Y4175D02*
X5787Y4175D01*
D02*
X6531Y4025D02*
X6418Y4025D01*
D02*
X6468Y2375D02*
X6531Y2375D01*
D02*
X6241Y3476D02*
X6038Y3475D01*
D02*
X6137Y4027D02*
X6241Y4027D01*
D02*
X6241Y2377D02*
X5589Y2374D01*
D02*
X6418Y4775D02*
X5287Y4775D01*
D02*
X1287Y2425D02*
X3549Y2425D01*
D02*
X1168Y2175D02*
X3449Y2175D01*
D02*
X1168Y2104D02*
X1168Y2175D01*
D02*
X1068Y2225D02*
X3299Y2225D01*
D02*
X1068Y2104D02*
X1068Y2225D01*
D02*
X2718Y1156D02*
X2718Y825D01*
D02*
X2718Y825D02*
X3368Y825D01*
D02*
X3368Y825D02*
X3368Y995D01*
D02*
X2587Y1625D02*
X2699Y1625D01*
D02*
X968Y2325D02*
X2549Y2325D01*
D02*
X968Y2104D02*
X968Y2325D01*
D02*
X3268Y925D02*
X2768Y925D01*
D02*
X2768Y925D02*
X2768Y1056D01*
D02*
X2749Y2375D02*
X868Y2375D01*
D02*
X868Y2375D02*
X868Y2104D01*
D02*
X3268Y995D02*
X3268Y925D01*
D02*
X2468Y3225D02*
X3249Y3225D01*
D02*
X2468Y3875D02*
X2468Y3225D01*
D02*
X2568Y3875D02*
X2468Y3875D01*
D02*
X2568Y3751D02*
X2568Y3875D01*
D02*
X2987Y2675D02*
X3942Y2675D01*
D02*
X3668Y875D02*
X3849Y875D01*
D02*
X3849Y2075D02*
X1997Y2075D01*
D02*
X3668Y995D02*
X3668Y875D01*
D02*
X3799Y1575D02*
X3537Y1575D01*
D02*
X3499Y2725D02*
X1887Y2725D01*
D02*
X3568Y995D02*
X3568Y794D01*
D02*
X3749Y2625D02*
X1787Y2625D01*
D02*
X3649Y2475D02*
X1487Y2475D01*
D02*
X6799Y575D02*
X6618Y575D01*
D02*
X6618Y575D02*
X6618Y697D01*
D02*
X7442Y475D02*
X7187Y475D01*
D02*
X567Y3376D02*
X568Y3599D01*
D02*
X199Y3364D02*
X567Y3376D01*
D02*
X3119Y3727D02*
X2594Y3725D01*
D02*
X3118Y3891D02*
X3119Y3727D01*
D02*
X2417Y3194D02*
X2417Y4106D01*
D02*
X1967Y3577D02*
X1968Y3891D01*
D02*
X1667Y3577D02*
X1967Y3577D01*
D02*
X1667Y3427D02*
X1667Y3577D01*
D02*
X1068Y3427D02*
X1667Y3427D01*
D02*
X1068Y2904D02*
X1068Y3427D01*
D02*
X3968Y3123D02*
X1869Y3123D01*
D02*
X4169Y3123D02*
X3968Y3123D01*
D02*
X1869Y3123D02*
X1868Y3054D01*
D02*
X4168Y3001D02*
X4169Y3123D01*
D02*
X1238Y1875D02*
X168Y1876D01*
D02*
X168Y1876D02*
X168Y2224D01*
D02*
X519Y2224D02*
X601Y2184D01*
D02*
X168Y2224D02*
X519Y2224D01*
D02*
X637Y2725D02*
X1068Y2725D01*
D02*
X1068Y2725D02*
X1068Y2846D01*
D02*
X1920Y827D02*
X2220Y827D01*
D02*
X2220Y827D02*
X2219Y897D01*
D02*
X1919Y897D02*
X1920Y827D01*
D02*
X1316Y827D02*
X1620Y827D01*
D02*
X1620Y827D02*
X1619Y897D01*
D02*
X1318Y897D02*
X1316Y827D01*
D02*
X717Y827D02*
X1016Y827D01*
D02*
X1016Y827D02*
X1018Y897D01*
D02*
X718Y897D02*
X717Y827D01*
D02*
X4647Y3324D02*
X3738Y3324D01*
D02*
X4469Y2823D02*
X3888Y2823D01*
D02*
X4468Y2949D02*
X4469Y2823D01*
D02*
X739Y1525D02*
X497Y1525D01*
D02*
X1039Y1525D02*
X797Y1525D01*
D02*
X1339Y1525D02*
X1097Y1525D01*
D02*
X1397Y1525D02*
X1639Y1525D01*
D02*
X1697Y1525D02*
X1939Y1525D01*
D02*
X1997Y1525D02*
X2239Y1525D01*
D02*
X2297Y1525D02*
X2539Y1525D01*
D02*
X4549Y3526D02*
X3636Y3526D01*
D02*
X3598Y2776D02*
X2136Y2776D01*
D02*
X2117Y2875D02*
X4067Y2875D01*
D02*
X4067Y2875D02*
X4068Y2949D01*
D02*
X2117Y3025D02*
X2117Y2875D01*
D02*
X1997Y3025D02*
X2117Y3025D01*
D02*
X3468Y3599D02*
X3467Y3376D01*
D02*
X3467Y3376D02*
X2943Y3375D01*
D02*
X3237Y3727D02*
X3442Y3725D01*
D02*
X1798Y1875D02*
X3349Y1876D01*
D02*
X2000Y2275D02*
X1185Y2275D01*
D02*
X1536Y1624D02*
X2201Y1624D01*
D02*
X2201Y2674D02*
X1770Y2674D01*
D02*
X1770Y2674D02*
X1768Y2846D01*
D02*
X787Y1774D02*
X1368Y1774D01*
D02*
X1368Y1774D02*
X1368Y1845D01*
D02*
X2299Y1975D02*
X937Y1975D01*
D02*
X1569Y2524D02*
X2299Y2524D01*
D02*
X1568Y2846D02*
X1569Y2524D01*
D02*
X1686Y2575D02*
X2650Y2575D01*
D02*
X3700Y1426D02*
X2450Y1425D01*
D02*
X238Y2476D02*
X1349Y2476D01*
D02*
X519Y2725D02*
X187Y2725D01*
D02*
X519Y2674D02*
X519Y2725D01*
D02*
X1451Y2674D02*
X519Y2674D01*
D02*
X187Y1726D02*
X599Y1726D01*
D02*
X4685Y4425D02*
X5649Y4425D01*
D02*
X4886Y4524D02*
X6099Y4524D01*
D02*
X6001Y4626D02*
X4989Y4626D01*
D02*
X5088Y4725D02*
X5898Y4725D01*
D02*
X5551Y3676D02*
X4587Y3676D01*
D02*
X3152Y3925D02*
X4647Y3924D01*
D02*
X3387Y3826D02*
X4750Y3826D01*
D02*
X5369Y176D02*
X5368Y294D01*
D02*
X4919Y176D02*
X5369Y176D01*
D02*
X4928Y294D02*
X4919Y176D01*
D02*
X4589Y975D02*
X4347Y975D01*
D02*
X4739Y975D02*
X4647Y975D01*
D02*
X5039Y975D02*
X4797Y975D01*
D02*
X5189Y975D02*
X5097Y975D01*
D02*
X5489Y975D02*
X5247Y975D01*
D02*
X5639Y975D02*
X5547Y975D01*
D02*
X5939Y975D02*
X5697Y975D01*
D02*
X4235Y1825D02*
X4549Y1825D01*
D02*
X4137Y1675D02*
X4647Y1675D01*
D02*
X4619Y176D02*
X4137Y176D01*
D02*
X4628Y294D02*
X4619Y176D01*
D02*
X5748Y1375D02*
X5289Y1375D01*
D02*
X5851Y1474D02*
X5387Y1474D01*
D02*
X6918Y1225D02*
X3918Y1225D01*
D02*
X3918Y1225D02*
X3918Y1727D01*
D02*
X3918Y1727D02*
X1414Y1727D01*
D02*
X1414Y1727D02*
X1414Y1623D01*
D02*
X1414Y1623D02*
X1170Y1623D01*
D02*
X1170Y1623D02*
X485Y1623D01*
D02*
X6918Y1054D02*
X6918Y1225D01*
D02*
X5487Y2275D02*
X6799Y2275D01*
D02*
X4198Y3425D02*
X5449Y3425D01*
D02*
X7468Y1025D02*
X6947Y1025D01*
D02*
X7468Y854D02*
X7468Y1025D01*
D02*
X6168Y475D02*
X6168Y556D01*
D02*
X6918Y475D02*
X6168Y475D01*
D02*
X6149Y1725D02*
X5368Y1725D01*
D02*
X5368Y1725D02*
X5368Y2325D01*
D02*
X5368Y2325D02*
X3837Y2325D01*
D02*
X6918Y697D02*
X6918Y475D01*
D02*
X5968Y2825D02*
X5968Y2544D01*
D02*
X5268Y2825D02*
X5968Y2825D01*
D02*
X5268Y2949D02*
X5268Y2825D01*
D02*
X3787Y2825D02*
X3850Y2824D01*
D02*
X2436Y3175D02*
X3049Y3175D01*
D02*
X4289Y975D02*
X3868Y975D01*
D02*
X3868Y975D02*
X3868Y1225D01*
D02*
X3868Y1225D02*
X3168Y1225D01*
D02*
X3168Y1225D02*
X3168Y1155D01*
G54D33*
X4866Y4311D02*
X4868Y4311D01*
X4966Y4311D02*
X4968Y4311D01*
X5066Y4311D02*
X5068Y4311D01*
X5166Y4311D02*
X5168Y4311D01*
X5266Y4311D02*
X5268Y4311D01*
X5366Y4311D02*
X5368Y4311D01*
X5466Y4311D02*
X5468Y4311D01*
X5566Y4311D02*
X5568Y4311D01*
X5666Y4311D02*
X5668Y4311D01*
X4860Y4310D02*
X4874Y4310D01*
X4960Y4310D02*
X4974Y4310D01*
X5060Y4310D02*
X5074Y4310D01*
X5160Y4310D02*
X5174Y4310D01*
X5259Y4310D02*
X5274Y4310D01*
X5359Y4310D02*
X5374Y4310D01*
X5459Y4310D02*
X5474Y4310D01*
X5559Y4310D02*
X5574Y4310D01*
X5659Y4310D02*
X5674Y4310D01*
X4856Y4309D02*
X4878Y4309D01*
X4956Y4309D02*
X4978Y4309D01*
X5056Y4309D02*
X5078Y4309D01*
X5156Y4309D02*
X5178Y4309D01*
X5256Y4309D02*
X5278Y4309D01*
X5356Y4309D02*
X5378Y4309D01*
X5456Y4309D02*
X5478Y4309D01*
X5556Y4309D02*
X5578Y4309D01*
X5656Y4309D02*
X5678Y4309D01*
X4854Y4308D02*
X4880Y4308D01*
X4954Y4308D02*
X4980Y4308D01*
X5054Y4308D02*
X5080Y4308D01*
X5154Y4308D02*
X5180Y4308D01*
X5254Y4308D02*
X5280Y4308D01*
X5354Y4308D02*
X5380Y4308D01*
X5454Y4308D02*
X5480Y4308D01*
X5554Y4308D02*
X5580Y4308D01*
X5654Y4308D02*
X5680Y4308D01*
X4851Y4307D02*
X4882Y4307D01*
X4951Y4307D02*
X4982Y4307D01*
X5051Y4307D02*
X5082Y4307D01*
X5151Y4307D02*
X5182Y4307D01*
X5251Y4307D02*
X5282Y4307D01*
X5351Y4307D02*
X5382Y4307D01*
X5451Y4307D02*
X5482Y4307D01*
X5551Y4307D02*
X5582Y4307D01*
X5651Y4307D02*
X5682Y4307D01*
X4850Y4306D02*
X4884Y4306D01*
X4950Y4306D02*
X4984Y4306D01*
X5050Y4306D02*
X5084Y4306D01*
X5150Y4306D02*
X5184Y4306D01*
X5250Y4306D02*
X5284Y4306D01*
X5350Y4306D02*
X5384Y4306D01*
X5450Y4306D02*
X5484Y4306D01*
X5550Y4306D02*
X5584Y4306D01*
X5650Y4306D02*
X5684Y4306D01*
X4848Y4305D02*
X4886Y4305D01*
X4948Y4305D02*
X4986Y4305D01*
X5048Y4305D02*
X5086Y4305D01*
X5148Y4305D02*
X5186Y4305D01*
X5248Y4305D02*
X5286Y4305D01*
X5348Y4305D02*
X5386Y4305D01*
X5448Y4305D02*
X5486Y4305D01*
X5548Y4305D02*
X5586Y4305D01*
X5648Y4305D02*
X5686Y4305D01*
X4847Y4304D02*
X4887Y4304D01*
X4947Y4304D02*
X4987Y4304D01*
X5047Y4304D02*
X5087Y4304D01*
X5147Y4304D02*
X5187Y4304D01*
X5246Y4304D02*
X5287Y4304D01*
X5346Y4304D02*
X5387Y4304D01*
X5446Y4304D02*
X5487Y4304D01*
X5546Y4304D02*
X5587Y4304D01*
X5646Y4304D02*
X5687Y4304D01*
X4845Y4303D02*
X4889Y4303D01*
X4945Y4303D02*
X4989Y4303D01*
X5045Y4303D02*
X5089Y4303D01*
X5145Y4303D02*
X5189Y4303D01*
X5245Y4303D02*
X5289Y4303D01*
X5345Y4303D02*
X5389Y4303D01*
X5445Y4303D02*
X5489Y4303D01*
X5545Y4303D02*
X5589Y4303D01*
X5645Y4303D02*
X5689Y4303D01*
X4844Y4302D02*
X4890Y4302D01*
X4944Y4302D02*
X4990Y4302D01*
X5044Y4302D02*
X5090Y4302D01*
X5144Y4302D02*
X5190Y4302D01*
X5244Y4302D02*
X5290Y4302D01*
X5344Y4302D02*
X5390Y4302D01*
X5444Y4302D02*
X5490Y4302D01*
X5544Y4302D02*
X5590Y4302D01*
X5644Y4302D02*
X5690Y4302D01*
X4843Y4301D02*
X4891Y4301D01*
X4943Y4301D02*
X4991Y4301D01*
X5043Y4301D02*
X5091Y4301D01*
X5143Y4301D02*
X5191Y4301D01*
X5243Y4301D02*
X5291Y4301D01*
X5343Y4301D02*
X5391Y4301D01*
X5443Y4301D02*
X5491Y4301D01*
X5543Y4301D02*
X5591Y4301D01*
X5643Y4301D02*
X5691Y4301D01*
X4842Y4300D02*
X4892Y4300D01*
X4942Y4300D02*
X4992Y4300D01*
X5042Y4300D02*
X5092Y4300D01*
X5142Y4300D02*
X5192Y4300D01*
X5242Y4300D02*
X5292Y4300D01*
X5342Y4300D02*
X5392Y4300D01*
X5442Y4300D02*
X5492Y4300D01*
X5542Y4300D02*
X5592Y4300D01*
X5642Y4300D02*
X5692Y4300D01*
X4841Y4299D02*
X4893Y4299D01*
X4941Y4299D02*
X4993Y4299D01*
X5041Y4299D02*
X5093Y4299D01*
X5141Y4299D02*
X5193Y4299D01*
X5241Y4299D02*
X5293Y4299D01*
X5341Y4299D02*
X5393Y4299D01*
X5441Y4299D02*
X5493Y4299D01*
X5541Y4299D02*
X5593Y4299D01*
X5641Y4299D02*
X5693Y4299D01*
X4840Y4298D02*
X4894Y4298D01*
X4940Y4298D02*
X4994Y4298D01*
X5040Y4298D02*
X5094Y4298D01*
X5140Y4298D02*
X5194Y4298D01*
X5240Y4298D02*
X5294Y4298D01*
X5340Y4298D02*
X5394Y4298D01*
X5440Y4298D02*
X5494Y4298D01*
X5540Y4298D02*
X5594Y4298D01*
X5640Y4298D02*
X5694Y4298D01*
X4840Y4297D02*
X4894Y4297D01*
X4940Y4297D02*
X4994Y4297D01*
X5040Y4297D02*
X5094Y4297D01*
X5140Y4297D02*
X5194Y4297D01*
X5239Y4297D02*
X5294Y4297D01*
X5339Y4297D02*
X5394Y4297D01*
X5439Y4297D02*
X5494Y4297D01*
X5539Y4297D02*
X5594Y4297D01*
X5639Y4297D02*
X5694Y4297D01*
X4839Y4296D02*
X4895Y4296D01*
X4939Y4296D02*
X4995Y4296D01*
X5039Y4296D02*
X5095Y4296D01*
X5139Y4296D02*
X5195Y4296D01*
X5239Y4296D02*
X5295Y4296D01*
X5339Y4296D02*
X5395Y4296D01*
X5439Y4296D02*
X5495Y4296D01*
X5539Y4296D02*
X5595Y4296D01*
X5639Y4296D02*
X5695Y4296D01*
X4838Y4295D02*
X4896Y4295D01*
X4938Y4295D02*
X4996Y4295D01*
X5038Y4295D02*
X5096Y4295D01*
X5138Y4295D02*
X5196Y4295D01*
X5238Y4295D02*
X5296Y4295D01*
X5338Y4295D02*
X5396Y4295D01*
X5438Y4295D02*
X5496Y4295D01*
X5538Y4295D02*
X5596Y4295D01*
X5638Y4295D02*
X5696Y4295D01*
X4838Y4294D02*
X4896Y4294D01*
X4938Y4294D02*
X4996Y4294D01*
X5038Y4294D02*
X5096Y4294D01*
X5138Y4294D02*
X5196Y4294D01*
X5238Y4294D02*
X5296Y4294D01*
X5338Y4294D02*
X5396Y4294D01*
X5438Y4294D02*
X5496Y4294D01*
X5538Y4294D02*
X5596Y4294D01*
X5638Y4294D02*
X5696Y4294D01*
X4837Y4293D02*
X4897Y4293D01*
X4937Y4293D02*
X4997Y4293D01*
X5037Y4293D02*
X5097Y4293D01*
X5137Y4293D02*
X5197Y4293D01*
X5237Y4293D02*
X5297Y4293D01*
X5337Y4293D02*
X5397Y4293D01*
X5437Y4293D02*
X5497Y4293D01*
X5537Y4293D02*
X5597Y4293D01*
X5637Y4293D02*
X5697Y4293D01*
X4837Y4292D02*
X4897Y4292D01*
X4936Y4292D02*
X4997Y4292D01*
X5036Y4292D02*
X5097Y4292D01*
X5136Y4292D02*
X5197Y4292D01*
X5236Y4292D02*
X5297Y4292D01*
X5336Y4292D02*
X5397Y4292D01*
X5436Y4292D02*
X5497Y4292D01*
X5536Y4292D02*
X5597Y4292D01*
X5636Y4292D02*
X5697Y4292D01*
X4836Y4291D02*
X4865Y4291D01*
X4869Y4291D02*
X4898Y4291D01*
X4936Y4291D02*
X4965Y4291D01*
X4969Y4291D02*
X4998Y4291D01*
X5036Y4291D02*
X5065Y4291D01*
X5068Y4291D02*
X5098Y4291D01*
X5136Y4291D02*
X5165Y4291D01*
X5168Y4291D02*
X5198Y4291D01*
X5236Y4291D02*
X5265Y4291D01*
X5268Y4291D02*
X5298Y4291D01*
X5336Y4291D02*
X5365Y4291D01*
X5368Y4291D02*
X5398Y4291D01*
X5436Y4291D02*
X5465Y4291D01*
X5468Y4291D02*
X5498Y4291D01*
X5536Y4291D02*
X5565Y4291D01*
X5568Y4291D02*
X5598Y4291D01*
X5636Y4291D02*
X5665Y4291D01*
X5668Y4291D02*
X5698Y4291D01*
X4836Y4290D02*
X4860Y4290D01*
X4873Y4290D02*
X4898Y4290D01*
X4936Y4290D02*
X4960Y4290D01*
X4973Y4290D02*
X4998Y4290D01*
X5036Y4290D02*
X5060Y4290D01*
X5073Y4290D02*
X5098Y4290D01*
X5136Y4290D02*
X5160Y4290D01*
X5173Y4290D02*
X5198Y4290D01*
X5236Y4290D02*
X5260Y4290D01*
X5273Y4290D02*
X5298Y4290D01*
X5336Y4290D02*
X5360Y4290D01*
X5373Y4290D02*
X5398Y4290D01*
X5435Y4290D02*
X5460Y4290D01*
X5473Y4290D02*
X5498Y4290D01*
X5535Y4290D02*
X5560Y4290D01*
X5573Y4290D02*
X5598Y4290D01*
X5635Y4290D02*
X5660Y4290D01*
X5673Y4290D02*
X5698Y4290D01*
X4835Y4289D02*
X4859Y4289D01*
X4875Y4289D02*
X4899Y4289D01*
X4935Y4289D02*
X4959Y4289D01*
X4975Y4289D02*
X4999Y4289D01*
X5035Y4289D02*
X5059Y4289D01*
X5075Y4289D02*
X5099Y4289D01*
X5135Y4289D02*
X5159Y4289D01*
X5175Y4289D02*
X5199Y4289D01*
X5235Y4289D02*
X5259Y4289D01*
X5275Y4289D02*
X5299Y4289D01*
X5335Y4289D02*
X5359Y4289D01*
X5375Y4289D02*
X5399Y4289D01*
X5435Y4289D02*
X5459Y4289D01*
X5475Y4289D02*
X5499Y4289D01*
X5535Y4289D02*
X5559Y4289D01*
X5575Y4289D02*
X5599Y4289D01*
X5635Y4289D02*
X5659Y4289D01*
X5675Y4289D02*
X5699Y4289D01*
X4835Y4288D02*
X4857Y4288D01*
X4877Y4288D02*
X4899Y4288D01*
X4935Y4288D02*
X4957Y4288D01*
X4977Y4288D02*
X4999Y4288D01*
X5035Y4288D02*
X5057Y4288D01*
X5077Y4288D02*
X5099Y4288D01*
X5135Y4288D02*
X5157Y4288D01*
X5177Y4288D02*
X5199Y4288D01*
X5235Y4288D02*
X5257Y4288D01*
X5276Y4288D02*
X5299Y4288D01*
X5335Y4288D02*
X5357Y4288D01*
X5376Y4288D02*
X5399Y4288D01*
X5435Y4288D02*
X5457Y4288D01*
X5476Y4288D02*
X5499Y4288D01*
X5535Y4288D02*
X5557Y4288D01*
X5576Y4288D02*
X5599Y4288D01*
X5635Y4288D02*
X5657Y4288D01*
X5676Y4288D02*
X5699Y4288D01*
X4834Y4287D02*
X4856Y4287D01*
X4878Y4287D02*
X4900Y4287D01*
X4934Y4287D02*
X4956Y4287D01*
X4978Y4287D02*
X4999Y4287D01*
X5034Y4287D02*
X5056Y4287D01*
X5078Y4287D02*
X5099Y4287D01*
X5134Y4287D02*
X5156Y4287D01*
X5178Y4287D02*
X5199Y4287D01*
X5234Y4287D02*
X5256Y4287D01*
X5278Y4287D02*
X5299Y4287D01*
X5334Y4287D02*
X5356Y4287D01*
X5378Y4287D02*
X5399Y4287D01*
X5434Y4287D02*
X5456Y4287D01*
X5478Y4287D02*
X5499Y4287D01*
X5534Y4287D02*
X5556Y4287D01*
X5578Y4287D02*
X5599Y4287D01*
X5634Y4287D02*
X5656Y4287D01*
X5678Y4287D02*
X5699Y4287D01*
X4834Y4286D02*
X4855Y4286D01*
X4879Y4286D02*
X4900Y4286D01*
X4934Y4286D02*
X4955Y4286D01*
X4979Y4286D02*
X5000Y4286D01*
X5034Y4286D02*
X5055Y4286D01*
X5079Y4286D02*
X5100Y4286D01*
X5134Y4286D02*
X5155Y4286D01*
X5179Y4286D02*
X5200Y4286D01*
X5234Y4286D02*
X5255Y4286D01*
X5279Y4286D02*
X5300Y4286D01*
X5334Y4286D02*
X5355Y4286D01*
X5379Y4286D02*
X5400Y4286D01*
X5434Y4286D02*
X5455Y4286D01*
X5479Y4286D02*
X5500Y4286D01*
X5534Y4286D02*
X5555Y4286D01*
X5579Y4286D02*
X5600Y4286D01*
X5634Y4286D02*
X5655Y4286D01*
X5679Y4286D02*
X5700Y4286D01*
X4834Y4285D02*
X4854Y4285D01*
X4880Y4285D02*
X4900Y4285D01*
X4934Y4285D02*
X4954Y4285D01*
X4980Y4285D02*
X5000Y4285D01*
X5034Y4285D02*
X5054Y4285D01*
X5079Y4285D02*
X5100Y4285D01*
X5134Y4285D02*
X5154Y4285D01*
X5179Y4285D02*
X5200Y4285D01*
X5234Y4285D02*
X5254Y4285D01*
X5279Y4285D02*
X5300Y4285D01*
X5334Y4285D02*
X5354Y4285D01*
X5379Y4285D02*
X5400Y4285D01*
X5434Y4285D02*
X5454Y4285D01*
X5479Y4285D02*
X5500Y4285D01*
X5534Y4285D02*
X5554Y4285D01*
X5579Y4285D02*
X5600Y4285D01*
X5634Y4285D02*
X5654Y4285D01*
X5679Y4285D02*
X5700Y4285D01*
X4834Y4284D02*
X4854Y4284D01*
X4880Y4284D02*
X4900Y4284D01*
X4934Y4284D02*
X4954Y4284D01*
X4980Y4284D02*
X5000Y4284D01*
X5034Y4284D02*
X5054Y4284D01*
X5080Y4284D02*
X5100Y4284D01*
X5133Y4284D02*
X5154Y4284D01*
X5180Y4284D02*
X5200Y4284D01*
X5233Y4284D02*
X5254Y4284D01*
X5280Y4284D02*
X5300Y4284D01*
X5333Y4284D02*
X5354Y4284D01*
X5380Y4284D02*
X5400Y4284D01*
X5433Y4284D02*
X5454Y4284D01*
X5480Y4284D02*
X5500Y4284D01*
X5533Y4284D02*
X5554Y4284D01*
X5580Y4284D02*
X5600Y4284D01*
X5633Y4284D02*
X5654Y4284D01*
X5680Y4284D02*
X5700Y4284D01*
X4833Y4283D02*
X4853Y4283D01*
X4881Y4283D02*
X4901Y4283D01*
X4933Y4283D02*
X4953Y4283D01*
X4981Y4283D02*
X5001Y4283D01*
X5033Y4283D02*
X5053Y4283D01*
X5081Y4283D02*
X5101Y4283D01*
X5133Y4283D02*
X5153Y4283D01*
X5181Y4283D02*
X5201Y4283D01*
X5233Y4283D02*
X5253Y4283D01*
X5281Y4283D02*
X5301Y4283D01*
X5333Y4283D02*
X5353Y4283D01*
X5381Y4283D02*
X5401Y4283D01*
X5433Y4283D02*
X5453Y4283D01*
X5481Y4283D02*
X5501Y4283D01*
X5533Y4283D02*
X5553Y4283D01*
X5581Y4283D02*
X5601Y4283D01*
X5633Y4283D02*
X5653Y4283D01*
X5681Y4283D02*
X5701Y4283D01*
X4833Y4282D02*
X4853Y4282D01*
X4881Y4282D02*
X4901Y4282D01*
X4933Y4282D02*
X4952Y4282D01*
X4981Y4282D02*
X5001Y4282D01*
X5033Y4282D02*
X5052Y4282D01*
X5081Y4282D02*
X5101Y4282D01*
X5133Y4282D02*
X5152Y4282D01*
X5181Y4282D02*
X5201Y4282D01*
X5233Y4282D02*
X5252Y4282D01*
X5281Y4282D02*
X5301Y4282D01*
X5333Y4282D02*
X5352Y4282D01*
X5381Y4282D02*
X5401Y4282D01*
X5433Y4282D02*
X5452Y4282D01*
X5481Y4282D02*
X5501Y4282D01*
X5533Y4282D02*
X5552Y4282D01*
X5581Y4282D02*
X5601Y4282D01*
X5633Y4282D02*
X5652Y4282D01*
X5681Y4282D02*
X5701Y4282D01*
X4833Y4281D02*
X4852Y4281D01*
X4882Y4281D02*
X4901Y4281D01*
X4933Y4281D02*
X4952Y4281D01*
X4982Y4281D02*
X5001Y4281D01*
X5033Y4281D02*
X5052Y4281D01*
X5082Y4281D02*
X5101Y4281D01*
X5133Y4281D02*
X5152Y4281D01*
X5182Y4281D02*
X5201Y4281D01*
X5233Y4281D02*
X5252Y4281D01*
X5282Y4281D02*
X5301Y4281D01*
X5333Y4281D02*
X5352Y4281D01*
X5382Y4281D02*
X5401Y4281D01*
X5433Y4281D02*
X5452Y4281D01*
X5482Y4281D02*
X5501Y4281D01*
X5533Y4281D02*
X5552Y4281D01*
X5582Y4281D02*
X5601Y4281D01*
X5633Y4281D02*
X5652Y4281D01*
X5682Y4281D02*
X5701Y4281D01*
X4833Y4280D02*
X4852Y4280D01*
X4882Y4280D02*
X4901Y4280D01*
X4933Y4280D02*
X4952Y4280D01*
X4982Y4280D02*
X5001Y4280D01*
X5033Y4280D02*
X5052Y4280D01*
X5082Y4280D02*
X5101Y4280D01*
X5133Y4280D02*
X5152Y4280D01*
X5182Y4280D02*
X5201Y4280D01*
X5233Y4280D02*
X5252Y4280D01*
X5282Y4280D02*
X5301Y4280D01*
X5333Y4280D02*
X5352Y4280D01*
X5382Y4280D02*
X5401Y4280D01*
X5433Y4280D02*
X5452Y4280D01*
X5482Y4280D02*
X5501Y4280D01*
X5533Y4280D02*
X5552Y4280D01*
X5582Y4280D02*
X5601Y4280D01*
X5633Y4280D02*
X5652Y4280D01*
X5682Y4280D02*
X5701Y4280D01*
X4833Y4279D02*
X4852Y4279D01*
X4882Y4279D02*
X4901Y4279D01*
X4933Y4279D02*
X4952Y4279D01*
X4982Y4279D02*
X5001Y4279D01*
X5033Y4279D02*
X5052Y4279D01*
X5082Y4279D02*
X5101Y4279D01*
X5133Y4279D02*
X5152Y4279D01*
X5182Y4279D02*
X5201Y4279D01*
X5233Y4279D02*
X5252Y4279D01*
X5282Y4279D02*
X5301Y4279D01*
X5333Y4279D02*
X5352Y4279D01*
X5382Y4279D02*
X5401Y4279D01*
X5433Y4279D02*
X5452Y4279D01*
X5482Y4279D02*
X5501Y4279D01*
X5533Y4279D02*
X5552Y4279D01*
X5582Y4279D02*
X5601Y4279D01*
X5633Y4279D02*
X5652Y4279D01*
X5682Y4279D02*
X5701Y4279D01*
X4833Y4278D02*
X4852Y4278D01*
X4882Y4278D02*
X4901Y4278D01*
X4933Y4278D02*
X4952Y4278D01*
X4982Y4278D02*
X5001Y4278D01*
X5033Y4278D02*
X5052Y4278D01*
X5082Y4278D02*
X5101Y4278D01*
X5133Y4278D02*
X5152Y4278D01*
X5182Y4278D02*
X5201Y4278D01*
X5233Y4278D02*
X5252Y4278D01*
X5282Y4278D02*
X5301Y4278D01*
X5333Y4278D02*
X5352Y4278D01*
X5382Y4278D02*
X5401Y4278D01*
X5432Y4278D02*
X5452Y4278D01*
X5482Y4278D02*
X5501Y4278D01*
X5532Y4278D02*
X5552Y4278D01*
X5582Y4278D02*
X5601Y4278D01*
X5632Y4278D02*
X5652Y4278D01*
X5682Y4278D02*
X5701Y4278D01*
X4833Y4277D02*
X4852Y4277D01*
X4882Y4277D02*
X4901Y4277D01*
X4933Y4277D02*
X4952Y4277D01*
X4982Y4277D02*
X5001Y4277D01*
X5032Y4277D02*
X5052Y4277D01*
X5082Y4277D02*
X5101Y4277D01*
X5132Y4277D02*
X5151Y4277D01*
X5182Y4277D02*
X5201Y4277D01*
X5232Y4277D02*
X5251Y4277D01*
X5282Y4277D02*
X5301Y4277D01*
X5332Y4277D02*
X5351Y4277D01*
X5382Y4277D02*
X5401Y4277D01*
X5432Y4277D02*
X5451Y4277D01*
X5482Y4277D02*
X5501Y4277D01*
X5532Y4277D02*
X5551Y4277D01*
X5582Y4277D02*
X5601Y4277D01*
X5632Y4277D02*
X5651Y4277D01*
X5682Y4277D02*
X5701Y4277D01*
X4832Y4276D02*
X4851Y4276D01*
X4882Y4276D02*
X4901Y4276D01*
X4932Y4276D02*
X4951Y4276D01*
X4982Y4276D02*
X5001Y4276D01*
X5032Y4276D02*
X5051Y4276D01*
X5082Y4276D02*
X5101Y4276D01*
X5132Y4276D02*
X5151Y4276D01*
X5182Y4276D02*
X5201Y4276D01*
X5232Y4276D02*
X5251Y4276D01*
X5282Y4276D02*
X5301Y4276D01*
X5332Y4276D02*
X5351Y4276D01*
X5382Y4276D02*
X5401Y4276D01*
X5432Y4276D02*
X5451Y4276D01*
X5482Y4276D02*
X5501Y4276D01*
X5532Y4276D02*
X5551Y4276D01*
X5582Y4276D02*
X5601Y4276D01*
X5632Y4276D02*
X5651Y4276D01*
X5682Y4276D02*
X5701Y4276D01*
X4833Y4275D02*
X4852Y4275D01*
X4882Y4275D02*
X4901Y4275D01*
X4933Y4275D02*
X4952Y4275D01*
X4982Y4275D02*
X5001Y4275D01*
X5032Y4275D02*
X5052Y4275D01*
X5082Y4275D02*
X5101Y4275D01*
X5132Y4275D02*
X5152Y4275D01*
X5182Y4275D02*
X5201Y4275D01*
X5232Y4275D02*
X5251Y4275D01*
X5282Y4275D02*
X5301Y4275D01*
X5332Y4275D02*
X5351Y4275D01*
X5382Y4275D02*
X5401Y4275D01*
X5432Y4275D02*
X5451Y4275D01*
X5482Y4275D02*
X5501Y4275D01*
X5532Y4275D02*
X5551Y4275D01*
X5582Y4275D02*
X5601Y4275D01*
X5632Y4275D02*
X5651Y4275D01*
X5682Y4275D02*
X5701Y4275D01*
X4833Y4274D02*
X4852Y4274D01*
X4882Y4274D02*
X4901Y4274D01*
X4933Y4274D02*
X4952Y4274D01*
X4982Y4274D02*
X5001Y4274D01*
X5033Y4274D02*
X5052Y4274D01*
X5082Y4274D02*
X5101Y4274D01*
X5133Y4274D02*
X5152Y4274D01*
X5182Y4274D02*
X5201Y4274D01*
X5233Y4274D02*
X5252Y4274D01*
X5282Y4274D02*
X5301Y4274D01*
X5333Y4274D02*
X5352Y4274D01*
X5382Y4274D02*
X5401Y4274D01*
X5433Y4274D02*
X5452Y4274D01*
X5482Y4274D02*
X5501Y4274D01*
X5532Y4274D02*
X5552Y4274D01*
X5582Y4274D02*
X5601Y4274D01*
X5632Y4274D02*
X5652Y4274D01*
X5682Y4274D02*
X5701Y4274D01*
X4833Y4273D02*
X4852Y4273D01*
X4882Y4273D02*
X4901Y4273D01*
X4933Y4273D02*
X4952Y4273D01*
X4982Y4273D02*
X5001Y4273D01*
X5033Y4273D02*
X5052Y4273D01*
X5082Y4273D02*
X5101Y4273D01*
X5133Y4273D02*
X5152Y4273D01*
X5182Y4273D02*
X5201Y4273D01*
X5233Y4273D02*
X5252Y4273D01*
X5282Y4273D02*
X5301Y4273D01*
X5333Y4273D02*
X5352Y4273D01*
X5382Y4273D02*
X5401Y4273D01*
X5433Y4273D02*
X5452Y4273D01*
X5482Y4273D02*
X5501Y4273D01*
X5533Y4273D02*
X5552Y4273D01*
X5582Y4273D02*
X5601Y4273D01*
X5633Y4273D02*
X5652Y4273D01*
X5682Y4273D02*
X5701Y4273D01*
X4833Y4272D02*
X4852Y4272D01*
X4882Y4272D02*
X4901Y4272D01*
X4933Y4272D02*
X4952Y4272D01*
X4982Y4272D02*
X5001Y4272D01*
X5033Y4272D02*
X5052Y4272D01*
X5082Y4272D02*
X5101Y4272D01*
X5133Y4272D02*
X5152Y4272D01*
X5182Y4272D02*
X5201Y4272D01*
X5233Y4272D02*
X5252Y4272D01*
X5282Y4272D02*
X5301Y4272D01*
X5333Y4272D02*
X5352Y4272D01*
X5382Y4272D02*
X5401Y4272D01*
X5433Y4272D02*
X5452Y4272D01*
X5482Y4272D02*
X5501Y4272D01*
X5533Y4272D02*
X5552Y4272D01*
X5582Y4272D02*
X5601Y4272D01*
X5633Y4272D02*
X5652Y4272D01*
X5682Y4272D02*
X5701Y4272D01*
X4833Y4271D02*
X4852Y4271D01*
X4882Y4271D02*
X4901Y4271D01*
X4933Y4271D02*
X4952Y4271D01*
X4982Y4271D02*
X5001Y4271D01*
X5033Y4271D02*
X5052Y4271D01*
X5082Y4271D02*
X5101Y4271D01*
X5133Y4271D02*
X5152Y4271D01*
X5182Y4271D02*
X5201Y4271D01*
X5233Y4271D02*
X5252Y4271D01*
X5282Y4271D02*
X5301Y4271D01*
X5333Y4271D02*
X5352Y4271D01*
X5382Y4271D02*
X5401Y4271D01*
X5433Y4271D02*
X5452Y4271D01*
X5482Y4271D02*
X5501Y4271D01*
X5533Y4271D02*
X5552Y4271D01*
X5582Y4271D02*
X5601Y4271D01*
X5633Y4271D02*
X5652Y4271D01*
X5682Y4271D02*
X5701Y4271D01*
X4833Y4270D02*
X4853Y4270D01*
X4881Y4270D02*
X4901Y4270D01*
X4933Y4270D02*
X4953Y4270D01*
X4981Y4270D02*
X5001Y4270D01*
X5033Y4270D02*
X5053Y4270D01*
X5081Y4270D02*
X5101Y4270D01*
X5133Y4270D02*
X5153Y4270D01*
X5181Y4270D02*
X5201Y4270D01*
X5233Y4270D02*
X5253Y4270D01*
X5281Y4270D02*
X5301Y4270D01*
X5333Y4270D02*
X5353Y4270D01*
X5381Y4270D02*
X5401Y4270D01*
X5433Y4270D02*
X5452Y4270D01*
X5481Y4270D02*
X5501Y4270D01*
X5533Y4270D02*
X5552Y4270D01*
X5581Y4270D02*
X5601Y4270D01*
X5633Y4270D02*
X5652Y4270D01*
X5681Y4270D02*
X5701Y4270D01*
X4833Y4269D02*
X4853Y4269D01*
X4881Y4269D02*
X4901Y4269D01*
X4933Y4269D02*
X4953Y4269D01*
X4981Y4269D02*
X5001Y4269D01*
X5033Y4269D02*
X5053Y4269D01*
X5081Y4269D02*
X5101Y4269D01*
X5133Y4269D02*
X5153Y4269D01*
X5181Y4269D02*
X5201Y4269D01*
X5233Y4269D02*
X5253Y4269D01*
X5281Y4269D02*
X5301Y4269D01*
X5333Y4269D02*
X5353Y4269D01*
X5381Y4269D02*
X5401Y4269D01*
X5433Y4269D02*
X5453Y4269D01*
X5481Y4269D02*
X5501Y4269D01*
X5533Y4269D02*
X5553Y4269D01*
X5581Y4269D02*
X5601Y4269D01*
X5633Y4269D02*
X5653Y4269D01*
X5681Y4269D02*
X5701Y4269D01*
X4834Y4268D02*
X4854Y4268D01*
X4880Y4268D02*
X4900Y4268D01*
X4934Y4268D02*
X4954Y4268D01*
X4980Y4268D02*
X5000Y4268D01*
X5034Y4268D02*
X5054Y4268D01*
X5080Y4268D02*
X5100Y4268D01*
X5134Y4268D02*
X5154Y4268D01*
X5180Y4268D02*
X5200Y4268D01*
X5234Y4268D02*
X5254Y4268D01*
X5280Y4268D02*
X5300Y4268D01*
X5334Y4268D02*
X5354Y4268D01*
X5380Y4268D02*
X5400Y4268D01*
X5433Y4268D02*
X5454Y4268D01*
X5480Y4268D02*
X5500Y4268D01*
X5533Y4268D02*
X5554Y4268D01*
X5580Y4268D02*
X5600Y4268D01*
X5633Y4268D02*
X5654Y4268D01*
X5680Y4268D02*
X5700Y4268D01*
X4834Y4267D02*
X4855Y4267D01*
X4879Y4267D02*
X4900Y4267D01*
X4934Y4267D02*
X4955Y4267D01*
X4979Y4267D02*
X5000Y4267D01*
X5034Y4267D02*
X5054Y4267D01*
X5079Y4267D02*
X5100Y4267D01*
X5134Y4267D02*
X5154Y4267D01*
X5179Y4267D02*
X5200Y4267D01*
X5234Y4267D02*
X5254Y4267D01*
X5279Y4267D02*
X5300Y4267D01*
X5334Y4267D02*
X5354Y4267D01*
X5379Y4267D02*
X5400Y4267D01*
X5434Y4267D02*
X5454Y4267D01*
X5479Y4267D02*
X5500Y4267D01*
X5534Y4267D02*
X5554Y4267D01*
X5579Y4267D02*
X5600Y4267D01*
X5634Y4267D02*
X5654Y4267D01*
X5679Y4267D02*
X5700Y4267D01*
X4834Y4266D02*
X4855Y4266D01*
X4879Y4266D02*
X4900Y4266D01*
X4934Y4266D02*
X4955Y4266D01*
X4979Y4266D02*
X5000Y4266D01*
X5034Y4266D02*
X5055Y4266D01*
X5079Y4266D02*
X5100Y4266D01*
X5134Y4266D02*
X5155Y4266D01*
X5178Y4266D02*
X5200Y4266D01*
X5234Y4266D02*
X5255Y4266D01*
X5278Y4266D02*
X5300Y4266D01*
X5334Y4266D02*
X5355Y4266D01*
X5378Y4266D02*
X5400Y4266D01*
X5434Y4266D02*
X5455Y4266D01*
X5478Y4266D02*
X5500Y4266D01*
X5534Y4266D02*
X5555Y4266D01*
X5578Y4266D02*
X5600Y4266D01*
X5634Y4266D02*
X5655Y4266D01*
X5678Y4266D02*
X5700Y4266D01*
X4834Y4265D02*
X4856Y4265D01*
X4878Y4265D02*
X4899Y4265D01*
X4934Y4265D02*
X4956Y4265D01*
X4978Y4265D02*
X4999Y4265D01*
X5034Y4265D02*
X5056Y4265D01*
X5078Y4265D02*
X5099Y4265D01*
X5134Y4265D02*
X5156Y4265D01*
X5177Y4265D02*
X5199Y4265D01*
X5234Y4265D02*
X5256Y4265D01*
X5277Y4265D02*
X5299Y4265D01*
X5334Y4265D02*
X5356Y4265D01*
X5377Y4265D02*
X5399Y4265D01*
X5434Y4265D02*
X5456Y4265D01*
X5477Y4265D02*
X5499Y4265D01*
X5534Y4265D02*
X5556Y4265D01*
X5577Y4265D02*
X5599Y4265D01*
X5634Y4265D02*
X5656Y4265D01*
X5677Y4265D02*
X5699Y4265D01*
X4835Y4264D02*
X4858Y4264D01*
X4876Y4264D02*
X4899Y4264D01*
X4935Y4264D02*
X4958Y4264D01*
X4976Y4264D02*
X4999Y4264D01*
X5035Y4264D02*
X5058Y4264D01*
X5076Y4264D02*
X5099Y4264D01*
X5135Y4264D02*
X5157Y4264D01*
X5176Y4264D02*
X5199Y4264D01*
X5235Y4264D02*
X5257Y4264D01*
X5276Y4264D02*
X5299Y4264D01*
X5335Y4264D02*
X5357Y4264D01*
X5376Y4264D02*
X5399Y4264D01*
X5435Y4264D02*
X5457Y4264D01*
X5476Y4264D02*
X5499Y4264D01*
X5535Y4264D02*
X5557Y4264D01*
X5576Y4264D02*
X5599Y4264D01*
X5635Y4264D02*
X5657Y4264D01*
X5676Y4264D02*
X5699Y4264D01*
X4835Y4263D02*
X4859Y4263D01*
X4875Y4263D02*
X4899Y4263D01*
X4935Y4263D02*
X4959Y4263D01*
X4975Y4263D02*
X4999Y4263D01*
X5035Y4263D02*
X5059Y4263D01*
X5075Y4263D02*
X5099Y4263D01*
X5135Y4263D02*
X5159Y4263D01*
X5175Y4263D02*
X5199Y4263D01*
X5235Y4263D02*
X5259Y4263D01*
X5275Y4263D02*
X5299Y4263D01*
X5335Y4263D02*
X5359Y4263D01*
X5375Y4263D02*
X5399Y4263D01*
X5435Y4263D02*
X5459Y4263D01*
X5475Y4263D02*
X5499Y4263D01*
X5535Y4263D02*
X5559Y4263D01*
X5575Y4263D02*
X5599Y4263D01*
X5635Y4263D02*
X5659Y4263D01*
X5675Y4263D02*
X5699Y4263D01*
X4836Y4262D02*
X4861Y4262D01*
X4873Y4262D02*
X4898Y4262D01*
X4936Y4262D02*
X4961Y4262D01*
X4973Y4262D02*
X4998Y4262D01*
X5036Y4262D02*
X5061Y4262D01*
X5073Y4262D02*
X5098Y4262D01*
X5136Y4262D02*
X5161Y4262D01*
X5173Y4262D02*
X5198Y4262D01*
X5236Y4262D02*
X5261Y4262D01*
X5273Y4262D02*
X5298Y4262D01*
X5336Y4262D02*
X5361Y4262D01*
X5373Y4262D02*
X5398Y4262D01*
X5436Y4262D02*
X5461Y4262D01*
X5473Y4262D02*
X5498Y4262D01*
X5536Y4262D02*
X5561Y4262D01*
X5573Y4262D02*
X5598Y4262D01*
X5636Y4262D02*
X5661Y4262D01*
X5673Y4262D02*
X5698Y4262D01*
X4836Y4261D02*
X4898Y4261D01*
X4936Y4261D02*
X4998Y4261D01*
X5036Y4261D02*
X5098Y4261D01*
X5136Y4261D02*
X5198Y4261D01*
X5236Y4261D02*
X5298Y4261D01*
X5336Y4261D02*
X5398Y4261D01*
X5436Y4261D02*
X5498Y4261D01*
X5536Y4261D02*
X5598Y4261D01*
X5636Y4261D02*
X5698Y4261D01*
X4837Y4260D02*
X4897Y4260D01*
X4937Y4260D02*
X4997Y4260D01*
X5037Y4260D02*
X5097Y4260D01*
X5137Y4260D02*
X5197Y4260D01*
X5237Y4260D02*
X5297Y4260D01*
X5337Y4260D02*
X5397Y4260D01*
X5437Y4260D02*
X5497Y4260D01*
X5537Y4260D02*
X5597Y4260D01*
X5636Y4260D02*
X5697Y4260D01*
X4837Y4259D02*
X4897Y4259D01*
X4937Y4259D02*
X4997Y4259D01*
X5037Y4259D02*
X5097Y4259D01*
X5137Y4259D02*
X5197Y4259D01*
X5237Y4259D02*
X5297Y4259D01*
X5337Y4259D02*
X5397Y4259D01*
X5437Y4259D02*
X5497Y4259D01*
X5537Y4259D02*
X5597Y4259D01*
X5637Y4259D02*
X5697Y4259D01*
X4838Y4258D02*
X4896Y4258D01*
X4938Y4258D02*
X4996Y4258D01*
X5038Y4258D02*
X5096Y4258D01*
X5138Y4258D02*
X5196Y4258D01*
X5238Y4258D02*
X5296Y4258D01*
X5338Y4258D02*
X5396Y4258D01*
X5438Y4258D02*
X5496Y4258D01*
X5538Y4258D02*
X5596Y4258D01*
X5638Y4258D02*
X5696Y4258D01*
X4838Y4257D02*
X4896Y4257D01*
X4938Y4257D02*
X4996Y4257D01*
X5038Y4257D02*
X5096Y4257D01*
X5138Y4257D02*
X5196Y4257D01*
X5238Y4257D02*
X5296Y4257D01*
X5338Y4257D02*
X5396Y4257D01*
X5438Y4257D02*
X5496Y4257D01*
X5538Y4257D02*
X5596Y4257D01*
X5638Y4257D02*
X5696Y4257D01*
X4839Y4256D02*
X4895Y4256D01*
X4939Y4256D02*
X4995Y4256D01*
X5039Y4256D02*
X5095Y4256D01*
X5139Y4256D02*
X5195Y4256D01*
X5239Y4256D02*
X5295Y4256D01*
X5339Y4256D02*
X5395Y4256D01*
X5439Y4256D02*
X5495Y4256D01*
X5539Y4256D02*
X5595Y4256D01*
X5639Y4256D02*
X5695Y4256D01*
X4840Y4255D02*
X4894Y4255D01*
X4940Y4255D02*
X4994Y4255D01*
X5040Y4255D02*
X5094Y4255D01*
X5140Y4255D02*
X5194Y4255D01*
X5240Y4255D02*
X5294Y4255D01*
X5340Y4255D02*
X5394Y4255D01*
X5440Y4255D02*
X5494Y4255D01*
X5540Y4255D02*
X5594Y4255D01*
X5640Y4255D02*
X5694Y4255D01*
X4840Y4254D02*
X4894Y4254D01*
X4940Y4254D02*
X4994Y4254D01*
X5040Y4254D02*
X5094Y4254D01*
X5140Y4254D02*
X5193Y4254D01*
X5240Y4254D02*
X5293Y4254D01*
X5340Y4254D02*
X5393Y4254D01*
X5440Y4254D02*
X5493Y4254D01*
X5540Y4254D02*
X5593Y4254D01*
X5640Y4254D02*
X5693Y4254D01*
X4841Y4253D02*
X4893Y4253D01*
X4941Y4253D02*
X4993Y4253D01*
X5041Y4253D02*
X5093Y4253D01*
X5141Y4253D02*
X5193Y4253D01*
X5241Y4253D02*
X5293Y4253D01*
X5341Y4253D02*
X5393Y4253D01*
X5441Y4253D02*
X5493Y4253D01*
X5541Y4253D02*
X5593Y4253D01*
X5641Y4253D02*
X5693Y4253D01*
X4842Y4252D02*
X4892Y4252D01*
X4942Y4252D02*
X4992Y4252D01*
X5042Y4252D02*
X5092Y4252D01*
X5142Y4252D02*
X5192Y4252D01*
X5242Y4252D02*
X5292Y4252D01*
X5342Y4252D02*
X5392Y4252D01*
X5442Y4252D02*
X5492Y4252D01*
X5542Y4252D02*
X5592Y4252D01*
X5642Y4252D02*
X5692Y4252D01*
X4843Y4251D02*
X4891Y4251D01*
X4943Y4251D02*
X4991Y4251D01*
X5043Y4251D02*
X5091Y4251D01*
X5143Y4251D02*
X5191Y4251D01*
X5243Y4251D02*
X5291Y4251D01*
X5343Y4251D02*
X5391Y4251D01*
X5443Y4251D02*
X5491Y4251D01*
X5543Y4251D02*
X5591Y4251D01*
X5643Y4251D02*
X5691Y4251D01*
X4844Y4250D02*
X4890Y4250D01*
X4944Y4250D02*
X4990Y4250D01*
X5044Y4250D02*
X5090Y4250D01*
X5144Y4250D02*
X5190Y4250D01*
X5244Y4250D02*
X5290Y4250D01*
X5344Y4250D02*
X5390Y4250D01*
X5444Y4250D02*
X5490Y4250D01*
X5544Y4250D02*
X5590Y4250D01*
X5644Y4250D02*
X5690Y4250D01*
X4845Y4249D02*
X4889Y4249D01*
X4945Y4249D02*
X4989Y4249D01*
X5045Y4249D02*
X5089Y4249D01*
X5145Y4249D02*
X5188Y4249D01*
X5245Y4249D02*
X5288Y4249D01*
X5345Y4249D02*
X5388Y4249D01*
X5445Y4249D02*
X5488Y4249D01*
X5545Y4249D02*
X5588Y4249D01*
X5645Y4249D02*
X5688Y4249D01*
X4847Y4248D02*
X4887Y4248D01*
X4947Y4248D02*
X4987Y4248D01*
X5047Y4248D02*
X5087Y4248D01*
X5147Y4248D02*
X5187Y4248D01*
X5247Y4248D02*
X5287Y4248D01*
X5347Y4248D02*
X5387Y4248D01*
X5447Y4248D02*
X5487Y4248D01*
X5547Y4248D02*
X5587Y4248D01*
X5647Y4248D02*
X5687Y4248D01*
X4848Y4247D02*
X4886Y4247D01*
X4948Y4247D02*
X4986Y4247D01*
X5048Y4247D02*
X5086Y4247D01*
X5148Y4247D02*
X5186Y4247D01*
X5248Y4247D02*
X5286Y4247D01*
X5348Y4247D02*
X5386Y4247D01*
X5448Y4247D02*
X5486Y4247D01*
X5548Y4247D02*
X5586Y4247D01*
X5648Y4247D02*
X5686Y4247D01*
X4850Y4246D02*
X4884Y4246D01*
X4950Y4246D02*
X4984Y4246D01*
X5050Y4246D02*
X5084Y4246D01*
X5150Y4246D02*
X5184Y4246D01*
X5250Y4246D02*
X5284Y4246D01*
X5350Y4246D02*
X5384Y4246D01*
X5450Y4246D02*
X5484Y4246D01*
X5550Y4246D02*
X5584Y4246D01*
X5650Y4246D02*
X5684Y4246D01*
X4852Y4245D02*
X4882Y4245D01*
X4952Y4245D02*
X4982Y4245D01*
X5052Y4245D02*
X5082Y4245D01*
X5152Y4245D02*
X5182Y4245D01*
X5252Y4245D02*
X5282Y4245D01*
X5352Y4245D02*
X5382Y4245D01*
X5452Y4245D02*
X5482Y4245D01*
X5552Y4245D02*
X5582Y4245D01*
X5652Y4245D02*
X5682Y4245D01*
X4854Y4244D02*
X4880Y4244D01*
X4954Y4244D02*
X4980Y4244D01*
X5054Y4244D02*
X5080Y4244D01*
X5154Y4244D02*
X5180Y4244D01*
X5254Y4244D02*
X5280Y4244D01*
X5354Y4244D02*
X5380Y4244D01*
X5454Y4244D02*
X5480Y4244D01*
X5554Y4244D02*
X5580Y4244D01*
X5654Y4244D02*
X5680Y4244D01*
X4857Y4243D02*
X4877Y4243D01*
X4957Y4243D02*
X4977Y4243D01*
X5057Y4243D02*
X5077Y4243D01*
X5157Y4243D02*
X5177Y4243D01*
X5257Y4243D02*
X5277Y4243D01*
X5357Y4243D02*
X5377Y4243D01*
X5457Y4243D02*
X5477Y4243D01*
X5557Y4243D02*
X5577Y4243D01*
X5657Y4243D02*
X5677Y4243D01*
X4860Y4242D02*
X4874Y4242D01*
X4960Y4242D02*
X4974Y4242D01*
X5060Y4242D02*
X5074Y4242D01*
X5160Y4242D02*
X5174Y4242D01*
X5260Y4242D02*
X5274Y4242D01*
X5360Y4242D02*
X5374Y4242D01*
X5460Y4242D02*
X5474Y4242D01*
X5560Y4242D02*
X5574Y4242D01*
X5660Y4242D02*
X5674Y4242D01*
X4866Y4011D02*
X4868Y4011D01*
X4966Y4011D02*
X4968Y4011D01*
X5066Y4011D02*
X5068Y4011D01*
X5165Y4011D02*
X5168Y4011D01*
X5265Y4011D02*
X5268Y4011D01*
X5365Y4011D02*
X5368Y4011D01*
X5465Y4011D02*
X5468Y4011D01*
X5565Y4011D02*
X5568Y4011D01*
X5665Y4011D02*
X5668Y4011D01*
X4859Y4010D02*
X4875Y4010D01*
X4959Y4010D02*
X4975Y4010D01*
X5059Y4010D02*
X5075Y4010D01*
X5159Y4010D02*
X5175Y4010D01*
X5259Y4010D02*
X5274Y4010D01*
X5359Y4010D02*
X5374Y4010D01*
X5459Y4010D02*
X5474Y4010D01*
X5559Y4010D02*
X5574Y4010D01*
X5659Y4010D02*
X5674Y4010D01*
X4856Y4009D02*
X4878Y4009D01*
X4956Y4009D02*
X4978Y4009D01*
X5056Y4009D02*
X5078Y4009D01*
X5156Y4009D02*
X5178Y4009D01*
X5256Y4009D02*
X5278Y4009D01*
X5356Y4009D02*
X5378Y4009D01*
X5456Y4009D02*
X5478Y4009D01*
X5556Y4009D02*
X5578Y4009D01*
X5656Y4009D02*
X5678Y4009D01*
X4854Y4008D02*
X4880Y4008D01*
X4954Y4008D02*
X4980Y4008D01*
X5053Y4008D02*
X5080Y4008D01*
X5153Y4008D02*
X5180Y4008D01*
X5253Y4008D02*
X5280Y4008D01*
X5353Y4008D02*
X5380Y4008D01*
X5453Y4008D02*
X5480Y4008D01*
X5553Y4008D02*
X5580Y4008D01*
X5653Y4008D02*
X5680Y4008D01*
X4851Y4007D02*
X4883Y4007D01*
X4951Y4007D02*
X4983Y4007D01*
X5051Y4007D02*
X5082Y4007D01*
X5151Y4007D02*
X5182Y4007D01*
X5251Y4007D02*
X5282Y4007D01*
X5351Y4007D02*
X5382Y4007D01*
X5451Y4007D02*
X5482Y4007D01*
X5551Y4007D02*
X5582Y4007D01*
X5651Y4007D02*
X5682Y4007D01*
X4850Y4006D02*
X4884Y4006D01*
X4950Y4006D02*
X4984Y4006D01*
X5050Y4006D02*
X5084Y4006D01*
X5150Y4006D02*
X5184Y4006D01*
X5250Y4006D02*
X5284Y4006D01*
X5350Y4006D02*
X5384Y4006D01*
X5449Y4006D02*
X5484Y4006D01*
X5549Y4006D02*
X5584Y4006D01*
X5649Y4006D02*
X5684Y4006D01*
X4848Y4005D02*
X4886Y4005D01*
X4948Y4005D02*
X4986Y4005D01*
X5048Y4005D02*
X5086Y4005D01*
X5148Y4005D02*
X5186Y4005D01*
X5248Y4005D02*
X5286Y4005D01*
X5348Y4005D02*
X5386Y4005D01*
X5448Y4005D02*
X5486Y4005D01*
X5548Y4005D02*
X5586Y4005D01*
X5648Y4005D02*
X5686Y4005D01*
X4846Y4004D02*
X4887Y4004D01*
X4946Y4004D02*
X4987Y4004D01*
X5046Y4004D02*
X5087Y4004D01*
X5146Y4004D02*
X5187Y4004D01*
X5246Y4004D02*
X5287Y4004D01*
X5346Y4004D02*
X5387Y4004D01*
X5446Y4004D02*
X5487Y4004D01*
X5546Y4004D02*
X5587Y4004D01*
X5646Y4004D02*
X5687Y4004D01*
X4845Y4003D02*
X4889Y4003D01*
X4945Y4003D02*
X4989Y4003D01*
X5045Y4003D02*
X5089Y4003D01*
X5145Y4003D02*
X5189Y4003D01*
X5245Y4003D02*
X5289Y4003D01*
X5345Y4003D02*
X5389Y4003D01*
X5445Y4003D02*
X5489Y4003D01*
X5545Y4003D02*
X5589Y4003D01*
X5645Y4003D02*
X5689Y4003D01*
X4844Y4002D02*
X4890Y4002D01*
X4944Y4002D02*
X4990Y4002D01*
X5044Y4002D02*
X5090Y4002D01*
X5144Y4002D02*
X5190Y4002D01*
X5244Y4002D02*
X5290Y4002D01*
X5344Y4002D02*
X5390Y4002D01*
X5444Y4002D02*
X5490Y4002D01*
X5544Y4002D02*
X5590Y4002D01*
X5644Y4002D02*
X5690Y4002D01*
X4843Y4001D02*
X4891Y4001D01*
X4943Y4001D02*
X4991Y4001D01*
X5043Y4001D02*
X5091Y4001D01*
X5143Y4001D02*
X5191Y4001D01*
X5243Y4001D02*
X5291Y4001D01*
X5343Y4001D02*
X5391Y4001D01*
X5443Y4001D02*
X5491Y4001D01*
X5543Y4001D02*
X5591Y4001D01*
X5643Y4001D02*
X5691Y4001D01*
X4842Y4000D02*
X4892Y4000D01*
X4942Y4000D02*
X4992Y4000D01*
X5042Y4000D02*
X5092Y4000D01*
X5142Y4000D02*
X5192Y4000D01*
X5242Y4000D02*
X5292Y4000D01*
X5342Y4000D02*
X5392Y4000D01*
X5442Y4000D02*
X5492Y4000D01*
X5542Y4000D02*
X5592Y4000D01*
X5642Y4000D02*
X5692Y4000D01*
X4841Y3999D02*
X4893Y3999D01*
X4941Y3999D02*
X4993Y3999D01*
X5041Y3999D02*
X5093Y3999D01*
X5141Y3999D02*
X5193Y3999D01*
X5241Y3999D02*
X5293Y3999D01*
X5341Y3999D02*
X5393Y3999D01*
X5441Y3999D02*
X5493Y3999D01*
X5541Y3999D02*
X5593Y3999D01*
X5641Y3999D02*
X5693Y3999D01*
X4840Y3998D02*
X4894Y3998D01*
X4940Y3998D02*
X4994Y3998D01*
X5040Y3998D02*
X5094Y3998D01*
X5140Y3998D02*
X5194Y3998D01*
X5240Y3998D02*
X5294Y3998D01*
X5340Y3998D02*
X5394Y3998D01*
X5440Y3998D02*
X5494Y3998D01*
X5540Y3998D02*
X5594Y3998D01*
X5640Y3998D02*
X5694Y3998D01*
X4840Y3997D02*
X4894Y3997D01*
X4939Y3997D02*
X4994Y3997D01*
X5039Y3997D02*
X5094Y3997D01*
X5139Y3997D02*
X5194Y3997D01*
X5239Y3997D02*
X5294Y3997D01*
X5339Y3997D02*
X5394Y3997D01*
X5439Y3997D02*
X5494Y3997D01*
X5539Y3997D02*
X5594Y3997D01*
X5639Y3997D02*
X5694Y3997D01*
X4839Y3996D02*
X4895Y3996D01*
X4939Y3996D02*
X4995Y3996D01*
X5039Y3996D02*
X5095Y3996D01*
X5139Y3996D02*
X5195Y3996D01*
X5239Y3996D02*
X5295Y3996D01*
X5339Y3996D02*
X5395Y3996D01*
X5439Y3996D02*
X5495Y3996D01*
X5539Y3996D02*
X5595Y3996D01*
X5639Y3996D02*
X5695Y3996D01*
X4838Y3995D02*
X4896Y3995D01*
X4938Y3995D02*
X4996Y3995D01*
X5038Y3995D02*
X5096Y3995D01*
X5138Y3995D02*
X5196Y3995D01*
X5238Y3995D02*
X5296Y3995D01*
X5338Y3995D02*
X5396Y3995D01*
X5438Y3995D02*
X5496Y3995D01*
X5538Y3995D02*
X5596Y3995D01*
X5638Y3995D02*
X5696Y3995D01*
X4838Y3994D02*
X4896Y3994D01*
X4938Y3994D02*
X4996Y3994D01*
X5038Y3994D02*
X5096Y3994D01*
X5138Y3994D02*
X5196Y3994D01*
X5238Y3994D02*
X5296Y3994D01*
X5338Y3994D02*
X5396Y3994D01*
X5437Y3994D02*
X5496Y3994D01*
X5537Y3994D02*
X5596Y3994D01*
X5637Y3994D02*
X5696Y3994D01*
X4837Y3993D02*
X4897Y3993D01*
X4937Y3993D02*
X4997Y3993D01*
X5037Y3993D02*
X5097Y3993D01*
X5137Y3993D02*
X5197Y3993D01*
X5237Y3993D02*
X5297Y3993D01*
X5337Y3993D02*
X5397Y3993D01*
X5437Y3993D02*
X5497Y3993D01*
X5537Y3993D02*
X5597Y3993D01*
X5637Y3993D02*
X5697Y3993D01*
X4836Y3992D02*
X4897Y3992D01*
X4936Y3992D02*
X4997Y3992D01*
X5036Y3992D02*
X5097Y3992D01*
X5136Y3992D02*
X5197Y3992D01*
X5236Y3992D02*
X5297Y3992D01*
X5336Y3992D02*
X5397Y3992D01*
X5436Y3992D02*
X5497Y3992D01*
X5536Y3992D02*
X5597Y3992D01*
X5636Y3992D02*
X5697Y3992D01*
X4836Y3991D02*
X4865Y3991D01*
X4869Y3991D02*
X4898Y3991D01*
X4936Y3991D02*
X4965Y3991D01*
X4969Y3991D02*
X4998Y3991D01*
X5036Y3991D02*
X5065Y3991D01*
X5069Y3991D02*
X5098Y3991D01*
X5136Y3991D02*
X5165Y3991D01*
X5169Y3991D02*
X5198Y3991D01*
X5236Y3991D02*
X5265Y3991D01*
X5269Y3991D02*
X5298Y3991D01*
X5336Y3991D02*
X5365Y3991D01*
X5369Y3991D02*
X5398Y3991D01*
X5436Y3991D02*
X5465Y3991D01*
X5469Y3991D02*
X5498Y3991D01*
X5536Y3991D02*
X5565Y3991D01*
X5569Y3991D02*
X5598Y3991D01*
X5636Y3991D02*
X5665Y3991D01*
X5669Y3991D02*
X5698Y3991D01*
X4836Y3990D02*
X4860Y3990D01*
X4874Y3990D02*
X4898Y3990D01*
X4936Y3990D02*
X4960Y3990D01*
X4974Y3990D02*
X4998Y3990D01*
X5036Y3990D02*
X5060Y3990D01*
X5074Y3990D02*
X5098Y3990D01*
X5136Y3990D02*
X5160Y3990D01*
X5173Y3990D02*
X5198Y3990D01*
X5236Y3990D02*
X5260Y3990D01*
X5273Y3990D02*
X5298Y3990D01*
X5335Y3990D02*
X5360Y3990D01*
X5373Y3990D02*
X5398Y3990D01*
X5435Y3990D02*
X5460Y3990D01*
X5473Y3990D02*
X5498Y3990D01*
X5535Y3990D02*
X5560Y3990D01*
X5573Y3990D02*
X5598Y3990D01*
X5635Y3990D02*
X5660Y3990D01*
X5673Y3990D02*
X5698Y3990D01*
X4835Y3989D02*
X4859Y3989D01*
X4875Y3989D02*
X4899Y3989D01*
X4935Y3989D02*
X4959Y3989D01*
X4975Y3989D02*
X4999Y3989D01*
X5035Y3989D02*
X5059Y3989D01*
X5075Y3989D02*
X5099Y3989D01*
X5135Y3989D02*
X5159Y3989D01*
X5175Y3989D02*
X5199Y3989D01*
X5235Y3989D02*
X5259Y3989D01*
X5275Y3989D02*
X5299Y3989D01*
X5335Y3989D02*
X5359Y3989D01*
X5375Y3989D02*
X5399Y3989D01*
X5435Y3989D02*
X5459Y3989D01*
X5475Y3989D02*
X5499Y3989D01*
X5535Y3989D02*
X5559Y3989D01*
X5575Y3989D02*
X5599Y3989D01*
X5635Y3989D02*
X5659Y3989D01*
X5675Y3989D02*
X5699Y3989D01*
X4835Y3988D02*
X4857Y3988D01*
X4877Y3988D02*
X4899Y3988D01*
X4935Y3988D02*
X4957Y3988D01*
X4977Y3988D02*
X4999Y3988D01*
X5035Y3988D02*
X5057Y3988D01*
X5077Y3988D02*
X5099Y3988D01*
X5135Y3988D02*
X5157Y3988D01*
X5177Y3988D02*
X5199Y3988D01*
X5235Y3988D02*
X5257Y3988D01*
X5277Y3988D02*
X5299Y3988D01*
X5335Y3988D02*
X5357Y3988D01*
X5377Y3988D02*
X5399Y3988D01*
X5435Y3988D02*
X5457Y3988D01*
X5477Y3988D02*
X5499Y3988D01*
X5535Y3988D02*
X5557Y3988D01*
X5576Y3988D02*
X5599Y3988D01*
X5635Y3988D02*
X5657Y3988D01*
X5676Y3988D02*
X5699Y3988D01*
X4834Y3987D02*
X4856Y3987D01*
X4878Y3987D02*
X4900Y3987D01*
X4934Y3987D02*
X4956Y3987D01*
X4978Y3987D02*
X5000Y3987D01*
X5034Y3987D02*
X5056Y3987D01*
X5078Y3987D02*
X5099Y3987D01*
X5134Y3987D02*
X5156Y3987D01*
X5178Y3987D02*
X5199Y3987D01*
X5234Y3987D02*
X5256Y3987D01*
X5278Y3987D02*
X5299Y3987D01*
X5334Y3987D02*
X5356Y3987D01*
X5378Y3987D02*
X5399Y3987D01*
X5434Y3987D02*
X5456Y3987D01*
X5478Y3987D02*
X5499Y3987D01*
X5534Y3987D02*
X5556Y3987D01*
X5578Y3987D02*
X5599Y3987D01*
X5634Y3987D02*
X5656Y3987D01*
X5678Y3987D02*
X5699Y3987D01*
X766Y3986D02*
X769Y3986D01*
X865Y3986D02*
X869Y3986D01*
X965Y3986D02*
X969Y3986D01*
X1766Y3986D02*
X1769Y3986D01*
X1866Y3986D02*
X1869Y3986D01*
X1966Y3986D02*
X1969Y3986D01*
X2916Y3986D02*
X2919Y3986D01*
X3016Y3986D02*
X3019Y3986D01*
X3116Y3986D02*
X3119Y3986D01*
X4834Y3986D02*
X4855Y3986D01*
X4879Y3986D02*
X4900Y3986D01*
X4934Y3986D02*
X4955Y3986D01*
X4979Y3986D02*
X5000Y3986D01*
X5034Y3986D02*
X5055Y3986D01*
X5079Y3986D02*
X5100Y3986D01*
X5134Y3986D02*
X5155Y3986D01*
X5179Y3986D02*
X5200Y3986D01*
X5234Y3986D02*
X5255Y3986D01*
X5279Y3986D02*
X5300Y3986D01*
X5334Y3986D02*
X5355Y3986D01*
X5379Y3986D02*
X5400Y3986D01*
X5434Y3986D02*
X5455Y3986D01*
X5479Y3986D02*
X5500Y3986D01*
X5534Y3986D02*
X5555Y3986D01*
X5579Y3986D02*
X5600Y3986D01*
X5634Y3986D02*
X5655Y3986D01*
X5679Y3986D02*
X5700Y3986D01*
X760Y3985D02*
X775Y3985D01*
X860Y3985D02*
X875Y3985D01*
X960Y3985D02*
X975Y3985D01*
X1760Y3985D02*
X1775Y3985D01*
X1860Y3985D02*
X1875Y3985D01*
X1960Y3985D02*
X1975Y3985D01*
X2910Y3985D02*
X2925Y3985D01*
X3010Y3985D02*
X3025Y3985D01*
X3110Y3985D02*
X3125Y3985D01*
X4834Y3985D02*
X4854Y3985D01*
X4880Y3985D02*
X4900Y3985D01*
X4934Y3985D02*
X4954Y3985D01*
X4980Y3985D02*
X5000Y3985D01*
X5034Y3985D02*
X5054Y3985D01*
X5080Y3985D02*
X5100Y3985D01*
X5134Y3985D02*
X5154Y3985D01*
X5180Y3985D02*
X5200Y3985D01*
X5234Y3985D02*
X5254Y3985D01*
X5280Y3985D02*
X5300Y3985D01*
X5334Y3985D02*
X5354Y3985D01*
X5379Y3985D02*
X5400Y3985D01*
X5434Y3985D02*
X5454Y3985D01*
X5479Y3985D02*
X5500Y3985D01*
X5534Y3985D02*
X5554Y3985D01*
X5579Y3985D02*
X5600Y3985D01*
X5634Y3985D02*
X5654Y3985D01*
X5679Y3985D02*
X5700Y3985D01*
X757Y3984D02*
X778Y3984D01*
X857Y3984D02*
X878Y3984D01*
X957Y3984D02*
X978Y3984D01*
X1757Y3984D02*
X1778Y3984D01*
X1857Y3984D02*
X1878Y3984D01*
X1957Y3984D02*
X1978Y3984D01*
X2907Y3984D02*
X2928Y3984D01*
X3007Y3984D02*
X3028Y3984D01*
X3107Y3984D02*
X3128Y3984D01*
X4834Y3984D02*
X4854Y3984D01*
X4880Y3984D02*
X4900Y3984D01*
X4934Y3984D02*
X4954Y3984D01*
X4980Y3984D02*
X5000Y3984D01*
X5033Y3984D02*
X5054Y3984D01*
X5080Y3984D02*
X5100Y3984D01*
X5133Y3984D02*
X5154Y3984D01*
X5180Y3984D02*
X5200Y3984D01*
X5233Y3984D02*
X5254Y3984D01*
X5280Y3984D02*
X5300Y3984D01*
X5333Y3984D02*
X5354Y3984D01*
X5380Y3984D02*
X5400Y3984D01*
X5433Y3984D02*
X5454Y3984D01*
X5480Y3984D02*
X5500Y3984D01*
X5533Y3984D02*
X5554Y3984D01*
X5580Y3984D02*
X5600Y3984D01*
X5633Y3984D02*
X5653Y3984D01*
X5680Y3984D02*
X5700Y3984D01*
X755Y3983D02*
X780Y3983D01*
X855Y3983D02*
X880Y3983D01*
X955Y3983D02*
X980Y3983D01*
X1755Y3983D02*
X1780Y3983D01*
X1855Y3983D02*
X1880Y3983D01*
X1955Y3983D02*
X1980Y3983D01*
X2904Y3983D02*
X2930Y3983D01*
X3004Y3983D02*
X3030Y3983D01*
X3104Y3983D02*
X3130Y3983D01*
X4833Y3983D02*
X4853Y3983D01*
X4881Y3983D02*
X4901Y3983D01*
X4933Y3983D02*
X4953Y3983D01*
X4981Y3983D02*
X5001Y3983D01*
X5033Y3983D02*
X5053Y3983D01*
X5081Y3983D02*
X5101Y3983D01*
X5133Y3983D02*
X5153Y3983D01*
X5181Y3983D02*
X5201Y3983D01*
X5233Y3983D02*
X5253Y3983D01*
X5281Y3983D02*
X5301Y3983D01*
X5333Y3983D02*
X5353Y3983D01*
X5381Y3983D02*
X5401Y3983D01*
X5433Y3983D02*
X5453Y3983D01*
X5481Y3983D02*
X5501Y3983D01*
X5533Y3983D02*
X5553Y3983D01*
X5581Y3983D02*
X5601Y3983D01*
X5633Y3983D02*
X5653Y3983D01*
X5681Y3983D02*
X5701Y3983D01*
X753Y3982D02*
X782Y3982D01*
X853Y3982D02*
X882Y3982D01*
X953Y3982D02*
X982Y3982D01*
X1753Y3982D02*
X1782Y3982D01*
X1853Y3982D02*
X1882Y3982D01*
X1953Y3982D02*
X1982Y3982D01*
X2903Y3982D02*
X2932Y3982D01*
X3003Y3982D02*
X3032Y3982D01*
X3103Y3982D02*
X3132Y3982D01*
X4833Y3982D02*
X4852Y3982D01*
X4881Y3982D02*
X4901Y3982D01*
X4933Y3982D02*
X4952Y3982D01*
X4981Y3982D02*
X5001Y3982D01*
X5033Y3982D02*
X5052Y3982D01*
X5081Y3982D02*
X5101Y3982D01*
X5133Y3982D02*
X5152Y3982D01*
X5181Y3982D02*
X5201Y3982D01*
X5233Y3982D02*
X5252Y3982D01*
X5281Y3982D02*
X5301Y3982D01*
X5333Y3982D02*
X5352Y3982D01*
X5381Y3982D02*
X5401Y3982D01*
X5433Y3982D02*
X5452Y3982D01*
X5481Y3982D02*
X5501Y3982D01*
X5533Y3982D02*
X5552Y3982D01*
X5581Y3982D02*
X5601Y3982D01*
X5633Y3982D02*
X5652Y3982D01*
X5681Y3982D02*
X5701Y3982D01*
X751Y3981D02*
X784Y3981D01*
X851Y3981D02*
X884Y3981D01*
X951Y3981D02*
X984Y3981D01*
X1751Y3981D02*
X1784Y3981D01*
X1851Y3981D02*
X1884Y3981D01*
X1951Y3981D02*
X1984Y3981D01*
X2901Y3981D02*
X2933Y3981D01*
X3001Y3981D02*
X3033Y3981D01*
X3101Y3981D02*
X3133Y3981D01*
X4833Y3981D02*
X4852Y3981D01*
X4882Y3981D02*
X4901Y3981D01*
X4933Y3981D02*
X4952Y3981D01*
X4982Y3981D02*
X5001Y3981D01*
X5033Y3981D02*
X5052Y3981D01*
X5082Y3981D02*
X5101Y3981D01*
X5133Y3981D02*
X5152Y3981D01*
X5182Y3981D02*
X5201Y3981D01*
X5233Y3981D02*
X5252Y3981D01*
X5282Y3981D02*
X5301Y3981D01*
X5333Y3981D02*
X5352Y3981D01*
X5382Y3981D02*
X5401Y3981D01*
X5433Y3981D02*
X5452Y3981D01*
X5482Y3981D02*
X5501Y3981D01*
X5533Y3981D02*
X5552Y3981D01*
X5582Y3981D02*
X5601Y3981D01*
X5633Y3981D02*
X5652Y3981D01*
X5682Y3981D02*
X5701Y3981D01*
X750Y3980D02*
X785Y3980D01*
X850Y3980D02*
X885Y3980D01*
X950Y3980D02*
X985Y3980D01*
X1750Y3980D02*
X1785Y3980D01*
X1850Y3980D02*
X1885Y3980D01*
X1950Y3980D02*
X1985Y3980D01*
X2900Y3980D02*
X2935Y3980D01*
X3000Y3980D02*
X3035Y3980D01*
X3100Y3980D02*
X3135Y3980D01*
X4833Y3980D02*
X4852Y3980D01*
X4882Y3980D02*
X4901Y3980D01*
X4933Y3980D02*
X4952Y3980D01*
X4982Y3980D02*
X5001Y3980D01*
X5033Y3980D02*
X5052Y3980D01*
X5082Y3980D02*
X5101Y3980D01*
X5133Y3980D02*
X5152Y3980D01*
X5182Y3980D02*
X5201Y3980D01*
X5233Y3980D02*
X5252Y3980D01*
X5282Y3980D02*
X5301Y3980D01*
X5333Y3980D02*
X5352Y3980D01*
X5382Y3980D02*
X5401Y3980D01*
X5433Y3980D02*
X5452Y3980D01*
X5482Y3980D02*
X5501Y3980D01*
X5533Y3980D02*
X5552Y3980D01*
X5582Y3980D02*
X5601Y3980D01*
X5633Y3980D02*
X5652Y3980D01*
X5682Y3980D02*
X5701Y3980D01*
X749Y3979D02*
X786Y3979D01*
X849Y3979D02*
X886Y3979D01*
X949Y3979D02*
X986Y3979D01*
X1749Y3979D02*
X1786Y3979D01*
X1849Y3979D02*
X1886Y3979D01*
X1948Y3979D02*
X1986Y3979D01*
X2898Y3979D02*
X2936Y3979D01*
X2998Y3979D02*
X3036Y3979D01*
X3098Y3979D02*
X3136Y3979D01*
X4833Y3979D02*
X4852Y3979D01*
X4882Y3979D02*
X4901Y3979D01*
X4933Y3979D02*
X4952Y3979D01*
X4982Y3979D02*
X5001Y3979D01*
X5033Y3979D02*
X5052Y3979D01*
X5082Y3979D02*
X5101Y3979D01*
X5133Y3979D02*
X5152Y3979D01*
X5182Y3979D02*
X5201Y3979D01*
X5233Y3979D02*
X5252Y3979D01*
X5282Y3979D02*
X5301Y3979D01*
X5333Y3979D02*
X5352Y3979D01*
X5382Y3979D02*
X5401Y3979D01*
X5433Y3979D02*
X5452Y3979D01*
X5482Y3979D02*
X5501Y3979D01*
X5533Y3979D02*
X5552Y3979D01*
X5582Y3979D02*
X5601Y3979D01*
X5633Y3979D02*
X5652Y3979D01*
X5682Y3979D02*
X5701Y3979D01*
X748Y3978D02*
X787Y3978D01*
X848Y3978D02*
X887Y3978D01*
X947Y3978D02*
X987Y3978D01*
X1747Y3978D02*
X1787Y3978D01*
X1847Y3978D02*
X1887Y3978D01*
X1947Y3978D02*
X1987Y3978D01*
X2897Y3978D02*
X2937Y3978D01*
X2997Y3978D02*
X3037Y3978D01*
X3097Y3978D02*
X3137Y3978D01*
X4833Y3978D02*
X4852Y3978D01*
X4882Y3978D02*
X4901Y3978D01*
X4933Y3978D02*
X4952Y3978D01*
X4982Y3978D02*
X5001Y3978D01*
X5033Y3978D02*
X5052Y3978D01*
X5082Y3978D02*
X5101Y3978D01*
X5133Y3978D02*
X5152Y3978D01*
X5182Y3978D02*
X5201Y3978D01*
X5233Y3978D02*
X5252Y3978D01*
X5282Y3978D02*
X5301Y3978D01*
X5333Y3978D02*
X5352Y3978D01*
X5382Y3978D02*
X5401Y3978D01*
X5432Y3978D02*
X5452Y3978D01*
X5482Y3978D02*
X5501Y3978D01*
X5532Y3978D02*
X5552Y3978D01*
X5582Y3978D02*
X5601Y3978D01*
X5632Y3978D02*
X5651Y3978D01*
X5682Y3978D02*
X5701Y3978D01*
X746Y3977D02*
X789Y3977D01*
X846Y3977D02*
X888Y3977D01*
X946Y3977D02*
X988Y3977D01*
X1746Y3977D02*
X1788Y3977D01*
X1846Y3977D02*
X1888Y3977D01*
X1946Y3977D02*
X1988Y3977D01*
X2896Y3977D02*
X2938Y3977D01*
X2996Y3977D02*
X3038Y3977D01*
X3096Y3977D02*
X3138Y3977D01*
X4833Y3977D02*
X4852Y3977D01*
X4882Y3977D02*
X4901Y3977D01*
X4933Y3977D02*
X4952Y3977D01*
X4982Y3977D02*
X5001Y3977D01*
X5032Y3977D02*
X5052Y3977D01*
X5082Y3977D02*
X5101Y3977D01*
X5132Y3977D02*
X5151Y3977D01*
X5182Y3977D02*
X5201Y3977D01*
X5232Y3977D02*
X5251Y3977D01*
X5282Y3977D02*
X5301Y3977D01*
X5332Y3977D02*
X5351Y3977D01*
X5382Y3977D02*
X5401Y3977D01*
X5432Y3977D02*
X5451Y3977D01*
X5482Y3977D02*
X5501Y3977D01*
X5532Y3977D02*
X5551Y3977D01*
X5582Y3977D02*
X5601Y3977D01*
X5632Y3977D02*
X5651Y3977D01*
X5682Y3977D02*
X5701Y3977D01*
X746Y3976D02*
X789Y3976D01*
X846Y3976D02*
X889Y3976D01*
X946Y3976D02*
X989Y3976D01*
X1745Y3976D02*
X1789Y3976D01*
X1845Y3976D02*
X1889Y3976D01*
X1945Y3976D02*
X1989Y3976D01*
X2895Y3976D02*
X2939Y3976D01*
X2995Y3976D02*
X3039Y3976D01*
X3095Y3976D02*
X3139Y3976D01*
X4832Y3976D02*
X4851Y3976D01*
X4882Y3976D02*
X4901Y3976D01*
X4932Y3976D02*
X4951Y3976D01*
X4982Y3976D02*
X5001Y3976D01*
X5032Y3976D02*
X5051Y3976D01*
X5082Y3976D02*
X5101Y3976D01*
X5132Y3976D02*
X5151Y3976D01*
X5182Y3976D02*
X5201Y3976D01*
X5232Y3976D02*
X5251Y3976D01*
X5282Y3976D02*
X5301Y3976D01*
X5332Y3976D02*
X5351Y3976D01*
X5382Y3976D02*
X5401Y3976D01*
X5432Y3976D02*
X5451Y3976D01*
X5482Y3976D02*
X5501Y3976D01*
X5532Y3976D02*
X5551Y3976D01*
X5582Y3976D02*
X5601Y3976D01*
X5632Y3976D02*
X5651Y3976D01*
X5682Y3976D02*
X5701Y3976D01*
X745Y3975D02*
X790Y3975D01*
X845Y3975D02*
X890Y3975D01*
X945Y3975D02*
X990Y3975D01*
X1745Y3975D02*
X1790Y3975D01*
X1845Y3975D02*
X1890Y3975D01*
X1945Y3975D02*
X1990Y3975D01*
X2894Y3975D02*
X2940Y3975D01*
X2994Y3975D02*
X3040Y3975D01*
X3094Y3975D02*
X3140Y3975D01*
X4833Y3975D02*
X4852Y3975D01*
X4882Y3975D02*
X4901Y3975D01*
X4933Y3975D02*
X4952Y3975D01*
X4982Y3975D02*
X5001Y3975D01*
X5032Y3975D02*
X5052Y3975D01*
X5082Y3975D02*
X5101Y3975D01*
X5132Y3975D02*
X5152Y3975D01*
X5182Y3975D02*
X5201Y3975D01*
X5232Y3975D02*
X5251Y3975D01*
X5282Y3975D02*
X5301Y3975D01*
X5332Y3975D02*
X5351Y3975D01*
X5382Y3975D02*
X5401Y3975D01*
X5432Y3975D02*
X5451Y3975D01*
X5482Y3975D02*
X5501Y3975D01*
X5532Y3975D02*
X5551Y3975D01*
X5582Y3975D02*
X5601Y3975D01*
X5632Y3975D02*
X5651Y3975D01*
X5682Y3975D02*
X5701Y3975D01*
X744Y3974D02*
X791Y3974D01*
X844Y3974D02*
X891Y3974D01*
X944Y3974D02*
X991Y3974D01*
X1744Y3974D02*
X1791Y3974D01*
X1844Y3974D02*
X1891Y3974D01*
X1944Y3974D02*
X1991Y3974D01*
X2894Y3974D02*
X2941Y3974D01*
X2994Y3974D02*
X3041Y3974D01*
X3094Y3974D02*
X3141Y3974D01*
X4833Y3974D02*
X4852Y3974D01*
X4882Y3974D02*
X4901Y3974D01*
X4933Y3974D02*
X4952Y3974D01*
X4982Y3974D02*
X5001Y3974D01*
X5033Y3974D02*
X5052Y3974D01*
X5082Y3974D02*
X5101Y3974D01*
X5133Y3974D02*
X5152Y3974D01*
X5182Y3974D02*
X5201Y3974D01*
X5233Y3974D02*
X5252Y3974D01*
X5282Y3974D02*
X5301Y3974D01*
X5333Y3974D02*
X5352Y3974D01*
X5382Y3974D02*
X5401Y3974D01*
X5433Y3974D02*
X5452Y3974D01*
X5482Y3974D02*
X5501Y3974D01*
X5532Y3974D02*
X5552Y3974D01*
X5582Y3974D02*
X5601Y3974D01*
X5632Y3974D02*
X5652Y3974D01*
X5682Y3974D02*
X5701Y3974D01*
X743Y3973D02*
X792Y3973D01*
X843Y3973D02*
X892Y3973D01*
X943Y3973D02*
X992Y3973D01*
X1743Y3973D02*
X1792Y3973D01*
X1843Y3973D02*
X1892Y3973D01*
X1943Y3973D02*
X1992Y3973D01*
X2893Y3973D02*
X2942Y3973D01*
X2993Y3973D02*
X3041Y3973D01*
X3093Y3973D02*
X3141Y3973D01*
X4833Y3973D02*
X4852Y3973D01*
X4882Y3973D02*
X4901Y3973D01*
X4933Y3973D02*
X4952Y3973D01*
X4982Y3973D02*
X5001Y3973D01*
X5033Y3973D02*
X5052Y3973D01*
X5082Y3973D02*
X5101Y3973D01*
X5133Y3973D02*
X5152Y3973D01*
X5182Y3973D02*
X5201Y3973D01*
X5233Y3973D02*
X5252Y3973D01*
X5282Y3973D02*
X5301Y3973D01*
X5333Y3973D02*
X5352Y3973D01*
X5382Y3973D02*
X5401Y3973D01*
X5433Y3973D02*
X5452Y3973D01*
X5482Y3973D02*
X5501Y3973D01*
X5533Y3973D02*
X5552Y3973D01*
X5582Y3973D02*
X5601Y3973D01*
X5633Y3973D02*
X5652Y3973D01*
X5682Y3973D02*
X5701Y3973D01*
X743Y3972D02*
X792Y3972D01*
X843Y3972D02*
X892Y3972D01*
X943Y3972D02*
X992Y3972D01*
X1742Y3972D02*
X1792Y3972D01*
X1842Y3972D02*
X1892Y3972D01*
X1942Y3972D02*
X1992Y3972D01*
X2892Y3972D02*
X2942Y3972D01*
X2992Y3972D02*
X3042Y3972D01*
X3092Y3972D02*
X3142Y3972D01*
X4833Y3972D02*
X4852Y3972D01*
X4882Y3972D02*
X4901Y3972D01*
X4933Y3972D02*
X4952Y3972D01*
X4982Y3972D02*
X5001Y3972D01*
X5033Y3972D02*
X5052Y3972D01*
X5082Y3972D02*
X5101Y3972D01*
X5133Y3972D02*
X5152Y3972D01*
X5182Y3972D02*
X5201Y3972D01*
X5233Y3972D02*
X5252Y3972D01*
X5282Y3972D02*
X5301Y3972D01*
X5333Y3972D02*
X5352Y3972D01*
X5382Y3972D02*
X5401Y3972D01*
X5433Y3972D02*
X5452Y3972D01*
X5482Y3972D02*
X5501Y3972D01*
X5533Y3972D02*
X5552Y3972D01*
X5582Y3972D02*
X5601Y3972D01*
X5633Y3972D02*
X5652Y3972D01*
X5682Y3972D02*
X5701Y3972D01*
X742Y3971D02*
X793Y3971D01*
X842Y3971D02*
X893Y3971D01*
X942Y3971D02*
X993Y3971D01*
X1742Y3971D02*
X1793Y3971D01*
X1842Y3971D02*
X1893Y3971D01*
X1942Y3971D02*
X1993Y3971D01*
X2892Y3971D02*
X2943Y3971D01*
X2992Y3971D02*
X3043Y3971D01*
X3092Y3971D02*
X3143Y3971D01*
X4833Y3971D02*
X4852Y3971D01*
X4882Y3971D02*
X4901Y3971D01*
X4933Y3971D02*
X4952Y3971D01*
X4982Y3971D02*
X5001Y3971D01*
X5033Y3971D02*
X5052Y3971D01*
X5082Y3971D02*
X5101Y3971D01*
X5133Y3971D02*
X5152Y3971D01*
X5182Y3971D02*
X5201Y3971D01*
X5233Y3971D02*
X5252Y3971D01*
X5282Y3971D02*
X5301Y3971D01*
X5333Y3971D02*
X5352Y3971D01*
X5382Y3971D02*
X5401Y3971D01*
X5433Y3971D02*
X5452Y3971D01*
X5482Y3971D02*
X5501Y3971D01*
X5533Y3971D02*
X5552Y3971D01*
X5582Y3971D02*
X5601Y3971D01*
X5633Y3971D02*
X5652Y3971D01*
X5682Y3971D02*
X5701Y3971D01*
X741Y3970D02*
X794Y3970D01*
X841Y3970D02*
X894Y3970D01*
X941Y3970D02*
X994Y3970D01*
X1741Y3970D02*
X1793Y3970D01*
X1841Y3970D02*
X1893Y3970D01*
X1941Y3970D02*
X1993Y3970D01*
X2891Y3970D02*
X2943Y3970D01*
X2991Y3970D02*
X3043Y3970D01*
X3091Y3970D02*
X3143Y3970D01*
X4833Y3970D02*
X4853Y3970D01*
X4881Y3970D02*
X4901Y3970D01*
X4933Y3970D02*
X4953Y3970D01*
X4981Y3970D02*
X5001Y3970D01*
X5033Y3970D02*
X5053Y3970D01*
X5081Y3970D02*
X5101Y3970D01*
X5133Y3970D02*
X5153Y3970D01*
X5181Y3970D02*
X5201Y3970D01*
X5233Y3970D02*
X5253Y3970D01*
X5281Y3970D02*
X5301Y3970D01*
X5333Y3970D02*
X5353Y3970D01*
X5381Y3970D02*
X5401Y3970D01*
X5433Y3970D02*
X5453Y3970D01*
X5481Y3970D02*
X5501Y3970D01*
X5533Y3970D02*
X5553Y3970D01*
X5581Y3970D02*
X5601Y3970D01*
X5633Y3970D02*
X5652Y3970D01*
X5681Y3970D02*
X5701Y3970D01*
X741Y3969D02*
X794Y3969D01*
X841Y3969D02*
X894Y3969D01*
X941Y3969D02*
X994Y3969D01*
X1741Y3969D02*
X1794Y3969D01*
X1841Y3969D02*
X1894Y3969D01*
X1941Y3969D02*
X1994Y3969D01*
X2891Y3969D02*
X2944Y3969D01*
X2991Y3969D02*
X3044Y3969D01*
X3091Y3969D02*
X3144Y3969D01*
X4833Y3969D02*
X4853Y3969D01*
X4881Y3969D02*
X4901Y3969D01*
X4933Y3969D02*
X4953Y3969D01*
X4981Y3969D02*
X5001Y3969D01*
X5033Y3969D02*
X5053Y3969D01*
X5081Y3969D02*
X5101Y3969D01*
X5133Y3969D02*
X5153Y3969D01*
X5181Y3969D02*
X5201Y3969D01*
X5233Y3969D02*
X5253Y3969D01*
X5281Y3969D02*
X5301Y3969D01*
X5333Y3969D02*
X5353Y3969D01*
X5381Y3969D02*
X5401Y3969D01*
X5433Y3969D02*
X5453Y3969D01*
X5481Y3969D02*
X5501Y3969D01*
X5533Y3969D02*
X5553Y3969D01*
X5581Y3969D02*
X5601Y3969D01*
X5633Y3969D02*
X5653Y3969D01*
X5681Y3969D02*
X5700Y3969D01*
X740Y3968D02*
X795Y3968D01*
X840Y3968D02*
X895Y3968D01*
X940Y3968D02*
X995Y3968D01*
X1740Y3968D02*
X1794Y3968D01*
X1840Y3968D02*
X1894Y3968D01*
X1940Y3968D02*
X1994Y3968D01*
X2890Y3968D02*
X2944Y3968D01*
X2990Y3968D02*
X3044Y3968D01*
X3090Y3968D02*
X3144Y3968D01*
X4834Y3968D02*
X4854Y3968D01*
X4880Y3968D02*
X4900Y3968D01*
X4934Y3968D02*
X4954Y3968D01*
X4980Y3968D02*
X5000Y3968D01*
X5034Y3968D02*
X5054Y3968D01*
X5080Y3968D02*
X5100Y3968D01*
X5134Y3968D02*
X5154Y3968D01*
X5180Y3968D02*
X5200Y3968D01*
X5234Y3968D02*
X5254Y3968D01*
X5280Y3968D02*
X5300Y3968D01*
X5334Y3968D02*
X5354Y3968D01*
X5380Y3968D02*
X5400Y3968D01*
X5434Y3968D02*
X5454Y3968D01*
X5480Y3968D02*
X5500Y3968D01*
X5533Y3968D02*
X5554Y3968D01*
X5580Y3968D02*
X5600Y3968D01*
X5633Y3968D02*
X5654Y3968D01*
X5680Y3968D02*
X5700Y3968D01*
X740Y3967D02*
X795Y3967D01*
X840Y3967D02*
X895Y3967D01*
X940Y3967D02*
X995Y3967D01*
X1740Y3967D02*
X1795Y3967D01*
X1840Y3967D02*
X1895Y3967D01*
X1940Y3967D02*
X1995Y3967D01*
X2890Y3967D02*
X2945Y3967D01*
X2990Y3967D02*
X3045Y3967D01*
X3090Y3967D02*
X3145Y3967D01*
X4834Y3967D02*
X4855Y3967D01*
X4879Y3967D02*
X4900Y3967D01*
X4934Y3967D02*
X4955Y3967D01*
X4979Y3967D02*
X5000Y3967D01*
X5034Y3967D02*
X5055Y3967D01*
X5079Y3967D02*
X5100Y3967D01*
X5134Y3967D02*
X5155Y3967D01*
X5179Y3967D02*
X5200Y3967D01*
X5234Y3967D02*
X5255Y3967D01*
X5279Y3967D02*
X5300Y3967D01*
X5334Y3967D02*
X5355Y3967D01*
X5379Y3967D02*
X5400Y3967D01*
X5434Y3967D02*
X5454Y3967D01*
X5479Y3967D02*
X5500Y3967D01*
X5534Y3967D02*
X5554Y3967D01*
X5579Y3967D02*
X5600Y3967D01*
X5634Y3967D02*
X5654Y3967D01*
X5679Y3967D02*
X5700Y3967D01*
X740Y3966D02*
X795Y3966D01*
X840Y3966D02*
X895Y3966D01*
X940Y3966D02*
X995Y3966D01*
X1740Y3966D02*
X1795Y3966D01*
X1840Y3966D02*
X1895Y3966D01*
X1940Y3966D02*
X1995Y3966D01*
X2889Y3966D02*
X2945Y3966D01*
X2989Y3966D02*
X3045Y3966D01*
X3089Y3966D02*
X3145Y3966D01*
X4834Y3966D02*
X4855Y3966D01*
X4878Y3966D02*
X4900Y3966D01*
X4934Y3966D02*
X4955Y3966D01*
X4978Y3966D02*
X5000Y3966D01*
X5034Y3966D02*
X5055Y3966D01*
X5078Y3966D02*
X5100Y3966D01*
X5134Y3966D02*
X5155Y3966D01*
X5178Y3966D02*
X5200Y3966D01*
X5234Y3966D02*
X5255Y3966D01*
X5278Y3966D02*
X5300Y3966D01*
X5334Y3966D02*
X5355Y3966D01*
X5378Y3966D02*
X5400Y3966D01*
X5434Y3966D02*
X5455Y3966D01*
X5478Y3966D02*
X5500Y3966D01*
X5534Y3966D02*
X5555Y3966D01*
X5578Y3966D02*
X5600Y3966D01*
X5634Y3966D02*
X5655Y3966D01*
X5678Y3966D02*
X5700Y3966D01*
X739Y3965D02*
X796Y3965D01*
X839Y3965D02*
X896Y3965D01*
X939Y3965D02*
X996Y3965D01*
X1739Y3965D02*
X1796Y3965D01*
X1839Y3965D02*
X1895Y3965D01*
X1939Y3965D02*
X1995Y3965D01*
X2889Y3965D02*
X2945Y3965D01*
X2989Y3965D02*
X3045Y3965D01*
X3089Y3965D02*
X3145Y3965D01*
X4834Y3965D02*
X4856Y3965D01*
X4877Y3965D02*
X4899Y3965D01*
X4934Y3965D02*
X4956Y3965D01*
X4977Y3965D02*
X4999Y3965D01*
X5034Y3965D02*
X5056Y3965D01*
X5077Y3965D02*
X5099Y3965D01*
X5134Y3965D02*
X5156Y3965D01*
X5177Y3965D02*
X5199Y3965D01*
X5234Y3965D02*
X5256Y3965D01*
X5277Y3965D02*
X5299Y3965D01*
X5334Y3965D02*
X5356Y3965D01*
X5377Y3965D02*
X5399Y3965D01*
X5434Y3965D02*
X5456Y3965D01*
X5477Y3965D02*
X5499Y3965D01*
X5534Y3965D02*
X5556Y3965D01*
X5577Y3965D02*
X5599Y3965D01*
X5634Y3965D02*
X5656Y3965D01*
X5677Y3965D02*
X5699Y3965D01*
X739Y3964D02*
X796Y3964D01*
X839Y3964D02*
X896Y3964D01*
X939Y3964D02*
X996Y3964D01*
X1739Y3964D02*
X1796Y3964D01*
X1839Y3964D02*
X1896Y3964D01*
X1939Y3964D02*
X1996Y3964D01*
X2889Y3964D02*
X2946Y3964D01*
X2989Y3964D02*
X3046Y3964D01*
X3089Y3964D02*
X3146Y3964D01*
X4835Y3964D02*
X4858Y3964D01*
X4876Y3964D02*
X4899Y3964D01*
X4935Y3964D02*
X4958Y3964D01*
X4976Y3964D02*
X4999Y3964D01*
X5035Y3964D02*
X5058Y3964D01*
X5076Y3964D02*
X5099Y3964D01*
X5135Y3964D02*
X5158Y3964D01*
X5176Y3964D02*
X5199Y3964D01*
X5235Y3964D02*
X5258Y3964D01*
X5276Y3964D02*
X5299Y3964D01*
X5335Y3964D02*
X5358Y3964D01*
X5376Y3964D02*
X5399Y3964D01*
X5435Y3964D02*
X5458Y3964D01*
X5476Y3964D02*
X5499Y3964D01*
X5535Y3964D02*
X5558Y3964D01*
X5576Y3964D02*
X5599Y3964D01*
X5635Y3964D02*
X5657Y3964D01*
X5676Y3964D02*
X5699Y3964D01*
X739Y3963D02*
X796Y3963D01*
X839Y3963D02*
X896Y3963D01*
X939Y3963D02*
X996Y3963D01*
X1739Y3963D02*
X1796Y3963D01*
X1839Y3963D02*
X1896Y3963D01*
X1939Y3963D02*
X1996Y3963D01*
X2889Y3963D02*
X2946Y3963D01*
X2989Y3963D02*
X3046Y3963D01*
X3089Y3963D02*
X3146Y3963D01*
X4835Y3963D02*
X4859Y3963D01*
X4875Y3963D02*
X4899Y3963D01*
X4935Y3963D02*
X4959Y3963D01*
X4975Y3963D02*
X4999Y3963D01*
X5035Y3963D02*
X5059Y3963D01*
X5075Y3963D02*
X5099Y3963D01*
X5135Y3963D02*
X5159Y3963D01*
X5175Y3963D02*
X5199Y3963D01*
X5235Y3963D02*
X5259Y3963D01*
X5275Y3963D02*
X5299Y3963D01*
X5335Y3963D02*
X5359Y3963D01*
X5375Y3963D02*
X5399Y3963D01*
X5435Y3963D02*
X5459Y3963D01*
X5475Y3963D02*
X5499Y3963D01*
X5535Y3963D02*
X5559Y3963D01*
X5575Y3963D02*
X5599Y3963D01*
X5635Y3963D02*
X5659Y3963D01*
X5675Y3963D02*
X5699Y3963D01*
X739Y3962D02*
X796Y3962D01*
X839Y3962D02*
X896Y3962D01*
X939Y3962D02*
X996Y3962D01*
X1738Y3962D02*
X1796Y3962D01*
X1838Y3962D02*
X1896Y3962D01*
X1938Y3962D02*
X1996Y3962D01*
X2888Y3962D02*
X2946Y3962D01*
X2988Y3962D02*
X3046Y3962D01*
X3088Y3962D02*
X3146Y3962D01*
X4836Y3962D02*
X4861Y3962D01*
X4873Y3962D02*
X4898Y3962D01*
X4936Y3962D02*
X4961Y3962D01*
X4973Y3962D02*
X4998Y3962D01*
X5036Y3962D02*
X5061Y3962D01*
X5073Y3962D02*
X5098Y3962D01*
X5136Y3962D02*
X5161Y3962D01*
X5173Y3962D02*
X5198Y3962D01*
X5236Y3962D02*
X5261Y3962D01*
X5273Y3962D02*
X5298Y3962D01*
X5336Y3962D02*
X5361Y3962D01*
X5373Y3962D02*
X5398Y3962D01*
X5436Y3962D02*
X5461Y3962D01*
X5473Y3962D02*
X5498Y3962D01*
X5536Y3962D02*
X5561Y3962D01*
X5573Y3962D02*
X5598Y3962D01*
X5636Y3962D02*
X5661Y3962D01*
X5673Y3962D02*
X5698Y3962D01*
X738Y3961D02*
X797Y3961D01*
X838Y3961D02*
X897Y3961D01*
X938Y3961D02*
X997Y3961D01*
X1738Y3961D02*
X1796Y3961D01*
X1838Y3961D02*
X1896Y3961D01*
X1938Y3961D02*
X1996Y3961D01*
X2888Y3961D02*
X2946Y3961D01*
X2988Y3961D02*
X3046Y3961D01*
X3088Y3961D02*
X3146Y3961D01*
X4836Y3961D02*
X4898Y3961D01*
X4936Y3961D02*
X4998Y3961D01*
X5036Y3961D02*
X5098Y3961D01*
X5136Y3961D02*
X5198Y3961D01*
X5236Y3961D02*
X5298Y3961D01*
X5336Y3961D02*
X5398Y3961D01*
X5436Y3961D02*
X5498Y3961D01*
X5536Y3961D02*
X5598Y3961D01*
X5636Y3961D02*
X5698Y3961D01*
X738Y3960D02*
X797Y3960D01*
X838Y3960D02*
X897Y3960D01*
X938Y3960D02*
X997Y3960D01*
X1738Y3960D02*
X1797Y3960D01*
X1838Y3960D02*
X1897Y3960D01*
X1938Y3960D02*
X1997Y3960D01*
X2888Y3960D02*
X2946Y3960D01*
X2988Y3960D02*
X3046Y3960D01*
X3088Y3960D02*
X3146Y3960D01*
X4837Y3960D02*
X4897Y3960D01*
X4937Y3960D02*
X4997Y3960D01*
X5037Y3960D02*
X5097Y3960D01*
X5137Y3960D02*
X5197Y3960D01*
X5237Y3960D02*
X5297Y3960D01*
X5337Y3960D02*
X5397Y3960D01*
X5437Y3960D02*
X5497Y3960D01*
X5537Y3960D02*
X5597Y3960D01*
X5637Y3960D02*
X5697Y3960D01*
X738Y3959D02*
X797Y3959D01*
X838Y3959D02*
X897Y3959D01*
X938Y3959D02*
X997Y3959D01*
X1738Y3959D02*
X1797Y3959D01*
X1838Y3959D02*
X1897Y3959D01*
X1938Y3959D02*
X1997Y3959D01*
X2888Y3959D02*
X2947Y3959D01*
X2988Y3959D02*
X3047Y3959D01*
X3088Y3959D02*
X3147Y3959D01*
X4837Y3959D02*
X4897Y3959D01*
X4937Y3959D02*
X4997Y3959D01*
X5037Y3959D02*
X5097Y3959D01*
X5137Y3959D02*
X5197Y3959D01*
X5237Y3959D02*
X5297Y3959D01*
X5337Y3959D02*
X5397Y3959D01*
X5437Y3959D02*
X5497Y3959D01*
X5537Y3959D02*
X5597Y3959D01*
X5637Y3959D02*
X5697Y3959D01*
X738Y3958D02*
X797Y3958D01*
X838Y3958D02*
X897Y3958D01*
X938Y3958D02*
X997Y3958D01*
X1738Y3958D02*
X1797Y3958D01*
X1838Y3958D02*
X1897Y3958D01*
X1938Y3958D02*
X1997Y3958D01*
X2888Y3958D02*
X2947Y3958D01*
X2988Y3958D02*
X3047Y3958D01*
X3088Y3958D02*
X3147Y3958D01*
X4838Y3958D02*
X4896Y3958D01*
X4938Y3958D02*
X4996Y3958D01*
X5038Y3958D02*
X5096Y3958D01*
X5138Y3958D02*
X5196Y3958D01*
X5238Y3958D02*
X5296Y3958D01*
X5338Y3958D02*
X5396Y3958D01*
X5438Y3958D02*
X5496Y3958D01*
X5538Y3958D02*
X5596Y3958D01*
X5638Y3958D02*
X5696Y3958D01*
X738Y3957D02*
X797Y3957D01*
X838Y3957D02*
X897Y3957D01*
X938Y3957D02*
X997Y3957D01*
X1738Y3957D02*
X1797Y3957D01*
X1838Y3957D02*
X1897Y3957D01*
X1938Y3957D02*
X1997Y3957D01*
X2888Y3957D02*
X2947Y3957D01*
X2988Y3957D02*
X3047Y3957D01*
X3088Y3957D02*
X3147Y3957D01*
X4838Y3957D02*
X4896Y3957D01*
X4938Y3957D02*
X4996Y3957D01*
X5038Y3957D02*
X5096Y3957D01*
X5138Y3957D02*
X5196Y3957D01*
X5238Y3957D02*
X5296Y3957D01*
X5338Y3957D02*
X5396Y3957D01*
X5438Y3957D02*
X5496Y3957D01*
X5538Y3957D02*
X5596Y3957D01*
X5638Y3957D02*
X5695Y3957D01*
X738Y3956D02*
X797Y3956D01*
X838Y3956D02*
X897Y3956D01*
X938Y3956D02*
X997Y3956D01*
X1738Y3956D02*
X1797Y3956D01*
X1838Y3956D02*
X1897Y3956D01*
X1938Y3956D02*
X1997Y3956D01*
X2888Y3956D02*
X2947Y3956D01*
X2988Y3956D02*
X3047Y3956D01*
X3088Y3956D02*
X3147Y3956D01*
X4839Y3956D02*
X4895Y3956D01*
X4939Y3956D02*
X4995Y3956D01*
X5039Y3956D02*
X5095Y3956D01*
X5139Y3956D02*
X5195Y3956D01*
X5239Y3956D02*
X5295Y3956D01*
X5339Y3956D02*
X5395Y3956D01*
X5439Y3956D02*
X5495Y3956D01*
X5539Y3956D02*
X5595Y3956D01*
X5639Y3956D02*
X5695Y3956D01*
X738Y3955D02*
X797Y3955D01*
X838Y3955D02*
X897Y3955D01*
X938Y3955D02*
X997Y3955D01*
X1738Y3955D02*
X1797Y3955D01*
X1838Y3955D02*
X1897Y3955D01*
X1938Y3955D02*
X1997Y3955D01*
X2888Y3955D02*
X2947Y3955D01*
X2988Y3955D02*
X3047Y3955D01*
X3088Y3955D02*
X3147Y3955D01*
X4840Y3955D02*
X4894Y3955D01*
X4940Y3955D02*
X4994Y3955D01*
X5040Y3955D02*
X5094Y3955D01*
X5140Y3955D02*
X5194Y3955D01*
X5240Y3955D02*
X5294Y3955D01*
X5340Y3955D02*
X5394Y3955D01*
X5440Y3955D02*
X5494Y3955D01*
X5540Y3955D02*
X5594Y3955D01*
X5640Y3955D02*
X5694Y3955D01*
X738Y3954D02*
X797Y3954D01*
X838Y3954D02*
X897Y3954D01*
X938Y3954D02*
X997Y3954D01*
X1738Y3954D02*
X1797Y3954D01*
X1838Y3954D02*
X1897Y3954D01*
X1938Y3954D02*
X1997Y3954D01*
X2888Y3954D02*
X2947Y3954D01*
X2988Y3954D02*
X3047Y3954D01*
X3088Y3954D02*
X3147Y3954D01*
X4840Y3954D02*
X4894Y3954D01*
X4940Y3954D02*
X4994Y3954D01*
X5040Y3954D02*
X5093Y3954D01*
X5140Y3954D02*
X5193Y3954D01*
X5240Y3954D02*
X5293Y3954D01*
X5340Y3954D02*
X5393Y3954D01*
X5440Y3954D02*
X5493Y3954D01*
X5540Y3954D02*
X5593Y3954D01*
X5640Y3954D02*
X5693Y3954D01*
X738Y3953D02*
X797Y3953D01*
X838Y3953D02*
X897Y3953D01*
X938Y3953D02*
X997Y3953D01*
X1738Y3953D02*
X1797Y3953D01*
X1838Y3953D02*
X1897Y3953D01*
X1938Y3953D02*
X1997Y3953D01*
X2888Y3953D02*
X2947Y3953D01*
X2988Y3953D02*
X3047Y3953D01*
X3088Y3953D02*
X3147Y3953D01*
X4841Y3953D02*
X4893Y3953D01*
X4941Y3953D02*
X4993Y3953D01*
X5041Y3953D02*
X5093Y3953D01*
X5141Y3953D02*
X5193Y3953D01*
X5241Y3953D02*
X5293Y3953D01*
X5341Y3953D02*
X5393Y3953D01*
X5441Y3953D02*
X5493Y3953D01*
X5541Y3953D02*
X5593Y3953D01*
X5641Y3953D02*
X5693Y3953D01*
X738Y3952D02*
X797Y3952D01*
X838Y3952D02*
X897Y3952D01*
X938Y3952D02*
X997Y3952D01*
X1738Y3952D02*
X1797Y3952D01*
X1838Y3952D02*
X1897Y3952D01*
X1938Y3952D02*
X1997Y3952D01*
X2888Y3952D02*
X2947Y3952D01*
X2988Y3952D02*
X3047Y3952D01*
X3088Y3952D02*
X3147Y3952D01*
X4842Y3952D02*
X4892Y3952D01*
X4942Y3952D02*
X4992Y3952D01*
X5042Y3952D02*
X5092Y3952D01*
X5142Y3952D02*
X5192Y3952D01*
X5242Y3952D02*
X5292Y3952D01*
X5342Y3952D02*
X5392Y3952D01*
X5442Y3952D02*
X5492Y3952D01*
X5542Y3952D02*
X5592Y3952D01*
X5642Y3952D02*
X5692Y3952D01*
X738Y3951D02*
X797Y3951D01*
X838Y3951D02*
X897Y3951D01*
X938Y3951D02*
X997Y3951D01*
X1738Y3951D02*
X1797Y3951D01*
X1838Y3951D02*
X1897Y3951D01*
X1938Y3951D02*
X1997Y3951D01*
X2888Y3951D02*
X2947Y3951D01*
X2988Y3951D02*
X3047Y3951D01*
X3088Y3951D02*
X3147Y3951D01*
X4843Y3951D02*
X4891Y3951D01*
X4943Y3951D02*
X4991Y3951D01*
X5043Y3951D02*
X5091Y3951D01*
X5143Y3951D02*
X5191Y3951D01*
X5243Y3951D02*
X5291Y3951D01*
X5343Y3951D02*
X5391Y3951D01*
X5443Y3951D02*
X5491Y3951D01*
X5543Y3951D02*
X5591Y3951D01*
X5643Y3951D02*
X5691Y3951D01*
X738Y3950D02*
X797Y3950D01*
X838Y3950D02*
X897Y3950D01*
X938Y3950D02*
X997Y3950D01*
X1738Y3950D02*
X1797Y3950D01*
X1838Y3950D02*
X1897Y3950D01*
X1938Y3950D02*
X1997Y3950D01*
X2888Y3950D02*
X2947Y3950D01*
X2988Y3950D02*
X3047Y3950D01*
X3088Y3950D02*
X3147Y3950D01*
X4844Y3950D02*
X4890Y3950D01*
X4944Y3950D02*
X4990Y3950D01*
X5044Y3950D02*
X5090Y3950D01*
X5144Y3950D02*
X5190Y3950D01*
X5244Y3950D02*
X5290Y3950D01*
X5344Y3950D02*
X5390Y3950D01*
X5444Y3950D02*
X5490Y3950D01*
X5544Y3950D02*
X5590Y3950D01*
X5644Y3950D02*
X5690Y3950D01*
X738Y3949D02*
X797Y3949D01*
X838Y3949D02*
X897Y3949D01*
X938Y3949D02*
X997Y3949D01*
X1738Y3949D02*
X1797Y3949D01*
X1838Y3949D02*
X1897Y3949D01*
X1938Y3949D02*
X1997Y3949D01*
X2888Y3949D02*
X2947Y3949D01*
X2988Y3949D02*
X3047Y3949D01*
X3088Y3949D02*
X3147Y3949D01*
X4845Y3949D02*
X4888Y3949D01*
X4945Y3949D02*
X4988Y3949D01*
X5045Y3949D02*
X5088Y3949D01*
X5145Y3949D02*
X5188Y3949D01*
X5245Y3949D02*
X5288Y3949D01*
X5345Y3949D02*
X5388Y3949D01*
X5445Y3949D02*
X5488Y3949D01*
X5545Y3949D02*
X5588Y3949D01*
X5645Y3949D02*
X5688Y3949D01*
X738Y3948D02*
X797Y3948D01*
X838Y3948D02*
X897Y3948D01*
X938Y3948D02*
X997Y3948D01*
X1738Y3948D02*
X1797Y3948D01*
X1838Y3948D02*
X1897Y3948D01*
X1938Y3948D02*
X1997Y3948D01*
X2888Y3948D02*
X2947Y3948D01*
X2988Y3948D02*
X3047Y3948D01*
X3088Y3948D02*
X3147Y3948D01*
X4847Y3948D02*
X4887Y3948D01*
X4947Y3948D02*
X4987Y3948D01*
X5047Y3948D02*
X5087Y3948D01*
X5147Y3948D02*
X5187Y3948D01*
X5247Y3948D02*
X5287Y3948D01*
X5347Y3948D02*
X5387Y3948D01*
X5447Y3948D02*
X5487Y3948D01*
X5547Y3948D02*
X5587Y3948D01*
X5647Y3948D02*
X5687Y3948D01*
X738Y3947D02*
X797Y3947D01*
X838Y3947D02*
X897Y3947D01*
X938Y3947D02*
X997Y3947D01*
X1738Y3947D02*
X1797Y3947D01*
X1838Y3947D02*
X1897Y3947D01*
X1938Y3947D02*
X1997Y3947D01*
X2888Y3947D02*
X2947Y3947D01*
X2988Y3947D02*
X3047Y3947D01*
X3088Y3947D02*
X3147Y3947D01*
X4848Y3947D02*
X4886Y3947D01*
X4948Y3947D02*
X4986Y3947D01*
X5048Y3947D02*
X5086Y3947D01*
X5148Y3947D02*
X5186Y3947D01*
X5248Y3947D02*
X5286Y3947D01*
X5348Y3947D02*
X5386Y3947D01*
X5448Y3947D02*
X5486Y3947D01*
X5548Y3947D02*
X5586Y3947D01*
X5648Y3947D02*
X5686Y3947D01*
X738Y3946D02*
X766Y3946D01*
X769Y3946D02*
X797Y3946D01*
X838Y3946D02*
X866Y3946D01*
X869Y3946D02*
X897Y3946D01*
X938Y3946D02*
X966Y3946D01*
X969Y3946D02*
X997Y3946D01*
X1738Y3946D02*
X1765Y3946D01*
X1769Y3946D02*
X1797Y3946D01*
X1838Y3946D02*
X1866Y3946D01*
X1869Y3946D02*
X1897Y3946D01*
X1938Y3946D02*
X1966Y3946D01*
X1969Y3946D02*
X1997Y3946D01*
X2888Y3946D02*
X2915Y3946D01*
X2918Y3946D02*
X2947Y3946D01*
X2988Y3946D02*
X3016Y3946D01*
X3019Y3946D02*
X3047Y3946D01*
X3088Y3946D02*
X3116Y3946D01*
X3119Y3946D02*
X3147Y3946D01*
X4850Y3946D02*
X4884Y3946D01*
X4950Y3946D02*
X4984Y3946D01*
X5050Y3946D02*
X5084Y3946D01*
X5150Y3946D02*
X5184Y3946D01*
X5250Y3946D02*
X5284Y3946D01*
X5350Y3946D02*
X5384Y3946D01*
X5450Y3946D02*
X5484Y3946D01*
X5550Y3946D02*
X5584Y3946D01*
X5650Y3946D02*
X5684Y3946D01*
X738Y3945D02*
X761Y3945D01*
X774Y3945D02*
X797Y3945D01*
X838Y3945D02*
X861Y3945D01*
X874Y3945D02*
X897Y3945D01*
X938Y3945D02*
X961Y3945D01*
X974Y3945D02*
X997Y3945D01*
X1738Y3945D02*
X1761Y3945D01*
X1774Y3945D02*
X1797Y3945D01*
X1838Y3945D02*
X1861Y3945D01*
X1874Y3945D02*
X1897Y3945D01*
X1938Y3945D02*
X1961Y3945D01*
X1974Y3945D02*
X1997Y3945D01*
X2888Y3945D02*
X2910Y3945D01*
X2924Y3945D02*
X2947Y3945D01*
X2988Y3945D02*
X3010Y3945D01*
X3024Y3945D02*
X3047Y3945D01*
X3088Y3945D02*
X3110Y3945D01*
X3124Y3945D02*
X3147Y3945D01*
X4852Y3945D02*
X4882Y3945D01*
X4952Y3945D02*
X4982Y3945D01*
X5052Y3945D02*
X5082Y3945D01*
X5152Y3945D02*
X5182Y3945D01*
X5252Y3945D02*
X5282Y3945D01*
X5352Y3945D02*
X5382Y3945D01*
X5452Y3945D02*
X5482Y3945D01*
X5552Y3945D02*
X5582Y3945D01*
X5652Y3945D02*
X5682Y3945D01*
X738Y3944D02*
X758Y3944D01*
X777Y3944D02*
X797Y3944D01*
X838Y3944D02*
X858Y3944D01*
X877Y3944D02*
X897Y3944D01*
X938Y3944D02*
X958Y3944D01*
X977Y3944D02*
X997Y3944D01*
X1738Y3944D02*
X1758Y3944D01*
X1777Y3944D02*
X1797Y3944D01*
X1838Y3944D02*
X1858Y3944D01*
X1877Y3944D02*
X1897Y3944D01*
X1938Y3944D02*
X1958Y3944D01*
X1977Y3944D02*
X1997Y3944D01*
X2888Y3944D02*
X2908Y3944D01*
X2926Y3944D02*
X2947Y3944D01*
X2988Y3944D02*
X3008Y3944D01*
X3026Y3944D02*
X3047Y3944D01*
X3088Y3944D02*
X3108Y3944D01*
X3126Y3944D02*
X3147Y3944D01*
X4854Y3944D02*
X4880Y3944D01*
X4954Y3944D02*
X4980Y3944D01*
X5054Y3944D02*
X5080Y3944D01*
X5154Y3944D02*
X5180Y3944D01*
X5254Y3944D02*
X5280Y3944D01*
X5354Y3944D02*
X5380Y3944D01*
X5454Y3944D02*
X5480Y3944D01*
X5554Y3944D02*
X5580Y3944D01*
X5654Y3944D02*
X5680Y3944D01*
X738Y3943D02*
X756Y3943D01*
X779Y3943D02*
X797Y3943D01*
X838Y3943D02*
X856Y3943D01*
X879Y3943D02*
X897Y3943D01*
X938Y3943D02*
X956Y3943D01*
X979Y3943D02*
X997Y3943D01*
X1738Y3943D02*
X1756Y3943D01*
X1778Y3943D02*
X1797Y3943D01*
X1838Y3943D02*
X1856Y3943D01*
X1878Y3943D02*
X1897Y3943D01*
X1938Y3943D02*
X1956Y3943D01*
X1978Y3943D02*
X1997Y3943D01*
X2888Y3943D02*
X2906Y3943D01*
X2928Y3943D02*
X2947Y3943D01*
X2988Y3943D02*
X3006Y3943D01*
X3028Y3943D02*
X3047Y3943D01*
X3088Y3943D02*
X3106Y3943D01*
X3128Y3943D02*
X3147Y3943D01*
X4857Y3943D02*
X4877Y3943D01*
X4957Y3943D02*
X4977Y3943D01*
X5057Y3943D02*
X5077Y3943D01*
X5157Y3943D02*
X5177Y3943D01*
X5257Y3943D02*
X5277Y3943D01*
X5357Y3943D02*
X5377Y3943D01*
X5457Y3943D02*
X5477Y3943D01*
X5557Y3943D02*
X5577Y3943D01*
X5657Y3943D02*
X5677Y3943D01*
X738Y3942D02*
X755Y3942D01*
X780Y3942D02*
X797Y3942D01*
X838Y3942D02*
X855Y3942D01*
X880Y3942D02*
X897Y3942D01*
X938Y3942D02*
X955Y3942D01*
X980Y3942D02*
X997Y3942D01*
X1738Y3942D02*
X1755Y3942D01*
X1780Y3942D02*
X1797Y3942D01*
X1838Y3942D02*
X1855Y3942D01*
X1880Y3942D02*
X1897Y3942D01*
X1938Y3942D02*
X1955Y3942D01*
X1980Y3942D02*
X1997Y3942D01*
X2888Y3942D02*
X2905Y3942D01*
X2930Y3942D02*
X2947Y3942D01*
X2988Y3942D02*
X3005Y3942D01*
X3030Y3942D02*
X3047Y3942D01*
X3088Y3942D02*
X3105Y3942D01*
X3130Y3942D02*
X3147Y3942D01*
X4860Y3942D02*
X4874Y3942D01*
X4960Y3942D02*
X4974Y3942D01*
X5060Y3942D02*
X5074Y3942D01*
X5160Y3942D02*
X5174Y3942D01*
X5260Y3942D02*
X5274Y3942D01*
X5360Y3942D02*
X5374Y3942D01*
X5460Y3942D02*
X5474Y3942D01*
X5560Y3942D02*
X5574Y3942D01*
X5660Y3942D02*
X5674Y3942D01*
X738Y3941D02*
X754Y3941D01*
X781Y3941D02*
X797Y3941D01*
X838Y3941D02*
X854Y3941D01*
X881Y3941D02*
X897Y3941D01*
X938Y3941D02*
X954Y3941D01*
X981Y3941D02*
X997Y3941D01*
X1738Y3941D02*
X1754Y3941D01*
X1781Y3941D02*
X1797Y3941D01*
X1838Y3941D02*
X1854Y3941D01*
X1881Y3941D02*
X1897Y3941D01*
X1938Y3941D02*
X1954Y3941D01*
X1981Y3941D02*
X1997Y3941D01*
X2888Y3941D02*
X2903Y3941D01*
X2931Y3941D02*
X2947Y3941D01*
X2988Y3941D02*
X3003Y3941D01*
X3031Y3941D02*
X3047Y3941D01*
X3088Y3941D02*
X3103Y3941D01*
X3131Y3941D02*
X3147Y3941D01*
X738Y3940D02*
X753Y3940D01*
X782Y3940D02*
X797Y3940D01*
X838Y3940D02*
X853Y3940D01*
X882Y3940D02*
X897Y3940D01*
X938Y3940D02*
X953Y3940D01*
X982Y3940D02*
X997Y3940D01*
X1738Y3940D02*
X1753Y3940D01*
X1782Y3940D02*
X1797Y3940D01*
X1838Y3940D02*
X1853Y3940D01*
X1882Y3940D02*
X1897Y3940D01*
X1938Y3940D02*
X1953Y3940D01*
X1982Y3940D02*
X1997Y3940D01*
X2888Y3940D02*
X2902Y3940D01*
X2932Y3940D02*
X2947Y3940D01*
X2988Y3940D02*
X3002Y3940D01*
X3032Y3940D02*
X3047Y3940D01*
X3088Y3940D02*
X3102Y3940D01*
X3132Y3940D02*
X3147Y3940D01*
X738Y3939D02*
X752Y3939D01*
X783Y3939D02*
X797Y3939D01*
X838Y3939D02*
X852Y3939D01*
X883Y3939D02*
X897Y3939D01*
X938Y3939D02*
X952Y3939D01*
X983Y3939D02*
X997Y3939D01*
X1738Y3939D02*
X1752Y3939D01*
X1783Y3939D02*
X1797Y3939D01*
X1838Y3939D02*
X1852Y3939D01*
X1883Y3939D02*
X1897Y3939D01*
X1938Y3939D02*
X1952Y3939D01*
X1983Y3939D02*
X1997Y3939D01*
X2888Y3939D02*
X2902Y3939D01*
X2933Y3939D02*
X2947Y3939D01*
X2988Y3939D02*
X3002Y3939D01*
X3033Y3939D02*
X3047Y3939D01*
X3088Y3939D02*
X3102Y3939D01*
X3133Y3939D02*
X3147Y3939D01*
X738Y3938D02*
X751Y3938D01*
X784Y3938D02*
X797Y3938D01*
X838Y3938D02*
X851Y3938D01*
X884Y3938D02*
X897Y3938D01*
X938Y3938D02*
X951Y3938D01*
X984Y3938D02*
X997Y3938D01*
X1738Y3938D02*
X1751Y3938D01*
X1784Y3938D02*
X1797Y3938D01*
X1838Y3938D02*
X1851Y3938D01*
X1884Y3938D02*
X1897Y3938D01*
X1938Y3938D02*
X1951Y3938D01*
X1984Y3938D02*
X1997Y3938D01*
X2888Y3938D02*
X2901Y3938D01*
X2934Y3938D02*
X2947Y3938D01*
X2988Y3938D02*
X3001Y3938D01*
X3034Y3938D02*
X3047Y3938D01*
X3088Y3938D02*
X3101Y3938D01*
X3134Y3938D02*
X3147Y3938D01*
X738Y3937D02*
X750Y3937D01*
X785Y3937D02*
X797Y3937D01*
X838Y3937D02*
X850Y3937D01*
X885Y3937D02*
X897Y3937D01*
X938Y3937D02*
X950Y3937D01*
X985Y3937D02*
X997Y3937D01*
X1738Y3937D02*
X1750Y3937D01*
X1785Y3937D02*
X1797Y3937D01*
X1838Y3937D02*
X1850Y3937D01*
X1885Y3937D02*
X1897Y3937D01*
X1938Y3937D02*
X1950Y3937D01*
X1985Y3937D02*
X1997Y3937D01*
X2888Y3937D02*
X2900Y3937D01*
X2934Y3937D02*
X2947Y3937D01*
X2988Y3937D02*
X3000Y3937D01*
X3034Y3937D02*
X3047Y3937D01*
X3088Y3937D02*
X3100Y3937D01*
X3134Y3937D02*
X3147Y3937D01*
X738Y3936D02*
X750Y3936D01*
X785Y3936D02*
X797Y3936D01*
X838Y3936D02*
X850Y3936D01*
X885Y3936D02*
X897Y3936D01*
X938Y3936D02*
X950Y3936D01*
X985Y3936D02*
X997Y3936D01*
X1738Y3936D02*
X1750Y3936D01*
X1785Y3936D02*
X1797Y3936D01*
X1838Y3936D02*
X1850Y3936D01*
X1885Y3936D02*
X1897Y3936D01*
X1938Y3936D02*
X1950Y3936D01*
X1985Y3936D02*
X1997Y3936D01*
X2888Y3936D02*
X2899Y3936D01*
X2935Y3936D02*
X2947Y3936D01*
X2988Y3936D02*
X2999Y3936D01*
X3035Y3936D02*
X3047Y3936D01*
X3088Y3936D02*
X3099Y3936D01*
X3135Y3936D02*
X3147Y3936D01*
X738Y3935D02*
X749Y3935D01*
X786Y3935D02*
X797Y3935D01*
X838Y3935D02*
X849Y3935D01*
X886Y3935D02*
X897Y3935D01*
X938Y3935D02*
X949Y3935D01*
X986Y3935D02*
X997Y3935D01*
X1738Y3935D02*
X1749Y3935D01*
X1786Y3935D02*
X1797Y3935D01*
X1838Y3935D02*
X1849Y3935D01*
X1886Y3935D02*
X1897Y3935D01*
X1938Y3935D02*
X1949Y3935D01*
X1986Y3935D02*
X1997Y3935D01*
X2888Y3935D02*
X2899Y3935D01*
X2936Y3935D02*
X2947Y3935D01*
X2988Y3935D02*
X2999Y3935D01*
X3036Y3935D02*
X3047Y3935D01*
X3088Y3935D02*
X3099Y3935D01*
X3136Y3935D02*
X3147Y3935D01*
X738Y3934D02*
X749Y3934D01*
X786Y3934D02*
X797Y3934D01*
X838Y3934D02*
X849Y3934D01*
X886Y3934D02*
X897Y3934D01*
X938Y3934D02*
X949Y3934D01*
X986Y3934D02*
X997Y3934D01*
X1738Y3934D02*
X1749Y3934D01*
X1786Y3934D02*
X1797Y3934D01*
X1838Y3934D02*
X1849Y3934D01*
X1886Y3934D02*
X1897Y3934D01*
X1938Y3934D02*
X1949Y3934D01*
X1986Y3934D02*
X1997Y3934D01*
X2888Y3934D02*
X2898Y3934D01*
X2936Y3934D02*
X2947Y3934D01*
X2988Y3934D02*
X2998Y3934D01*
X3036Y3934D02*
X3047Y3934D01*
X3088Y3934D02*
X3098Y3934D01*
X3136Y3934D02*
X3147Y3934D01*
X738Y3933D02*
X748Y3933D01*
X787Y3933D02*
X797Y3933D01*
X838Y3933D02*
X848Y3933D01*
X887Y3933D02*
X897Y3933D01*
X938Y3933D02*
X948Y3933D01*
X987Y3933D02*
X997Y3933D01*
X1738Y3933D02*
X1748Y3933D01*
X1787Y3933D02*
X1797Y3933D01*
X1838Y3933D02*
X1848Y3933D01*
X1887Y3933D02*
X1897Y3933D01*
X1938Y3933D02*
X1948Y3933D01*
X1987Y3933D02*
X1997Y3933D01*
X2888Y3933D02*
X2898Y3933D01*
X2936Y3933D02*
X2947Y3933D01*
X2988Y3933D02*
X2998Y3933D01*
X3036Y3933D02*
X3047Y3933D01*
X3088Y3933D02*
X3098Y3933D01*
X3136Y3933D02*
X3147Y3933D01*
X738Y3932D02*
X748Y3932D01*
X787Y3932D02*
X797Y3932D01*
X838Y3932D02*
X848Y3932D01*
X887Y3932D02*
X897Y3932D01*
X938Y3932D02*
X948Y3932D01*
X987Y3932D02*
X997Y3932D01*
X1738Y3932D02*
X1748Y3932D01*
X1787Y3932D02*
X1797Y3932D01*
X1838Y3932D02*
X1848Y3932D01*
X1887Y3932D02*
X1897Y3932D01*
X1938Y3932D02*
X1948Y3932D01*
X1987Y3932D02*
X1997Y3932D01*
X2888Y3932D02*
X2898Y3932D01*
X2937Y3932D02*
X2947Y3932D01*
X2988Y3932D02*
X2998Y3932D01*
X3037Y3932D02*
X3047Y3932D01*
X3088Y3932D02*
X3098Y3932D01*
X3137Y3932D02*
X3147Y3932D01*
X738Y3931D02*
X748Y3931D01*
X787Y3931D02*
X797Y3931D01*
X838Y3931D02*
X848Y3931D01*
X887Y3931D02*
X897Y3931D01*
X938Y3931D02*
X948Y3931D01*
X987Y3931D02*
X997Y3931D01*
X1738Y3931D02*
X1748Y3931D01*
X1787Y3931D02*
X1797Y3931D01*
X1838Y3931D02*
X1848Y3931D01*
X1887Y3931D02*
X1897Y3931D01*
X1938Y3931D02*
X1948Y3931D01*
X1987Y3931D02*
X1997Y3931D01*
X2888Y3931D02*
X2897Y3931D01*
X2937Y3931D02*
X2947Y3931D01*
X2988Y3931D02*
X2997Y3931D01*
X3037Y3931D02*
X3047Y3931D01*
X3088Y3931D02*
X3097Y3931D01*
X3137Y3931D02*
X3147Y3931D01*
X738Y3930D02*
X747Y3930D01*
X788Y3930D02*
X797Y3930D01*
X838Y3930D02*
X847Y3930D01*
X888Y3930D02*
X897Y3930D01*
X938Y3930D02*
X947Y3930D01*
X988Y3930D02*
X997Y3930D01*
X1738Y3930D02*
X1747Y3930D01*
X1787Y3930D02*
X1797Y3930D01*
X1838Y3930D02*
X1847Y3930D01*
X1887Y3930D02*
X1897Y3930D01*
X1938Y3930D02*
X1947Y3930D01*
X1987Y3930D02*
X1997Y3930D01*
X2888Y3930D02*
X2897Y3930D01*
X2937Y3930D02*
X2947Y3930D01*
X2988Y3930D02*
X2997Y3930D01*
X3037Y3930D02*
X3047Y3930D01*
X3088Y3930D02*
X3097Y3930D01*
X3137Y3930D02*
X3147Y3930D01*
X738Y3929D02*
X747Y3929D01*
X788Y3929D02*
X797Y3929D01*
X838Y3929D02*
X847Y3929D01*
X888Y3929D02*
X897Y3929D01*
X938Y3929D02*
X947Y3929D01*
X988Y3929D02*
X997Y3929D01*
X1738Y3929D02*
X1747Y3929D01*
X1788Y3929D02*
X1797Y3929D01*
X1838Y3929D02*
X1847Y3929D01*
X1888Y3929D02*
X1897Y3929D01*
X1938Y3929D02*
X1947Y3929D01*
X1988Y3929D02*
X1997Y3929D01*
X2888Y3929D02*
X2897Y3929D01*
X2937Y3929D02*
X2947Y3929D01*
X2988Y3929D02*
X2997Y3929D01*
X3037Y3929D02*
X3047Y3929D01*
X3088Y3929D02*
X3097Y3929D01*
X3137Y3929D02*
X3147Y3929D01*
X738Y3928D02*
X747Y3928D01*
X788Y3928D02*
X797Y3928D01*
X838Y3928D02*
X847Y3928D01*
X888Y3928D02*
X897Y3928D01*
X938Y3928D02*
X947Y3928D01*
X988Y3928D02*
X997Y3928D01*
X1738Y3928D02*
X1747Y3928D01*
X1788Y3928D02*
X1797Y3928D01*
X1838Y3928D02*
X1847Y3928D01*
X1888Y3928D02*
X1897Y3928D01*
X1938Y3928D02*
X1947Y3928D01*
X1988Y3928D02*
X1997Y3928D01*
X2888Y3928D02*
X2897Y3928D01*
X2938Y3928D02*
X2947Y3928D01*
X2988Y3928D02*
X2997Y3928D01*
X3037Y3928D02*
X3047Y3928D01*
X3088Y3928D02*
X3097Y3928D01*
X3138Y3928D02*
X3147Y3928D01*
X738Y3927D02*
X747Y3927D01*
X788Y3927D02*
X797Y3927D01*
X838Y3927D02*
X847Y3927D01*
X888Y3927D02*
X897Y3927D01*
X938Y3927D02*
X947Y3927D01*
X988Y3927D02*
X997Y3927D01*
X1738Y3927D02*
X1747Y3927D01*
X1788Y3927D02*
X1797Y3927D01*
X1838Y3927D02*
X1847Y3927D01*
X1888Y3927D02*
X1897Y3927D01*
X1938Y3927D02*
X1947Y3927D01*
X1988Y3927D02*
X1997Y3927D01*
X2888Y3927D02*
X2897Y3927D01*
X2938Y3927D02*
X2947Y3927D01*
X2988Y3927D02*
X2997Y3927D01*
X3038Y3927D02*
X3047Y3927D01*
X3088Y3927D02*
X3097Y3927D01*
X3138Y3927D02*
X3147Y3927D01*
X738Y3926D02*
X747Y3926D01*
X788Y3926D02*
X797Y3926D01*
X838Y3926D02*
X847Y3926D01*
X888Y3926D02*
X897Y3926D01*
X938Y3926D02*
X947Y3926D01*
X988Y3926D02*
X997Y3926D01*
X1738Y3926D02*
X1747Y3926D01*
X1788Y3926D02*
X1797Y3926D01*
X1838Y3926D02*
X1847Y3926D01*
X1888Y3926D02*
X1897Y3926D01*
X1938Y3926D02*
X1947Y3926D01*
X1988Y3926D02*
X1997Y3926D01*
X2888Y3926D02*
X2897Y3926D01*
X2938Y3926D02*
X2947Y3926D01*
X2988Y3926D02*
X2997Y3926D01*
X3038Y3926D02*
X3047Y3926D01*
X3088Y3926D02*
X3097Y3926D01*
X3138Y3926D02*
X3147Y3926D01*
X738Y3925D02*
X747Y3925D01*
X788Y3925D02*
X797Y3925D01*
X838Y3925D02*
X847Y3925D01*
X888Y3925D02*
X897Y3925D01*
X938Y3925D02*
X947Y3925D01*
X988Y3925D02*
X997Y3925D01*
X1738Y3925D02*
X1747Y3925D01*
X1788Y3925D02*
X1797Y3925D01*
X1838Y3925D02*
X1847Y3925D01*
X1888Y3925D02*
X1897Y3925D01*
X1938Y3925D02*
X1947Y3925D01*
X1988Y3925D02*
X1997Y3925D01*
X2888Y3925D02*
X2897Y3925D01*
X2938Y3925D02*
X2947Y3925D01*
X2988Y3925D02*
X2997Y3925D01*
X3038Y3925D02*
X3047Y3925D01*
X3088Y3925D02*
X3097Y3925D01*
X3138Y3925D02*
X3147Y3925D01*
X738Y3924D02*
X747Y3924D01*
X788Y3924D02*
X797Y3924D01*
X838Y3924D02*
X847Y3924D01*
X888Y3924D02*
X897Y3924D01*
X938Y3924D02*
X947Y3924D01*
X988Y3924D02*
X997Y3924D01*
X1738Y3924D02*
X1747Y3924D01*
X1788Y3924D02*
X1797Y3924D01*
X1838Y3924D02*
X1847Y3924D01*
X1888Y3924D02*
X1897Y3924D01*
X1938Y3924D02*
X1947Y3924D01*
X1988Y3924D02*
X1997Y3924D01*
X2888Y3924D02*
X2897Y3924D01*
X2937Y3924D02*
X2947Y3924D01*
X2988Y3924D02*
X2997Y3924D01*
X3037Y3924D02*
X3047Y3924D01*
X3088Y3924D02*
X3097Y3924D01*
X3137Y3924D02*
X3147Y3924D01*
X738Y3923D02*
X747Y3923D01*
X788Y3923D02*
X797Y3923D01*
X838Y3923D02*
X847Y3923D01*
X888Y3923D02*
X897Y3923D01*
X938Y3923D02*
X947Y3923D01*
X988Y3923D02*
X997Y3923D01*
X1738Y3923D02*
X1747Y3923D01*
X1788Y3923D02*
X1797Y3923D01*
X1838Y3923D02*
X1847Y3923D01*
X1888Y3923D02*
X1897Y3923D01*
X1938Y3923D02*
X1947Y3923D01*
X1987Y3923D02*
X1997Y3923D01*
X2888Y3923D02*
X2897Y3923D01*
X2937Y3923D02*
X2947Y3923D01*
X2988Y3923D02*
X2997Y3923D01*
X3037Y3923D02*
X3047Y3923D01*
X3088Y3923D02*
X3097Y3923D01*
X3137Y3923D02*
X3147Y3923D01*
X738Y3922D02*
X747Y3922D01*
X788Y3922D02*
X797Y3922D01*
X838Y3922D02*
X847Y3922D01*
X888Y3922D02*
X897Y3922D01*
X938Y3922D02*
X947Y3922D01*
X988Y3922D02*
X997Y3922D01*
X1738Y3922D02*
X1747Y3922D01*
X1787Y3922D02*
X1797Y3922D01*
X1838Y3922D02*
X1847Y3922D01*
X1887Y3922D02*
X1897Y3922D01*
X1938Y3922D02*
X1947Y3922D01*
X1987Y3922D02*
X1997Y3922D01*
X2888Y3922D02*
X2897Y3922D01*
X2937Y3922D02*
X2947Y3922D01*
X2988Y3922D02*
X2997Y3922D01*
X3037Y3922D02*
X3047Y3922D01*
X3088Y3922D02*
X3097Y3922D01*
X3137Y3922D02*
X3147Y3922D01*
X738Y3921D02*
X748Y3921D01*
X787Y3921D02*
X797Y3921D01*
X838Y3921D02*
X848Y3921D01*
X887Y3921D02*
X897Y3921D01*
X938Y3921D02*
X948Y3921D01*
X987Y3921D02*
X997Y3921D01*
X1738Y3921D02*
X1748Y3921D01*
X1787Y3921D02*
X1797Y3921D01*
X1838Y3921D02*
X1848Y3921D01*
X1887Y3921D02*
X1897Y3921D01*
X1938Y3921D02*
X1948Y3921D01*
X1987Y3921D02*
X1997Y3921D01*
X2888Y3921D02*
X2897Y3921D01*
X2937Y3921D02*
X2947Y3921D01*
X2988Y3921D02*
X2997Y3921D01*
X3037Y3921D02*
X3047Y3921D01*
X3088Y3921D02*
X3097Y3921D01*
X3137Y3921D02*
X3147Y3921D01*
X738Y3920D02*
X748Y3920D01*
X787Y3920D02*
X797Y3920D01*
X838Y3920D02*
X848Y3920D01*
X887Y3920D02*
X897Y3920D01*
X938Y3920D02*
X948Y3920D01*
X987Y3920D02*
X997Y3920D01*
X1738Y3920D02*
X1748Y3920D01*
X1787Y3920D02*
X1797Y3920D01*
X1838Y3920D02*
X1848Y3920D01*
X1887Y3920D02*
X1897Y3920D01*
X1938Y3920D02*
X1948Y3920D01*
X1987Y3920D02*
X1997Y3920D01*
X2888Y3920D02*
X2898Y3920D01*
X2937Y3920D02*
X2947Y3920D01*
X2988Y3920D02*
X2998Y3920D01*
X3037Y3920D02*
X3047Y3920D01*
X3088Y3920D02*
X3098Y3920D01*
X3137Y3920D02*
X3147Y3920D01*
X738Y3919D02*
X748Y3919D01*
X787Y3919D02*
X797Y3919D01*
X838Y3919D02*
X848Y3919D01*
X887Y3919D02*
X897Y3919D01*
X938Y3919D02*
X948Y3919D01*
X987Y3919D02*
X997Y3919D01*
X1738Y3919D02*
X1748Y3919D01*
X1786Y3919D02*
X1797Y3919D01*
X1838Y3919D02*
X1848Y3919D01*
X1886Y3919D02*
X1897Y3919D01*
X1938Y3919D02*
X1948Y3919D01*
X1986Y3919D02*
X1997Y3919D01*
X2888Y3919D02*
X2898Y3919D01*
X2936Y3919D02*
X2947Y3919D01*
X2988Y3919D02*
X2998Y3919D01*
X3036Y3919D02*
X3047Y3919D01*
X3088Y3919D02*
X3098Y3919D01*
X3136Y3919D02*
X3147Y3919D01*
X738Y3918D02*
X749Y3918D01*
X786Y3918D02*
X797Y3918D01*
X838Y3918D02*
X849Y3918D01*
X886Y3918D02*
X897Y3918D01*
X938Y3918D02*
X949Y3918D01*
X986Y3918D02*
X997Y3918D01*
X1738Y3918D02*
X1749Y3918D01*
X1786Y3918D02*
X1797Y3918D01*
X1838Y3918D02*
X1849Y3918D01*
X1886Y3918D02*
X1897Y3918D01*
X1938Y3918D02*
X1949Y3918D01*
X1986Y3918D02*
X1997Y3918D01*
X2888Y3918D02*
X2898Y3918D01*
X2936Y3918D02*
X2947Y3918D01*
X2988Y3918D02*
X2998Y3918D01*
X3036Y3918D02*
X3047Y3918D01*
X3088Y3918D02*
X3098Y3918D01*
X3136Y3918D02*
X3147Y3918D01*
X738Y3917D02*
X749Y3917D01*
X786Y3917D02*
X797Y3917D01*
X838Y3917D02*
X849Y3917D01*
X886Y3917D02*
X897Y3917D01*
X938Y3917D02*
X949Y3917D01*
X986Y3917D02*
X997Y3917D01*
X1738Y3917D02*
X1749Y3917D01*
X1786Y3917D02*
X1797Y3917D01*
X1838Y3917D02*
X1849Y3917D01*
X1886Y3917D02*
X1897Y3917D01*
X1938Y3917D02*
X1949Y3917D01*
X1986Y3917D02*
X1997Y3917D01*
X2888Y3917D02*
X2899Y3917D01*
X2935Y3917D02*
X2947Y3917D01*
X2988Y3917D02*
X2999Y3917D01*
X3035Y3917D02*
X3047Y3917D01*
X3088Y3917D02*
X3099Y3917D01*
X3135Y3917D02*
X3147Y3917D01*
X738Y3916D02*
X750Y3916D01*
X785Y3916D02*
X797Y3916D01*
X838Y3916D02*
X850Y3916D01*
X885Y3916D02*
X897Y3916D01*
X938Y3916D02*
X950Y3916D01*
X985Y3916D02*
X997Y3916D01*
X1738Y3916D02*
X1750Y3916D01*
X1785Y3916D02*
X1797Y3916D01*
X1838Y3916D02*
X1850Y3916D01*
X1885Y3916D02*
X1897Y3916D01*
X1938Y3916D02*
X1950Y3916D01*
X1985Y3916D02*
X1997Y3916D01*
X2888Y3916D02*
X2900Y3916D01*
X2935Y3916D02*
X2947Y3916D01*
X2988Y3916D02*
X3000Y3916D01*
X3035Y3916D02*
X3047Y3916D01*
X3088Y3916D02*
X3100Y3916D01*
X3135Y3916D02*
X3147Y3916D01*
X738Y3915D02*
X750Y3915D01*
X785Y3915D02*
X797Y3915D01*
X838Y3915D02*
X850Y3915D01*
X885Y3915D02*
X897Y3915D01*
X938Y3915D02*
X950Y3915D01*
X985Y3915D02*
X997Y3915D01*
X1738Y3915D02*
X1750Y3915D01*
X1784Y3915D02*
X1797Y3915D01*
X1838Y3915D02*
X1850Y3915D01*
X1884Y3915D02*
X1897Y3915D01*
X1938Y3915D02*
X1950Y3915D01*
X1984Y3915D02*
X1997Y3915D01*
X2888Y3915D02*
X2900Y3915D01*
X2934Y3915D02*
X2947Y3915D01*
X2988Y3915D02*
X3000Y3915D01*
X3034Y3915D02*
X3047Y3915D01*
X3088Y3915D02*
X3100Y3915D01*
X3134Y3915D02*
X3147Y3915D01*
X738Y3914D02*
X751Y3914D01*
X784Y3914D02*
X797Y3914D01*
X838Y3914D02*
X851Y3914D01*
X884Y3914D02*
X897Y3914D01*
X938Y3914D02*
X951Y3914D01*
X984Y3914D02*
X997Y3914D01*
X1738Y3914D02*
X1751Y3914D01*
X1784Y3914D02*
X1797Y3914D01*
X1838Y3914D02*
X1851Y3914D01*
X1884Y3914D02*
X1897Y3914D01*
X1938Y3914D02*
X1951Y3914D01*
X1984Y3914D02*
X1997Y3914D01*
X2888Y3914D02*
X2901Y3914D01*
X2934Y3914D02*
X2947Y3914D01*
X2988Y3914D02*
X3001Y3914D01*
X3034Y3914D02*
X3047Y3914D01*
X3088Y3914D02*
X3101Y3914D01*
X3133Y3914D02*
X3147Y3914D01*
X738Y3913D02*
X752Y3913D01*
X783Y3913D02*
X797Y3913D01*
X838Y3913D02*
X852Y3913D01*
X883Y3913D02*
X897Y3913D01*
X938Y3913D02*
X952Y3913D01*
X983Y3913D02*
X997Y3913D01*
X1738Y3913D02*
X1752Y3913D01*
X1783Y3913D02*
X1797Y3913D01*
X1838Y3913D02*
X1852Y3913D01*
X1883Y3913D02*
X1897Y3913D01*
X1938Y3913D02*
X1952Y3913D01*
X1983Y3913D02*
X1997Y3913D01*
X2888Y3913D02*
X2902Y3913D01*
X2933Y3913D02*
X2947Y3913D01*
X2988Y3913D02*
X3002Y3913D01*
X3033Y3913D02*
X3047Y3913D01*
X3088Y3913D02*
X3102Y3913D01*
X3133Y3913D02*
X3147Y3913D01*
X738Y3912D02*
X753Y3912D01*
X782Y3912D02*
X797Y3912D01*
X838Y3912D02*
X853Y3912D01*
X882Y3912D02*
X897Y3912D01*
X938Y3912D02*
X953Y3912D01*
X982Y3912D02*
X997Y3912D01*
X1738Y3912D02*
X1753Y3912D01*
X1782Y3912D02*
X1797Y3912D01*
X1838Y3912D02*
X1853Y3912D01*
X1882Y3912D02*
X1897Y3912D01*
X1938Y3912D02*
X1953Y3912D01*
X1982Y3912D02*
X1997Y3912D01*
X2888Y3912D02*
X2903Y3912D01*
X2932Y3912D02*
X2947Y3912D01*
X2988Y3912D02*
X3003Y3912D01*
X3032Y3912D02*
X3047Y3912D01*
X3088Y3912D02*
X3103Y3912D01*
X3132Y3912D02*
X3147Y3912D01*
X738Y3911D02*
X754Y3911D01*
X781Y3911D02*
X797Y3911D01*
X838Y3911D02*
X854Y3911D01*
X881Y3911D02*
X897Y3911D01*
X938Y3911D02*
X954Y3911D01*
X981Y3911D02*
X997Y3911D01*
X1738Y3911D02*
X1754Y3911D01*
X1781Y3911D02*
X1797Y3911D01*
X1838Y3911D02*
X1854Y3911D01*
X1881Y3911D02*
X1897Y3911D01*
X1938Y3911D02*
X1954Y3911D01*
X1981Y3911D02*
X1997Y3911D01*
X2888Y3911D02*
X2904Y3911D01*
X2931Y3911D02*
X2947Y3911D01*
X2988Y3911D02*
X3004Y3911D01*
X3031Y3911D02*
X3047Y3911D01*
X3088Y3911D02*
X3104Y3911D01*
X3131Y3911D02*
X3147Y3911D01*
X738Y3910D02*
X755Y3910D01*
X780Y3910D02*
X797Y3910D01*
X838Y3910D02*
X855Y3910D01*
X880Y3910D02*
X897Y3910D01*
X938Y3910D02*
X955Y3910D01*
X980Y3910D02*
X997Y3910D01*
X1738Y3910D02*
X1755Y3910D01*
X1780Y3910D02*
X1797Y3910D01*
X1838Y3910D02*
X1855Y3910D01*
X1880Y3910D02*
X1897Y3910D01*
X1938Y3910D02*
X1955Y3910D01*
X1980Y3910D02*
X1997Y3910D01*
X2888Y3910D02*
X2905Y3910D01*
X2929Y3910D02*
X2947Y3910D01*
X2988Y3910D02*
X3005Y3910D01*
X3029Y3910D02*
X3047Y3910D01*
X3088Y3910D02*
X3105Y3910D01*
X3129Y3910D02*
X3147Y3910D01*
X738Y3909D02*
X757Y3909D01*
X778Y3909D02*
X797Y3909D01*
X838Y3909D02*
X857Y3909D01*
X878Y3909D02*
X897Y3909D01*
X938Y3909D02*
X957Y3909D01*
X978Y3909D02*
X997Y3909D01*
X1738Y3909D02*
X1757Y3909D01*
X1778Y3909D02*
X1797Y3909D01*
X1838Y3909D02*
X1857Y3909D01*
X1878Y3909D02*
X1897Y3909D01*
X1938Y3909D02*
X1957Y3909D01*
X1978Y3909D02*
X1997Y3909D01*
X2888Y3909D02*
X2907Y3909D01*
X2928Y3909D02*
X2947Y3909D01*
X2988Y3909D02*
X3006Y3909D01*
X3028Y3909D02*
X3047Y3909D01*
X3088Y3909D02*
X3106Y3909D01*
X3128Y3909D02*
X3147Y3909D01*
X738Y3908D02*
X759Y3908D01*
X776Y3908D02*
X797Y3908D01*
X838Y3908D02*
X859Y3908D01*
X876Y3908D02*
X897Y3908D01*
X938Y3908D02*
X959Y3908D01*
X976Y3908D02*
X997Y3908D01*
X1738Y3908D02*
X1759Y3908D01*
X1776Y3908D02*
X1797Y3908D01*
X1838Y3908D02*
X1858Y3908D01*
X1876Y3908D02*
X1897Y3908D01*
X1938Y3908D02*
X1958Y3908D01*
X1976Y3908D02*
X1997Y3908D01*
X2888Y3908D02*
X2908Y3908D01*
X2926Y3908D02*
X2947Y3908D01*
X2988Y3908D02*
X3008Y3908D01*
X3026Y3908D02*
X3047Y3908D01*
X3088Y3908D02*
X3108Y3908D01*
X3126Y3908D02*
X3147Y3908D01*
X738Y3907D02*
X761Y3907D01*
X774Y3907D02*
X797Y3907D01*
X838Y3907D02*
X861Y3907D01*
X874Y3907D02*
X897Y3907D01*
X938Y3907D02*
X961Y3907D01*
X973Y3907D02*
X997Y3907D01*
X1738Y3907D02*
X1761Y3907D01*
X1773Y3907D02*
X1797Y3907D01*
X1838Y3907D02*
X1861Y3907D01*
X1873Y3907D02*
X1897Y3907D01*
X1938Y3907D02*
X1961Y3907D01*
X1973Y3907D02*
X1997Y3907D01*
X2888Y3907D02*
X2911Y3907D01*
X2923Y3907D02*
X2947Y3907D01*
X2988Y3907D02*
X3011Y3907D01*
X3023Y3907D02*
X3047Y3907D01*
X3088Y3907D02*
X3111Y3907D01*
X3123Y3907D02*
X3147Y3907D01*
X738Y3906D02*
X797Y3906D01*
X838Y3906D02*
X897Y3906D01*
X938Y3906D02*
X997Y3906D01*
X1738Y3906D02*
X1797Y3906D01*
X1838Y3906D02*
X1897Y3906D01*
X1938Y3906D02*
X1997Y3906D01*
X2888Y3906D02*
X2947Y3906D01*
X2988Y3906D02*
X3047Y3906D01*
X3088Y3906D02*
X3147Y3906D01*
X738Y3905D02*
X797Y3905D01*
X838Y3905D02*
X897Y3905D01*
X938Y3905D02*
X997Y3905D01*
X1738Y3905D02*
X1797Y3905D01*
X1838Y3905D02*
X1897Y3905D01*
X1938Y3905D02*
X1997Y3905D01*
X2888Y3905D02*
X2947Y3905D01*
X2988Y3905D02*
X3047Y3905D01*
X3088Y3905D02*
X3147Y3905D01*
X738Y3904D02*
X797Y3904D01*
X838Y3904D02*
X897Y3904D01*
X938Y3904D02*
X997Y3904D01*
X1738Y3904D02*
X1797Y3904D01*
X1838Y3904D02*
X1897Y3904D01*
X1938Y3904D02*
X1997Y3904D01*
X2888Y3904D02*
X2947Y3904D01*
X2988Y3904D02*
X3047Y3904D01*
X3088Y3904D02*
X3147Y3904D01*
X738Y3903D02*
X797Y3903D01*
X838Y3903D02*
X897Y3903D01*
X938Y3903D02*
X997Y3903D01*
X1738Y3903D02*
X1797Y3903D01*
X1838Y3903D02*
X1897Y3903D01*
X1938Y3903D02*
X1997Y3903D01*
X2888Y3903D02*
X2947Y3903D01*
X2988Y3903D02*
X3047Y3903D01*
X3088Y3903D02*
X3147Y3903D01*
X738Y3902D02*
X797Y3902D01*
X838Y3902D02*
X897Y3902D01*
X938Y3902D02*
X997Y3902D01*
X1738Y3902D02*
X1797Y3902D01*
X1838Y3902D02*
X1897Y3902D01*
X1938Y3902D02*
X1997Y3902D01*
X2888Y3902D02*
X2947Y3902D01*
X2988Y3902D02*
X3047Y3902D01*
X3088Y3902D02*
X3147Y3902D01*
X738Y3901D02*
X797Y3901D01*
X838Y3901D02*
X897Y3901D01*
X938Y3901D02*
X997Y3901D01*
X1738Y3901D02*
X1797Y3901D01*
X1838Y3901D02*
X1897Y3901D01*
X1938Y3901D02*
X1997Y3901D01*
X2888Y3901D02*
X2947Y3901D01*
X2988Y3901D02*
X3047Y3901D01*
X3088Y3901D02*
X3147Y3901D01*
X738Y3900D02*
X797Y3900D01*
X838Y3900D02*
X897Y3900D01*
X938Y3900D02*
X997Y3900D01*
X1738Y3900D02*
X1797Y3900D01*
X1838Y3900D02*
X1897Y3900D01*
X1938Y3900D02*
X1997Y3900D01*
X2888Y3900D02*
X2947Y3900D01*
X2988Y3900D02*
X3047Y3900D01*
X3088Y3900D02*
X3147Y3900D01*
X738Y3899D02*
X797Y3899D01*
X838Y3899D02*
X897Y3899D01*
X938Y3899D02*
X997Y3899D01*
X1738Y3899D02*
X1797Y3899D01*
X1838Y3899D02*
X1897Y3899D01*
X1938Y3899D02*
X1997Y3899D01*
X2888Y3899D02*
X2947Y3899D01*
X2988Y3899D02*
X3047Y3899D01*
X3088Y3899D02*
X3147Y3899D01*
X738Y3898D02*
X797Y3898D01*
X838Y3898D02*
X897Y3898D01*
X938Y3898D02*
X997Y3898D01*
X1738Y3898D02*
X1797Y3898D01*
X1838Y3898D02*
X1897Y3898D01*
X1938Y3898D02*
X1997Y3898D01*
X2888Y3898D02*
X2947Y3898D01*
X2988Y3898D02*
X3047Y3898D01*
X3088Y3898D02*
X3147Y3898D01*
X738Y3897D02*
X797Y3897D01*
X838Y3897D02*
X897Y3897D01*
X938Y3897D02*
X997Y3897D01*
X1738Y3897D02*
X1797Y3897D01*
X1838Y3897D02*
X1897Y3897D01*
X1938Y3897D02*
X1997Y3897D01*
X2888Y3897D02*
X2947Y3897D01*
X2988Y3897D02*
X3047Y3897D01*
X3088Y3897D02*
X3147Y3897D01*
X738Y3896D02*
X797Y3896D01*
X838Y3896D02*
X897Y3896D01*
X938Y3896D02*
X997Y3896D01*
X1738Y3896D02*
X1797Y3896D01*
X1838Y3896D02*
X1897Y3896D01*
X1938Y3896D02*
X1997Y3896D01*
X2888Y3896D02*
X2947Y3896D01*
X2988Y3896D02*
X3047Y3896D01*
X3088Y3896D02*
X3147Y3896D01*
X738Y3895D02*
X797Y3895D01*
X838Y3895D02*
X897Y3895D01*
X938Y3895D02*
X997Y3895D01*
X1738Y3895D02*
X1797Y3895D01*
X1838Y3895D02*
X1897Y3895D01*
X1938Y3895D02*
X1997Y3895D01*
X2888Y3895D02*
X2947Y3895D01*
X2988Y3895D02*
X3047Y3895D01*
X3088Y3895D02*
X3147Y3895D01*
X738Y3894D02*
X797Y3894D01*
X838Y3894D02*
X897Y3894D01*
X938Y3894D02*
X997Y3894D01*
X1738Y3894D02*
X1797Y3894D01*
X1838Y3894D02*
X1897Y3894D01*
X1938Y3894D02*
X1997Y3894D01*
X2888Y3894D02*
X2947Y3894D01*
X2988Y3894D02*
X3047Y3894D01*
X3088Y3894D02*
X3147Y3894D01*
X738Y3893D02*
X797Y3893D01*
X838Y3893D02*
X897Y3893D01*
X938Y3893D02*
X997Y3893D01*
X1738Y3893D02*
X1797Y3893D01*
X1838Y3893D02*
X1897Y3893D01*
X1938Y3893D02*
X1997Y3893D01*
X2888Y3893D02*
X2947Y3893D01*
X2988Y3893D02*
X3046Y3893D01*
X3088Y3893D02*
X3147Y3893D01*
X738Y3892D02*
X797Y3892D01*
X838Y3892D02*
X897Y3892D01*
X938Y3892D02*
X997Y3892D01*
X1738Y3892D02*
X1797Y3892D01*
X1838Y3892D02*
X1897Y3892D01*
X1938Y3892D02*
X1997Y3892D01*
X2888Y3892D02*
X2946Y3892D01*
X2988Y3892D02*
X3046Y3892D01*
X3088Y3892D02*
X3146Y3892D01*
X738Y3891D02*
X797Y3891D01*
X838Y3891D02*
X897Y3891D01*
X938Y3891D02*
X997Y3891D01*
X1738Y3891D02*
X1796Y3891D01*
X1838Y3891D02*
X1896Y3891D01*
X1938Y3891D02*
X1996Y3891D01*
X2888Y3891D02*
X2946Y3891D01*
X2988Y3891D02*
X3046Y3891D01*
X3088Y3891D02*
X3146Y3891D01*
X739Y3890D02*
X796Y3890D01*
X839Y3890D02*
X896Y3890D01*
X939Y3890D02*
X996Y3890D01*
X1739Y3890D02*
X1796Y3890D01*
X1838Y3890D02*
X1896Y3890D01*
X1938Y3890D02*
X1996Y3890D01*
X2888Y3890D02*
X2946Y3890D01*
X2988Y3890D02*
X3046Y3890D01*
X3088Y3890D02*
X3146Y3890D01*
X739Y3889D02*
X796Y3889D01*
X839Y3889D02*
X896Y3889D01*
X939Y3889D02*
X996Y3889D01*
X1739Y3889D02*
X1796Y3889D01*
X1839Y3889D02*
X1896Y3889D01*
X1939Y3889D02*
X1996Y3889D01*
X2889Y3889D02*
X2946Y3889D01*
X2989Y3889D02*
X3046Y3889D01*
X3089Y3889D02*
X3146Y3889D01*
X739Y3888D02*
X796Y3888D01*
X839Y3888D02*
X896Y3888D01*
X939Y3888D02*
X996Y3888D01*
X1739Y3888D02*
X1796Y3888D01*
X1839Y3888D02*
X1896Y3888D01*
X1939Y3888D02*
X1996Y3888D01*
X2889Y3888D02*
X2946Y3888D01*
X2989Y3888D02*
X3046Y3888D01*
X3089Y3888D02*
X3146Y3888D01*
X739Y3887D02*
X796Y3887D01*
X839Y3887D02*
X896Y3887D01*
X939Y3887D02*
X996Y3887D01*
X1739Y3887D02*
X1795Y3887D01*
X1839Y3887D02*
X1895Y3887D01*
X1939Y3887D02*
X1995Y3887D01*
X2889Y3887D02*
X2945Y3887D01*
X2989Y3887D02*
X3045Y3887D01*
X3089Y3887D02*
X3145Y3887D01*
X740Y3886D02*
X795Y3886D01*
X840Y3886D02*
X895Y3886D01*
X940Y3886D02*
X995Y3886D01*
X1740Y3886D02*
X1795Y3886D01*
X1840Y3886D02*
X1895Y3886D01*
X1940Y3886D02*
X1995Y3886D01*
X2890Y3886D02*
X2945Y3886D01*
X2990Y3886D02*
X3045Y3886D01*
X3090Y3886D02*
X3145Y3886D01*
X740Y3885D02*
X795Y3885D01*
X840Y3885D02*
X895Y3885D01*
X940Y3885D02*
X995Y3885D01*
X1740Y3885D02*
X1795Y3885D01*
X1840Y3885D02*
X1895Y3885D01*
X1940Y3885D02*
X1995Y3885D01*
X2890Y3885D02*
X2945Y3885D01*
X2990Y3885D02*
X3045Y3885D01*
X3090Y3885D02*
X3145Y3885D01*
X741Y3884D02*
X794Y3884D01*
X841Y3884D02*
X894Y3884D01*
X941Y3884D02*
X994Y3884D01*
X1740Y3884D02*
X1794Y3884D01*
X1840Y3884D02*
X1894Y3884D01*
X1940Y3884D02*
X1994Y3884D01*
X2890Y3884D02*
X2944Y3884D01*
X2990Y3884D02*
X3044Y3884D01*
X3090Y3884D02*
X3144Y3884D01*
X741Y3883D02*
X794Y3883D01*
X841Y3883D02*
X894Y3883D01*
X941Y3883D02*
X994Y3883D01*
X1741Y3883D02*
X1794Y3883D01*
X1841Y3883D02*
X1894Y3883D01*
X1941Y3883D02*
X1994Y3883D01*
X2891Y3883D02*
X2944Y3883D01*
X2991Y3883D02*
X3044Y3883D01*
X3091Y3883D02*
X3144Y3883D01*
X742Y3882D02*
X793Y3882D01*
X842Y3882D02*
X893Y3882D01*
X942Y3882D02*
X993Y3882D01*
X1741Y3882D02*
X1793Y3882D01*
X1841Y3882D02*
X1893Y3882D01*
X1941Y3882D02*
X1993Y3882D01*
X2891Y3882D02*
X2943Y3882D01*
X2991Y3882D02*
X3043Y3882D01*
X3091Y3882D02*
X3143Y3882D01*
X742Y3881D02*
X793Y3881D01*
X842Y3881D02*
X893Y3881D01*
X942Y3881D02*
X993Y3881D01*
X1742Y3881D02*
X1793Y3881D01*
X1842Y3881D02*
X1893Y3881D01*
X1942Y3881D02*
X1993Y3881D01*
X2892Y3881D02*
X2943Y3881D01*
X2992Y3881D02*
X3043Y3881D01*
X3092Y3881D02*
X3143Y3881D01*
X743Y3880D02*
X792Y3880D01*
X843Y3880D02*
X892Y3880D01*
X943Y3880D02*
X992Y3880D01*
X1743Y3880D02*
X1792Y3880D01*
X1843Y3880D02*
X1892Y3880D01*
X1943Y3880D02*
X1992Y3880D01*
X2892Y3880D02*
X2942Y3880D01*
X2992Y3880D02*
X3042Y3880D01*
X3092Y3880D02*
X3142Y3880D01*
X743Y3879D02*
X792Y3879D01*
X843Y3879D02*
X892Y3879D01*
X943Y3879D02*
X992Y3879D01*
X1743Y3879D02*
X1791Y3879D01*
X1843Y3879D02*
X1891Y3879D01*
X1943Y3879D02*
X1991Y3879D01*
X2893Y3879D02*
X2941Y3879D01*
X2993Y3879D02*
X3041Y3879D01*
X3093Y3879D02*
X3141Y3879D01*
X744Y3878D02*
X791Y3878D01*
X844Y3878D02*
X891Y3878D01*
X944Y3878D02*
X991Y3878D01*
X1744Y3878D02*
X1791Y3878D01*
X1844Y3878D02*
X1891Y3878D01*
X1944Y3878D02*
X1991Y3878D01*
X2894Y3878D02*
X2941Y3878D01*
X2994Y3878D02*
X3041Y3878D01*
X3094Y3878D02*
X3141Y3878D01*
X745Y3877D02*
X790Y3877D01*
X845Y3877D02*
X890Y3877D01*
X945Y3877D02*
X990Y3877D01*
X1745Y3877D02*
X1790Y3877D01*
X1845Y3877D02*
X1890Y3877D01*
X1945Y3877D02*
X1990Y3877D01*
X2895Y3877D02*
X2940Y3877D01*
X2995Y3877D02*
X3040Y3877D01*
X3095Y3877D02*
X3140Y3877D01*
X746Y3876D02*
X789Y3876D01*
X846Y3876D02*
X889Y3876D01*
X946Y3876D02*
X989Y3876D01*
X1746Y3876D02*
X1789Y3876D01*
X1846Y3876D02*
X1889Y3876D01*
X1946Y3876D02*
X1989Y3876D01*
X2896Y3876D02*
X2939Y3876D01*
X2996Y3876D02*
X3039Y3876D01*
X3096Y3876D02*
X3139Y3876D01*
X747Y3875D02*
X788Y3875D01*
X847Y3875D02*
X888Y3875D01*
X947Y3875D02*
X988Y3875D01*
X1747Y3875D02*
X1788Y3875D01*
X1847Y3875D02*
X1888Y3875D01*
X1947Y3875D02*
X1988Y3875D01*
X2896Y3875D02*
X2938Y3875D01*
X2996Y3875D02*
X3038Y3875D01*
X3096Y3875D02*
X3138Y3875D01*
X748Y3874D02*
X787Y3874D01*
X848Y3874D02*
X887Y3874D01*
X948Y3874D02*
X987Y3874D01*
X1748Y3874D02*
X1787Y3874D01*
X1848Y3874D02*
X1887Y3874D01*
X1948Y3874D02*
X1987Y3874D01*
X2898Y3874D02*
X2937Y3874D01*
X2998Y3874D02*
X3037Y3874D01*
X3098Y3874D02*
X3137Y3874D01*
X749Y3873D02*
X786Y3873D01*
X849Y3873D02*
X886Y3873D01*
X949Y3873D02*
X986Y3873D01*
X1749Y3873D02*
X1786Y3873D01*
X1849Y3873D02*
X1886Y3873D01*
X1949Y3873D02*
X1986Y3873D01*
X2899Y3873D02*
X2936Y3873D01*
X2999Y3873D02*
X3036Y3873D01*
X3099Y3873D02*
X3136Y3873D01*
X750Y3872D02*
X785Y3872D01*
X850Y3872D02*
X885Y3872D01*
X950Y3872D02*
X985Y3872D01*
X1750Y3872D02*
X1785Y3872D01*
X1850Y3872D02*
X1885Y3872D01*
X1950Y3872D02*
X1985Y3872D01*
X2900Y3872D02*
X2934Y3872D01*
X3000Y3872D02*
X3034Y3872D01*
X3100Y3872D02*
X3134Y3872D01*
X752Y3871D02*
X783Y3871D01*
X852Y3871D02*
X883Y3871D01*
X952Y3871D02*
X983Y3871D01*
X1752Y3871D02*
X1783Y3871D01*
X1852Y3871D02*
X1883Y3871D01*
X1952Y3871D02*
X1983Y3871D01*
X2901Y3871D02*
X2933Y3871D01*
X3001Y3871D02*
X3033Y3871D01*
X3101Y3871D02*
X3133Y3871D01*
X753Y3870D02*
X782Y3870D01*
X853Y3870D02*
X882Y3870D01*
X953Y3870D02*
X982Y3870D01*
X1753Y3870D02*
X1782Y3870D01*
X1853Y3870D02*
X1882Y3870D01*
X1953Y3870D02*
X1982Y3870D01*
X2903Y3870D02*
X2931Y3870D01*
X3003Y3870D02*
X3031Y3870D01*
X3103Y3870D02*
X3131Y3870D01*
X755Y3869D02*
X780Y3869D01*
X855Y3869D02*
X880Y3869D01*
X955Y3869D02*
X980Y3869D01*
X1755Y3869D02*
X1780Y3869D01*
X1855Y3869D02*
X1880Y3869D01*
X1955Y3869D02*
X1980Y3869D01*
X2905Y3869D02*
X2929Y3869D01*
X3005Y3869D02*
X3029Y3869D01*
X3105Y3869D02*
X3129Y3869D01*
X758Y3868D02*
X777Y3868D01*
X858Y3868D02*
X877Y3868D01*
X958Y3868D02*
X977Y3868D01*
X1758Y3868D02*
X1777Y3868D01*
X1858Y3868D02*
X1877Y3868D01*
X1958Y3868D02*
X1977Y3868D01*
X2907Y3868D02*
X2927Y3868D01*
X3007Y3868D02*
X3027Y3868D01*
X3107Y3868D02*
X3127Y3868D01*
X761Y3867D02*
X774Y3867D01*
X861Y3867D02*
X874Y3867D01*
X961Y3867D02*
X974Y3867D01*
X1761Y3867D02*
X1774Y3867D01*
X1861Y3867D02*
X1874Y3867D01*
X1961Y3867D02*
X1974Y3867D01*
X2911Y3867D02*
X2924Y3867D01*
X3011Y3867D02*
X3024Y3867D01*
X3111Y3867D02*
X3124Y3867D01*
X3964Y3011D02*
X3970Y3011D01*
X4064Y3011D02*
X4070Y3011D01*
X4164Y3011D02*
X4170Y3011D01*
X4264Y3011D02*
X4270Y3011D01*
X4364Y3011D02*
X4370Y3011D01*
X4464Y3011D02*
X4470Y3011D01*
X4564Y3011D02*
X4570Y3011D01*
X4664Y3011D02*
X4670Y3011D01*
X4764Y3011D02*
X4770Y3011D01*
X4864Y3011D02*
X4870Y3011D01*
X4964Y3011D02*
X4970Y3011D01*
X5064Y3011D02*
X5070Y3011D01*
X5164Y3011D02*
X5170Y3011D01*
X5264Y3011D02*
X5270Y3011D01*
X3959Y3010D02*
X3975Y3010D01*
X4059Y3010D02*
X4075Y3010D01*
X4159Y3010D02*
X4175Y3010D01*
X4259Y3010D02*
X4275Y3010D01*
X4359Y3010D02*
X4375Y3010D01*
X4459Y3010D02*
X4475Y3010D01*
X4559Y3010D02*
X4575Y3010D01*
X4659Y3010D02*
X4675Y3010D01*
X4759Y3010D02*
X4775Y3010D01*
X4859Y3010D02*
X4875Y3010D01*
X4959Y3010D02*
X4975Y3010D01*
X5059Y3010D02*
X5075Y3010D01*
X5159Y3010D02*
X5175Y3010D01*
X5259Y3010D02*
X5275Y3010D01*
X3956Y3009D02*
X3978Y3009D01*
X4056Y3009D02*
X4078Y3009D01*
X4156Y3009D02*
X4178Y3009D01*
X4256Y3009D02*
X4278Y3009D01*
X4356Y3009D02*
X4378Y3009D01*
X4456Y3009D02*
X4478Y3009D01*
X4556Y3009D02*
X4578Y3009D01*
X4656Y3009D02*
X4678Y3009D01*
X4756Y3009D02*
X4778Y3009D01*
X4856Y3009D02*
X4878Y3009D01*
X4956Y3009D02*
X4978Y3009D01*
X5056Y3009D02*
X5078Y3009D01*
X5156Y3009D02*
X5178Y3009D01*
X5256Y3009D02*
X5278Y3009D01*
X3953Y3008D02*
X3981Y3008D01*
X4053Y3008D02*
X4081Y3008D01*
X4153Y3008D02*
X4181Y3008D01*
X4253Y3008D02*
X4281Y3008D01*
X4353Y3008D02*
X4381Y3008D01*
X4453Y3008D02*
X4481Y3008D01*
X4553Y3008D02*
X4581Y3008D01*
X4653Y3008D02*
X4681Y3008D01*
X4753Y3008D02*
X4781Y3008D01*
X4853Y3008D02*
X4881Y3008D01*
X4953Y3008D02*
X4981Y3008D01*
X5053Y3008D02*
X5081Y3008D01*
X5153Y3008D02*
X5181Y3008D01*
X5253Y3008D02*
X5281Y3008D01*
X3951Y3007D02*
X3983Y3007D01*
X4051Y3007D02*
X4083Y3007D01*
X4151Y3007D02*
X4183Y3007D01*
X4251Y3007D02*
X4283Y3007D01*
X4351Y3007D02*
X4383Y3007D01*
X4451Y3007D02*
X4483Y3007D01*
X4551Y3007D02*
X4583Y3007D01*
X4651Y3007D02*
X4683Y3007D01*
X4751Y3007D02*
X4783Y3007D01*
X4851Y3007D02*
X4883Y3007D01*
X4951Y3007D02*
X4983Y3007D01*
X5051Y3007D02*
X5083Y3007D01*
X5151Y3007D02*
X5183Y3007D01*
X5251Y3007D02*
X5283Y3007D01*
X3949Y3006D02*
X3985Y3006D01*
X4049Y3006D02*
X4085Y3006D01*
X4149Y3006D02*
X4185Y3006D01*
X4249Y3006D02*
X4285Y3006D01*
X4349Y3006D02*
X4385Y3006D01*
X4449Y3006D02*
X4485Y3006D01*
X4549Y3006D02*
X4585Y3006D01*
X4649Y3006D02*
X4685Y3006D01*
X4749Y3006D02*
X4785Y3006D01*
X4849Y3006D02*
X4885Y3006D01*
X4949Y3006D02*
X4985Y3006D01*
X5049Y3006D02*
X5085Y3006D01*
X5149Y3006D02*
X5185Y3006D01*
X5249Y3006D02*
X5285Y3006D01*
X3948Y3005D02*
X3986Y3005D01*
X4048Y3005D02*
X4086Y3005D01*
X4148Y3005D02*
X4186Y3005D01*
X4248Y3005D02*
X4286Y3005D01*
X4348Y3005D02*
X4386Y3005D01*
X4448Y3005D02*
X4486Y3005D01*
X4548Y3005D02*
X4586Y3005D01*
X4648Y3005D02*
X4686Y3005D01*
X4748Y3005D02*
X4786Y3005D01*
X4848Y3005D02*
X4886Y3005D01*
X4948Y3005D02*
X4986Y3005D01*
X5048Y3005D02*
X5086Y3005D01*
X5148Y3005D02*
X5186Y3005D01*
X5248Y3005D02*
X5286Y3005D01*
X3946Y3004D02*
X3988Y3004D01*
X4046Y3004D02*
X4088Y3004D01*
X4146Y3004D02*
X4188Y3004D01*
X4246Y3004D02*
X4288Y3004D01*
X4346Y3004D02*
X4388Y3004D01*
X4446Y3004D02*
X4488Y3004D01*
X4546Y3004D02*
X4588Y3004D01*
X4646Y3004D02*
X4688Y3004D01*
X4746Y3004D02*
X4788Y3004D01*
X4846Y3004D02*
X4888Y3004D01*
X4946Y3004D02*
X4988Y3004D01*
X5046Y3004D02*
X5088Y3004D01*
X5146Y3004D02*
X5188Y3004D01*
X5246Y3004D02*
X5288Y3004D01*
X3945Y3003D02*
X3989Y3003D01*
X4045Y3003D02*
X4089Y3003D01*
X4145Y3003D02*
X4189Y3003D01*
X4245Y3003D02*
X4289Y3003D01*
X4345Y3003D02*
X4389Y3003D01*
X4445Y3003D02*
X4489Y3003D01*
X4545Y3003D02*
X4589Y3003D01*
X4645Y3003D02*
X4689Y3003D01*
X4745Y3003D02*
X4789Y3003D01*
X4845Y3003D02*
X4889Y3003D01*
X4945Y3003D02*
X4989Y3003D01*
X5045Y3003D02*
X5089Y3003D01*
X5145Y3003D02*
X5189Y3003D01*
X5245Y3003D02*
X5289Y3003D01*
X3944Y3002D02*
X3990Y3002D01*
X4044Y3002D02*
X4090Y3002D01*
X4144Y3002D02*
X4190Y3002D01*
X4244Y3002D02*
X4290Y3002D01*
X4344Y3002D02*
X4390Y3002D01*
X4444Y3002D02*
X4490Y3002D01*
X4544Y3002D02*
X4590Y3002D01*
X4644Y3002D02*
X4690Y3002D01*
X4744Y3002D02*
X4790Y3002D01*
X4844Y3002D02*
X4890Y3002D01*
X4944Y3002D02*
X4990Y3002D01*
X5044Y3002D02*
X5090Y3002D01*
X5144Y3002D02*
X5190Y3002D01*
X5244Y3002D02*
X5290Y3002D01*
X3943Y3001D02*
X3991Y3001D01*
X4043Y3001D02*
X4091Y3001D01*
X4143Y3001D02*
X4191Y3001D01*
X4243Y3001D02*
X4291Y3001D01*
X4343Y3001D02*
X4391Y3001D01*
X4443Y3001D02*
X4491Y3001D01*
X4543Y3001D02*
X4591Y3001D01*
X4643Y3001D02*
X4691Y3001D01*
X4743Y3001D02*
X4791Y3001D01*
X4843Y3001D02*
X4891Y3001D01*
X4943Y3001D02*
X4991Y3001D01*
X5043Y3001D02*
X5091Y3001D01*
X5143Y3001D02*
X5191Y3001D01*
X5243Y3001D02*
X5291Y3001D01*
X3942Y3000D02*
X3992Y3000D01*
X4042Y3000D02*
X4092Y3000D01*
X4142Y3000D02*
X4192Y3000D01*
X4242Y3000D02*
X4292Y3000D01*
X4342Y3000D02*
X4392Y3000D01*
X4442Y3000D02*
X4492Y3000D01*
X4542Y3000D02*
X4592Y3000D01*
X4642Y3000D02*
X4692Y3000D01*
X4742Y3000D02*
X4792Y3000D01*
X4842Y3000D02*
X4892Y3000D01*
X4942Y3000D02*
X4992Y3000D01*
X5042Y3000D02*
X5092Y3000D01*
X5142Y3000D02*
X5192Y3000D01*
X5242Y3000D02*
X5292Y3000D01*
X3941Y2999D02*
X3993Y2999D01*
X4041Y2999D02*
X4093Y2999D01*
X4141Y2999D02*
X4193Y2999D01*
X4241Y2999D02*
X4293Y2999D01*
X4341Y2999D02*
X4393Y2999D01*
X4441Y2999D02*
X4493Y2999D01*
X4541Y2999D02*
X4593Y2999D01*
X4641Y2999D02*
X4693Y2999D01*
X4741Y2999D02*
X4793Y2999D01*
X4841Y2999D02*
X4893Y2999D01*
X4941Y2999D02*
X4993Y2999D01*
X5041Y2999D02*
X5093Y2999D01*
X5141Y2999D02*
X5193Y2999D01*
X5241Y2999D02*
X5293Y2999D01*
X3940Y2998D02*
X3994Y2998D01*
X4040Y2998D02*
X4094Y2998D01*
X4140Y2998D02*
X4194Y2998D01*
X4240Y2998D02*
X4294Y2998D01*
X4340Y2998D02*
X4394Y2998D01*
X4440Y2998D02*
X4494Y2998D01*
X4540Y2998D02*
X4594Y2998D01*
X4640Y2998D02*
X4694Y2998D01*
X4740Y2998D02*
X4794Y2998D01*
X4840Y2998D02*
X4894Y2998D01*
X4940Y2998D02*
X4994Y2998D01*
X5040Y2998D02*
X5094Y2998D01*
X5140Y2998D02*
X5194Y2998D01*
X5240Y2998D02*
X5294Y2998D01*
X3940Y2997D02*
X3995Y2997D01*
X4040Y2997D02*
X4095Y2997D01*
X4140Y2997D02*
X4195Y2997D01*
X4239Y2997D02*
X4295Y2997D01*
X4339Y2997D02*
X4395Y2997D01*
X4439Y2997D02*
X4495Y2997D01*
X4539Y2997D02*
X4595Y2997D01*
X4639Y2997D02*
X4695Y2997D01*
X4739Y2997D02*
X4795Y2997D01*
X4839Y2997D02*
X4894Y2997D01*
X4939Y2997D02*
X4994Y2997D01*
X5039Y2997D02*
X5094Y2997D01*
X5139Y2997D02*
X5194Y2997D01*
X5239Y2997D02*
X5294Y2997D01*
X3939Y2996D02*
X3995Y2996D01*
X4039Y2996D02*
X4095Y2996D01*
X4139Y2996D02*
X4195Y2996D01*
X4239Y2996D02*
X4295Y2996D01*
X4339Y2996D02*
X4395Y2996D01*
X4439Y2996D02*
X4495Y2996D01*
X4539Y2996D02*
X4595Y2996D01*
X4639Y2996D02*
X4695Y2996D01*
X4739Y2996D02*
X4795Y2996D01*
X4839Y2996D02*
X4895Y2996D01*
X4939Y2996D02*
X4995Y2996D01*
X5039Y2996D02*
X5095Y2996D01*
X5139Y2996D02*
X5195Y2996D01*
X5239Y2996D02*
X5295Y2996D01*
X3938Y2995D02*
X3996Y2995D01*
X4038Y2995D02*
X4096Y2995D01*
X4138Y2995D02*
X4196Y2995D01*
X4238Y2995D02*
X4296Y2995D01*
X4338Y2995D02*
X4396Y2995D01*
X4438Y2995D02*
X4496Y2995D01*
X4538Y2995D02*
X4596Y2995D01*
X4638Y2995D02*
X4696Y2995D01*
X4738Y2995D02*
X4796Y2995D01*
X4838Y2995D02*
X4896Y2995D01*
X4938Y2995D02*
X4996Y2995D01*
X5038Y2995D02*
X5096Y2995D01*
X5138Y2995D02*
X5196Y2995D01*
X5238Y2995D02*
X5296Y2995D01*
X3938Y2994D02*
X3997Y2994D01*
X4038Y2994D02*
X4097Y2994D01*
X4138Y2994D02*
X4196Y2994D01*
X4238Y2994D02*
X4296Y2994D01*
X4338Y2994D02*
X4396Y2994D01*
X4438Y2994D02*
X4496Y2994D01*
X4538Y2994D02*
X4596Y2994D01*
X4638Y2994D02*
X4696Y2994D01*
X4738Y2994D02*
X4796Y2994D01*
X4838Y2994D02*
X4896Y2994D01*
X4937Y2994D02*
X4996Y2994D01*
X5037Y2994D02*
X5096Y2994D01*
X5137Y2994D02*
X5196Y2994D01*
X5237Y2994D02*
X5296Y2994D01*
X3937Y2993D02*
X3997Y2993D01*
X4037Y2993D02*
X4097Y2993D01*
X4137Y2993D02*
X4197Y2993D01*
X4237Y2993D02*
X4297Y2993D01*
X4337Y2993D02*
X4397Y2993D01*
X4437Y2993D02*
X4497Y2993D01*
X4537Y2993D02*
X4597Y2993D01*
X4637Y2993D02*
X4697Y2993D01*
X4737Y2993D02*
X4797Y2993D01*
X4837Y2993D02*
X4897Y2993D01*
X4937Y2993D02*
X4997Y2993D01*
X5037Y2993D02*
X5097Y2993D01*
X5137Y2993D02*
X5197Y2993D01*
X5237Y2993D02*
X5297Y2993D01*
X3937Y2992D02*
X3998Y2992D01*
X4037Y2992D02*
X4098Y2992D01*
X4137Y2992D02*
X4198Y2992D01*
X4237Y2992D02*
X4298Y2992D01*
X4336Y2992D02*
X4398Y2992D01*
X4436Y2992D02*
X4498Y2992D01*
X4536Y2992D02*
X4598Y2992D01*
X4636Y2992D02*
X4698Y2992D01*
X4736Y2992D02*
X4797Y2992D01*
X4836Y2992D02*
X4897Y2992D01*
X4936Y2992D02*
X4997Y2992D01*
X5036Y2992D02*
X5097Y2992D01*
X5136Y2992D02*
X5197Y2992D01*
X5236Y2992D02*
X5297Y2992D01*
X3936Y2991D02*
X3963Y2991D01*
X3971Y2991D02*
X3998Y2991D01*
X4036Y2991D02*
X4063Y2991D01*
X4071Y2991D02*
X4098Y2991D01*
X4136Y2991D02*
X4163Y2991D01*
X4171Y2991D02*
X4198Y2991D01*
X4236Y2991D02*
X4263Y2991D01*
X4271Y2991D02*
X4298Y2991D01*
X4336Y2991D02*
X4363Y2991D01*
X4371Y2991D02*
X4398Y2991D01*
X4436Y2991D02*
X4463Y2991D01*
X4471Y2991D02*
X4498Y2991D01*
X4536Y2991D02*
X4563Y2991D01*
X4571Y2991D02*
X4598Y2991D01*
X4636Y2991D02*
X4663Y2991D01*
X4671Y2991D02*
X4698Y2991D01*
X4736Y2991D02*
X4763Y2991D01*
X4771Y2991D02*
X4798Y2991D01*
X4836Y2991D02*
X4863Y2991D01*
X4871Y2991D02*
X4898Y2991D01*
X4936Y2991D02*
X4963Y2991D01*
X4971Y2991D02*
X4998Y2991D01*
X5036Y2991D02*
X5063Y2991D01*
X5071Y2991D02*
X5098Y2991D01*
X5136Y2991D02*
X5163Y2991D01*
X5171Y2991D02*
X5198Y2991D01*
X5236Y2991D02*
X5263Y2991D01*
X5271Y2991D02*
X5298Y2991D01*
X3936Y2990D02*
X3960Y2990D01*
X3974Y2990D02*
X3999Y2990D01*
X4036Y2990D02*
X4060Y2990D01*
X4074Y2990D02*
X4099Y2990D01*
X4136Y2990D02*
X4160Y2990D01*
X4174Y2990D02*
X4199Y2990D01*
X4236Y2990D02*
X4260Y2990D01*
X4274Y2990D02*
X4299Y2990D01*
X4336Y2990D02*
X4360Y2990D01*
X4374Y2990D02*
X4398Y2990D01*
X4436Y2990D02*
X4460Y2990D01*
X4474Y2990D02*
X4498Y2990D01*
X4536Y2990D02*
X4560Y2990D01*
X4574Y2990D02*
X4598Y2990D01*
X4636Y2990D02*
X4660Y2990D01*
X4674Y2990D02*
X4698Y2990D01*
X4736Y2990D02*
X4760Y2990D01*
X4774Y2990D02*
X4798Y2990D01*
X4835Y2990D02*
X4860Y2990D01*
X4874Y2990D02*
X4898Y2990D01*
X4935Y2990D02*
X4960Y2990D01*
X4974Y2990D02*
X4998Y2990D01*
X5035Y2990D02*
X5060Y2990D01*
X5074Y2990D02*
X5098Y2990D01*
X5135Y2990D02*
X5160Y2990D01*
X5174Y2990D02*
X5198Y2990D01*
X5235Y2990D02*
X5260Y2990D01*
X5274Y2990D02*
X5298Y2990D01*
X3935Y2989D02*
X3959Y2989D01*
X3976Y2989D02*
X3999Y2989D01*
X4035Y2989D02*
X4058Y2989D01*
X4076Y2989D02*
X4099Y2989D01*
X4135Y2989D02*
X4158Y2989D01*
X4176Y2989D02*
X4199Y2989D01*
X4235Y2989D02*
X4258Y2989D01*
X4276Y2989D02*
X4299Y2989D01*
X4335Y2989D02*
X4358Y2989D01*
X4376Y2989D02*
X4399Y2989D01*
X4435Y2989D02*
X4458Y2989D01*
X4476Y2989D02*
X4499Y2989D01*
X4535Y2989D02*
X4558Y2989D01*
X4576Y2989D02*
X4599Y2989D01*
X4635Y2989D02*
X4658Y2989D01*
X4676Y2989D02*
X4699Y2989D01*
X4735Y2989D02*
X4758Y2989D01*
X4776Y2989D02*
X4799Y2989D01*
X4835Y2989D02*
X4858Y2989D01*
X4876Y2989D02*
X4899Y2989D01*
X4935Y2989D02*
X4958Y2989D01*
X4976Y2989D02*
X4999Y2989D01*
X5035Y2989D02*
X5058Y2989D01*
X5075Y2989D02*
X5099Y2989D01*
X5135Y2989D02*
X5158Y2989D01*
X5175Y2989D02*
X5199Y2989D01*
X5235Y2989D02*
X5258Y2989D01*
X5275Y2989D02*
X5299Y2989D01*
X3935Y2988D02*
X3957Y2988D01*
X3977Y2988D02*
X3999Y2988D01*
X4035Y2988D02*
X4057Y2988D01*
X4077Y2988D02*
X4099Y2988D01*
X4135Y2988D02*
X4157Y2988D01*
X4177Y2988D02*
X4199Y2988D01*
X4235Y2988D02*
X4257Y2988D01*
X4277Y2988D02*
X4299Y2988D01*
X4335Y2988D02*
X4357Y2988D01*
X4377Y2988D02*
X4399Y2988D01*
X4435Y2988D02*
X4457Y2988D01*
X4477Y2988D02*
X4499Y2988D01*
X4535Y2988D02*
X4557Y2988D01*
X4577Y2988D02*
X4599Y2988D01*
X4635Y2988D02*
X4657Y2988D01*
X4677Y2988D02*
X4699Y2988D01*
X4735Y2988D02*
X4757Y2988D01*
X4777Y2988D02*
X4799Y2988D01*
X4835Y2988D02*
X4857Y2988D01*
X4877Y2988D02*
X4899Y2988D01*
X4935Y2988D02*
X4957Y2988D01*
X4977Y2988D02*
X4999Y2988D01*
X5035Y2988D02*
X5057Y2988D01*
X5077Y2988D02*
X5099Y2988D01*
X5135Y2988D02*
X5157Y2988D01*
X5177Y2988D02*
X5199Y2988D01*
X5235Y2988D02*
X5257Y2988D01*
X5277Y2988D02*
X5299Y2988D01*
X3934Y2987D02*
X3956Y2987D01*
X3978Y2987D02*
X4000Y2987D01*
X4034Y2987D02*
X4056Y2987D01*
X4078Y2987D02*
X4100Y2987D01*
X4134Y2987D02*
X4156Y2987D01*
X4178Y2987D02*
X4200Y2987D01*
X4234Y2987D02*
X4256Y2987D01*
X4278Y2987D02*
X4300Y2987D01*
X4334Y2987D02*
X4356Y2987D01*
X4378Y2987D02*
X4400Y2987D01*
X4434Y2987D02*
X4456Y2987D01*
X4478Y2987D02*
X4500Y2987D01*
X4534Y2987D02*
X4556Y2987D01*
X4578Y2987D02*
X4600Y2987D01*
X4634Y2987D02*
X4656Y2987D01*
X4678Y2987D02*
X4700Y2987D01*
X4734Y2987D02*
X4756Y2987D01*
X4778Y2987D02*
X4800Y2987D01*
X4834Y2987D02*
X4856Y2987D01*
X4878Y2987D02*
X4900Y2987D01*
X4934Y2987D02*
X4956Y2987D01*
X4978Y2987D02*
X5000Y2987D01*
X5034Y2987D02*
X5056Y2987D01*
X5078Y2987D02*
X5100Y2987D01*
X5134Y2987D02*
X5156Y2987D01*
X5178Y2987D02*
X5200Y2987D01*
X5234Y2987D02*
X5256Y2987D01*
X5278Y2987D02*
X5300Y2987D01*
X3934Y2986D02*
X3955Y2986D01*
X3979Y2986D02*
X4000Y2986D01*
X4034Y2986D02*
X4055Y2986D01*
X4079Y2986D02*
X4100Y2986D01*
X4134Y2986D02*
X4155Y2986D01*
X4179Y2986D02*
X4200Y2986D01*
X4234Y2986D02*
X4255Y2986D01*
X4279Y2986D02*
X4300Y2986D01*
X4334Y2986D02*
X4355Y2986D01*
X4379Y2986D02*
X4400Y2986D01*
X4434Y2986D02*
X4455Y2986D01*
X4479Y2986D02*
X4500Y2986D01*
X4534Y2986D02*
X4555Y2986D01*
X4579Y2986D02*
X4600Y2986D01*
X4634Y2986D02*
X4655Y2986D01*
X4679Y2986D02*
X4700Y2986D01*
X4734Y2986D02*
X4755Y2986D01*
X4779Y2986D02*
X4800Y2986D01*
X4834Y2986D02*
X4855Y2986D01*
X4879Y2986D02*
X4900Y2986D01*
X4934Y2986D02*
X4955Y2986D01*
X4979Y2986D02*
X5000Y2986D01*
X5034Y2986D02*
X5055Y2986D01*
X5079Y2986D02*
X5100Y2986D01*
X5134Y2986D02*
X5155Y2986D01*
X5179Y2986D02*
X5200Y2986D01*
X5234Y2986D02*
X5255Y2986D01*
X5279Y2986D02*
X5300Y2986D01*
X3934Y2985D02*
X3954Y2985D01*
X3980Y2985D02*
X4000Y2985D01*
X4034Y2985D02*
X4054Y2985D01*
X4080Y2985D02*
X4100Y2985D01*
X4134Y2985D02*
X4154Y2985D01*
X4180Y2985D02*
X4200Y2985D01*
X4234Y2985D02*
X4254Y2985D01*
X4280Y2985D02*
X4300Y2985D01*
X4334Y2985D02*
X4354Y2985D01*
X4380Y2985D02*
X4400Y2985D01*
X4434Y2985D02*
X4454Y2985D01*
X4480Y2985D02*
X4500Y2985D01*
X4534Y2985D02*
X4554Y2985D01*
X4580Y2985D02*
X4600Y2985D01*
X4634Y2985D02*
X4654Y2985D01*
X4680Y2985D02*
X4700Y2985D01*
X4734Y2985D02*
X4754Y2985D01*
X4780Y2985D02*
X4800Y2985D01*
X4834Y2985D02*
X4854Y2985D01*
X4880Y2985D02*
X4900Y2985D01*
X4934Y2985D02*
X4954Y2985D01*
X4980Y2985D02*
X5000Y2985D01*
X5034Y2985D02*
X5054Y2985D01*
X5080Y2985D02*
X5100Y2985D01*
X5134Y2985D02*
X5154Y2985D01*
X5180Y2985D02*
X5200Y2985D01*
X5234Y2985D02*
X5254Y2985D01*
X5280Y2985D02*
X5300Y2985D01*
X3934Y2984D02*
X3954Y2984D01*
X3981Y2984D02*
X4001Y2984D01*
X4034Y2984D02*
X4054Y2984D01*
X4081Y2984D02*
X4101Y2984D01*
X4134Y2984D02*
X4154Y2984D01*
X4180Y2984D02*
X4201Y2984D01*
X4234Y2984D02*
X4254Y2984D01*
X4280Y2984D02*
X4301Y2984D01*
X4334Y2984D02*
X4354Y2984D01*
X4380Y2984D02*
X4400Y2984D01*
X4434Y2984D02*
X4454Y2984D01*
X4480Y2984D02*
X4500Y2984D01*
X4534Y2984D02*
X4554Y2984D01*
X4580Y2984D02*
X4600Y2984D01*
X4634Y2984D02*
X4654Y2984D01*
X4680Y2984D02*
X4700Y2984D01*
X4734Y2984D02*
X4754Y2984D01*
X4780Y2984D02*
X4800Y2984D01*
X4833Y2984D02*
X4854Y2984D01*
X4880Y2984D02*
X4900Y2984D01*
X4933Y2984D02*
X4954Y2984D01*
X4980Y2984D02*
X5000Y2984D01*
X5033Y2984D02*
X5053Y2984D01*
X5080Y2984D02*
X5100Y2984D01*
X5133Y2984D02*
X5153Y2984D01*
X5180Y2984D02*
X5200Y2984D01*
X5233Y2984D02*
X5253Y2984D01*
X5280Y2984D02*
X5300Y2984D01*
X3933Y2983D02*
X3953Y2983D01*
X3981Y2983D02*
X4001Y2983D01*
X4033Y2983D02*
X4053Y2983D01*
X4081Y2983D02*
X4101Y2983D01*
X4133Y2983D02*
X4153Y2983D01*
X4181Y2983D02*
X4201Y2983D01*
X4233Y2983D02*
X4253Y2983D01*
X4281Y2983D02*
X4301Y2983D01*
X4333Y2983D02*
X4353Y2983D01*
X4381Y2983D02*
X4401Y2983D01*
X4433Y2983D02*
X4453Y2983D01*
X4481Y2983D02*
X4501Y2983D01*
X4533Y2983D02*
X4553Y2983D01*
X4581Y2983D02*
X4601Y2983D01*
X4633Y2983D02*
X4653Y2983D01*
X4681Y2983D02*
X4701Y2983D01*
X4733Y2983D02*
X4753Y2983D01*
X4781Y2983D02*
X4801Y2983D01*
X4833Y2983D02*
X4853Y2983D01*
X4881Y2983D02*
X4901Y2983D01*
X4933Y2983D02*
X4953Y2983D01*
X4981Y2983D02*
X5001Y2983D01*
X5033Y2983D02*
X5053Y2983D01*
X5081Y2983D02*
X5101Y2983D01*
X5133Y2983D02*
X5153Y2983D01*
X5181Y2983D02*
X5201Y2983D01*
X5233Y2983D02*
X5253Y2983D01*
X5281Y2983D02*
X5301Y2983D01*
X3933Y2982D02*
X3953Y2982D01*
X3982Y2982D02*
X4001Y2982D01*
X4033Y2982D02*
X4053Y2982D01*
X4082Y2982D02*
X4101Y2982D01*
X4133Y2982D02*
X4153Y2982D01*
X4182Y2982D02*
X4201Y2982D01*
X4233Y2982D02*
X4253Y2982D01*
X4282Y2982D02*
X4301Y2982D01*
X4333Y2982D02*
X4352Y2982D01*
X4382Y2982D02*
X4401Y2982D01*
X4433Y2982D02*
X4452Y2982D01*
X4482Y2982D02*
X4501Y2982D01*
X4533Y2982D02*
X4552Y2982D01*
X4582Y2982D02*
X4601Y2982D01*
X4633Y2982D02*
X4652Y2982D01*
X4682Y2982D02*
X4701Y2982D01*
X4733Y2982D02*
X4752Y2982D01*
X4782Y2982D02*
X4801Y2982D01*
X4833Y2982D02*
X4852Y2982D01*
X4881Y2982D02*
X4901Y2982D01*
X4933Y2982D02*
X4952Y2982D01*
X4981Y2982D02*
X5001Y2982D01*
X5033Y2982D02*
X5052Y2982D01*
X5081Y2982D02*
X5101Y2982D01*
X5133Y2982D02*
X5152Y2982D01*
X5181Y2982D02*
X5201Y2982D01*
X5233Y2982D02*
X5252Y2982D01*
X5281Y2982D02*
X5301Y2982D01*
X3933Y2981D02*
X3952Y2981D01*
X3982Y2981D02*
X4001Y2981D01*
X4033Y2981D02*
X4052Y2981D01*
X4082Y2981D02*
X4101Y2981D01*
X4133Y2981D02*
X4152Y2981D01*
X4182Y2981D02*
X4201Y2981D01*
X4233Y2981D02*
X4252Y2981D01*
X4282Y2981D02*
X4301Y2981D01*
X4333Y2981D02*
X4352Y2981D01*
X4382Y2981D02*
X4401Y2981D01*
X4433Y2981D02*
X4452Y2981D01*
X4482Y2981D02*
X4501Y2981D01*
X4533Y2981D02*
X4552Y2981D01*
X4582Y2981D02*
X4601Y2981D01*
X4633Y2981D02*
X4652Y2981D01*
X4682Y2981D02*
X4701Y2981D01*
X4733Y2981D02*
X4752Y2981D01*
X4782Y2981D02*
X4801Y2981D01*
X4833Y2981D02*
X4852Y2981D01*
X4882Y2981D02*
X4901Y2981D01*
X4933Y2981D02*
X4952Y2981D01*
X4982Y2981D02*
X5001Y2981D01*
X5033Y2981D02*
X5052Y2981D01*
X5082Y2981D02*
X5101Y2981D01*
X5133Y2981D02*
X5152Y2981D01*
X5182Y2981D02*
X5201Y2981D01*
X5233Y2981D02*
X5252Y2981D01*
X5282Y2981D02*
X5301Y2981D01*
X3933Y2980D02*
X3952Y2980D01*
X3982Y2980D02*
X4001Y2980D01*
X4033Y2980D02*
X4052Y2980D01*
X4082Y2980D02*
X4101Y2980D01*
X4133Y2980D02*
X4152Y2980D01*
X4182Y2980D02*
X4201Y2980D01*
X4233Y2980D02*
X4252Y2980D01*
X4282Y2980D02*
X4301Y2980D01*
X4333Y2980D02*
X4352Y2980D01*
X4382Y2980D02*
X4401Y2980D01*
X4433Y2980D02*
X4452Y2980D01*
X4482Y2980D02*
X4501Y2980D01*
X4533Y2980D02*
X4552Y2980D01*
X4582Y2980D02*
X4601Y2980D01*
X4633Y2980D02*
X4652Y2980D01*
X4682Y2980D02*
X4701Y2980D01*
X4733Y2980D02*
X4752Y2980D01*
X4782Y2980D02*
X4801Y2980D01*
X4833Y2980D02*
X4852Y2980D01*
X4882Y2980D02*
X4901Y2980D01*
X4933Y2980D02*
X4952Y2980D01*
X4982Y2980D02*
X5001Y2980D01*
X5033Y2980D02*
X5052Y2980D01*
X5082Y2980D02*
X5101Y2980D01*
X5133Y2980D02*
X5152Y2980D01*
X5182Y2980D02*
X5201Y2980D01*
X5233Y2980D02*
X5252Y2980D01*
X5282Y2980D02*
X5301Y2980D01*
X3933Y2979D02*
X3952Y2979D01*
X3982Y2979D02*
X4001Y2979D01*
X4033Y2979D02*
X4052Y2979D01*
X4082Y2979D02*
X4101Y2979D01*
X4133Y2979D02*
X4152Y2979D01*
X4182Y2979D02*
X4201Y2979D01*
X4233Y2979D02*
X4252Y2979D01*
X4282Y2979D02*
X4301Y2979D01*
X4333Y2979D02*
X4352Y2979D01*
X4382Y2979D02*
X4401Y2979D01*
X4433Y2979D02*
X4452Y2979D01*
X4482Y2979D02*
X4501Y2979D01*
X4533Y2979D02*
X4552Y2979D01*
X4582Y2979D02*
X4601Y2979D01*
X4633Y2979D02*
X4652Y2979D01*
X4682Y2979D02*
X4701Y2979D01*
X4733Y2979D02*
X4752Y2979D01*
X4782Y2979D02*
X4801Y2979D01*
X4833Y2979D02*
X4852Y2979D01*
X4882Y2979D02*
X4901Y2979D01*
X4933Y2979D02*
X4952Y2979D01*
X4982Y2979D02*
X5001Y2979D01*
X5033Y2979D02*
X5052Y2979D01*
X5082Y2979D02*
X5101Y2979D01*
X5133Y2979D02*
X5152Y2979D01*
X5182Y2979D02*
X5201Y2979D01*
X5233Y2979D02*
X5252Y2979D01*
X5282Y2979D02*
X5301Y2979D01*
X3933Y2978D02*
X3952Y2978D01*
X3982Y2978D02*
X4001Y2978D01*
X4033Y2978D02*
X4052Y2978D01*
X4082Y2978D02*
X4101Y2978D01*
X4133Y2978D02*
X4152Y2978D01*
X4182Y2978D02*
X4201Y2978D01*
X4233Y2978D02*
X4252Y2978D01*
X4282Y2978D02*
X4301Y2978D01*
X4333Y2978D02*
X4352Y2978D01*
X4382Y2978D02*
X4401Y2978D01*
X4433Y2978D02*
X4452Y2978D01*
X4482Y2978D02*
X4501Y2978D01*
X4533Y2978D02*
X4552Y2978D01*
X4582Y2978D02*
X4601Y2978D01*
X4633Y2978D02*
X4652Y2978D01*
X4682Y2978D02*
X4701Y2978D01*
X4733Y2978D02*
X4752Y2978D01*
X4782Y2978D02*
X4801Y2978D01*
X4833Y2978D02*
X4852Y2978D01*
X4882Y2978D02*
X4901Y2978D01*
X4933Y2978D02*
X4952Y2978D01*
X4982Y2978D02*
X5001Y2978D01*
X5033Y2978D02*
X5052Y2978D01*
X5082Y2978D02*
X5101Y2978D01*
X5133Y2978D02*
X5152Y2978D01*
X5182Y2978D02*
X5201Y2978D01*
X5233Y2978D02*
X5252Y2978D01*
X5282Y2978D02*
X5301Y2978D01*
X3933Y2977D02*
X3952Y2977D01*
X3983Y2977D02*
X4002Y2977D01*
X4033Y2977D02*
X4052Y2977D01*
X4083Y2977D02*
X4102Y2977D01*
X4133Y2977D02*
X4152Y2977D01*
X4182Y2977D02*
X4202Y2977D01*
X4233Y2977D02*
X4252Y2977D01*
X4282Y2977D02*
X4301Y2977D01*
X4333Y2977D02*
X4352Y2977D01*
X4382Y2977D02*
X4401Y2977D01*
X4433Y2977D02*
X4452Y2977D01*
X4482Y2977D02*
X4501Y2977D01*
X4533Y2977D02*
X4552Y2977D01*
X4582Y2977D02*
X4601Y2977D01*
X4633Y2977D02*
X4652Y2977D01*
X4682Y2977D02*
X4701Y2977D01*
X4733Y2977D02*
X4752Y2977D01*
X4782Y2977D02*
X4801Y2977D01*
X4833Y2977D02*
X4852Y2977D01*
X4882Y2977D02*
X4901Y2977D01*
X4932Y2977D02*
X4952Y2977D01*
X4982Y2977D02*
X5001Y2977D01*
X5032Y2977D02*
X5051Y2977D01*
X5082Y2977D02*
X5101Y2977D01*
X5132Y2977D02*
X5151Y2977D01*
X5182Y2977D02*
X5201Y2977D01*
X5232Y2977D02*
X5251Y2977D01*
X5282Y2977D02*
X5301Y2977D01*
X3933Y2976D02*
X3952Y2976D01*
X3983Y2976D02*
X4002Y2976D01*
X4033Y2976D02*
X4052Y2976D01*
X4083Y2976D02*
X4102Y2976D01*
X4133Y2976D02*
X4152Y2976D01*
X4183Y2976D02*
X4202Y2976D01*
X4233Y2976D02*
X4252Y2976D01*
X4283Y2976D02*
X4302Y2976D01*
X4333Y2976D02*
X4352Y2976D01*
X4382Y2976D02*
X4401Y2976D01*
X4433Y2976D02*
X4452Y2976D01*
X4482Y2976D02*
X4501Y2976D01*
X4533Y2976D02*
X4552Y2976D01*
X4582Y2976D02*
X4601Y2976D01*
X4632Y2976D02*
X4652Y2976D01*
X4682Y2976D02*
X4701Y2976D01*
X4732Y2976D02*
X4751Y2976D01*
X4782Y2976D02*
X4801Y2976D01*
X4832Y2976D02*
X4851Y2976D01*
X4882Y2976D02*
X4901Y2976D01*
X4932Y2976D02*
X4951Y2976D01*
X4982Y2976D02*
X5001Y2976D01*
X5032Y2976D02*
X5051Y2976D01*
X5082Y2976D02*
X5101Y2976D01*
X5132Y2976D02*
X5151Y2976D01*
X5182Y2976D02*
X5201Y2976D01*
X5232Y2976D02*
X5251Y2976D01*
X5282Y2976D02*
X5301Y2976D01*
X3933Y2975D02*
X3952Y2975D01*
X3982Y2975D02*
X4002Y2975D01*
X4033Y2975D02*
X4052Y2975D01*
X4082Y2975D02*
X4101Y2975D01*
X4133Y2975D02*
X4152Y2975D01*
X4182Y2975D02*
X4201Y2975D01*
X4233Y2975D02*
X4252Y2975D01*
X4282Y2975D02*
X4301Y2975D01*
X4333Y2975D02*
X4352Y2975D01*
X4382Y2975D02*
X4401Y2975D01*
X4433Y2975D02*
X4452Y2975D01*
X4482Y2975D02*
X4501Y2975D01*
X4533Y2975D02*
X4552Y2975D01*
X4582Y2975D02*
X4601Y2975D01*
X4633Y2975D02*
X4652Y2975D01*
X4682Y2975D02*
X4701Y2975D01*
X4733Y2975D02*
X4752Y2975D01*
X4782Y2975D02*
X4801Y2975D01*
X4833Y2975D02*
X4852Y2975D01*
X4882Y2975D02*
X4901Y2975D01*
X4933Y2975D02*
X4952Y2975D01*
X4982Y2975D02*
X5001Y2975D01*
X5033Y2975D02*
X5052Y2975D01*
X5082Y2975D02*
X5101Y2975D01*
X5132Y2975D02*
X5152Y2975D01*
X5182Y2975D02*
X5201Y2975D01*
X5232Y2975D02*
X5251Y2975D01*
X5282Y2975D02*
X5301Y2975D01*
X3933Y2974D02*
X3952Y2974D01*
X3982Y2974D02*
X4001Y2974D01*
X4033Y2974D02*
X4052Y2974D01*
X4082Y2974D02*
X4101Y2974D01*
X4133Y2974D02*
X4152Y2974D01*
X4182Y2974D02*
X4201Y2974D01*
X4233Y2974D02*
X4252Y2974D01*
X4282Y2974D02*
X4301Y2974D01*
X4333Y2974D02*
X4352Y2974D01*
X4382Y2974D02*
X4401Y2974D01*
X4433Y2974D02*
X4452Y2974D01*
X4482Y2974D02*
X4501Y2974D01*
X4533Y2974D02*
X4552Y2974D01*
X4582Y2974D02*
X4601Y2974D01*
X4633Y2974D02*
X4652Y2974D01*
X4682Y2974D02*
X4701Y2974D01*
X4733Y2974D02*
X4752Y2974D01*
X4782Y2974D02*
X4801Y2974D01*
X4833Y2974D02*
X4852Y2974D01*
X4882Y2974D02*
X4901Y2974D01*
X4933Y2974D02*
X4952Y2974D01*
X4982Y2974D02*
X5001Y2974D01*
X5033Y2974D02*
X5052Y2974D01*
X5082Y2974D02*
X5101Y2974D01*
X5133Y2974D02*
X5152Y2974D01*
X5182Y2974D02*
X5201Y2974D01*
X5233Y2974D02*
X5252Y2974D01*
X5282Y2974D02*
X5301Y2974D01*
X3933Y2973D02*
X3952Y2973D01*
X3982Y2973D02*
X4001Y2973D01*
X4033Y2973D02*
X4052Y2973D01*
X4082Y2973D02*
X4101Y2973D01*
X4133Y2973D02*
X4152Y2973D01*
X4182Y2973D02*
X4201Y2973D01*
X4233Y2973D02*
X4252Y2973D01*
X4282Y2973D02*
X4301Y2973D01*
X4333Y2973D02*
X4352Y2973D01*
X4382Y2973D02*
X4401Y2973D01*
X4433Y2973D02*
X4452Y2973D01*
X4482Y2973D02*
X4501Y2973D01*
X4533Y2973D02*
X4552Y2973D01*
X4582Y2973D02*
X4601Y2973D01*
X4633Y2973D02*
X4652Y2973D01*
X4682Y2973D02*
X4701Y2973D01*
X4733Y2973D02*
X4752Y2973D01*
X4782Y2973D02*
X4801Y2973D01*
X4833Y2973D02*
X4852Y2973D01*
X4882Y2973D02*
X4901Y2973D01*
X4933Y2973D02*
X4952Y2973D01*
X4982Y2973D02*
X5001Y2973D01*
X5033Y2973D02*
X5052Y2973D01*
X5082Y2973D02*
X5101Y2973D01*
X5133Y2973D02*
X5152Y2973D01*
X5182Y2973D02*
X5201Y2973D01*
X5233Y2973D02*
X5252Y2973D01*
X5282Y2973D02*
X5301Y2973D01*
X3933Y2972D02*
X3952Y2972D01*
X3982Y2972D02*
X4001Y2972D01*
X4033Y2972D02*
X4052Y2972D01*
X4082Y2972D02*
X4101Y2972D01*
X4133Y2972D02*
X4152Y2972D01*
X4182Y2972D02*
X4201Y2972D01*
X4233Y2972D02*
X4252Y2972D01*
X4282Y2972D02*
X4301Y2972D01*
X4333Y2972D02*
X4352Y2972D01*
X4382Y2972D02*
X4401Y2972D01*
X4433Y2972D02*
X4452Y2972D01*
X4482Y2972D02*
X4501Y2972D01*
X4533Y2972D02*
X4552Y2972D01*
X4582Y2972D02*
X4601Y2972D01*
X4633Y2972D02*
X4652Y2972D01*
X4682Y2972D02*
X4701Y2972D01*
X4733Y2972D02*
X4752Y2972D01*
X4782Y2972D02*
X4801Y2972D01*
X4833Y2972D02*
X4852Y2972D01*
X4882Y2972D02*
X4901Y2972D01*
X4933Y2972D02*
X4952Y2972D01*
X4982Y2972D02*
X5001Y2972D01*
X5033Y2972D02*
X5052Y2972D01*
X5082Y2972D02*
X5101Y2972D01*
X5133Y2972D02*
X5152Y2972D01*
X5182Y2972D02*
X5201Y2972D01*
X5233Y2972D02*
X5252Y2972D01*
X5282Y2972D02*
X5301Y2972D01*
X3933Y2971D02*
X3952Y2971D01*
X3982Y2971D02*
X4001Y2971D01*
X4033Y2971D02*
X4052Y2971D01*
X4082Y2971D02*
X4101Y2971D01*
X4133Y2971D02*
X4152Y2971D01*
X4182Y2971D02*
X4201Y2971D01*
X4233Y2971D02*
X4252Y2971D01*
X4282Y2971D02*
X4301Y2971D01*
X4333Y2971D02*
X4352Y2971D01*
X4382Y2971D02*
X4401Y2971D01*
X4433Y2971D02*
X4452Y2971D01*
X4482Y2971D02*
X4501Y2971D01*
X4533Y2971D02*
X4552Y2971D01*
X4582Y2971D02*
X4601Y2971D01*
X4633Y2971D02*
X4652Y2971D01*
X4682Y2971D02*
X4701Y2971D01*
X4733Y2971D02*
X4752Y2971D01*
X4782Y2971D02*
X4801Y2971D01*
X4833Y2971D02*
X4852Y2971D01*
X4882Y2971D02*
X4901Y2971D01*
X4933Y2971D02*
X4952Y2971D01*
X4982Y2971D02*
X5001Y2971D01*
X5033Y2971D02*
X5052Y2971D01*
X5082Y2971D02*
X5101Y2971D01*
X5133Y2971D02*
X5152Y2971D01*
X5182Y2971D02*
X5201Y2971D01*
X5233Y2971D02*
X5252Y2971D01*
X5282Y2971D02*
X5301Y2971D01*
X3933Y2970D02*
X3953Y2970D01*
X3981Y2970D02*
X4001Y2970D01*
X4033Y2970D02*
X4053Y2970D01*
X4081Y2970D02*
X4101Y2970D01*
X4133Y2970D02*
X4153Y2970D01*
X4181Y2970D02*
X4201Y2970D01*
X4233Y2970D02*
X4253Y2970D01*
X4281Y2970D02*
X4301Y2970D01*
X4333Y2970D02*
X4353Y2970D01*
X4381Y2970D02*
X4401Y2970D01*
X4433Y2970D02*
X4453Y2970D01*
X4481Y2970D02*
X4501Y2970D01*
X4533Y2970D02*
X4553Y2970D01*
X4581Y2970D02*
X4601Y2970D01*
X4633Y2970D02*
X4653Y2970D01*
X4681Y2970D02*
X4701Y2970D01*
X4733Y2970D02*
X4753Y2970D01*
X4781Y2970D02*
X4801Y2970D01*
X4833Y2970D02*
X4853Y2970D01*
X4881Y2970D02*
X4901Y2970D01*
X4933Y2970D02*
X4953Y2970D01*
X4981Y2970D02*
X5001Y2970D01*
X5033Y2970D02*
X5053Y2970D01*
X5081Y2970D02*
X5101Y2970D01*
X5133Y2970D02*
X5153Y2970D01*
X5181Y2970D02*
X5201Y2970D01*
X5233Y2970D02*
X5253Y2970D01*
X5281Y2970D02*
X5301Y2970D01*
X3933Y2969D02*
X3953Y2969D01*
X3981Y2969D02*
X4001Y2969D01*
X4033Y2969D02*
X4053Y2969D01*
X4081Y2969D02*
X4101Y2969D01*
X4133Y2969D02*
X4153Y2969D01*
X4181Y2969D02*
X4201Y2969D01*
X4233Y2969D02*
X4253Y2969D01*
X4281Y2969D02*
X4301Y2969D01*
X4333Y2969D02*
X4353Y2969D01*
X4381Y2969D02*
X4401Y2969D01*
X4433Y2969D02*
X4453Y2969D01*
X4481Y2969D02*
X4501Y2969D01*
X4533Y2969D02*
X4553Y2969D01*
X4581Y2969D02*
X4601Y2969D01*
X4633Y2969D02*
X4653Y2969D01*
X4681Y2969D02*
X4701Y2969D01*
X4733Y2969D02*
X4753Y2969D01*
X4781Y2969D02*
X4801Y2969D01*
X4833Y2969D02*
X4853Y2969D01*
X4881Y2969D02*
X4901Y2969D01*
X4933Y2969D02*
X4953Y2969D01*
X4981Y2969D02*
X5001Y2969D01*
X5033Y2969D02*
X5053Y2969D01*
X5081Y2969D02*
X5101Y2969D01*
X5133Y2969D02*
X5153Y2969D01*
X5181Y2969D02*
X5201Y2969D01*
X5233Y2969D02*
X5253Y2969D01*
X5281Y2969D02*
X5301Y2969D01*
X3934Y2968D02*
X3954Y2968D01*
X3980Y2968D02*
X4000Y2968D01*
X4034Y2968D02*
X4054Y2968D01*
X4080Y2968D02*
X4100Y2968D01*
X4134Y2968D02*
X4154Y2968D01*
X4180Y2968D02*
X4200Y2968D01*
X4234Y2968D02*
X4254Y2968D01*
X4280Y2968D02*
X4300Y2968D01*
X4334Y2968D02*
X4354Y2968D01*
X4380Y2968D02*
X4400Y2968D01*
X4434Y2968D02*
X4454Y2968D01*
X4480Y2968D02*
X4500Y2968D01*
X4534Y2968D02*
X4554Y2968D01*
X4580Y2968D02*
X4600Y2968D01*
X4634Y2968D02*
X4654Y2968D01*
X4680Y2968D02*
X4700Y2968D01*
X4734Y2968D02*
X4754Y2968D01*
X4780Y2968D02*
X4800Y2968D01*
X4834Y2968D02*
X4854Y2968D01*
X4880Y2968D02*
X4900Y2968D01*
X4934Y2968D02*
X4954Y2968D01*
X4980Y2968D02*
X5000Y2968D01*
X5034Y2968D02*
X5054Y2968D01*
X5080Y2968D02*
X5100Y2968D01*
X5134Y2968D02*
X5154Y2968D01*
X5180Y2968D02*
X5200Y2968D01*
X5234Y2968D02*
X5254Y2968D01*
X5280Y2968D02*
X5300Y2968D01*
X3934Y2967D02*
X3955Y2967D01*
X3979Y2967D02*
X4000Y2967D01*
X4034Y2967D02*
X4055Y2967D01*
X4079Y2967D02*
X4100Y2967D01*
X4134Y2967D02*
X4155Y2967D01*
X4179Y2967D02*
X4200Y2967D01*
X4234Y2967D02*
X4255Y2967D01*
X4279Y2967D02*
X4300Y2967D01*
X4334Y2967D02*
X4355Y2967D01*
X4379Y2967D02*
X4400Y2967D01*
X4434Y2967D02*
X4455Y2967D01*
X4479Y2967D02*
X4500Y2967D01*
X4534Y2967D02*
X4555Y2967D01*
X4579Y2967D02*
X4600Y2967D01*
X4634Y2967D02*
X4655Y2967D01*
X4679Y2967D02*
X4700Y2967D01*
X4734Y2967D02*
X4755Y2967D01*
X4779Y2967D02*
X4800Y2967D01*
X4834Y2967D02*
X4855Y2967D01*
X4879Y2967D02*
X4900Y2967D01*
X4934Y2967D02*
X4955Y2967D01*
X4979Y2967D02*
X5000Y2967D01*
X5034Y2967D02*
X5055Y2967D01*
X5079Y2967D02*
X5100Y2967D01*
X5134Y2967D02*
X5155Y2967D01*
X5179Y2967D02*
X5200Y2967D01*
X5234Y2967D02*
X5255Y2967D01*
X5279Y2967D02*
X5300Y2967D01*
X3934Y2966D02*
X3956Y2966D01*
X3978Y2966D02*
X4000Y2966D01*
X4034Y2966D02*
X4056Y2966D01*
X4078Y2966D02*
X4100Y2966D01*
X4134Y2966D02*
X4156Y2966D01*
X4178Y2966D02*
X4200Y2966D01*
X4234Y2966D02*
X4256Y2966D01*
X4278Y2966D02*
X4300Y2966D01*
X4334Y2966D02*
X4356Y2966D01*
X4378Y2966D02*
X4400Y2966D01*
X4434Y2966D02*
X4456Y2966D01*
X4478Y2966D02*
X4500Y2966D01*
X4534Y2966D02*
X4556Y2966D01*
X4578Y2966D02*
X4600Y2966D01*
X4634Y2966D02*
X4656Y2966D01*
X4678Y2966D02*
X4700Y2966D01*
X4734Y2966D02*
X4756Y2966D01*
X4778Y2966D02*
X4800Y2966D01*
X4834Y2966D02*
X4856Y2966D01*
X4878Y2966D02*
X4900Y2966D01*
X4934Y2966D02*
X4956Y2966D01*
X4978Y2966D02*
X5000Y2966D01*
X5034Y2966D02*
X5056Y2966D01*
X5078Y2966D02*
X5100Y2966D01*
X5134Y2966D02*
X5156Y2966D01*
X5178Y2966D02*
X5200Y2966D01*
X5234Y2966D02*
X5255Y2966D01*
X5278Y2966D02*
X5300Y2966D01*
X3935Y2965D02*
X3957Y2965D01*
X3977Y2965D02*
X3999Y2965D01*
X4035Y2965D02*
X4057Y2965D01*
X4077Y2965D02*
X4099Y2965D01*
X4135Y2965D02*
X4157Y2965D01*
X4177Y2965D02*
X4199Y2965D01*
X4235Y2965D02*
X4257Y2965D01*
X4277Y2965D02*
X4299Y2965D01*
X4335Y2965D02*
X4357Y2965D01*
X4377Y2965D02*
X4399Y2965D01*
X4435Y2965D02*
X4457Y2965D01*
X4477Y2965D02*
X4499Y2965D01*
X4535Y2965D02*
X4557Y2965D01*
X4577Y2965D02*
X4599Y2965D01*
X4635Y2965D02*
X4657Y2965D01*
X4677Y2965D02*
X4699Y2965D01*
X4735Y2965D02*
X4757Y2965D01*
X4777Y2965D02*
X4799Y2965D01*
X4835Y2965D02*
X4857Y2965D01*
X4877Y2965D02*
X4899Y2965D01*
X4935Y2965D02*
X4957Y2965D01*
X4977Y2965D02*
X4999Y2965D01*
X5035Y2965D02*
X5057Y2965D01*
X5077Y2965D02*
X5099Y2965D01*
X5134Y2965D02*
X5157Y2965D01*
X5177Y2965D02*
X5199Y2965D01*
X5234Y2965D02*
X5257Y2965D01*
X5277Y2965D02*
X5299Y2965D01*
X3935Y2964D02*
X3958Y2964D01*
X3976Y2964D02*
X3999Y2964D01*
X4035Y2964D02*
X4058Y2964D01*
X4076Y2964D02*
X4099Y2964D01*
X4135Y2964D02*
X4158Y2964D01*
X4176Y2964D02*
X4199Y2964D01*
X4235Y2964D02*
X4258Y2964D01*
X4276Y2964D02*
X4299Y2964D01*
X4335Y2964D02*
X4358Y2964D01*
X4376Y2964D02*
X4399Y2964D01*
X4435Y2964D02*
X4458Y2964D01*
X4476Y2964D02*
X4499Y2964D01*
X4535Y2964D02*
X4558Y2964D01*
X4576Y2964D02*
X4599Y2964D01*
X4635Y2964D02*
X4658Y2964D01*
X4676Y2964D02*
X4699Y2964D01*
X4735Y2964D02*
X4758Y2964D01*
X4776Y2964D02*
X4799Y2964D01*
X4835Y2964D02*
X4858Y2964D01*
X4876Y2964D02*
X4899Y2964D01*
X4935Y2964D02*
X4958Y2964D01*
X4976Y2964D02*
X4999Y2964D01*
X5035Y2964D02*
X5058Y2964D01*
X5076Y2964D02*
X5099Y2964D01*
X5135Y2964D02*
X5158Y2964D01*
X5176Y2964D02*
X5199Y2964D01*
X5235Y2964D02*
X5258Y2964D01*
X5276Y2964D02*
X5299Y2964D01*
X3935Y2963D02*
X3959Y2963D01*
X3975Y2963D02*
X3999Y2963D01*
X4035Y2963D02*
X4059Y2963D01*
X4075Y2963D02*
X4099Y2963D01*
X4135Y2963D02*
X4159Y2963D01*
X4175Y2963D02*
X4199Y2963D01*
X4235Y2963D02*
X4259Y2963D01*
X4275Y2963D02*
X4299Y2963D01*
X4335Y2963D02*
X4359Y2963D01*
X4375Y2963D02*
X4399Y2963D01*
X4435Y2963D02*
X4459Y2963D01*
X4475Y2963D02*
X4499Y2963D01*
X4535Y2963D02*
X4559Y2963D01*
X4575Y2963D02*
X4599Y2963D01*
X4635Y2963D02*
X4659Y2963D01*
X4675Y2963D02*
X4699Y2963D01*
X4735Y2963D02*
X4759Y2963D01*
X4775Y2963D02*
X4799Y2963D01*
X4835Y2963D02*
X4859Y2963D01*
X4875Y2963D02*
X4899Y2963D01*
X4935Y2963D02*
X4959Y2963D01*
X4975Y2963D02*
X4999Y2963D01*
X5035Y2963D02*
X5059Y2963D01*
X5075Y2963D02*
X5099Y2963D01*
X5135Y2963D02*
X5159Y2963D01*
X5175Y2963D02*
X5199Y2963D01*
X5235Y2963D02*
X5259Y2963D01*
X5275Y2963D02*
X5299Y2963D01*
X3936Y2962D02*
X3962Y2962D01*
X3973Y2962D02*
X3998Y2962D01*
X4036Y2962D02*
X4062Y2962D01*
X4073Y2962D02*
X4098Y2962D01*
X4136Y2962D02*
X4162Y2962D01*
X4173Y2962D02*
X4198Y2962D01*
X4236Y2962D02*
X4262Y2962D01*
X4273Y2962D02*
X4298Y2962D01*
X4336Y2962D02*
X4361Y2962D01*
X4373Y2962D02*
X4398Y2962D01*
X4436Y2962D02*
X4461Y2962D01*
X4473Y2962D02*
X4498Y2962D01*
X4536Y2962D02*
X4561Y2962D01*
X4573Y2962D02*
X4598Y2962D01*
X4636Y2962D02*
X4661Y2962D01*
X4673Y2962D02*
X4698Y2962D01*
X4736Y2962D02*
X4761Y2962D01*
X4773Y2962D02*
X4798Y2962D01*
X4836Y2962D02*
X4861Y2962D01*
X4872Y2962D02*
X4898Y2962D01*
X4936Y2962D02*
X4961Y2962D01*
X4972Y2962D02*
X4998Y2962D01*
X5036Y2962D02*
X5061Y2962D01*
X5072Y2962D02*
X5098Y2962D01*
X5136Y2962D02*
X5161Y2962D01*
X5172Y2962D02*
X5198Y2962D01*
X5236Y2962D02*
X5261Y2962D01*
X5272Y2962D02*
X5298Y2962D01*
X3936Y2961D02*
X3998Y2961D01*
X4036Y2961D02*
X4098Y2961D01*
X4136Y2961D02*
X4198Y2961D01*
X4236Y2961D02*
X4298Y2961D01*
X4336Y2961D02*
X4398Y2961D01*
X4436Y2961D02*
X4498Y2961D01*
X4536Y2961D02*
X4598Y2961D01*
X4636Y2961D02*
X4698Y2961D01*
X4736Y2961D02*
X4798Y2961D01*
X4836Y2961D02*
X4898Y2961D01*
X4936Y2961D02*
X4998Y2961D01*
X5036Y2961D02*
X5098Y2961D01*
X5136Y2961D02*
X5198Y2961D01*
X5236Y2961D02*
X5298Y2961D01*
X3937Y2960D02*
X3997Y2960D01*
X4037Y2960D02*
X4097Y2960D01*
X4137Y2960D02*
X4197Y2960D01*
X4237Y2960D02*
X4297Y2960D01*
X4337Y2960D02*
X4397Y2960D01*
X4437Y2960D02*
X4497Y2960D01*
X4537Y2960D02*
X4597Y2960D01*
X4637Y2960D02*
X4697Y2960D01*
X4737Y2960D02*
X4797Y2960D01*
X4837Y2960D02*
X4897Y2960D01*
X4937Y2960D02*
X4997Y2960D01*
X5037Y2960D02*
X5097Y2960D01*
X5137Y2960D02*
X5197Y2960D01*
X5237Y2960D02*
X5297Y2960D01*
X3937Y2959D02*
X3997Y2959D01*
X4037Y2959D02*
X4097Y2959D01*
X4137Y2959D02*
X4197Y2959D01*
X4237Y2959D02*
X4297Y2959D01*
X4337Y2959D02*
X4397Y2959D01*
X4437Y2959D02*
X4497Y2959D01*
X4537Y2959D02*
X4597Y2959D01*
X4637Y2959D02*
X4697Y2959D01*
X4737Y2959D02*
X4797Y2959D01*
X4837Y2959D02*
X4897Y2959D01*
X4937Y2959D02*
X4997Y2959D01*
X5037Y2959D02*
X5097Y2959D01*
X5137Y2959D02*
X5197Y2959D01*
X5237Y2959D02*
X5297Y2959D01*
X3938Y2958D02*
X3996Y2958D01*
X4038Y2958D02*
X4096Y2958D01*
X4138Y2958D02*
X4196Y2958D01*
X4238Y2958D02*
X4296Y2958D01*
X4338Y2958D02*
X4396Y2958D01*
X4438Y2958D02*
X4496Y2958D01*
X4538Y2958D02*
X4596Y2958D01*
X4638Y2958D02*
X4696Y2958D01*
X4738Y2958D02*
X4796Y2958D01*
X4838Y2958D02*
X4896Y2958D01*
X4938Y2958D02*
X4996Y2958D01*
X5038Y2958D02*
X5096Y2958D01*
X5138Y2958D02*
X5196Y2958D01*
X5238Y2958D02*
X5296Y2958D01*
X3939Y2957D02*
X3996Y2957D01*
X4039Y2957D02*
X4096Y2957D01*
X4138Y2957D02*
X4196Y2957D01*
X4238Y2957D02*
X4296Y2957D01*
X4338Y2957D02*
X4396Y2957D01*
X4438Y2957D02*
X4496Y2957D01*
X4538Y2957D02*
X4596Y2957D01*
X4638Y2957D02*
X4696Y2957D01*
X4738Y2957D02*
X4796Y2957D01*
X4838Y2957D02*
X4896Y2957D01*
X4938Y2957D02*
X4996Y2957D01*
X5038Y2957D02*
X5095Y2957D01*
X5138Y2957D02*
X5195Y2957D01*
X5238Y2957D02*
X5295Y2957D01*
X3939Y2956D02*
X3995Y2956D01*
X4039Y2956D02*
X4095Y2956D01*
X4139Y2956D02*
X4195Y2956D01*
X4239Y2956D02*
X4295Y2956D01*
X4339Y2956D02*
X4395Y2956D01*
X4439Y2956D02*
X4495Y2956D01*
X4539Y2956D02*
X4595Y2956D01*
X4639Y2956D02*
X4695Y2956D01*
X4739Y2956D02*
X4795Y2956D01*
X4839Y2956D02*
X4895Y2956D01*
X4939Y2956D02*
X4995Y2956D01*
X5039Y2956D02*
X5095Y2956D01*
X5139Y2956D02*
X5195Y2956D01*
X5239Y2956D02*
X5295Y2956D01*
X3940Y2955D02*
X3994Y2955D01*
X4040Y2955D02*
X4094Y2955D01*
X4140Y2955D02*
X4194Y2955D01*
X4240Y2955D02*
X4294Y2955D01*
X4340Y2955D02*
X4394Y2955D01*
X4440Y2955D02*
X4494Y2955D01*
X4540Y2955D02*
X4594Y2955D01*
X4640Y2955D02*
X4694Y2955D01*
X4740Y2955D02*
X4794Y2955D01*
X4840Y2955D02*
X4894Y2955D01*
X4940Y2955D02*
X4994Y2955D01*
X5040Y2955D02*
X5094Y2955D01*
X5140Y2955D02*
X5194Y2955D01*
X5240Y2955D02*
X5294Y2955D01*
X3941Y2954D02*
X3994Y2954D01*
X4041Y2954D02*
X4094Y2954D01*
X4141Y2954D02*
X4193Y2954D01*
X4241Y2954D02*
X4293Y2954D01*
X4341Y2954D02*
X4393Y2954D01*
X4441Y2954D02*
X4493Y2954D01*
X4541Y2954D02*
X4593Y2954D01*
X4641Y2954D02*
X4693Y2954D01*
X4741Y2954D02*
X4793Y2954D01*
X4841Y2954D02*
X4893Y2954D01*
X4941Y2954D02*
X4993Y2954D01*
X5040Y2954D02*
X5093Y2954D01*
X5140Y2954D02*
X5193Y2954D01*
X5240Y2954D02*
X5293Y2954D01*
X3941Y2953D02*
X3993Y2953D01*
X4041Y2953D02*
X4093Y2953D01*
X4141Y2953D02*
X4193Y2953D01*
X4241Y2953D02*
X4293Y2953D01*
X4341Y2953D02*
X4393Y2953D01*
X4441Y2953D02*
X4493Y2953D01*
X4541Y2953D02*
X4593Y2953D01*
X4641Y2953D02*
X4693Y2953D01*
X4741Y2953D02*
X4793Y2953D01*
X4841Y2953D02*
X4893Y2953D01*
X4941Y2953D02*
X4993Y2953D01*
X5041Y2953D02*
X5093Y2953D01*
X5141Y2953D02*
X5193Y2953D01*
X5241Y2953D02*
X5292Y2953D01*
X3942Y2952D02*
X3992Y2952D01*
X4042Y2952D02*
X4092Y2952D01*
X4142Y2952D02*
X4192Y2952D01*
X4242Y2952D02*
X4292Y2952D01*
X4342Y2952D02*
X4392Y2952D01*
X4442Y2952D02*
X4492Y2952D01*
X4542Y2952D02*
X4592Y2952D01*
X4642Y2952D02*
X4692Y2952D01*
X4742Y2952D02*
X4792Y2952D01*
X4842Y2952D02*
X4892Y2952D01*
X4942Y2952D02*
X4992Y2952D01*
X5042Y2952D02*
X5092Y2952D01*
X5142Y2952D02*
X5192Y2952D01*
X5242Y2952D02*
X5292Y2952D01*
X3943Y2951D02*
X3991Y2951D01*
X4043Y2951D02*
X4091Y2951D01*
X4143Y2951D02*
X4191Y2951D01*
X4243Y2951D02*
X4291Y2951D01*
X4343Y2951D02*
X4391Y2951D01*
X4443Y2951D02*
X4491Y2951D01*
X4543Y2951D02*
X4591Y2951D01*
X4643Y2951D02*
X4691Y2951D01*
X4743Y2951D02*
X4791Y2951D01*
X4843Y2951D02*
X4891Y2951D01*
X4943Y2951D02*
X4991Y2951D01*
X5043Y2951D02*
X5091Y2951D01*
X5143Y2951D02*
X5191Y2951D01*
X5243Y2951D02*
X5291Y2951D01*
X3945Y2950D02*
X3990Y2950D01*
X4044Y2950D02*
X4090Y2950D01*
X4144Y2950D02*
X4190Y2950D01*
X4244Y2950D02*
X4290Y2950D01*
X4344Y2950D02*
X4390Y2950D01*
X4444Y2950D02*
X4490Y2950D01*
X4544Y2950D02*
X4590Y2950D01*
X4644Y2950D02*
X4690Y2950D01*
X4744Y2950D02*
X4790Y2950D01*
X4844Y2950D02*
X4890Y2950D01*
X4944Y2950D02*
X4990Y2950D01*
X5044Y2950D02*
X5089Y2950D01*
X5144Y2950D02*
X5189Y2950D01*
X5244Y2950D02*
X5289Y2950D01*
X3946Y2949D02*
X3988Y2949D01*
X4046Y2949D02*
X4088Y2949D01*
X4146Y2949D02*
X4188Y2949D01*
X4246Y2949D02*
X4288Y2949D01*
X4346Y2949D02*
X4388Y2949D01*
X4446Y2949D02*
X4488Y2949D01*
X4546Y2949D02*
X4588Y2949D01*
X4646Y2949D02*
X4688Y2949D01*
X4746Y2949D02*
X4788Y2949D01*
X4846Y2949D02*
X4888Y2949D01*
X4946Y2949D02*
X4988Y2949D01*
X5046Y2949D02*
X5088Y2949D01*
X5146Y2949D02*
X5188Y2949D01*
X5246Y2949D02*
X5288Y2949D01*
X3947Y2948D02*
X3987Y2948D01*
X4047Y2948D02*
X4087Y2948D01*
X4147Y2948D02*
X4187Y2948D01*
X4247Y2948D02*
X4287Y2948D01*
X4347Y2948D02*
X4387Y2948D01*
X4447Y2948D02*
X4487Y2948D01*
X4547Y2948D02*
X4587Y2948D01*
X4647Y2948D02*
X4687Y2948D01*
X4747Y2948D02*
X4787Y2948D01*
X4847Y2948D02*
X4887Y2948D01*
X4947Y2948D02*
X4987Y2948D01*
X5047Y2948D02*
X5087Y2948D01*
X5147Y2948D02*
X5187Y2948D01*
X5247Y2948D02*
X5287Y2948D01*
X3949Y2947D02*
X3986Y2947D01*
X4049Y2947D02*
X4085Y2947D01*
X4149Y2947D02*
X4185Y2947D01*
X4249Y2947D02*
X4285Y2947D01*
X4349Y2947D02*
X4385Y2947D01*
X4449Y2947D02*
X4485Y2947D01*
X4549Y2947D02*
X4585Y2947D01*
X4649Y2947D02*
X4685Y2947D01*
X4749Y2947D02*
X4785Y2947D01*
X4849Y2947D02*
X4885Y2947D01*
X4949Y2947D02*
X4985Y2947D01*
X5049Y2947D02*
X5085Y2947D01*
X5148Y2947D02*
X5185Y2947D01*
X5248Y2947D02*
X5285Y2947D01*
X3950Y2946D02*
X3984Y2946D01*
X4050Y2946D02*
X4084Y2946D01*
X4150Y2946D02*
X4184Y2946D01*
X4250Y2946D02*
X4284Y2946D01*
X4350Y2946D02*
X4384Y2946D01*
X4450Y2946D02*
X4484Y2946D01*
X4550Y2946D02*
X4584Y2946D01*
X4650Y2946D02*
X4684Y2946D01*
X4750Y2946D02*
X4784Y2946D01*
X4850Y2946D02*
X4884Y2946D01*
X4950Y2946D02*
X4984Y2946D01*
X5050Y2946D02*
X5084Y2946D01*
X5150Y2946D02*
X5184Y2946D01*
X5250Y2946D02*
X5284Y2946D01*
X3952Y2945D02*
X3982Y2945D01*
X4052Y2945D02*
X4082Y2945D01*
X4152Y2945D02*
X4182Y2945D01*
X4252Y2945D02*
X4282Y2945D01*
X4352Y2945D02*
X4382Y2945D01*
X4452Y2945D02*
X4482Y2945D01*
X4552Y2945D02*
X4582Y2945D01*
X4652Y2945D02*
X4682Y2945D01*
X4752Y2945D02*
X4782Y2945D01*
X4852Y2945D02*
X4882Y2945D01*
X4952Y2945D02*
X4982Y2945D01*
X5052Y2945D02*
X5082Y2945D01*
X5152Y2945D02*
X5182Y2945D01*
X5252Y2945D02*
X5282Y2945D01*
X3955Y2944D02*
X3980Y2944D01*
X4055Y2944D02*
X4080Y2944D01*
X4155Y2944D02*
X4180Y2944D01*
X4254Y2944D02*
X4280Y2944D01*
X4354Y2944D02*
X4380Y2944D01*
X4454Y2944D02*
X4480Y2944D01*
X4554Y2944D02*
X4580Y2944D01*
X4654Y2944D02*
X4680Y2944D01*
X4754Y2944D02*
X4780Y2944D01*
X4854Y2944D02*
X4879Y2944D01*
X4954Y2944D02*
X4979Y2944D01*
X5054Y2944D02*
X5079Y2944D01*
X5154Y2944D02*
X5179Y2944D01*
X5254Y2944D02*
X5279Y2944D01*
X3957Y2943D02*
X3977Y2943D01*
X4057Y2943D02*
X4077Y2943D01*
X4157Y2943D02*
X4177Y2943D01*
X4257Y2943D02*
X4277Y2943D01*
X4357Y2943D02*
X4377Y2943D01*
X4457Y2943D02*
X4477Y2943D01*
X4557Y2943D02*
X4577Y2943D01*
X4657Y2943D02*
X4677Y2943D01*
X4757Y2943D02*
X4777Y2943D01*
X4857Y2943D02*
X4877Y2943D01*
X4957Y2943D02*
X4977Y2943D01*
X5057Y2943D02*
X5077Y2943D01*
X5157Y2943D02*
X5177Y2943D01*
X5257Y2943D02*
X5277Y2943D01*
X3961Y2942D02*
X3973Y2942D01*
X4061Y2942D02*
X4073Y2942D01*
X4161Y2942D02*
X4173Y2942D01*
X4261Y2942D02*
X4273Y2942D01*
X4361Y2942D02*
X4373Y2942D01*
X4461Y2942D02*
X4473Y2942D01*
X4561Y2942D02*
X4573Y2942D01*
X4661Y2942D02*
X4673Y2942D01*
X4761Y2942D02*
X4773Y2942D01*
X4861Y2942D02*
X4873Y2942D01*
X4961Y2942D02*
X4973Y2942D01*
X5061Y2942D02*
X5073Y2942D01*
X5161Y2942D02*
X5173Y2942D01*
X5261Y2942D02*
X5273Y2942D01*
X3964Y2711D02*
X3970Y2711D01*
X4064Y2711D02*
X4070Y2711D01*
X4164Y2711D02*
X4170Y2711D01*
X4264Y2711D02*
X4270Y2711D01*
X4364Y2711D02*
X4370Y2711D01*
X4464Y2711D02*
X4470Y2711D01*
X4564Y2711D02*
X4570Y2711D01*
X4664Y2711D02*
X4670Y2711D01*
X4764Y2711D02*
X4770Y2711D01*
X4864Y2711D02*
X4870Y2711D01*
X4964Y2711D02*
X4970Y2711D01*
X5064Y2711D02*
X5070Y2711D01*
X5164Y2711D02*
X5170Y2711D01*
X5263Y2711D02*
X5270Y2711D01*
X3959Y2710D02*
X3975Y2710D01*
X4059Y2710D02*
X4075Y2710D01*
X4159Y2710D02*
X4175Y2710D01*
X4259Y2710D02*
X4275Y2710D01*
X4359Y2710D02*
X4375Y2710D01*
X4459Y2710D02*
X4475Y2710D01*
X4559Y2710D02*
X4575Y2710D01*
X4659Y2710D02*
X4675Y2710D01*
X4759Y2710D02*
X4775Y2710D01*
X4859Y2710D02*
X4875Y2710D01*
X4959Y2710D02*
X4975Y2710D01*
X5059Y2710D02*
X5075Y2710D01*
X5159Y2710D02*
X5175Y2710D01*
X5259Y2710D02*
X5275Y2710D01*
X3956Y2709D02*
X3978Y2709D01*
X4056Y2709D02*
X4078Y2709D01*
X4156Y2709D02*
X4178Y2709D01*
X4256Y2709D02*
X4278Y2709D01*
X4356Y2709D02*
X4378Y2709D01*
X4456Y2709D02*
X4478Y2709D01*
X4556Y2709D02*
X4578Y2709D01*
X4656Y2709D02*
X4678Y2709D01*
X4756Y2709D02*
X4778Y2709D01*
X4856Y2709D02*
X4878Y2709D01*
X4956Y2709D02*
X4978Y2709D01*
X5056Y2709D02*
X5078Y2709D01*
X5156Y2709D02*
X5178Y2709D01*
X5256Y2709D02*
X5278Y2709D01*
X3953Y2708D02*
X3981Y2708D01*
X4053Y2708D02*
X4081Y2708D01*
X4153Y2708D02*
X4181Y2708D01*
X4253Y2708D02*
X4281Y2708D01*
X4353Y2708D02*
X4381Y2708D01*
X4453Y2708D02*
X4481Y2708D01*
X4553Y2708D02*
X4581Y2708D01*
X4653Y2708D02*
X4681Y2708D01*
X4753Y2708D02*
X4781Y2708D01*
X4853Y2708D02*
X4881Y2708D01*
X4953Y2708D02*
X4981Y2708D01*
X5053Y2708D02*
X5081Y2708D01*
X5153Y2708D02*
X5181Y2708D01*
X5253Y2708D02*
X5281Y2708D01*
X3951Y2707D02*
X3983Y2707D01*
X4051Y2707D02*
X4083Y2707D01*
X4151Y2707D02*
X4183Y2707D01*
X4251Y2707D02*
X4283Y2707D01*
X4351Y2707D02*
X4383Y2707D01*
X4451Y2707D02*
X4483Y2707D01*
X4551Y2707D02*
X4583Y2707D01*
X4651Y2707D02*
X4683Y2707D01*
X4751Y2707D02*
X4783Y2707D01*
X4851Y2707D02*
X4883Y2707D01*
X4951Y2707D02*
X4983Y2707D01*
X5051Y2707D02*
X5083Y2707D01*
X5151Y2707D02*
X5183Y2707D01*
X5251Y2707D02*
X5283Y2707D01*
X3949Y2706D02*
X3985Y2706D01*
X4049Y2706D02*
X4085Y2706D01*
X4149Y2706D02*
X4185Y2706D01*
X4249Y2706D02*
X4285Y2706D01*
X4349Y2706D02*
X4385Y2706D01*
X4449Y2706D02*
X4485Y2706D01*
X4549Y2706D02*
X4585Y2706D01*
X4649Y2706D02*
X4685Y2706D01*
X4749Y2706D02*
X4785Y2706D01*
X4849Y2706D02*
X4885Y2706D01*
X4949Y2706D02*
X4985Y2706D01*
X5049Y2706D02*
X5085Y2706D01*
X5149Y2706D02*
X5185Y2706D01*
X5249Y2706D02*
X5285Y2706D01*
X3948Y2705D02*
X3986Y2705D01*
X4048Y2705D02*
X4086Y2705D01*
X4148Y2705D02*
X4186Y2705D01*
X4248Y2705D02*
X4286Y2705D01*
X4348Y2705D02*
X4386Y2705D01*
X4448Y2705D02*
X4486Y2705D01*
X4548Y2705D02*
X4586Y2705D01*
X4648Y2705D02*
X4686Y2705D01*
X4748Y2705D02*
X4786Y2705D01*
X4848Y2705D02*
X4886Y2705D01*
X4948Y2705D02*
X4986Y2705D01*
X5048Y2705D02*
X5086Y2705D01*
X5148Y2705D02*
X5186Y2705D01*
X5248Y2705D02*
X5286Y2705D01*
X3946Y2704D02*
X3988Y2704D01*
X4046Y2704D02*
X4088Y2704D01*
X4146Y2704D02*
X4188Y2704D01*
X4246Y2704D02*
X4288Y2704D01*
X4346Y2704D02*
X4388Y2704D01*
X4446Y2704D02*
X4488Y2704D01*
X4546Y2704D02*
X4588Y2704D01*
X4646Y2704D02*
X4688Y2704D01*
X4746Y2704D02*
X4788Y2704D01*
X4846Y2704D02*
X4888Y2704D01*
X4946Y2704D02*
X4988Y2704D01*
X5046Y2704D02*
X5088Y2704D01*
X5146Y2704D02*
X5188Y2704D01*
X5246Y2704D02*
X5288Y2704D01*
X3945Y2703D02*
X3989Y2703D01*
X4045Y2703D02*
X4089Y2703D01*
X4145Y2703D02*
X4189Y2703D01*
X4245Y2703D02*
X4289Y2703D01*
X4345Y2703D02*
X4389Y2703D01*
X4445Y2703D02*
X4489Y2703D01*
X4545Y2703D02*
X4589Y2703D01*
X4645Y2703D02*
X4689Y2703D01*
X4745Y2703D02*
X4789Y2703D01*
X4845Y2703D02*
X4889Y2703D01*
X4945Y2703D02*
X4989Y2703D01*
X5045Y2703D02*
X5089Y2703D01*
X5145Y2703D02*
X5189Y2703D01*
X5245Y2703D02*
X5289Y2703D01*
X3944Y2702D02*
X3990Y2702D01*
X4044Y2702D02*
X4090Y2702D01*
X4144Y2702D02*
X4190Y2702D01*
X4244Y2702D02*
X4290Y2702D01*
X4344Y2702D02*
X4390Y2702D01*
X4444Y2702D02*
X4490Y2702D01*
X4544Y2702D02*
X4590Y2702D01*
X4644Y2702D02*
X4690Y2702D01*
X4744Y2702D02*
X4790Y2702D01*
X4844Y2702D02*
X4890Y2702D01*
X4944Y2702D02*
X4990Y2702D01*
X5044Y2702D02*
X5090Y2702D01*
X5144Y2702D02*
X5190Y2702D01*
X5244Y2702D02*
X5290Y2702D01*
X3943Y2701D02*
X3991Y2701D01*
X4043Y2701D02*
X4091Y2701D01*
X4143Y2701D02*
X4191Y2701D01*
X4243Y2701D02*
X4291Y2701D01*
X4343Y2701D02*
X4391Y2701D01*
X4443Y2701D02*
X4491Y2701D01*
X4543Y2701D02*
X4591Y2701D01*
X4643Y2701D02*
X4691Y2701D01*
X4743Y2701D02*
X4791Y2701D01*
X4843Y2701D02*
X4891Y2701D01*
X4943Y2701D02*
X4991Y2701D01*
X5043Y2701D02*
X5091Y2701D01*
X5143Y2701D02*
X5191Y2701D01*
X5243Y2701D02*
X5291Y2701D01*
X3942Y2700D02*
X3992Y2700D01*
X4042Y2700D02*
X4092Y2700D01*
X4142Y2700D02*
X4192Y2700D01*
X4242Y2700D02*
X4292Y2700D01*
X4342Y2700D02*
X4392Y2700D01*
X4442Y2700D02*
X4492Y2700D01*
X4542Y2700D02*
X4592Y2700D01*
X4642Y2700D02*
X4692Y2700D01*
X4742Y2700D02*
X4792Y2700D01*
X4842Y2700D02*
X4892Y2700D01*
X4942Y2700D02*
X4992Y2700D01*
X5042Y2700D02*
X5092Y2700D01*
X5142Y2700D02*
X5192Y2700D01*
X5242Y2700D02*
X5292Y2700D01*
X3941Y2699D02*
X3993Y2699D01*
X4041Y2699D02*
X4093Y2699D01*
X4141Y2699D02*
X4193Y2699D01*
X4241Y2699D02*
X4293Y2699D01*
X4341Y2699D02*
X4393Y2699D01*
X4441Y2699D02*
X4493Y2699D01*
X4541Y2699D02*
X4593Y2699D01*
X4641Y2699D02*
X4693Y2699D01*
X4741Y2699D02*
X4793Y2699D01*
X4841Y2699D02*
X4893Y2699D01*
X4941Y2699D02*
X4993Y2699D01*
X5041Y2699D02*
X5093Y2699D01*
X5141Y2699D02*
X5193Y2699D01*
X5241Y2699D02*
X5293Y2699D01*
X3940Y2698D02*
X3994Y2698D01*
X4040Y2698D02*
X4094Y2698D01*
X4140Y2698D02*
X4194Y2698D01*
X4240Y2698D02*
X4294Y2698D01*
X4340Y2698D02*
X4394Y2698D01*
X4440Y2698D02*
X4494Y2698D01*
X4540Y2698D02*
X4594Y2698D01*
X4640Y2698D02*
X4694Y2698D01*
X4740Y2698D02*
X4794Y2698D01*
X4840Y2698D02*
X4894Y2698D01*
X4940Y2698D02*
X4994Y2698D01*
X5040Y2698D02*
X5094Y2698D01*
X5140Y2698D02*
X5194Y2698D01*
X5240Y2698D02*
X5294Y2698D01*
X3939Y2697D02*
X3995Y2697D01*
X4039Y2697D02*
X4095Y2697D01*
X4139Y2697D02*
X4195Y2697D01*
X4239Y2697D02*
X4295Y2697D01*
X4339Y2697D02*
X4395Y2697D01*
X4439Y2697D02*
X4495Y2697D01*
X4539Y2697D02*
X4595Y2697D01*
X4639Y2697D02*
X4695Y2697D01*
X4739Y2697D02*
X4795Y2697D01*
X4839Y2697D02*
X4895Y2697D01*
X4939Y2697D02*
X4995Y2697D01*
X5039Y2697D02*
X5095Y2697D01*
X5139Y2697D02*
X5194Y2697D01*
X5239Y2697D02*
X5294Y2697D01*
X3939Y2696D02*
X3995Y2696D01*
X4039Y2696D02*
X4095Y2696D01*
X4139Y2696D02*
X4195Y2696D01*
X4239Y2696D02*
X4295Y2696D01*
X4339Y2696D02*
X4395Y2696D01*
X4439Y2696D02*
X4495Y2696D01*
X4539Y2696D02*
X4595Y2696D01*
X4639Y2696D02*
X4695Y2696D01*
X4739Y2696D02*
X4795Y2696D01*
X4839Y2696D02*
X4895Y2696D01*
X4939Y2696D02*
X4995Y2696D01*
X5039Y2696D02*
X5095Y2696D01*
X5139Y2696D02*
X5195Y2696D01*
X5239Y2696D02*
X5295Y2696D01*
X3938Y2695D02*
X3996Y2695D01*
X4038Y2695D02*
X4096Y2695D01*
X4138Y2695D02*
X4196Y2695D01*
X4238Y2695D02*
X4296Y2695D01*
X4338Y2695D02*
X4396Y2695D01*
X4438Y2695D02*
X4496Y2695D01*
X4538Y2695D02*
X4596Y2695D01*
X4638Y2695D02*
X4696Y2695D01*
X4738Y2695D02*
X4796Y2695D01*
X4838Y2695D02*
X4896Y2695D01*
X4938Y2695D02*
X4996Y2695D01*
X5038Y2695D02*
X5096Y2695D01*
X5138Y2695D02*
X5196Y2695D01*
X5238Y2695D02*
X5296Y2695D01*
X3938Y2694D02*
X3997Y2694D01*
X4038Y2694D02*
X4097Y2694D01*
X4138Y2694D02*
X4197Y2694D01*
X4238Y2694D02*
X4297Y2694D01*
X4338Y2694D02*
X4397Y2694D01*
X4438Y2694D02*
X4496Y2694D01*
X4538Y2694D02*
X4596Y2694D01*
X4638Y2694D02*
X4696Y2694D01*
X4737Y2694D02*
X4796Y2694D01*
X4837Y2694D02*
X4896Y2694D01*
X4937Y2694D02*
X4996Y2694D01*
X5037Y2694D02*
X5096Y2694D01*
X5137Y2694D02*
X5196Y2694D01*
X5237Y2694D02*
X5296Y2694D01*
X3937Y2693D02*
X3997Y2693D01*
X4037Y2693D02*
X4097Y2693D01*
X4137Y2693D02*
X4197Y2693D01*
X4237Y2693D02*
X4297Y2693D01*
X4337Y2693D02*
X4397Y2693D01*
X4437Y2693D02*
X4497Y2693D01*
X4537Y2693D02*
X4597Y2693D01*
X4637Y2693D02*
X4697Y2693D01*
X4737Y2693D02*
X4797Y2693D01*
X4837Y2693D02*
X4897Y2693D01*
X4937Y2693D02*
X4997Y2693D01*
X5037Y2693D02*
X5097Y2693D01*
X5137Y2693D02*
X5197Y2693D01*
X5237Y2693D02*
X5297Y2693D01*
X3937Y2692D02*
X3998Y2692D01*
X4037Y2692D02*
X4098Y2692D01*
X4137Y2692D02*
X4198Y2692D01*
X4236Y2692D02*
X4298Y2692D01*
X4336Y2692D02*
X4398Y2692D01*
X4436Y2692D02*
X4498Y2692D01*
X4536Y2692D02*
X4598Y2692D01*
X4636Y2692D02*
X4698Y2692D01*
X4736Y2692D02*
X4798Y2692D01*
X4836Y2692D02*
X4898Y2692D01*
X4936Y2692D02*
X4997Y2692D01*
X5036Y2692D02*
X5097Y2692D01*
X5136Y2692D02*
X5197Y2692D01*
X5236Y2692D02*
X5297Y2692D01*
X3936Y2691D02*
X3963Y2691D01*
X3971Y2691D02*
X3998Y2691D01*
X4036Y2691D02*
X4063Y2691D01*
X4071Y2691D02*
X4098Y2691D01*
X4136Y2691D02*
X4163Y2691D01*
X4171Y2691D02*
X4198Y2691D01*
X4236Y2691D02*
X4263Y2691D01*
X4271Y2691D02*
X4298Y2691D01*
X4336Y2691D02*
X4363Y2691D01*
X4371Y2691D02*
X4398Y2691D01*
X4436Y2691D02*
X4463Y2691D01*
X4471Y2691D02*
X4498Y2691D01*
X4536Y2691D02*
X4563Y2691D01*
X4571Y2691D02*
X4598Y2691D01*
X4636Y2691D02*
X4663Y2691D01*
X4671Y2691D02*
X4698Y2691D01*
X4736Y2691D02*
X4763Y2691D01*
X4771Y2691D02*
X4798Y2691D01*
X4836Y2691D02*
X4863Y2691D01*
X4871Y2691D02*
X4898Y2691D01*
X4936Y2691D02*
X4963Y2691D01*
X4971Y2691D02*
X4998Y2691D01*
X5036Y2691D02*
X5063Y2691D01*
X5071Y2691D02*
X5098Y2691D01*
X5136Y2691D02*
X5163Y2691D01*
X5171Y2691D02*
X5198Y2691D01*
X5236Y2691D02*
X5263Y2691D01*
X5271Y2691D02*
X5298Y2691D01*
X3936Y2690D02*
X3960Y2690D01*
X3974Y2690D02*
X3999Y2690D01*
X4036Y2690D02*
X4060Y2690D01*
X4074Y2690D02*
X4099Y2690D01*
X4136Y2690D02*
X4160Y2690D01*
X4174Y2690D02*
X4199Y2690D01*
X4236Y2690D02*
X4260Y2690D01*
X4274Y2690D02*
X4299Y2690D01*
X4336Y2690D02*
X4360Y2690D01*
X4374Y2690D02*
X4399Y2690D01*
X4436Y2690D02*
X4460Y2690D01*
X4474Y2690D02*
X4498Y2690D01*
X4536Y2690D02*
X4560Y2690D01*
X4574Y2690D02*
X4598Y2690D01*
X4636Y2690D02*
X4660Y2690D01*
X4674Y2690D02*
X4698Y2690D01*
X4735Y2690D02*
X4760Y2690D01*
X4774Y2690D02*
X4798Y2690D01*
X4835Y2690D02*
X4860Y2690D01*
X4874Y2690D02*
X4898Y2690D01*
X4935Y2690D02*
X4960Y2690D01*
X4974Y2690D02*
X4998Y2690D01*
X5035Y2690D02*
X5060Y2690D01*
X5074Y2690D02*
X5098Y2690D01*
X5135Y2690D02*
X5160Y2690D01*
X5174Y2690D02*
X5198Y2690D01*
X5235Y2690D02*
X5260Y2690D01*
X5274Y2690D02*
X5298Y2690D01*
X3935Y2689D02*
X3958Y2689D01*
X3976Y2689D02*
X3999Y2689D01*
X4035Y2689D02*
X4058Y2689D01*
X4076Y2689D02*
X4099Y2689D01*
X4135Y2689D02*
X4158Y2689D01*
X4176Y2689D02*
X4199Y2689D01*
X4235Y2689D02*
X4258Y2689D01*
X4276Y2689D02*
X4299Y2689D01*
X4335Y2689D02*
X4358Y2689D01*
X4376Y2689D02*
X4399Y2689D01*
X4435Y2689D02*
X4458Y2689D01*
X4476Y2689D02*
X4499Y2689D01*
X4535Y2689D02*
X4558Y2689D01*
X4576Y2689D02*
X4599Y2689D01*
X4635Y2689D02*
X4658Y2689D01*
X4676Y2689D02*
X4699Y2689D01*
X4735Y2689D02*
X4758Y2689D01*
X4776Y2689D02*
X4799Y2689D01*
X4835Y2689D02*
X4858Y2689D01*
X4876Y2689D02*
X4899Y2689D01*
X4935Y2689D02*
X4958Y2689D01*
X4976Y2689D02*
X4999Y2689D01*
X5035Y2689D02*
X5058Y2689D01*
X5076Y2689D02*
X5099Y2689D01*
X5135Y2689D02*
X5158Y2689D01*
X5176Y2689D02*
X5199Y2689D01*
X5235Y2689D02*
X5258Y2689D01*
X5276Y2689D02*
X5299Y2689D01*
X3935Y2688D02*
X3957Y2688D01*
X3977Y2688D02*
X3999Y2688D01*
X4035Y2688D02*
X4057Y2688D01*
X4077Y2688D02*
X4099Y2688D01*
X4135Y2688D02*
X4157Y2688D01*
X4177Y2688D02*
X4199Y2688D01*
X4235Y2688D02*
X4257Y2688D01*
X4277Y2688D02*
X4299Y2688D01*
X4335Y2688D02*
X4357Y2688D01*
X4377Y2688D02*
X4399Y2688D01*
X4435Y2688D02*
X4457Y2688D01*
X4477Y2688D02*
X4499Y2688D01*
X4535Y2688D02*
X4557Y2688D01*
X4577Y2688D02*
X4599Y2688D01*
X4635Y2688D02*
X4657Y2688D01*
X4677Y2688D02*
X4699Y2688D01*
X4735Y2688D02*
X4757Y2688D01*
X4777Y2688D02*
X4799Y2688D01*
X4835Y2688D02*
X4857Y2688D01*
X4877Y2688D02*
X4899Y2688D01*
X4935Y2688D02*
X4957Y2688D01*
X4977Y2688D02*
X4999Y2688D01*
X5035Y2688D02*
X5057Y2688D01*
X5077Y2688D02*
X5099Y2688D01*
X5135Y2688D02*
X5157Y2688D01*
X5177Y2688D02*
X5199Y2688D01*
X5235Y2688D02*
X5257Y2688D01*
X5277Y2688D02*
X5299Y2688D01*
X3934Y2687D02*
X3956Y2687D01*
X3978Y2687D02*
X4000Y2687D01*
X4034Y2687D02*
X4056Y2687D01*
X4078Y2687D02*
X4100Y2687D01*
X4134Y2687D02*
X4156Y2687D01*
X4178Y2687D02*
X4200Y2687D01*
X4234Y2687D02*
X4256Y2687D01*
X4278Y2687D02*
X4300Y2687D01*
X4334Y2687D02*
X4356Y2687D01*
X4378Y2687D02*
X4400Y2687D01*
X4434Y2687D02*
X4456Y2687D01*
X4478Y2687D02*
X4500Y2687D01*
X4534Y2687D02*
X4556Y2687D01*
X4578Y2687D02*
X4600Y2687D01*
X4634Y2687D02*
X4656Y2687D01*
X4678Y2687D02*
X4700Y2687D01*
X4734Y2687D02*
X4756Y2687D01*
X4778Y2687D02*
X4800Y2687D01*
X4834Y2687D02*
X4856Y2687D01*
X4878Y2687D02*
X4900Y2687D01*
X4934Y2687D02*
X4956Y2687D01*
X4978Y2687D02*
X5000Y2687D01*
X5034Y2687D02*
X5056Y2687D01*
X5078Y2687D02*
X5100Y2687D01*
X5134Y2687D02*
X5156Y2687D01*
X5178Y2687D02*
X5200Y2687D01*
X5234Y2687D02*
X5256Y2687D01*
X5278Y2687D02*
X5300Y2687D01*
X3934Y2686D02*
X3955Y2686D01*
X3979Y2686D02*
X4000Y2686D01*
X4034Y2686D02*
X4055Y2686D01*
X4079Y2686D02*
X4100Y2686D01*
X4134Y2686D02*
X4155Y2686D01*
X4179Y2686D02*
X4200Y2686D01*
X4234Y2686D02*
X4255Y2686D01*
X4279Y2686D02*
X4300Y2686D01*
X4334Y2686D02*
X4355Y2686D01*
X4379Y2686D02*
X4400Y2686D01*
X4434Y2686D02*
X4455Y2686D01*
X4479Y2686D02*
X4500Y2686D01*
X4534Y2686D02*
X4555Y2686D01*
X4579Y2686D02*
X4600Y2686D01*
X4634Y2686D02*
X4655Y2686D01*
X4679Y2686D02*
X4700Y2686D01*
X4734Y2686D02*
X4755Y2686D01*
X4779Y2686D02*
X4800Y2686D01*
X4834Y2686D02*
X4855Y2686D01*
X4879Y2686D02*
X4900Y2686D01*
X4934Y2686D02*
X4955Y2686D01*
X4979Y2686D02*
X5000Y2686D01*
X5034Y2686D02*
X5055Y2686D01*
X5079Y2686D02*
X5100Y2686D01*
X5134Y2686D02*
X5155Y2686D01*
X5179Y2686D02*
X5200Y2686D01*
X5234Y2686D02*
X5255Y2686D01*
X5279Y2686D02*
X5300Y2686D01*
X3934Y2685D02*
X3954Y2685D01*
X3980Y2685D02*
X4000Y2685D01*
X4034Y2685D02*
X4054Y2685D01*
X4080Y2685D02*
X4100Y2685D01*
X4134Y2685D02*
X4154Y2685D01*
X4180Y2685D02*
X4200Y2685D01*
X4234Y2685D02*
X4254Y2685D01*
X4280Y2685D02*
X4300Y2685D01*
X4334Y2685D02*
X4354Y2685D01*
X4380Y2685D02*
X4400Y2685D01*
X4434Y2685D02*
X4454Y2685D01*
X4480Y2685D02*
X4500Y2685D01*
X4534Y2685D02*
X4554Y2685D01*
X4580Y2685D02*
X4600Y2685D01*
X4634Y2685D02*
X4654Y2685D01*
X4680Y2685D02*
X4700Y2685D01*
X4734Y2685D02*
X4754Y2685D01*
X4780Y2685D02*
X4800Y2685D01*
X4834Y2685D02*
X4854Y2685D01*
X4880Y2685D02*
X4900Y2685D01*
X4934Y2685D02*
X4954Y2685D01*
X4980Y2685D02*
X5000Y2685D01*
X5034Y2685D02*
X5054Y2685D01*
X5080Y2685D02*
X5100Y2685D01*
X5134Y2685D02*
X5154Y2685D01*
X5180Y2685D02*
X5200Y2685D01*
X5234Y2685D02*
X5254Y2685D01*
X5280Y2685D02*
X5300Y2685D01*
X3934Y2684D02*
X3954Y2684D01*
X3981Y2684D02*
X4001Y2684D01*
X4034Y2684D02*
X4054Y2684D01*
X4081Y2684D02*
X4101Y2684D01*
X4134Y2684D02*
X4154Y2684D01*
X4181Y2684D02*
X4201Y2684D01*
X4234Y2684D02*
X4254Y2684D01*
X4280Y2684D02*
X4301Y2684D01*
X4334Y2684D02*
X4354Y2684D01*
X4380Y2684D02*
X4401Y2684D01*
X4434Y2684D02*
X4454Y2684D01*
X4480Y2684D02*
X4500Y2684D01*
X4534Y2684D02*
X4554Y2684D01*
X4580Y2684D02*
X4600Y2684D01*
X4633Y2684D02*
X4654Y2684D01*
X4680Y2684D02*
X4700Y2684D01*
X4733Y2684D02*
X4754Y2684D01*
X4780Y2684D02*
X4800Y2684D01*
X4833Y2684D02*
X4854Y2684D01*
X4880Y2684D02*
X4900Y2684D01*
X4933Y2684D02*
X4953Y2684D01*
X4980Y2684D02*
X5000Y2684D01*
X5033Y2684D02*
X5053Y2684D01*
X5080Y2684D02*
X5100Y2684D01*
X5133Y2684D02*
X5153Y2684D01*
X5180Y2684D02*
X5200Y2684D01*
X5233Y2684D02*
X5253Y2684D01*
X5280Y2684D02*
X5300Y2684D01*
X3933Y2683D02*
X3953Y2683D01*
X3981Y2683D02*
X4001Y2683D01*
X4033Y2683D02*
X4053Y2683D01*
X4081Y2683D02*
X4101Y2683D01*
X4133Y2683D02*
X4153Y2683D01*
X4181Y2683D02*
X4201Y2683D01*
X4233Y2683D02*
X4253Y2683D01*
X4281Y2683D02*
X4301Y2683D01*
X4333Y2683D02*
X4353Y2683D01*
X4381Y2683D02*
X4401Y2683D01*
X4433Y2683D02*
X4453Y2683D01*
X4481Y2683D02*
X4501Y2683D01*
X4533Y2683D02*
X4553Y2683D01*
X4581Y2683D02*
X4601Y2683D01*
X4633Y2683D02*
X4653Y2683D01*
X4681Y2683D02*
X4701Y2683D01*
X4733Y2683D02*
X4753Y2683D01*
X4781Y2683D02*
X4801Y2683D01*
X4833Y2683D02*
X4853Y2683D01*
X4881Y2683D02*
X4901Y2683D01*
X4933Y2683D02*
X4953Y2683D01*
X4981Y2683D02*
X5001Y2683D01*
X5033Y2683D02*
X5053Y2683D01*
X5081Y2683D02*
X5101Y2683D01*
X5133Y2683D02*
X5153Y2683D01*
X5181Y2683D02*
X5201Y2683D01*
X5233Y2683D02*
X5253Y2683D01*
X5281Y2683D02*
X5301Y2683D01*
X3933Y2682D02*
X3953Y2682D01*
X3982Y2682D02*
X4001Y2682D01*
X4033Y2682D02*
X4053Y2682D01*
X4082Y2682D02*
X4101Y2682D01*
X4133Y2682D02*
X4153Y2682D01*
X4182Y2682D02*
X4201Y2682D01*
X4233Y2682D02*
X4253Y2682D01*
X4282Y2682D02*
X4301Y2682D01*
X4333Y2682D02*
X4352Y2682D01*
X4382Y2682D02*
X4401Y2682D01*
X4433Y2682D02*
X4452Y2682D01*
X4482Y2682D02*
X4501Y2682D01*
X4533Y2682D02*
X4552Y2682D01*
X4582Y2682D02*
X4601Y2682D01*
X4633Y2682D02*
X4652Y2682D01*
X4682Y2682D02*
X4701Y2682D01*
X4733Y2682D02*
X4752Y2682D01*
X4782Y2682D02*
X4801Y2682D01*
X4833Y2682D02*
X4852Y2682D01*
X4881Y2682D02*
X4901Y2682D01*
X4933Y2682D02*
X4952Y2682D01*
X4981Y2682D02*
X5001Y2682D01*
X5033Y2682D02*
X5052Y2682D01*
X5081Y2682D02*
X5101Y2682D01*
X5133Y2682D02*
X5152Y2682D01*
X5181Y2682D02*
X5201Y2682D01*
X5233Y2682D02*
X5252Y2682D01*
X5281Y2682D02*
X5301Y2682D01*
X3933Y2681D02*
X3952Y2681D01*
X3982Y2681D02*
X4001Y2681D01*
X4033Y2681D02*
X4052Y2681D01*
X4082Y2681D02*
X4101Y2681D01*
X4133Y2681D02*
X4152Y2681D01*
X4182Y2681D02*
X4201Y2681D01*
X4233Y2681D02*
X4252Y2681D01*
X4282Y2681D02*
X4301Y2681D01*
X4333Y2681D02*
X4352Y2681D01*
X4382Y2681D02*
X4401Y2681D01*
X4433Y2681D02*
X4452Y2681D01*
X4482Y2681D02*
X4501Y2681D01*
X4533Y2681D02*
X4552Y2681D01*
X4582Y2681D02*
X4601Y2681D01*
X4633Y2681D02*
X4652Y2681D01*
X4682Y2681D02*
X4701Y2681D01*
X4733Y2681D02*
X4752Y2681D01*
X4782Y2681D02*
X4801Y2681D01*
X4833Y2681D02*
X4852Y2681D01*
X4882Y2681D02*
X4901Y2681D01*
X4933Y2681D02*
X4952Y2681D01*
X4982Y2681D02*
X5001Y2681D01*
X5033Y2681D02*
X5052Y2681D01*
X5082Y2681D02*
X5101Y2681D01*
X5133Y2681D02*
X5152Y2681D01*
X5182Y2681D02*
X5201Y2681D01*
X5233Y2681D02*
X5252Y2681D01*
X5282Y2681D02*
X5301Y2681D01*
X3933Y2680D02*
X3952Y2680D01*
X3982Y2680D02*
X4001Y2680D01*
X4033Y2680D02*
X4052Y2680D01*
X4082Y2680D02*
X4101Y2680D01*
X4133Y2680D02*
X4152Y2680D01*
X4182Y2680D02*
X4201Y2680D01*
X4233Y2680D02*
X4252Y2680D01*
X4282Y2680D02*
X4301Y2680D01*
X4333Y2680D02*
X4352Y2680D01*
X4382Y2680D02*
X4401Y2680D01*
X4433Y2680D02*
X4452Y2680D01*
X4482Y2680D02*
X4501Y2680D01*
X4533Y2680D02*
X4552Y2680D01*
X4582Y2680D02*
X4601Y2680D01*
X4633Y2680D02*
X4652Y2680D01*
X4682Y2680D02*
X4701Y2680D01*
X4733Y2680D02*
X4752Y2680D01*
X4782Y2680D02*
X4801Y2680D01*
X4833Y2680D02*
X4852Y2680D01*
X4882Y2680D02*
X4901Y2680D01*
X4933Y2680D02*
X4952Y2680D01*
X4982Y2680D02*
X5001Y2680D01*
X5033Y2680D02*
X5052Y2680D01*
X5082Y2680D02*
X5101Y2680D01*
X5133Y2680D02*
X5152Y2680D01*
X5182Y2680D02*
X5201Y2680D01*
X5233Y2680D02*
X5252Y2680D01*
X5282Y2680D02*
X5301Y2680D01*
X3933Y2679D02*
X3952Y2679D01*
X3982Y2679D02*
X4001Y2679D01*
X4033Y2679D02*
X4052Y2679D01*
X4082Y2679D02*
X4101Y2679D01*
X4133Y2679D02*
X4152Y2679D01*
X4182Y2679D02*
X4201Y2679D01*
X4233Y2679D02*
X4252Y2679D01*
X4282Y2679D02*
X4301Y2679D01*
X4333Y2679D02*
X4352Y2679D01*
X4382Y2679D02*
X4401Y2679D01*
X4433Y2679D02*
X4452Y2679D01*
X4482Y2679D02*
X4501Y2679D01*
X4533Y2679D02*
X4552Y2679D01*
X4582Y2679D02*
X4601Y2679D01*
X4633Y2679D02*
X4652Y2679D01*
X4682Y2679D02*
X4701Y2679D01*
X4733Y2679D02*
X4752Y2679D01*
X4782Y2679D02*
X4801Y2679D01*
X4833Y2679D02*
X4852Y2679D01*
X4882Y2679D02*
X4901Y2679D01*
X4933Y2679D02*
X4952Y2679D01*
X4982Y2679D02*
X5001Y2679D01*
X5033Y2679D02*
X5052Y2679D01*
X5082Y2679D02*
X5101Y2679D01*
X5133Y2679D02*
X5152Y2679D01*
X5182Y2679D02*
X5201Y2679D01*
X5233Y2679D02*
X5252Y2679D01*
X5282Y2679D02*
X5301Y2679D01*
X3933Y2678D02*
X3952Y2678D01*
X3982Y2678D02*
X4001Y2678D01*
X4033Y2678D02*
X4052Y2678D01*
X4082Y2678D02*
X4101Y2678D01*
X4133Y2678D02*
X4152Y2678D01*
X4182Y2678D02*
X4201Y2678D01*
X4233Y2678D02*
X4252Y2678D01*
X4282Y2678D02*
X4301Y2678D01*
X4333Y2678D02*
X4352Y2678D01*
X4382Y2678D02*
X4401Y2678D01*
X4433Y2678D02*
X4452Y2678D01*
X4482Y2678D02*
X4501Y2678D01*
X4533Y2678D02*
X4552Y2678D01*
X4582Y2678D02*
X4601Y2678D01*
X4633Y2678D02*
X4652Y2678D01*
X4682Y2678D02*
X4701Y2678D01*
X4733Y2678D02*
X4752Y2678D01*
X4782Y2678D02*
X4801Y2678D01*
X4833Y2678D02*
X4852Y2678D01*
X4882Y2678D02*
X4901Y2678D01*
X4933Y2678D02*
X4952Y2678D01*
X4982Y2678D02*
X5001Y2678D01*
X5033Y2678D02*
X5052Y2678D01*
X5082Y2678D02*
X5101Y2678D01*
X5133Y2678D02*
X5152Y2678D01*
X5182Y2678D02*
X5201Y2678D01*
X5233Y2678D02*
X5252Y2678D01*
X5282Y2678D02*
X5301Y2678D01*
X3933Y2677D02*
X3952Y2677D01*
X3983Y2677D02*
X4002Y2677D01*
X4033Y2677D02*
X4052Y2677D01*
X4083Y2677D02*
X4102Y2677D01*
X4133Y2677D02*
X4152Y2677D01*
X4182Y2677D02*
X4202Y2677D01*
X4233Y2677D02*
X4252Y2677D01*
X4282Y2677D02*
X4301Y2677D01*
X4333Y2677D02*
X4352Y2677D01*
X4382Y2677D02*
X4401Y2677D01*
X4433Y2677D02*
X4452Y2677D01*
X4482Y2677D02*
X4501Y2677D01*
X4533Y2677D02*
X4552Y2677D01*
X4582Y2677D02*
X4601Y2677D01*
X4633Y2677D02*
X4652Y2677D01*
X4682Y2677D02*
X4701Y2677D01*
X4733Y2677D02*
X4752Y2677D01*
X4782Y2677D02*
X4801Y2677D01*
X4833Y2677D02*
X4852Y2677D01*
X4882Y2677D02*
X4901Y2677D01*
X4932Y2677D02*
X4952Y2677D01*
X4982Y2677D02*
X5001Y2677D01*
X5032Y2677D02*
X5051Y2677D01*
X5082Y2677D02*
X5101Y2677D01*
X5132Y2677D02*
X5151Y2677D01*
X5182Y2677D02*
X5201Y2677D01*
X5232Y2677D02*
X5251Y2677D01*
X5282Y2677D02*
X5301Y2677D01*
X3933Y2676D02*
X3952Y2676D01*
X3983Y2676D02*
X4002Y2676D01*
X4033Y2676D02*
X4052Y2676D01*
X4083Y2676D02*
X4102Y2676D01*
X4133Y2676D02*
X4152Y2676D01*
X4183Y2676D02*
X4202Y2676D01*
X4233Y2676D02*
X4252Y2676D01*
X4283Y2676D02*
X4302Y2676D01*
X4333Y2676D02*
X4352Y2676D01*
X4382Y2676D02*
X4401Y2676D01*
X4433Y2676D02*
X4452Y2676D01*
X4482Y2676D02*
X4501Y2676D01*
X4533Y2676D02*
X4552Y2676D01*
X4582Y2676D02*
X4601Y2676D01*
X4633Y2676D02*
X4652Y2676D01*
X4682Y2676D02*
X4701Y2676D01*
X4732Y2676D02*
X4751Y2676D01*
X4782Y2676D02*
X4801Y2676D01*
X4832Y2676D02*
X4851Y2676D01*
X4882Y2676D02*
X4901Y2676D01*
X4932Y2676D02*
X4951Y2676D01*
X4982Y2676D02*
X5001Y2676D01*
X5032Y2676D02*
X5051Y2676D01*
X5082Y2676D02*
X5101Y2676D01*
X5132Y2676D02*
X5151Y2676D01*
X5182Y2676D02*
X5201Y2676D01*
X5232Y2676D02*
X5251Y2676D01*
X5282Y2676D02*
X5301Y2676D01*
X3933Y2675D02*
X3952Y2675D01*
X3982Y2675D02*
X4002Y2675D01*
X4033Y2675D02*
X4052Y2675D01*
X4082Y2675D02*
X4101Y2675D01*
X4133Y2675D02*
X4152Y2675D01*
X4182Y2675D02*
X4201Y2675D01*
X4233Y2675D02*
X4252Y2675D01*
X4282Y2675D02*
X4301Y2675D01*
X4333Y2675D02*
X4352Y2675D01*
X4382Y2675D02*
X4401Y2675D01*
X4433Y2675D02*
X4452Y2675D01*
X4482Y2675D02*
X4501Y2675D01*
X4533Y2675D02*
X4552Y2675D01*
X4582Y2675D02*
X4601Y2675D01*
X4633Y2675D02*
X4652Y2675D01*
X4682Y2675D02*
X4701Y2675D01*
X4733Y2675D02*
X4752Y2675D01*
X4782Y2675D02*
X4801Y2675D01*
X4833Y2675D02*
X4852Y2675D01*
X4882Y2675D02*
X4901Y2675D01*
X4933Y2675D02*
X4952Y2675D01*
X4982Y2675D02*
X5001Y2675D01*
X5033Y2675D02*
X5052Y2675D01*
X5082Y2675D02*
X5101Y2675D01*
X5132Y2675D02*
X5152Y2675D01*
X5182Y2675D02*
X5201Y2675D01*
X5232Y2675D02*
X5252Y2675D01*
X5282Y2675D02*
X5301Y2675D01*
X3933Y2674D02*
X3952Y2674D01*
X3982Y2674D02*
X4001Y2674D01*
X4033Y2674D02*
X4052Y2674D01*
X4082Y2674D02*
X4101Y2674D01*
X4133Y2674D02*
X4152Y2674D01*
X4182Y2674D02*
X4201Y2674D01*
X4233Y2674D02*
X4252Y2674D01*
X4282Y2674D02*
X4301Y2674D01*
X4333Y2674D02*
X4352Y2674D01*
X4382Y2674D02*
X4401Y2674D01*
X4433Y2674D02*
X4452Y2674D01*
X4482Y2674D02*
X4501Y2674D01*
X4533Y2674D02*
X4552Y2674D01*
X4582Y2674D02*
X4601Y2674D01*
X4633Y2674D02*
X4652Y2674D01*
X4682Y2674D02*
X4701Y2674D01*
X4733Y2674D02*
X4752Y2674D01*
X4782Y2674D02*
X4801Y2674D01*
X4833Y2674D02*
X4852Y2674D01*
X4882Y2674D02*
X4901Y2674D01*
X4933Y2674D02*
X4952Y2674D01*
X4982Y2674D02*
X5001Y2674D01*
X5033Y2674D02*
X5052Y2674D01*
X5082Y2674D02*
X5101Y2674D01*
X5133Y2674D02*
X5152Y2674D01*
X5182Y2674D02*
X5201Y2674D01*
X5233Y2674D02*
X5252Y2674D01*
X5282Y2674D02*
X5301Y2674D01*
X3933Y2673D02*
X3952Y2673D01*
X3982Y2673D02*
X4001Y2673D01*
X4033Y2673D02*
X4052Y2673D01*
X4082Y2673D02*
X4101Y2673D01*
X4133Y2673D02*
X4152Y2673D01*
X4182Y2673D02*
X4201Y2673D01*
X4233Y2673D02*
X4252Y2673D01*
X4282Y2673D02*
X4301Y2673D01*
X4333Y2673D02*
X4352Y2673D01*
X4382Y2673D02*
X4401Y2673D01*
X4433Y2673D02*
X4452Y2673D01*
X4482Y2673D02*
X4501Y2673D01*
X4533Y2673D02*
X4552Y2673D01*
X4582Y2673D02*
X4601Y2673D01*
X4633Y2673D02*
X4652Y2673D01*
X4682Y2673D02*
X4701Y2673D01*
X4733Y2673D02*
X4752Y2673D01*
X4782Y2673D02*
X4801Y2673D01*
X4833Y2673D02*
X4852Y2673D01*
X4882Y2673D02*
X4901Y2673D01*
X4933Y2673D02*
X4952Y2673D01*
X4982Y2673D02*
X5001Y2673D01*
X5033Y2673D02*
X5052Y2673D01*
X5082Y2673D02*
X5101Y2673D01*
X5133Y2673D02*
X5152Y2673D01*
X5182Y2673D02*
X5201Y2673D01*
X5233Y2673D02*
X5252Y2673D01*
X5282Y2673D02*
X5301Y2673D01*
X3933Y2672D02*
X3952Y2672D01*
X3982Y2672D02*
X4001Y2672D01*
X4033Y2672D02*
X4052Y2672D01*
X4082Y2672D02*
X4101Y2672D01*
X4133Y2672D02*
X4152Y2672D01*
X4182Y2672D02*
X4201Y2672D01*
X4233Y2672D02*
X4252Y2672D01*
X4282Y2672D02*
X4301Y2672D01*
X4333Y2672D02*
X4352Y2672D01*
X4382Y2672D02*
X4401Y2672D01*
X4433Y2672D02*
X4452Y2672D01*
X4482Y2672D02*
X4501Y2672D01*
X4533Y2672D02*
X4552Y2672D01*
X4582Y2672D02*
X4601Y2672D01*
X4633Y2672D02*
X4652Y2672D01*
X4682Y2672D02*
X4701Y2672D01*
X4733Y2672D02*
X4752Y2672D01*
X4782Y2672D02*
X4801Y2672D01*
X4833Y2672D02*
X4852Y2672D01*
X4882Y2672D02*
X4901Y2672D01*
X4933Y2672D02*
X4952Y2672D01*
X4982Y2672D02*
X5001Y2672D01*
X5033Y2672D02*
X5052Y2672D01*
X5082Y2672D02*
X5101Y2672D01*
X5133Y2672D02*
X5152Y2672D01*
X5182Y2672D02*
X5201Y2672D01*
X5233Y2672D02*
X5252Y2672D01*
X5282Y2672D02*
X5301Y2672D01*
X3933Y2671D02*
X3952Y2671D01*
X3982Y2671D02*
X4001Y2671D01*
X4033Y2671D02*
X4052Y2671D01*
X4082Y2671D02*
X4101Y2671D01*
X4133Y2671D02*
X4152Y2671D01*
X4182Y2671D02*
X4201Y2671D01*
X4233Y2671D02*
X4252Y2671D01*
X4282Y2671D02*
X4301Y2671D01*
X4333Y2671D02*
X4352Y2671D01*
X4382Y2671D02*
X4401Y2671D01*
X4433Y2671D02*
X4452Y2671D01*
X4482Y2671D02*
X4501Y2671D01*
X4533Y2671D02*
X4552Y2671D01*
X4582Y2671D02*
X4601Y2671D01*
X4633Y2671D02*
X4652Y2671D01*
X4682Y2671D02*
X4701Y2671D01*
X4733Y2671D02*
X4752Y2671D01*
X4782Y2671D02*
X4801Y2671D01*
X4833Y2671D02*
X4852Y2671D01*
X4882Y2671D02*
X4901Y2671D01*
X4933Y2671D02*
X4952Y2671D01*
X4982Y2671D02*
X5001Y2671D01*
X5033Y2671D02*
X5052Y2671D01*
X5082Y2671D02*
X5101Y2671D01*
X5133Y2671D02*
X5152Y2671D01*
X5182Y2671D02*
X5201Y2671D01*
X5233Y2671D02*
X5252Y2671D01*
X5282Y2671D02*
X5301Y2671D01*
X3933Y2670D02*
X3953Y2670D01*
X3981Y2670D02*
X4001Y2670D01*
X4033Y2670D02*
X4053Y2670D01*
X4081Y2670D02*
X4101Y2670D01*
X4133Y2670D02*
X4153Y2670D01*
X4181Y2670D02*
X4201Y2670D01*
X4233Y2670D02*
X4253Y2670D01*
X4281Y2670D02*
X4301Y2670D01*
X4333Y2670D02*
X4353Y2670D01*
X4381Y2670D02*
X4401Y2670D01*
X4433Y2670D02*
X4453Y2670D01*
X4481Y2670D02*
X4501Y2670D01*
X4533Y2670D02*
X4553Y2670D01*
X4581Y2670D02*
X4601Y2670D01*
X4633Y2670D02*
X4653Y2670D01*
X4681Y2670D02*
X4701Y2670D01*
X4733Y2670D02*
X4753Y2670D01*
X4781Y2670D02*
X4801Y2670D01*
X4833Y2670D02*
X4853Y2670D01*
X4881Y2670D02*
X4901Y2670D01*
X4933Y2670D02*
X4953Y2670D01*
X4981Y2670D02*
X5001Y2670D01*
X5033Y2670D02*
X5053Y2670D01*
X5081Y2670D02*
X5101Y2670D01*
X5133Y2670D02*
X5153Y2670D01*
X5181Y2670D02*
X5201Y2670D01*
X5233Y2670D02*
X5253Y2670D01*
X5281Y2670D02*
X5301Y2670D01*
X3933Y2669D02*
X3953Y2669D01*
X3981Y2669D02*
X4001Y2669D01*
X4033Y2669D02*
X4053Y2669D01*
X4081Y2669D02*
X4101Y2669D01*
X4133Y2669D02*
X4153Y2669D01*
X4181Y2669D02*
X4201Y2669D01*
X4233Y2669D02*
X4253Y2669D01*
X4281Y2669D02*
X4301Y2669D01*
X4333Y2669D02*
X4353Y2669D01*
X4381Y2669D02*
X4401Y2669D01*
X4433Y2669D02*
X4453Y2669D01*
X4481Y2669D02*
X4501Y2669D01*
X4533Y2669D02*
X4553Y2669D01*
X4581Y2669D02*
X4601Y2669D01*
X4633Y2669D02*
X4653Y2669D01*
X4681Y2669D02*
X4701Y2669D01*
X4733Y2669D02*
X4753Y2669D01*
X4781Y2669D02*
X4801Y2669D01*
X4833Y2669D02*
X4853Y2669D01*
X4881Y2669D02*
X4901Y2669D01*
X4933Y2669D02*
X4953Y2669D01*
X4981Y2669D02*
X5001Y2669D01*
X5033Y2669D02*
X5053Y2669D01*
X5081Y2669D02*
X5101Y2669D01*
X5133Y2669D02*
X5153Y2669D01*
X5181Y2669D02*
X5201Y2669D01*
X5233Y2669D02*
X5253Y2669D01*
X5281Y2669D02*
X5301Y2669D01*
X3934Y2668D02*
X3954Y2668D01*
X3980Y2668D02*
X4000Y2668D01*
X4034Y2668D02*
X4054Y2668D01*
X4080Y2668D02*
X4100Y2668D01*
X4134Y2668D02*
X4154Y2668D01*
X4180Y2668D02*
X4200Y2668D01*
X4234Y2668D02*
X4254Y2668D01*
X4280Y2668D02*
X4300Y2668D01*
X4334Y2668D02*
X4354Y2668D01*
X4380Y2668D02*
X4400Y2668D01*
X4434Y2668D02*
X4454Y2668D01*
X4480Y2668D02*
X4500Y2668D01*
X4534Y2668D02*
X4554Y2668D01*
X4580Y2668D02*
X4600Y2668D01*
X4634Y2668D02*
X4654Y2668D01*
X4680Y2668D02*
X4700Y2668D01*
X4734Y2668D02*
X4754Y2668D01*
X4780Y2668D02*
X4800Y2668D01*
X4834Y2668D02*
X4854Y2668D01*
X4880Y2668D02*
X4900Y2668D01*
X4934Y2668D02*
X4954Y2668D01*
X4980Y2668D02*
X5000Y2668D01*
X5034Y2668D02*
X5054Y2668D01*
X5080Y2668D02*
X5100Y2668D01*
X5134Y2668D02*
X5154Y2668D01*
X5180Y2668D02*
X5200Y2668D01*
X5234Y2668D02*
X5254Y2668D01*
X5280Y2668D02*
X5300Y2668D01*
X3934Y2667D02*
X3955Y2667D01*
X3979Y2667D02*
X4000Y2667D01*
X4034Y2667D02*
X4055Y2667D01*
X4079Y2667D02*
X4100Y2667D01*
X4134Y2667D02*
X4155Y2667D01*
X4179Y2667D02*
X4200Y2667D01*
X4234Y2667D02*
X4255Y2667D01*
X4279Y2667D02*
X4300Y2667D01*
X4334Y2667D02*
X4355Y2667D01*
X4379Y2667D02*
X4400Y2667D01*
X4434Y2667D02*
X4455Y2667D01*
X4479Y2667D02*
X4500Y2667D01*
X4534Y2667D02*
X4555Y2667D01*
X4579Y2667D02*
X4600Y2667D01*
X4634Y2667D02*
X4655Y2667D01*
X4679Y2667D02*
X4700Y2667D01*
X4734Y2667D02*
X4755Y2667D01*
X4779Y2667D02*
X4800Y2667D01*
X4834Y2667D02*
X4855Y2667D01*
X4879Y2667D02*
X4900Y2667D01*
X4934Y2667D02*
X4955Y2667D01*
X4979Y2667D02*
X5000Y2667D01*
X5034Y2667D02*
X5055Y2667D01*
X5079Y2667D02*
X5100Y2667D01*
X5134Y2667D02*
X5155Y2667D01*
X5179Y2667D02*
X5200Y2667D01*
X5234Y2667D02*
X5255Y2667D01*
X5279Y2667D02*
X5300Y2667D01*
X3934Y2666D02*
X3956Y2666D01*
X3978Y2666D02*
X4000Y2666D01*
X4034Y2666D02*
X4056Y2666D01*
X4078Y2666D02*
X4100Y2666D01*
X4134Y2666D02*
X4156Y2666D01*
X4178Y2666D02*
X4200Y2666D01*
X4234Y2666D02*
X4256Y2666D01*
X4278Y2666D02*
X4300Y2666D01*
X4334Y2666D02*
X4356Y2666D01*
X4378Y2666D02*
X4400Y2666D01*
X4434Y2666D02*
X4456Y2666D01*
X4478Y2666D02*
X4500Y2666D01*
X4534Y2666D02*
X4556Y2666D01*
X4578Y2666D02*
X4600Y2666D01*
X4634Y2666D02*
X4656Y2666D01*
X4678Y2666D02*
X4700Y2666D01*
X4734Y2666D02*
X4756Y2666D01*
X4778Y2666D02*
X4800Y2666D01*
X4834Y2666D02*
X4856Y2666D01*
X4878Y2666D02*
X4900Y2666D01*
X4934Y2666D02*
X4956Y2666D01*
X4978Y2666D02*
X5000Y2666D01*
X5034Y2666D02*
X5056Y2666D01*
X5078Y2666D02*
X5100Y2666D01*
X5134Y2666D02*
X5156Y2666D01*
X5178Y2666D02*
X5200Y2666D01*
X5234Y2666D02*
X5256Y2666D01*
X5278Y2666D02*
X5300Y2666D01*
X3935Y2665D02*
X3957Y2665D01*
X3977Y2665D02*
X3999Y2665D01*
X4035Y2665D02*
X4057Y2665D01*
X4077Y2665D02*
X4099Y2665D01*
X4135Y2665D02*
X4157Y2665D01*
X4177Y2665D02*
X4199Y2665D01*
X4235Y2665D02*
X4257Y2665D01*
X4277Y2665D02*
X4299Y2665D01*
X4335Y2665D02*
X4357Y2665D01*
X4377Y2665D02*
X4399Y2665D01*
X4435Y2665D02*
X4457Y2665D01*
X4477Y2665D02*
X4499Y2665D01*
X4535Y2665D02*
X4557Y2665D01*
X4577Y2665D02*
X4599Y2665D01*
X4635Y2665D02*
X4657Y2665D01*
X4677Y2665D02*
X4699Y2665D01*
X4735Y2665D02*
X4757Y2665D01*
X4777Y2665D02*
X4799Y2665D01*
X4835Y2665D02*
X4857Y2665D01*
X4877Y2665D02*
X4899Y2665D01*
X4935Y2665D02*
X4957Y2665D01*
X4977Y2665D02*
X4999Y2665D01*
X5035Y2665D02*
X5057Y2665D01*
X5077Y2665D02*
X5099Y2665D01*
X5135Y2665D02*
X5157Y2665D01*
X5177Y2665D02*
X5199Y2665D01*
X5235Y2665D02*
X5257Y2665D01*
X5277Y2665D02*
X5299Y2665D01*
X3935Y2664D02*
X3958Y2664D01*
X3976Y2664D02*
X3999Y2664D01*
X4035Y2664D02*
X4058Y2664D01*
X4076Y2664D02*
X4099Y2664D01*
X4135Y2664D02*
X4158Y2664D01*
X4176Y2664D02*
X4199Y2664D01*
X4235Y2664D02*
X4258Y2664D01*
X4276Y2664D02*
X4299Y2664D01*
X4335Y2664D02*
X4358Y2664D01*
X4376Y2664D02*
X4399Y2664D01*
X4435Y2664D02*
X4458Y2664D01*
X4476Y2664D02*
X4499Y2664D01*
X4535Y2664D02*
X4558Y2664D01*
X4576Y2664D02*
X4599Y2664D01*
X4635Y2664D02*
X4658Y2664D01*
X4676Y2664D02*
X4699Y2664D01*
X4735Y2664D02*
X4758Y2664D01*
X4776Y2664D02*
X4799Y2664D01*
X4835Y2664D02*
X4858Y2664D01*
X4876Y2664D02*
X4899Y2664D01*
X4935Y2664D02*
X4958Y2664D01*
X4976Y2664D02*
X4999Y2664D01*
X5035Y2664D02*
X5058Y2664D01*
X5076Y2664D02*
X5099Y2664D01*
X5135Y2664D02*
X5158Y2664D01*
X5176Y2664D02*
X5199Y2664D01*
X5235Y2664D02*
X5258Y2664D01*
X5276Y2664D02*
X5299Y2664D01*
X3935Y2663D02*
X3959Y2663D01*
X3975Y2663D02*
X3999Y2663D01*
X4035Y2663D02*
X4059Y2663D01*
X4075Y2663D02*
X4099Y2663D01*
X4135Y2663D02*
X4159Y2663D01*
X4175Y2663D02*
X4199Y2663D01*
X4235Y2663D02*
X4259Y2663D01*
X4275Y2663D02*
X4299Y2663D01*
X4335Y2663D02*
X4359Y2663D01*
X4375Y2663D02*
X4399Y2663D01*
X4435Y2663D02*
X4459Y2663D01*
X4475Y2663D02*
X4499Y2663D01*
X4535Y2663D02*
X4559Y2663D01*
X4575Y2663D02*
X4599Y2663D01*
X4635Y2663D02*
X4659Y2663D01*
X4675Y2663D02*
X4699Y2663D01*
X4735Y2663D02*
X4759Y2663D01*
X4775Y2663D02*
X4799Y2663D01*
X4835Y2663D02*
X4859Y2663D01*
X4875Y2663D02*
X4899Y2663D01*
X4935Y2663D02*
X4959Y2663D01*
X4975Y2663D02*
X4999Y2663D01*
X5035Y2663D02*
X5059Y2663D01*
X5075Y2663D02*
X5099Y2663D01*
X5135Y2663D02*
X5159Y2663D01*
X5175Y2663D02*
X5199Y2663D01*
X5235Y2663D02*
X5259Y2663D01*
X5275Y2663D02*
X5299Y2663D01*
X3936Y2662D02*
X3962Y2662D01*
X3972Y2662D02*
X3998Y2662D01*
X4036Y2662D02*
X4062Y2662D01*
X4072Y2662D02*
X4098Y2662D01*
X4136Y2662D02*
X4162Y2662D01*
X4172Y2662D02*
X4198Y2662D01*
X4236Y2662D02*
X4262Y2662D01*
X4272Y2662D02*
X4298Y2662D01*
X4336Y2662D02*
X4362Y2662D01*
X4372Y2662D02*
X4398Y2662D01*
X4436Y2662D02*
X4462Y2662D01*
X4472Y2662D02*
X4498Y2662D01*
X4536Y2662D02*
X4562Y2662D01*
X4572Y2662D02*
X4598Y2662D01*
X4636Y2662D02*
X4662Y2662D01*
X4672Y2662D02*
X4698Y2662D01*
X4736Y2662D02*
X4762Y2662D01*
X4772Y2662D02*
X4798Y2662D01*
X4836Y2662D02*
X4862Y2662D01*
X4872Y2662D02*
X4898Y2662D01*
X4936Y2662D02*
X4962Y2662D01*
X4972Y2662D02*
X4998Y2662D01*
X5036Y2662D02*
X5062Y2662D01*
X5072Y2662D02*
X5098Y2662D01*
X5136Y2662D02*
X5162Y2662D01*
X5172Y2662D02*
X5198Y2662D01*
X5236Y2662D02*
X5262Y2662D01*
X5272Y2662D02*
X5298Y2662D01*
X3936Y2661D02*
X3998Y2661D01*
X4036Y2661D02*
X4098Y2661D01*
X4136Y2661D02*
X4198Y2661D01*
X4236Y2661D02*
X4298Y2661D01*
X4336Y2661D02*
X4398Y2661D01*
X4436Y2661D02*
X4498Y2661D01*
X4536Y2661D02*
X4598Y2661D01*
X4636Y2661D02*
X4698Y2661D01*
X4736Y2661D02*
X4798Y2661D01*
X4836Y2661D02*
X4898Y2661D01*
X4936Y2661D02*
X4998Y2661D01*
X5036Y2661D02*
X5098Y2661D01*
X5136Y2661D02*
X5198Y2661D01*
X5236Y2661D02*
X5298Y2661D01*
X3937Y2660D02*
X3997Y2660D01*
X4037Y2660D02*
X4097Y2660D01*
X4137Y2660D02*
X4197Y2660D01*
X4237Y2660D02*
X4297Y2660D01*
X4337Y2660D02*
X4397Y2660D01*
X4437Y2660D02*
X4497Y2660D01*
X4537Y2660D02*
X4597Y2660D01*
X4637Y2660D02*
X4697Y2660D01*
X4737Y2660D02*
X4797Y2660D01*
X4837Y2660D02*
X4897Y2660D01*
X4937Y2660D02*
X4997Y2660D01*
X5037Y2660D02*
X5097Y2660D01*
X5137Y2660D02*
X5197Y2660D01*
X5237Y2660D02*
X5297Y2660D01*
X3937Y2659D02*
X3997Y2659D01*
X4037Y2659D02*
X4097Y2659D01*
X4137Y2659D02*
X4197Y2659D01*
X4237Y2659D02*
X4297Y2659D01*
X4337Y2659D02*
X4397Y2659D01*
X4437Y2659D02*
X4497Y2659D01*
X4537Y2659D02*
X4597Y2659D01*
X4637Y2659D02*
X4697Y2659D01*
X4737Y2659D02*
X4797Y2659D01*
X4837Y2659D02*
X4897Y2659D01*
X4937Y2659D02*
X4997Y2659D01*
X5037Y2659D02*
X5097Y2659D01*
X5137Y2659D02*
X5197Y2659D01*
X5237Y2659D02*
X5297Y2659D01*
X3938Y2658D02*
X3996Y2658D01*
X4038Y2658D02*
X4096Y2658D01*
X4138Y2658D02*
X4196Y2658D01*
X4238Y2658D02*
X4296Y2658D01*
X4338Y2658D02*
X4396Y2658D01*
X4438Y2658D02*
X4496Y2658D01*
X4538Y2658D02*
X4596Y2658D01*
X4638Y2658D02*
X4696Y2658D01*
X4738Y2658D02*
X4796Y2658D01*
X4838Y2658D02*
X4896Y2658D01*
X4938Y2658D02*
X4996Y2658D01*
X5038Y2658D02*
X5096Y2658D01*
X5138Y2658D02*
X5196Y2658D01*
X5238Y2658D02*
X5296Y2658D01*
X3939Y2657D02*
X3996Y2657D01*
X4039Y2657D02*
X4096Y2657D01*
X4139Y2657D02*
X4196Y2657D01*
X4238Y2657D02*
X4296Y2657D01*
X4338Y2657D02*
X4396Y2657D01*
X4438Y2657D02*
X4496Y2657D01*
X4538Y2657D02*
X4596Y2657D01*
X4638Y2657D02*
X4696Y2657D01*
X4738Y2657D02*
X4796Y2657D01*
X4838Y2657D02*
X4896Y2657D01*
X4938Y2657D02*
X4995Y2657D01*
X5038Y2657D02*
X5095Y2657D01*
X5138Y2657D02*
X5195Y2657D01*
X5238Y2657D02*
X5295Y2657D01*
X3939Y2656D02*
X3995Y2656D01*
X4039Y2656D02*
X4095Y2656D01*
X4139Y2656D02*
X4195Y2656D01*
X4239Y2656D02*
X4295Y2656D01*
X4339Y2656D02*
X4395Y2656D01*
X4439Y2656D02*
X4495Y2656D01*
X4539Y2656D02*
X4595Y2656D01*
X4639Y2656D02*
X4695Y2656D01*
X4739Y2656D02*
X4795Y2656D01*
X4839Y2656D02*
X4895Y2656D01*
X4939Y2656D02*
X4995Y2656D01*
X5039Y2656D02*
X5095Y2656D01*
X5139Y2656D02*
X5195Y2656D01*
X5239Y2656D02*
X5295Y2656D01*
X3940Y2655D02*
X3994Y2655D01*
X4040Y2655D02*
X4094Y2655D01*
X4140Y2655D02*
X4194Y2655D01*
X4240Y2655D02*
X4294Y2655D01*
X4340Y2655D02*
X4394Y2655D01*
X4440Y2655D02*
X4494Y2655D01*
X4540Y2655D02*
X4594Y2655D01*
X4640Y2655D02*
X4694Y2655D01*
X4740Y2655D02*
X4794Y2655D01*
X4840Y2655D02*
X4894Y2655D01*
X4940Y2655D02*
X4994Y2655D01*
X5040Y2655D02*
X5094Y2655D01*
X5140Y2655D02*
X5194Y2655D01*
X5240Y2655D02*
X5294Y2655D01*
X3941Y2654D02*
X3993Y2654D01*
X4041Y2654D02*
X4093Y2654D01*
X4141Y2654D02*
X4193Y2654D01*
X4241Y2654D02*
X4293Y2654D01*
X4341Y2654D02*
X4393Y2654D01*
X4441Y2654D02*
X4493Y2654D01*
X4541Y2654D02*
X4593Y2654D01*
X4641Y2654D02*
X4693Y2654D01*
X4741Y2654D02*
X4793Y2654D01*
X4841Y2654D02*
X4893Y2654D01*
X4941Y2654D02*
X4993Y2654D01*
X5041Y2654D02*
X5093Y2654D01*
X5141Y2654D02*
X5193Y2654D01*
X5240Y2654D02*
X5293Y2654D01*
X3942Y2653D02*
X3993Y2653D01*
X4042Y2653D02*
X4093Y2653D01*
X4141Y2653D02*
X4193Y2653D01*
X4241Y2653D02*
X4293Y2653D01*
X4341Y2653D02*
X4393Y2653D01*
X4441Y2653D02*
X4493Y2653D01*
X4541Y2653D02*
X4593Y2653D01*
X4641Y2653D02*
X4693Y2653D01*
X4741Y2653D02*
X4793Y2653D01*
X4841Y2653D02*
X4893Y2653D01*
X4941Y2653D02*
X4992Y2653D01*
X5041Y2653D02*
X5092Y2653D01*
X5141Y2653D02*
X5192Y2653D01*
X5241Y2653D02*
X5292Y2653D01*
X3942Y2652D02*
X3992Y2652D01*
X4042Y2652D02*
X4092Y2652D01*
X4142Y2652D02*
X4192Y2652D01*
X4242Y2652D02*
X4292Y2652D01*
X4342Y2652D02*
X4392Y2652D01*
X4442Y2652D02*
X4492Y2652D01*
X4542Y2652D02*
X4592Y2652D01*
X4642Y2652D02*
X4692Y2652D01*
X4742Y2652D02*
X4792Y2652D01*
X4842Y2652D02*
X4892Y2652D01*
X4942Y2652D02*
X4992Y2652D01*
X5042Y2652D02*
X5092Y2652D01*
X5142Y2652D02*
X5192Y2652D01*
X5242Y2652D02*
X5292Y2652D01*
X3943Y2651D02*
X3991Y2651D01*
X4043Y2651D02*
X4091Y2651D01*
X4143Y2651D02*
X4191Y2651D01*
X4243Y2651D02*
X4291Y2651D01*
X4343Y2651D02*
X4391Y2651D01*
X4443Y2651D02*
X4491Y2651D01*
X4543Y2651D02*
X4591Y2651D01*
X4643Y2651D02*
X4691Y2651D01*
X4743Y2651D02*
X4791Y2651D01*
X4843Y2651D02*
X4891Y2651D01*
X4943Y2651D02*
X4991Y2651D01*
X5043Y2651D02*
X5091Y2651D01*
X5143Y2651D02*
X5191Y2651D01*
X5243Y2651D02*
X5291Y2651D01*
X3945Y2650D02*
X3990Y2650D01*
X4045Y2650D02*
X4090Y2650D01*
X4145Y2650D02*
X4190Y2650D01*
X4245Y2650D02*
X4290Y2650D01*
X4345Y2650D02*
X4390Y2650D01*
X4444Y2650D02*
X4490Y2650D01*
X4544Y2650D02*
X4590Y2650D01*
X4644Y2650D02*
X4689Y2650D01*
X4744Y2650D02*
X4789Y2650D01*
X4844Y2650D02*
X4889Y2650D01*
X4944Y2650D02*
X4989Y2650D01*
X5044Y2650D02*
X5089Y2650D01*
X5144Y2650D02*
X5189Y2650D01*
X5244Y2650D02*
X5289Y2650D01*
X3946Y2649D02*
X3988Y2649D01*
X4046Y2649D02*
X4088Y2649D01*
X4146Y2649D02*
X4188Y2649D01*
X4246Y2649D02*
X4288Y2649D01*
X4346Y2649D02*
X4388Y2649D01*
X4446Y2649D02*
X4488Y2649D01*
X4546Y2649D02*
X4588Y2649D01*
X4646Y2649D02*
X4688Y2649D01*
X4746Y2649D02*
X4788Y2649D01*
X4846Y2649D02*
X4888Y2649D01*
X4946Y2649D02*
X4988Y2649D01*
X5046Y2649D02*
X5088Y2649D01*
X5146Y2649D02*
X5188Y2649D01*
X5246Y2649D02*
X5288Y2649D01*
X3947Y2648D02*
X3987Y2648D01*
X4047Y2648D02*
X4087Y2648D01*
X4147Y2648D02*
X4187Y2648D01*
X4247Y2648D02*
X4287Y2648D01*
X4347Y2648D02*
X4387Y2648D01*
X4447Y2648D02*
X4487Y2648D01*
X4547Y2648D02*
X4587Y2648D01*
X4647Y2648D02*
X4687Y2648D01*
X4747Y2648D02*
X4787Y2648D01*
X4847Y2648D02*
X4887Y2648D01*
X4947Y2648D02*
X4987Y2648D01*
X5047Y2648D02*
X5087Y2648D01*
X5147Y2648D02*
X5187Y2648D01*
X5247Y2648D02*
X5287Y2648D01*
X408Y2647D02*
X448Y2647D01*
X3949Y2647D02*
X3985Y2647D01*
X4049Y2647D02*
X4085Y2647D01*
X4149Y2647D02*
X4185Y2647D01*
X4249Y2647D02*
X4285Y2647D01*
X4349Y2647D02*
X4385Y2647D01*
X4449Y2647D02*
X4485Y2647D01*
X4549Y2647D02*
X4585Y2647D01*
X4649Y2647D02*
X4685Y2647D01*
X4749Y2647D02*
X4785Y2647D01*
X4849Y2647D02*
X4885Y2647D01*
X4949Y2647D02*
X4985Y2647D01*
X5049Y2647D02*
X5085Y2647D01*
X5149Y2647D02*
X5185Y2647D01*
X5249Y2647D02*
X5285Y2647D01*
X408Y2646D02*
X448Y2646D01*
X3950Y2646D02*
X3984Y2646D01*
X4050Y2646D02*
X4084Y2646D01*
X4150Y2646D02*
X4184Y2646D01*
X4250Y2646D02*
X4284Y2646D01*
X4350Y2646D02*
X4384Y2646D01*
X4450Y2646D02*
X4484Y2646D01*
X4550Y2646D02*
X4584Y2646D01*
X4650Y2646D02*
X4684Y2646D01*
X4750Y2646D02*
X4784Y2646D01*
X4850Y2646D02*
X4884Y2646D01*
X4950Y2646D02*
X4984Y2646D01*
X5050Y2646D02*
X5084Y2646D01*
X5150Y2646D02*
X5184Y2646D01*
X5250Y2646D02*
X5284Y2646D01*
X408Y2645D02*
X448Y2645D01*
X3952Y2645D02*
X3982Y2645D01*
X4052Y2645D02*
X4082Y2645D01*
X4152Y2645D02*
X4182Y2645D01*
X4252Y2645D02*
X4282Y2645D01*
X4352Y2645D02*
X4382Y2645D01*
X4452Y2645D02*
X4482Y2645D01*
X4552Y2645D02*
X4582Y2645D01*
X4652Y2645D02*
X4682Y2645D01*
X4752Y2645D02*
X4782Y2645D01*
X4852Y2645D02*
X4882Y2645D01*
X4952Y2645D02*
X4982Y2645D01*
X5052Y2645D02*
X5082Y2645D01*
X5152Y2645D02*
X5182Y2645D01*
X5252Y2645D02*
X5282Y2645D01*
X408Y2644D02*
X448Y2644D01*
X3955Y2644D02*
X3980Y2644D01*
X4055Y2644D02*
X4080Y2644D01*
X4155Y2644D02*
X4179Y2644D01*
X4255Y2644D02*
X4279Y2644D01*
X4355Y2644D02*
X4379Y2644D01*
X4455Y2644D02*
X4479Y2644D01*
X4555Y2644D02*
X4579Y2644D01*
X4655Y2644D02*
X4679Y2644D01*
X4755Y2644D02*
X4779Y2644D01*
X4855Y2644D02*
X4879Y2644D01*
X4955Y2644D02*
X4979Y2644D01*
X5054Y2644D02*
X5079Y2644D01*
X5154Y2644D02*
X5179Y2644D01*
X5254Y2644D02*
X5279Y2644D01*
X408Y2643D02*
X448Y2643D01*
X3957Y2643D02*
X3977Y2643D01*
X4057Y2643D02*
X4077Y2643D01*
X4157Y2643D02*
X4177Y2643D01*
X4257Y2643D02*
X4277Y2643D01*
X4357Y2643D02*
X4377Y2643D01*
X4457Y2643D02*
X4477Y2643D01*
X4557Y2643D02*
X4577Y2643D01*
X4657Y2643D02*
X4677Y2643D01*
X4757Y2643D02*
X4777Y2643D01*
X4857Y2643D02*
X4877Y2643D01*
X4957Y2643D02*
X4977Y2643D01*
X5057Y2643D02*
X5077Y2643D01*
X5157Y2643D02*
X5177Y2643D01*
X5257Y2643D02*
X5277Y2643D01*
X408Y2642D02*
X448Y2642D01*
X3961Y2642D02*
X3973Y2642D01*
X4061Y2642D02*
X4073Y2642D01*
X4161Y2642D02*
X4173Y2642D01*
X4261Y2642D02*
X4273Y2642D01*
X4361Y2642D02*
X4373Y2642D01*
X4461Y2642D02*
X4473Y2642D01*
X4561Y2642D02*
X4573Y2642D01*
X4661Y2642D02*
X4673Y2642D01*
X4761Y2642D02*
X4773Y2642D01*
X4861Y2642D02*
X4873Y2642D01*
X4961Y2642D02*
X4973Y2642D01*
X5061Y2642D02*
X5073Y2642D01*
X5161Y2642D02*
X5173Y2642D01*
X5261Y2642D02*
X5273Y2642D01*
X408Y2641D02*
X448Y2641D01*
X408Y2640D02*
X448Y2640D01*
X408Y2639D02*
X448Y2639D01*
X408Y2638D02*
X448Y2638D01*
X408Y2637D02*
X448Y2637D01*
X408Y2636D02*
X448Y2636D01*
X408Y2635D02*
X448Y2635D01*
X408Y2634D02*
X448Y2634D01*
X408Y2633D02*
X448Y2633D01*
X408Y2632D02*
X448Y2632D01*
X408Y2631D02*
X448Y2631D01*
X408Y2630D02*
X448Y2630D01*
X408Y2629D02*
X448Y2629D01*
X408Y2628D02*
X448Y2628D01*
X408Y2627D02*
X448Y2627D01*
X408Y2626D02*
X422Y2626D01*
X434Y2626D02*
X448Y2626D01*
X408Y2625D02*
X419Y2625D01*
X437Y2625D02*
X448Y2625D01*
X408Y2624D02*
X417Y2624D01*
X439Y2624D02*
X448Y2624D01*
X408Y2623D02*
X415Y2623D01*
X441Y2623D02*
X448Y2623D01*
X408Y2622D02*
X414Y2622D01*
X442Y2622D02*
X448Y2622D01*
X408Y2621D02*
X413Y2621D01*
X443Y2621D02*
X448Y2621D01*
X408Y2620D02*
X412Y2620D01*
X444Y2620D02*
X448Y2620D01*
X408Y2619D02*
X411Y2619D01*
X445Y2619D02*
X448Y2619D01*
X408Y2618D02*
X410Y2618D01*
X446Y2618D02*
X448Y2618D01*
X408Y2617D02*
X410Y2617D01*
X446Y2617D02*
X448Y2617D01*
X408Y2616D02*
X409Y2616D01*
X447Y2616D02*
X448Y2616D01*
X408Y2615D02*
X409Y2615D01*
X447Y2615D02*
X448Y2615D01*
X408Y2614D02*
X408Y2614D01*
X448Y2614D02*
X448Y2614D01*
X408Y2613D02*
X408Y2613D01*
X448Y2613D02*
X448Y2613D01*
X408Y2612D02*
X408Y2612D01*
X448Y2612D02*
X448Y2612D01*
X448Y2601D02*
X448Y2601D01*
X408Y2600D02*
X408Y2600D01*
X448Y2600D02*
X448Y2600D01*
X408Y2599D02*
X408Y2599D01*
X448Y2599D02*
X448Y2599D01*
X408Y2598D02*
X408Y2598D01*
X447Y2598D02*
X448Y2598D01*
X408Y2597D02*
X409Y2597D01*
X447Y2597D02*
X448Y2597D01*
X408Y2596D02*
X410Y2596D01*
X446Y2596D02*
X448Y2596D01*
X408Y2595D02*
X410Y2595D01*
X446Y2595D02*
X448Y2595D01*
X408Y2594D02*
X411Y2594D01*
X445Y2594D02*
X448Y2594D01*
X408Y2593D02*
X412Y2593D01*
X444Y2593D02*
X448Y2593D01*
X408Y2592D02*
X412Y2592D01*
X444Y2592D02*
X448Y2592D01*
X408Y2591D02*
X413Y2591D01*
X442Y2591D02*
X448Y2591D01*
X408Y2590D02*
X415Y2590D01*
X441Y2590D02*
X448Y2590D01*
X408Y2589D02*
X416Y2589D01*
X440Y2589D02*
X448Y2589D01*
X408Y2588D02*
X418Y2588D01*
X438Y2588D02*
X448Y2588D01*
X408Y2587D02*
X420Y2587D01*
X436Y2587D02*
X448Y2587D01*
X408Y2586D02*
X423Y2586D01*
X433Y2586D02*
X448Y2586D01*
X408Y2367D02*
X423Y2367D01*
X433Y2367D02*
X448Y2367D01*
X408Y2366D02*
X421Y2366D01*
X435Y2366D02*
X448Y2366D01*
X408Y2365D02*
X418Y2365D01*
X438Y2365D02*
X448Y2365D01*
X408Y2364D02*
X417Y2364D01*
X439Y2364D02*
X448Y2364D01*
X408Y2363D02*
X415Y2363D01*
X441Y2363D02*
X448Y2363D01*
X408Y2362D02*
X414Y2362D01*
X442Y2362D02*
X448Y2362D01*
X408Y2361D02*
X413Y2361D01*
X443Y2361D02*
X448Y2361D01*
X408Y2360D02*
X412Y2360D01*
X444Y2360D02*
X448Y2360D01*
X408Y2359D02*
X411Y2359D01*
X445Y2359D02*
X448Y2359D01*
X408Y2358D02*
X410Y2358D01*
X446Y2358D02*
X448Y2358D01*
X408Y2357D02*
X410Y2357D01*
X446Y2357D02*
X448Y2357D01*
X408Y2356D02*
X409Y2356D01*
X447Y2356D02*
X448Y2356D01*
X408Y2355D02*
X409Y2355D01*
X447Y2355D02*
X448Y2355D01*
X408Y2354D02*
X408Y2354D01*
X448Y2354D02*
X448Y2354D01*
X408Y2353D02*
X408Y2353D01*
X448Y2353D02*
X448Y2353D01*
X408Y2352D02*
X408Y2352D01*
X448Y2352D02*
X448Y2352D01*
X408Y2341D02*
X408Y2341D01*
X448Y2341D02*
X448Y2341D01*
X408Y2340D02*
X408Y2340D01*
X448Y2340D02*
X448Y2340D01*
X408Y2339D02*
X408Y2339D01*
X448Y2339D02*
X448Y2339D01*
X408Y2338D02*
X409Y2338D01*
X447Y2338D02*
X448Y2338D01*
X408Y2337D02*
X409Y2337D01*
X447Y2337D02*
X448Y2337D01*
X408Y2336D02*
X410Y2336D01*
X446Y2336D02*
X448Y2336D01*
X408Y2335D02*
X410Y2335D01*
X446Y2335D02*
X448Y2335D01*
X408Y2334D02*
X411Y2334D01*
X445Y2334D02*
X448Y2334D01*
X408Y2333D02*
X412Y2333D01*
X444Y2333D02*
X448Y2333D01*
X408Y2332D02*
X413Y2332D01*
X443Y2332D02*
X448Y2332D01*
X408Y2331D02*
X414Y2331D01*
X442Y2331D02*
X448Y2331D01*
X408Y2330D02*
X415Y2330D01*
X441Y2330D02*
X448Y2330D01*
X408Y2329D02*
X416Y2329D01*
X440Y2329D02*
X448Y2329D01*
X408Y2328D02*
X418Y2328D01*
X438Y2328D02*
X448Y2328D01*
X408Y2327D02*
X420Y2327D01*
X436Y2327D02*
X448Y2327D01*
X408Y2326D02*
X424Y2326D01*
X432Y2326D02*
X448Y2326D01*
X408Y2325D02*
X448Y2325D01*
X408Y2324D02*
X448Y2324D01*
X408Y2323D02*
X448Y2323D01*
X408Y2322D02*
X448Y2322D01*
X408Y2321D02*
X448Y2321D01*
X408Y2320D02*
X448Y2320D01*
X408Y2319D02*
X448Y2319D01*
X408Y2318D02*
X448Y2318D01*
X408Y2317D02*
X448Y2317D01*
X408Y2316D02*
X448Y2316D01*
X408Y2315D02*
X448Y2315D01*
X408Y2314D02*
X448Y2314D01*
X408Y2313D02*
X448Y2313D01*
X408Y2312D02*
X448Y2312D01*
X408Y2311D02*
X448Y2311D01*
X408Y2310D02*
X448Y2310D01*
X408Y2309D02*
X448Y2309D01*
X408Y2308D02*
X448Y2308D01*
X408Y2307D02*
X448Y2307D01*
X408Y2306D02*
X448Y2306D01*
X408Y2305D02*
X448Y2305D01*
D02*
G04 End of Copper1*
M02*