G04 MADE WITH FRITZING*
G04 WWW.FRITZING.ORG*
G04 DOUBLE SIDED*
G04 HOLES PLATED*
G04 CONTOUR ON CENTER OF CONTOUR VECTOR*
%ASAXBY*%
%FSLAX23Y23*%
%MOIN*%
%OFA0B0*%
%SFA1.0B1.0*%
%ADD10C,0.090000*%
%ADD11C,0.080000*%
%ADD12C,0.063528*%
%ADD13C,0.085000*%
%ADD14C,0.072992*%
%ADD15C,0.070000*%
%ADD16C,0.140000*%
%ADD17C,0.088000*%
%ADD18C,0.049370*%
%ADD19C,0.081181*%
%ADD20C,0.080925*%
%ADD21C,0.080866*%
%ADD22C,0.100000*%
%ADD23C,0.135984*%
%ADD24R,0.090000X0.090000*%
%ADD25R,0.072992X0.072992*%
%ADD26R,0.085000X0.085000*%
%ADD27R,0.001000X0.001000*%
%LNMASK0*%
G90*
G70*
G54D10*
X233Y4320D03*
X233Y4458D03*
G54D11*
X963Y4320D03*
X963Y4220D03*
G54D12*
X2323Y4500D03*
X2423Y4500D03*
X2523Y4500D03*
X3363Y4520D03*
X3463Y4520D03*
X3563Y4520D03*
G54D11*
X1613Y4220D03*
X1613Y4320D03*
X2113Y4220D03*
X2113Y4320D03*
X2713Y4220D03*
X2713Y4321D03*
X3113Y4220D03*
X3113Y4320D03*
G54D13*
X2713Y3920D03*
X3113Y3920D03*
G54D14*
X3411Y3920D03*
X3313Y3920D03*
G54D11*
X3763Y4220D03*
X3763Y4320D03*
G54D15*
X1229Y4504D03*
X1329Y4504D03*
X1429Y4504D03*
G54D16*
X1329Y5094D03*
G54D17*
X713Y3720D03*
X713Y3620D03*
X713Y3520D03*
X713Y3420D03*
X713Y3320D03*
X713Y3220D03*
X713Y3120D03*
X713Y3020D03*
X713Y2920D03*
X713Y2820D03*
X713Y2720D03*
X713Y2620D03*
X713Y2520D03*
X713Y2420D03*
X713Y2320D03*
X713Y2220D03*
X713Y2120D03*
X713Y2020D03*
X713Y1920D03*
X713Y1820D03*
X713Y3720D03*
X713Y3620D03*
X713Y3520D03*
X713Y3420D03*
X713Y3320D03*
X713Y3220D03*
X713Y3120D03*
X713Y3020D03*
X713Y2920D03*
X713Y2820D03*
X713Y2720D03*
X713Y2620D03*
X713Y2520D03*
X713Y2420D03*
X713Y2320D03*
X713Y2220D03*
X713Y2120D03*
X713Y2020D03*
X713Y1920D03*
X713Y1820D03*
X813Y1820D03*
X813Y1920D03*
X813Y2020D03*
X813Y2120D03*
X813Y2220D03*
X813Y2320D03*
X813Y2420D03*
X813Y2520D03*
X813Y2620D03*
X813Y2720D03*
X813Y2820D03*
X813Y2920D03*
X813Y3020D03*
X813Y3120D03*
X813Y3220D03*
X813Y3320D03*
X813Y3420D03*
X813Y3520D03*
X813Y3620D03*
X813Y3720D03*
G54D18*
X163Y3320D03*
G54D13*
X4763Y3120D03*
X4363Y3120D03*
G54D11*
X6163Y5220D03*
X6263Y5220D03*
X8153Y1500D03*
X8053Y1500D03*
X4973Y3750D03*
X4873Y3750D03*
G54D18*
X3874Y3743D03*
X3591Y3743D03*
G54D13*
X7593Y1500D03*
X7893Y1500D03*
X7593Y1400D03*
X7893Y1400D03*
X7593Y1300D03*
X7893Y1300D03*
X7593Y1200D03*
X7893Y1200D03*
G54D19*
X7366Y2220D03*
X8153Y2220D03*
G54D20*
X7313Y1427D03*
G54D21*
X7313Y1620D03*
G54D18*
X4363Y3920D03*
X4842Y3438D03*
G54D10*
X6791Y570D03*
X6653Y570D03*
X6515Y570D03*
X6378Y570D03*
X6240Y570D03*
X6102Y570D03*
X5964Y570D03*
X5826Y570D03*
X5689Y570D03*
X5551Y570D03*
X5413Y570D03*
X5275Y570D03*
G54D13*
X5263Y1170D03*
X5263Y770D03*
X5563Y1170D03*
X5563Y770D03*
X5713Y1170D03*
X5713Y770D03*
X5963Y1170D03*
X5963Y770D03*
X6113Y1170D03*
X6113Y770D03*
X6363Y1170D03*
X6363Y770D03*
X6513Y1170D03*
X6513Y770D03*
X6813Y1170D03*
X6813Y770D03*
G54D14*
X665Y1320D03*
X763Y1320D03*
G54D13*
X963Y1320D03*
X1363Y1320D03*
G54D10*
X3665Y570D03*
X3528Y570D03*
X3390Y570D03*
X3252Y570D03*
X3114Y570D03*
X2976Y570D03*
X2839Y570D03*
X2701Y570D03*
X2563Y570D03*
X2425Y570D03*
X2287Y570D03*
X2150Y570D03*
X2012Y570D03*
X1874Y570D03*
X1736Y570D03*
X1598Y570D03*
G54D13*
X1863Y1620D03*
X1863Y1920D03*
X1963Y1620D03*
X1963Y1920D03*
X2063Y1620D03*
X2063Y1920D03*
X2163Y1620D03*
X2163Y1920D03*
X2263Y1620D03*
X2263Y1920D03*
X2363Y1620D03*
X2363Y1920D03*
X2463Y1620D03*
X2463Y1920D03*
X2563Y1620D03*
X2563Y1920D03*
X2663Y1620D03*
X2663Y1920D03*
X2763Y1620D03*
X2763Y1920D03*
X2863Y1620D03*
X2863Y1920D03*
X2963Y1620D03*
X2963Y1920D03*
X3063Y1620D03*
X3063Y1920D03*
X3163Y1620D03*
X3163Y1920D03*
X3263Y1620D03*
X3263Y1920D03*
X3363Y1620D03*
X3363Y1920D03*
X2013Y820D03*
X2013Y1220D03*
X1713Y820D03*
X1713Y1220D03*
X3663Y820D03*
X3663Y1220D03*
X3413Y820D03*
X3413Y1220D03*
X3113Y820D03*
X3113Y1220D03*
X2263Y820D03*
X2263Y1220D03*
X2863Y820D03*
X2863Y1220D03*
X2563Y820D03*
X2563Y1220D03*
G54D18*
X163Y2520D03*
X4263Y4020D03*
X4263Y3220D03*
X4163Y4120D03*
X3063Y3220D03*
X835Y4098D03*
X2513Y4109D03*
X963Y3520D03*
X963Y3120D03*
X963Y2820D03*
X963Y2320D03*
X3965Y3820D03*
X3661Y3820D03*
X6017Y3517D03*
X6113Y3820D03*
G54D22*
X7963Y3020D03*
X7463Y3320D03*
X7463Y3020D03*
X8063Y3320D03*
X7878Y3320D03*
X7963Y3570D03*
X7463Y3870D03*
X7463Y3570D03*
X8063Y3870D03*
X7878Y3870D03*
X7963Y4120D03*
X7463Y4420D03*
X7463Y4120D03*
X8063Y4420D03*
X7878Y4420D03*
X7963Y4620D03*
X7463Y4920D03*
X7463Y4620D03*
X8063Y4920D03*
X7878Y4920D03*
G54D10*
X8363Y3170D03*
X8363Y3033D03*
X8363Y3720D03*
X8363Y3583D03*
X8363Y4770D03*
X8363Y4633D03*
X8363Y4270D03*
X8363Y4133D03*
G54D14*
X6863Y4772D03*
X6863Y4870D03*
X6863Y4272D03*
X6863Y4370D03*
X6863Y3722D03*
X6863Y3820D03*
X6863Y3122D03*
X6863Y3220D03*
G54D13*
X6463Y5020D03*
X6863Y5020D03*
X6463Y4520D03*
X6863Y4520D03*
X6463Y3970D03*
X6863Y3970D03*
X6463Y3370D03*
X6863Y3370D03*
G54D18*
X5263Y3920D03*
X6213Y3920D03*
X5463Y4520D03*
X5863Y4520D03*
X5663Y4370D03*
X5463Y4370D03*
X5663Y4220D03*
X7263Y5420D03*
X7213Y5520D03*
X7163Y5620D03*
X563Y1820D03*
X6163Y4870D03*
X6313Y4870D03*
X6313Y4270D03*
X5363Y5320D03*
G54D14*
X6463Y2722D03*
X6463Y2820D03*
G54D18*
X6463Y3020D03*
G54D17*
X4213Y470D03*
X4313Y470D03*
X4413Y470D03*
X4513Y470D03*
X4613Y470D03*
X4713Y470D03*
X4213Y470D03*
X4313Y470D03*
X4413Y470D03*
X4513Y470D03*
X4613Y470D03*
X4713Y470D03*
X4713Y570D03*
X4613Y570D03*
X4513Y570D03*
X4413Y570D03*
X4313Y570D03*
X4213Y570D03*
X3313Y3570D03*
X3313Y3470D03*
G54D18*
X4163Y2970D03*
X3263Y2970D03*
X4065Y2820D03*
X4313Y320D03*
X1161Y1069D03*
X613Y2020D03*
X613Y1769D03*
X165Y1920D03*
X65Y972D03*
X2965Y2320D03*
X3413Y2320D03*
X4961Y2320D03*
X5013Y469D03*
X2965Y2420D03*
X3413Y2420D03*
X1165Y2420D03*
X5013Y2420D03*
X2965Y3069D03*
X2965Y3220D03*
X1213Y3020D03*
X2913Y3020D03*
X4313Y2869D03*
X4513Y2872D03*
X4613Y2720D03*
X3413Y2720D03*
X2813Y2920D03*
X1213Y2920D03*
X2713Y2720D03*
X1213Y2720D03*
X3413Y2620D03*
X4713Y2620D03*
X4865Y2969D03*
X4965Y320D03*
G54D23*
X3963Y5520D03*
X3913Y1320D03*
X163Y170D03*
X163Y5520D03*
X8513Y5520D03*
X8513Y170D03*
G54D10*
X7563Y570D03*
X7425Y570D03*
G54D18*
X1313Y3120D03*
X2765Y3124D03*
X1217Y2620D03*
X1461Y2620D03*
X1213Y3220D03*
X2513Y3820D03*
X2413Y3920D03*
X3213Y3820D03*
G54D17*
X2863Y3670D03*
X2863Y3570D03*
X2863Y3470D03*
X2863Y3370D03*
X1263Y3670D03*
X1263Y3570D03*
X1263Y3470D03*
X1263Y3370D03*
G54D18*
X3313Y3720D03*
X1063Y3420D03*
X2863Y4070D03*
X7063Y1970D03*
X6963Y1970D03*
X3713Y2770D03*
X3713Y2220D03*
X3613Y2820D03*
X3613Y2120D03*
G54D24*
X233Y4320D03*
G54D25*
X3411Y3920D03*
G54D26*
X7593Y1500D03*
G54D24*
X6791Y570D03*
G54D25*
X665Y1320D03*
G54D24*
X3665Y570D03*
G54D26*
X1863Y1620D03*
X2063Y1620D03*
X2263Y1620D03*
X2463Y1620D03*
X2663Y1620D03*
X2863Y1620D03*
X3063Y1620D03*
X3263Y1620D03*
G54D24*
X8363Y3170D03*
X8363Y3720D03*
X8363Y4770D03*
X8363Y4270D03*
G54D25*
X6863Y4772D03*
X6863Y4272D03*
X6863Y3722D03*
X6863Y3122D03*
X6463Y2722D03*
G54D24*
X7563Y570D03*
G54D27*
X5362Y5111D02*
X5362Y5111D01*
X5462Y5111D02*
X5462Y5111D01*
X5562Y5111D02*
X5562Y5111D01*
X5662Y5111D02*
X5662Y5111D01*
X5762Y5111D02*
X5762Y5111D01*
X5862Y5111D02*
X5862Y5111D01*
X5962Y5111D02*
X5962Y5111D01*
X6062Y5111D02*
X6062Y5111D01*
X6162Y5111D02*
X6162Y5111D01*
X5354Y5110D02*
X5370Y5110D01*
X5454Y5110D02*
X5470Y5110D01*
X5554Y5110D02*
X5570Y5110D01*
X5654Y5110D02*
X5670Y5110D01*
X5754Y5110D02*
X5770Y5110D01*
X5854Y5110D02*
X5870Y5110D01*
X5954Y5110D02*
X5970Y5110D01*
X6054Y5110D02*
X6070Y5110D01*
X6154Y5110D02*
X6170Y5110D01*
X5350Y5109D02*
X5374Y5109D01*
X5450Y5109D02*
X5474Y5109D01*
X5550Y5109D02*
X5574Y5109D01*
X5650Y5109D02*
X5674Y5109D01*
X5750Y5109D02*
X5774Y5109D01*
X5850Y5109D02*
X5874Y5109D01*
X5950Y5109D02*
X5974Y5109D01*
X6050Y5109D02*
X6074Y5109D01*
X6150Y5109D02*
X6174Y5109D01*
X5347Y5108D02*
X5377Y5108D01*
X5447Y5108D02*
X5477Y5108D01*
X5547Y5108D02*
X5577Y5108D01*
X5647Y5108D02*
X5677Y5108D01*
X5747Y5108D02*
X5777Y5108D01*
X5847Y5108D02*
X5877Y5108D01*
X5947Y5108D02*
X5977Y5108D01*
X6047Y5108D02*
X6077Y5108D01*
X6147Y5108D02*
X6177Y5108D01*
X5345Y5107D02*
X5379Y5107D01*
X5445Y5107D02*
X5479Y5107D01*
X5545Y5107D02*
X5579Y5107D01*
X5645Y5107D02*
X5679Y5107D01*
X5745Y5107D02*
X5779Y5107D01*
X5845Y5107D02*
X5879Y5107D01*
X5945Y5107D02*
X5979Y5107D01*
X6045Y5107D02*
X6079Y5107D01*
X6145Y5107D02*
X6179Y5107D01*
X5343Y5106D02*
X5381Y5106D01*
X5443Y5106D02*
X5481Y5106D01*
X5543Y5106D02*
X5581Y5106D01*
X5643Y5106D02*
X5681Y5106D01*
X5743Y5106D02*
X5781Y5106D01*
X5843Y5106D02*
X5881Y5106D01*
X5943Y5106D02*
X5981Y5106D01*
X6043Y5106D02*
X6081Y5106D01*
X6143Y5106D02*
X6181Y5106D01*
X5342Y5105D02*
X5383Y5105D01*
X5442Y5105D02*
X5483Y5105D01*
X5542Y5105D02*
X5583Y5105D01*
X5642Y5105D02*
X5683Y5105D01*
X5742Y5105D02*
X5783Y5105D01*
X5842Y5105D02*
X5883Y5105D01*
X5942Y5105D02*
X5983Y5105D01*
X6042Y5105D02*
X6083Y5105D01*
X6142Y5105D02*
X6183Y5105D01*
X5340Y5104D02*
X5384Y5104D01*
X5440Y5104D02*
X5484Y5104D01*
X5540Y5104D02*
X5584Y5104D01*
X5640Y5104D02*
X5684Y5104D01*
X5740Y5104D02*
X5784Y5104D01*
X5840Y5104D02*
X5884Y5104D01*
X5940Y5104D02*
X5984Y5104D01*
X6040Y5104D02*
X6084Y5104D01*
X6140Y5104D02*
X6184Y5104D01*
X5339Y5103D02*
X5386Y5103D01*
X5439Y5103D02*
X5486Y5103D01*
X5539Y5103D02*
X5586Y5103D01*
X5639Y5103D02*
X5686Y5103D01*
X5739Y5103D02*
X5786Y5103D01*
X5839Y5103D02*
X5886Y5103D01*
X5939Y5103D02*
X5986Y5103D01*
X6039Y5103D02*
X6086Y5103D01*
X6139Y5103D02*
X6186Y5103D01*
X5338Y5102D02*
X5387Y5102D01*
X5437Y5102D02*
X5487Y5102D01*
X5537Y5102D02*
X5587Y5102D01*
X5637Y5102D02*
X5687Y5102D01*
X5737Y5102D02*
X5787Y5102D01*
X5837Y5102D02*
X5887Y5102D01*
X5937Y5102D02*
X5987Y5102D01*
X6037Y5102D02*
X6087Y5102D01*
X6137Y5102D02*
X6187Y5102D01*
X5336Y5101D02*
X5388Y5101D01*
X5436Y5101D02*
X5488Y5101D01*
X5536Y5101D02*
X5588Y5101D01*
X5636Y5101D02*
X5688Y5101D01*
X5736Y5101D02*
X5788Y5101D01*
X5836Y5101D02*
X5888Y5101D01*
X5936Y5101D02*
X5988Y5101D01*
X6036Y5101D02*
X6088Y5101D01*
X6136Y5101D02*
X6188Y5101D01*
X5335Y5100D02*
X5389Y5100D01*
X5435Y5100D02*
X5489Y5100D01*
X5535Y5100D02*
X5589Y5100D01*
X5635Y5100D02*
X5689Y5100D01*
X5735Y5100D02*
X5789Y5100D01*
X5835Y5100D02*
X5889Y5100D01*
X5935Y5100D02*
X5989Y5100D01*
X6035Y5100D02*
X6089Y5100D01*
X6135Y5100D02*
X6189Y5100D01*
X5334Y5099D02*
X5390Y5099D01*
X5434Y5099D02*
X5490Y5099D01*
X5534Y5099D02*
X5590Y5099D01*
X5634Y5099D02*
X5690Y5099D01*
X5734Y5099D02*
X5790Y5099D01*
X5834Y5099D02*
X5890Y5099D01*
X5934Y5099D02*
X5990Y5099D01*
X6034Y5099D02*
X6090Y5099D01*
X6134Y5099D02*
X6190Y5099D01*
X5333Y5098D02*
X5391Y5098D01*
X5433Y5098D02*
X5491Y5098D01*
X5533Y5098D02*
X5591Y5098D01*
X5633Y5098D02*
X5691Y5098D01*
X5733Y5098D02*
X5791Y5098D01*
X5833Y5098D02*
X5891Y5098D01*
X5933Y5098D02*
X5991Y5098D01*
X6033Y5098D02*
X6091Y5098D01*
X6133Y5098D02*
X6191Y5098D01*
X5332Y5097D02*
X5392Y5097D01*
X5432Y5097D02*
X5492Y5097D01*
X5532Y5097D02*
X5592Y5097D01*
X5632Y5097D02*
X5692Y5097D01*
X5732Y5097D02*
X5792Y5097D01*
X5832Y5097D02*
X5892Y5097D01*
X5932Y5097D02*
X5992Y5097D01*
X6032Y5097D02*
X6092Y5097D01*
X6132Y5097D02*
X6192Y5097D01*
X5332Y5096D02*
X5393Y5096D01*
X5432Y5096D02*
X5493Y5096D01*
X5532Y5096D02*
X5593Y5096D01*
X5632Y5096D02*
X5693Y5096D01*
X5732Y5096D02*
X5793Y5096D01*
X5832Y5096D02*
X5893Y5096D01*
X5932Y5096D02*
X5993Y5096D01*
X6032Y5096D02*
X6093Y5096D01*
X6132Y5096D02*
X6193Y5096D01*
X5331Y5095D02*
X5394Y5095D01*
X5431Y5095D02*
X5494Y5095D01*
X5531Y5095D02*
X5594Y5095D01*
X5631Y5095D02*
X5694Y5095D01*
X5731Y5095D02*
X5794Y5095D01*
X5831Y5095D02*
X5894Y5095D01*
X5931Y5095D02*
X5994Y5095D01*
X6031Y5095D02*
X6094Y5095D01*
X6131Y5095D02*
X6194Y5095D01*
X5330Y5094D02*
X5394Y5094D01*
X5430Y5094D02*
X5494Y5094D01*
X5530Y5094D02*
X5594Y5094D01*
X5630Y5094D02*
X5694Y5094D01*
X5730Y5094D02*
X5794Y5094D01*
X5830Y5094D02*
X5894Y5094D01*
X5930Y5094D02*
X5994Y5094D01*
X6030Y5094D02*
X6094Y5094D01*
X6130Y5094D02*
X6194Y5094D01*
X5329Y5093D02*
X5395Y5093D01*
X5429Y5093D02*
X5495Y5093D01*
X5529Y5093D02*
X5595Y5093D01*
X5629Y5093D02*
X5695Y5093D01*
X5729Y5093D02*
X5795Y5093D01*
X5829Y5093D02*
X5895Y5093D01*
X5929Y5093D02*
X5995Y5093D01*
X6029Y5093D02*
X6095Y5093D01*
X6129Y5093D02*
X6195Y5093D01*
X5329Y5092D02*
X5396Y5092D01*
X5429Y5092D02*
X5496Y5092D01*
X5529Y5092D02*
X5596Y5092D01*
X5629Y5092D02*
X5696Y5092D01*
X5729Y5092D02*
X5796Y5092D01*
X5829Y5092D02*
X5896Y5092D01*
X5929Y5092D02*
X5996Y5092D01*
X6029Y5092D02*
X6096Y5092D01*
X6129Y5092D02*
X6196Y5092D01*
X5328Y5091D02*
X5396Y5091D01*
X5428Y5091D02*
X5496Y5091D01*
X5528Y5091D02*
X5596Y5091D01*
X5628Y5091D02*
X5696Y5091D01*
X5728Y5091D02*
X5796Y5091D01*
X5828Y5091D02*
X5896Y5091D01*
X5928Y5091D02*
X5996Y5091D01*
X6028Y5091D02*
X6096Y5091D01*
X6128Y5091D02*
X6196Y5091D01*
X5328Y5090D02*
X5397Y5090D01*
X5428Y5090D02*
X5497Y5090D01*
X5528Y5090D02*
X5597Y5090D01*
X5628Y5090D02*
X5697Y5090D01*
X5728Y5090D02*
X5797Y5090D01*
X5828Y5090D02*
X5897Y5090D01*
X5928Y5090D02*
X5997Y5090D01*
X6028Y5090D02*
X6097Y5090D01*
X6128Y5090D02*
X6197Y5090D01*
X5327Y5089D02*
X5397Y5089D01*
X5427Y5089D02*
X5497Y5089D01*
X5527Y5089D02*
X5597Y5089D01*
X5627Y5089D02*
X5697Y5089D01*
X5727Y5089D02*
X5797Y5089D01*
X5827Y5089D02*
X5897Y5089D01*
X5927Y5089D02*
X5997Y5089D01*
X6027Y5089D02*
X6097Y5089D01*
X6127Y5089D02*
X6197Y5089D01*
X5327Y5088D02*
X5398Y5088D01*
X5427Y5088D02*
X5498Y5088D01*
X5527Y5088D02*
X5598Y5088D01*
X5627Y5088D02*
X5698Y5088D01*
X5727Y5088D02*
X5798Y5088D01*
X5827Y5088D02*
X5898Y5088D01*
X5927Y5088D02*
X5998Y5088D01*
X6027Y5088D02*
X6098Y5088D01*
X6127Y5088D02*
X6198Y5088D01*
X5326Y5087D02*
X5398Y5087D01*
X5426Y5087D02*
X5498Y5087D01*
X5526Y5087D02*
X5598Y5087D01*
X5626Y5087D02*
X5698Y5087D01*
X5726Y5087D02*
X5798Y5087D01*
X5826Y5087D02*
X5898Y5087D01*
X5926Y5087D02*
X5998Y5087D01*
X6026Y5087D02*
X6098Y5087D01*
X6126Y5087D02*
X6198Y5087D01*
X5326Y5086D02*
X5399Y5086D01*
X5426Y5086D02*
X5499Y5086D01*
X5526Y5086D02*
X5599Y5086D01*
X5626Y5086D02*
X5699Y5086D01*
X5726Y5086D02*
X5799Y5086D01*
X5826Y5086D02*
X5899Y5086D01*
X5926Y5086D02*
X5999Y5086D01*
X6026Y5086D02*
X6099Y5086D01*
X6126Y5086D02*
X6199Y5086D01*
X5325Y5085D02*
X5399Y5085D01*
X5425Y5085D02*
X5499Y5085D01*
X5525Y5085D02*
X5599Y5085D01*
X5625Y5085D02*
X5699Y5085D01*
X5725Y5085D02*
X5799Y5085D01*
X5825Y5085D02*
X5899Y5085D01*
X5925Y5085D02*
X5999Y5085D01*
X6025Y5085D02*
X6099Y5085D01*
X6125Y5085D02*
X6199Y5085D01*
X5325Y5084D02*
X5400Y5084D01*
X5425Y5084D02*
X5500Y5084D01*
X5525Y5084D02*
X5600Y5084D01*
X5625Y5084D02*
X5700Y5084D01*
X5725Y5084D02*
X5800Y5084D01*
X5825Y5084D02*
X5900Y5084D01*
X5925Y5084D02*
X5999Y5084D01*
X6025Y5084D02*
X6099Y5084D01*
X6125Y5084D02*
X6199Y5084D01*
X5325Y5083D02*
X5400Y5083D01*
X5425Y5083D02*
X5500Y5083D01*
X5525Y5083D02*
X5600Y5083D01*
X5625Y5083D02*
X5700Y5083D01*
X5725Y5083D02*
X5800Y5083D01*
X5825Y5083D02*
X5900Y5083D01*
X5925Y5083D02*
X6000Y5083D01*
X6025Y5083D02*
X6100Y5083D01*
X6125Y5083D02*
X6200Y5083D01*
X5324Y5082D02*
X5400Y5082D01*
X5424Y5082D02*
X5500Y5082D01*
X5524Y5082D02*
X5600Y5082D01*
X5624Y5082D02*
X5700Y5082D01*
X5724Y5082D02*
X5800Y5082D01*
X5824Y5082D02*
X5900Y5082D01*
X5924Y5082D02*
X6000Y5082D01*
X6024Y5082D02*
X6100Y5082D01*
X6124Y5082D02*
X6200Y5082D01*
X5324Y5081D02*
X5400Y5081D01*
X5424Y5081D02*
X5500Y5081D01*
X5524Y5081D02*
X5600Y5081D01*
X5624Y5081D02*
X5700Y5081D01*
X5724Y5081D02*
X5800Y5081D01*
X5824Y5081D02*
X5900Y5081D01*
X5924Y5081D02*
X6000Y5081D01*
X6024Y5081D02*
X6100Y5081D01*
X6124Y5081D02*
X6200Y5081D01*
X5324Y5080D02*
X5401Y5080D01*
X5424Y5080D02*
X5501Y5080D01*
X5524Y5080D02*
X5601Y5080D01*
X5624Y5080D02*
X5701Y5080D01*
X5724Y5080D02*
X5801Y5080D01*
X5824Y5080D02*
X5901Y5080D01*
X5924Y5080D02*
X6001Y5080D01*
X6024Y5080D02*
X6101Y5080D01*
X6124Y5080D02*
X6201Y5080D01*
X5324Y5079D02*
X5401Y5079D01*
X5424Y5079D02*
X5501Y5079D01*
X5524Y5079D02*
X5601Y5079D01*
X5624Y5079D02*
X5701Y5079D01*
X5724Y5079D02*
X5801Y5079D01*
X5824Y5079D02*
X5901Y5079D01*
X5924Y5079D02*
X6001Y5079D01*
X6024Y5079D02*
X6101Y5079D01*
X6124Y5079D02*
X6201Y5079D01*
X5323Y5078D02*
X5401Y5078D01*
X5423Y5078D02*
X5501Y5078D01*
X5523Y5078D02*
X5601Y5078D01*
X5623Y5078D02*
X5701Y5078D01*
X5723Y5078D02*
X5801Y5078D01*
X5823Y5078D02*
X5901Y5078D01*
X5923Y5078D02*
X6001Y5078D01*
X6023Y5078D02*
X6101Y5078D01*
X6123Y5078D02*
X6201Y5078D01*
X5323Y5077D02*
X5401Y5077D01*
X5423Y5077D02*
X5501Y5077D01*
X5523Y5077D02*
X5601Y5077D01*
X5623Y5077D02*
X5701Y5077D01*
X5723Y5077D02*
X5801Y5077D01*
X5823Y5077D02*
X5901Y5077D01*
X5923Y5077D02*
X6001Y5077D01*
X6023Y5077D02*
X6101Y5077D01*
X6123Y5077D02*
X6201Y5077D01*
X5323Y5076D02*
X5401Y5076D01*
X5423Y5076D02*
X5501Y5076D01*
X5523Y5076D02*
X5601Y5076D01*
X5623Y5076D02*
X5701Y5076D01*
X5723Y5076D02*
X5801Y5076D01*
X5823Y5076D02*
X5901Y5076D01*
X5923Y5076D02*
X6001Y5076D01*
X6023Y5076D02*
X6101Y5076D01*
X6123Y5076D02*
X6201Y5076D01*
X5323Y5075D02*
X5401Y5075D01*
X5423Y5075D02*
X5501Y5075D01*
X5523Y5075D02*
X5601Y5075D01*
X5623Y5075D02*
X5701Y5075D01*
X5723Y5075D02*
X5801Y5075D01*
X5823Y5075D02*
X5901Y5075D01*
X5923Y5075D02*
X6001Y5075D01*
X6023Y5075D02*
X6101Y5075D01*
X6123Y5075D02*
X6201Y5075D01*
X5323Y5074D02*
X5402Y5074D01*
X5423Y5074D02*
X5502Y5074D01*
X5523Y5074D02*
X5602Y5074D01*
X5623Y5074D02*
X5702Y5074D01*
X5723Y5074D02*
X5802Y5074D01*
X5823Y5074D02*
X5902Y5074D01*
X5923Y5074D02*
X6002Y5074D01*
X6023Y5074D02*
X6102Y5074D01*
X6123Y5074D02*
X6202Y5074D01*
X5323Y5073D02*
X5402Y5073D01*
X5423Y5073D02*
X5502Y5073D01*
X5523Y5073D02*
X5602Y5073D01*
X5623Y5073D02*
X5702Y5073D01*
X5723Y5073D02*
X5802Y5073D01*
X5823Y5073D02*
X5902Y5073D01*
X5923Y5073D02*
X6002Y5073D01*
X6023Y5073D02*
X6102Y5073D01*
X6123Y5073D02*
X6202Y5073D01*
X5323Y5072D02*
X5402Y5072D01*
X5423Y5072D02*
X5502Y5072D01*
X5523Y5072D02*
X5602Y5072D01*
X5623Y5072D02*
X5702Y5072D01*
X5723Y5072D02*
X5802Y5072D01*
X5823Y5072D02*
X5902Y5072D01*
X5923Y5072D02*
X6002Y5072D01*
X6023Y5072D02*
X6102Y5072D01*
X6123Y5072D02*
X6202Y5072D01*
X5323Y5071D02*
X5402Y5071D01*
X5423Y5071D02*
X5502Y5071D01*
X5523Y5071D02*
X5602Y5071D01*
X5623Y5071D02*
X5702Y5071D01*
X5723Y5071D02*
X5802Y5071D01*
X5823Y5071D02*
X5902Y5071D01*
X5923Y5071D02*
X6002Y5071D01*
X6023Y5071D02*
X6102Y5071D01*
X6123Y5071D02*
X6202Y5071D01*
X5323Y5070D02*
X5402Y5070D01*
X5423Y5070D02*
X5502Y5070D01*
X5523Y5070D02*
X5602Y5070D01*
X5623Y5070D02*
X5702Y5070D01*
X5723Y5070D02*
X5802Y5070D01*
X5823Y5070D02*
X5902Y5070D01*
X5923Y5070D02*
X6002Y5070D01*
X6023Y5070D02*
X6102Y5070D01*
X6123Y5070D02*
X6202Y5070D01*
X5323Y5069D02*
X5402Y5069D01*
X5423Y5069D02*
X5502Y5069D01*
X5523Y5069D02*
X5602Y5069D01*
X5623Y5069D02*
X5702Y5069D01*
X5723Y5069D02*
X5802Y5069D01*
X5823Y5069D02*
X5902Y5069D01*
X5923Y5069D02*
X6002Y5069D01*
X6023Y5069D02*
X6102Y5069D01*
X6123Y5069D02*
X6202Y5069D01*
X5323Y5068D02*
X5402Y5068D01*
X5423Y5068D02*
X5502Y5068D01*
X5523Y5068D02*
X5602Y5068D01*
X5623Y5068D02*
X5702Y5068D01*
X5723Y5068D02*
X5802Y5068D01*
X5823Y5068D02*
X5902Y5068D01*
X5923Y5068D02*
X6002Y5068D01*
X6023Y5068D02*
X6102Y5068D01*
X6123Y5068D02*
X6202Y5068D01*
X5323Y5067D02*
X5401Y5067D01*
X5423Y5067D02*
X5501Y5067D01*
X5523Y5067D02*
X5601Y5067D01*
X5623Y5067D02*
X5701Y5067D01*
X5723Y5067D02*
X5801Y5067D01*
X5823Y5067D02*
X5901Y5067D01*
X5923Y5067D02*
X6001Y5067D01*
X6023Y5067D02*
X6101Y5067D01*
X6123Y5067D02*
X6201Y5067D01*
X5323Y5066D02*
X5401Y5066D01*
X5423Y5066D02*
X5501Y5066D01*
X5523Y5066D02*
X5601Y5066D01*
X5623Y5066D02*
X5701Y5066D01*
X5723Y5066D02*
X5801Y5066D01*
X5823Y5066D02*
X5901Y5066D01*
X5923Y5066D02*
X6001Y5066D01*
X6023Y5066D02*
X6101Y5066D01*
X6123Y5066D02*
X6201Y5066D01*
X5323Y5065D02*
X5401Y5065D01*
X5423Y5065D02*
X5501Y5065D01*
X5523Y5065D02*
X5601Y5065D01*
X5623Y5065D02*
X5701Y5065D01*
X5723Y5065D02*
X5801Y5065D01*
X5823Y5065D02*
X5901Y5065D01*
X5923Y5065D02*
X6001Y5065D01*
X6023Y5065D02*
X6101Y5065D01*
X6123Y5065D02*
X6201Y5065D01*
X5323Y5064D02*
X5401Y5064D01*
X5423Y5064D02*
X5501Y5064D01*
X5523Y5064D02*
X5601Y5064D01*
X5623Y5064D02*
X5701Y5064D01*
X5723Y5064D02*
X5801Y5064D01*
X5823Y5064D02*
X5901Y5064D01*
X5923Y5064D02*
X6001Y5064D01*
X6023Y5064D02*
X6101Y5064D01*
X6123Y5064D02*
X6201Y5064D01*
X5324Y5063D02*
X5401Y5063D01*
X5424Y5063D02*
X5501Y5063D01*
X5524Y5063D02*
X5601Y5063D01*
X5624Y5063D02*
X5701Y5063D01*
X5724Y5063D02*
X5801Y5063D01*
X5824Y5063D02*
X5901Y5063D01*
X5924Y5063D02*
X6001Y5063D01*
X6024Y5063D02*
X6101Y5063D01*
X6124Y5063D02*
X6201Y5063D01*
X5324Y5062D02*
X5401Y5062D01*
X5424Y5062D02*
X5501Y5062D01*
X5524Y5062D02*
X5601Y5062D01*
X5624Y5062D02*
X5701Y5062D01*
X5724Y5062D02*
X5801Y5062D01*
X5824Y5062D02*
X5901Y5062D01*
X5924Y5062D02*
X6001Y5062D01*
X6024Y5062D02*
X6101Y5062D01*
X6124Y5062D02*
X6201Y5062D01*
X5324Y5061D02*
X5400Y5061D01*
X5424Y5061D02*
X5500Y5061D01*
X5524Y5061D02*
X5600Y5061D01*
X5624Y5061D02*
X5700Y5061D01*
X5724Y5061D02*
X5800Y5061D01*
X5824Y5061D02*
X5900Y5061D01*
X5924Y5061D02*
X6000Y5061D01*
X6024Y5061D02*
X6100Y5061D01*
X6124Y5061D02*
X6200Y5061D01*
X5324Y5060D02*
X5400Y5060D01*
X5424Y5060D02*
X5500Y5060D01*
X5524Y5060D02*
X5600Y5060D01*
X5624Y5060D02*
X5700Y5060D01*
X5724Y5060D02*
X5800Y5060D01*
X5824Y5060D02*
X5900Y5060D01*
X5924Y5060D02*
X6000Y5060D01*
X6024Y5060D02*
X6100Y5060D01*
X6124Y5060D02*
X6200Y5060D01*
X5325Y5059D02*
X5400Y5059D01*
X5425Y5059D02*
X5500Y5059D01*
X5525Y5059D02*
X5600Y5059D01*
X5625Y5059D02*
X5700Y5059D01*
X5725Y5059D02*
X5800Y5059D01*
X5825Y5059D02*
X5900Y5059D01*
X5925Y5059D02*
X6000Y5059D01*
X6025Y5059D02*
X6100Y5059D01*
X6125Y5059D02*
X6200Y5059D01*
X5325Y5058D02*
X5399Y5058D01*
X5425Y5058D02*
X5499Y5058D01*
X5525Y5058D02*
X5599Y5058D01*
X5625Y5058D02*
X5699Y5058D01*
X5725Y5058D02*
X5799Y5058D01*
X5825Y5058D02*
X5899Y5058D01*
X5925Y5058D02*
X5999Y5058D01*
X6025Y5058D02*
X6099Y5058D01*
X6125Y5058D02*
X6199Y5058D01*
X5325Y5057D02*
X5399Y5057D01*
X5425Y5057D02*
X5499Y5057D01*
X5525Y5057D02*
X5599Y5057D01*
X5625Y5057D02*
X5699Y5057D01*
X5725Y5057D02*
X5799Y5057D01*
X5825Y5057D02*
X5899Y5057D01*
X5925Y5057D02*
X5999Y5057D01*
X6025Y5057D02*
X6099Y5057D01*
X6125Y5057D02*
X6199Y5057D01*
X5326Y5056D02*
X5399Y5056D01*
X5426Y5056D02*
X5499Y5056D01*
X5526Y5056D02*
X5599Y5056D01*
X5626Y5056D02*
X5699Y5056D01*
X5726Y5056D02*
X5799Y5056D01*
X5826Y5056D02*
X5899Y5056D01*
X5926Y5056D02*
X5999Y5056D01*
X6026Y5056D02*
X6099Y5056D01*
X6126Y5056D02*
X6199Y5056D01*
X5326Y5055D02*
X5398Y5055D01*
X5426Y5055D02*
X5498Y5055D01*
X5526Y5055D02*
X5598Y5055D01*
X5626Y5055D02*
X5698Y5055D01*
X5726Y5055D02*
X5798Y5055D01*
X5826Y5055D02*
X5898Y5055D01*
X5926Y5055D02*
X5998Y5055D01*
X6026Y5055D02*
X6098Y5055D01*
X6126Y5055D02*
X6198Y5055D01*
X5327Y5054D02*
X5398Y5054D01*
X5427Y5054D02*
X5498Y5054D01*
X5527Y5054D02*
X5598Y5054D01*
X5627Y5054D02*
X5698Y5054D01*
X5727Y5054D02*
X5798Y5054D01*
X5827Y5054D02*
X5898Y5054D01*
X5927Y5054D02*
X5998Y5054D01*
X6027Y5054D02*
X6098Y5054D01*
X6127Y5054D02*
X6198Y5054D01*
X5327Y5053D02*
X5397Y5053D01*
X5427Y5053D02*
X5497Y5053D01*
X5527Y5053D02*
X5597Y5053D01*
X5627Y5053D02*
X5697Y5053D01*
X5727Y5053D02*
X5797Y5053D01*
X5827Y5053D02*
X5897Y5053D01*
X5927Y5053D02*
X5997Y5053D01*
X6027Y5053D02*
X6097Y5053D01*
X6127Y5053D02*
X6197Y5053D01*
X5328Y5052D02*
X5397Y5052D01*
X5428Y5052D02*
X5497Y5052D01*
X5528Y5052D02*
X5597Y5052D01*
X5628Y5052D02*
X5697Y5052D01*
X5728Y5052D02*
X5797Y5052D01*
X5828Y5052D02*
X5897Y5052D01*
X5928Y5052D02*
X5997Y5052D01*
X6028Y5052D02*
X6097Y5052D01*
X6128Y5052D02*
X6197Y5052D01*
X5328Y5051D02*
X5396Y5051D01*
X5428Y5051D02*
X5496Y5051D01*
X5528Y5051D02*
X5596Y5051D01*
X5628Y5051D02*
X5696Y5051D01*
X5728Y5051D02*
X5796Y5051D01*
X5828Y5051D02*
X5896Y5051D01*
X5928Y5051D02*
X5996Y5051D01*
X6028Y5051D02*
X6096Y5051D01*
X6128Y5051D02*
X6196Y5051D01*
X5329Y5050D02*
X5396Y5050D01*
X5429Y5050D02*
X5496Y5050D01*
X5529Y5050D02*
X5596Y5050D01*
X5629Y5050D02*
X5696Y5050D01*
X5729Y5050D02*
X5796Y5050D01*
X5829Y5050D02*
X5896Y5050D01*
X5929Y5050D02*
X5996Y5050D01*
X6029Y5050D02*
X6096Y5050D01*
X6129Y5050D02*
X6196Y5050D01*
X5329Y5049D02*
X5395Y5049D01*
X5429Y5049D02*
X5495Y5049D01*
X5529Y5049D02*
X5595Y5049D01*
X5629Y5049D02*
X5695Y5049D01*
X5729Y5049D02*
X5795Y5049D01*
X5829Y5049D02*
X5895Y5049D01*
X5929Y5049D02*
X5995Y5049D01*
X6029Y5049D02*
X6095Y5049D01*
X6129Y5049D02*
X6195Y5049D01*
X5330Y5048D02*
X5394Y5048D01*
X5430Y5048D02*
X5494Y5048D01*
X5530Y5048D02*
X5594Y5048D01*
X5630Y5048D02*
X5694Y5048D01*
X5730Y5048D02*
X5794Y5048D01*
X5830Y5048D02*
X5894Y5048D01*
X5930Y5048D02*
X5994Y5048D01*
X6030Y5048D02*
X6094Y5048D01*
X6130Y5048D02*
X6194Y5048D01*
X5331Y5047D02*
X5394Y5047D01*
X5431Y5047D02*
X5494Y5047D01*
X5531Y5047D02*
X5594Y5047D01*
X5631Y5047D02*
X5694Y5047D01*
X5731Y5047D02*
X5794Y5047D01*
X5831Y5047D02*
X5894Y5047D01*
X5931Y5047D02*
X5994Y5047D01*
X6031Y5047D02*
X6094Y5047D01*
X6131Y5047D02*
X6194Y5047D01*
X5332Y5046D02*
X5393Y5046D01*
X5432Y5046D02*
X5493Y5046D01*
X5532Y5046D02*
X5593Y5046D01*
X5632Y5046D02*
X5693Y5046D01*
X5732Y5046D02*
X5793Y5046D01*
X5832Y5046D02*
X5893Y5046D01*
X5932Y5046D02*
X5993Y5046D01*
X6032Y5046D02*
X6093Y5046D01*
X6132Y5046D02*
X6193Y5046D01*
X5332Y5045D02*
X5392Y5045D01*
X5432Y5045D02*
X5492Y5045D01*
X5532Y5045D02*
X5592Y5045D01*
X5632Y5045D02*
X5692Y5045D01*
X5732Y5045D02*
X5792Y5045D01*
X5832Y5045D02*
X5892Y5045D01*
X5932Y5045D02*
X5992Y5045D01*
X6032Y5045D02*
X6092Y5045D01*
X6132Y5045D02*
X6192Y5045D01*
X5333Y5044D02*
X5391Y5044D01*
X5433Y5044D02*
X5491Y5044D01*
X5533Y5044D02*
X5591Y5044D01*
X5633Y5044D02*
X5691Y5044D01*
X5733Y5044D02*
X5791Y5044D01*
X5833Y5044D02*
X5891Y5044D01*
X5933Y5044D02*
X5991Y5044D01*
X6033Y5044D02*
X6091Y5044D01*
X6133Y5044D02*
X6191Y5044D01*
X5334Y5043D02*
X5390Y5043D01*
X5434Y5043D02*
X5490Y5043D01*
X5534Y5043D02*
X5590Y5043D01*
X5634Y5043D02*
X5690Y5043D01*
X5734Y5043D02*
X5790Y5043D01*
X5834Y5043D02*
X5890Y5043D01*
X5934Y5043D02*
X5990Y5043D01*
X6034Y5043D02*
X6090Y5043D01*
X6134Y5043D02*
X6190Y5043D01*
X5335Y5042D02*
X5389Y5042D01*
X5435Y5042D02*
X5489Y5042D01*
X5535Y5042D02*
X5589Y5042D01*
X5635Y5042D02*
X5689Y5042D01*
X5735Y5042D02*
X5789Y5042D01*
X5835Y5042D02*
X5889Y5042D01*
X5935Y5042D02*
X5989Y5042D01*
X6035Y5042D02*
X6089Y5042D01*
X6135Y5042D02*
X6189Y5042D01*
X5336Y5041D02*
X5388Y5041D01*
X5436Y5041D02*
X5488Y5041D01*
X5536Y5041D02*
X5588Y5041D01*
X5636Y5041D02*
X5688Y5041D01*
X5736Y5041D02*
X5788Y5041D01*
X5836Y5041D02*
X5888Y5041D01*
X5936Y5041D02*
X5988Y5041D01*
X6036Y5041D02*
X6088Y5041D01*
X6136Y5041D02*
X6188Y5041D01*
X5338Y5040D02*
X5387Y5040D01*
X5438Y5040D02*
X5487Y5040D01*
X5538Y5040D02*
X5587Y5040D01*
X5638Y5040D02*
X5687Y5040D01*
X5738Y5040D02*
X5787Y5040D01*
X5838Y5040D02*
X5887Y5040D01*
X5938Y5040D02*
X5987Y5040D01*
X6038Y5040D02*
X6087Y5040D01*
X6138Y5040D02*
X6187Y5040D01*
X5339Y5039D02*
X5386Y5039D01*
X5439Y5039D02*
X5485Y5039D01*
X5539Y5039D02*
X5585Y5039D01*
X5639Y5039D02*
X5685Y5039D01*
X5739Y5039D02*
X5785Y5039D01*
X5839Y5039D02*
X5885Y5039D01*
X5939Y5039D02*
X5985Y5039D01*
X6039Y5039D02*
X6085Y5039D01*
X6139Y5039D02*
X6185Y5039D01*
X5340Y5038D02*
X5384Y5038D01*
X5440Y5038D02*
X5484Y5038D01*
X5540Y5038D02*
X5584Y5038D01*
X5640Y5038D02*
X5684Y5038D01*
X5740Y5038D02*
X5784Y5038D01*
X5840Y5038D02*
X5884Y5038D01*
X5940Y5038D02*
X5984Y5038D01*
X6040Y5038D02*
X6084Y5038D01*
X6140Y5038D02*
X6184Y5038D01*
X5342Y5037D02*
X5383Y5037D01*
X5442Y5037D02*
X5483Y5037D01*
X5542Y5037D02*
X5583Y5037D01*
X5642Y5037D02*
X5683Y5037D01*
X5742Y5037D02*
X5783Y5037D01*
X5842Y5037D02*
X5883Y5037D01*
X5942Y5037D02*
X5983Y5037D01*
X6042Y5037D02*
X6083Y5037D01*
X6142Y5037D02*
X6183Y5037D01*
X5344Y5036D02*
X5381Y5036D01*
X5444Y5036D02*
X5481Y5036D01*
X5544Y5036D02*
X5581Y5036D01*
X5644Y5036D02*
X5681Y5036D01*
X5744Y5036D02*
X5781Y5036D01*
X5844Y5036D02*
X5881Y5036D01*
X5944Y5036D02*
X5981Y5036D01*
X6044Y5036D02*
X6081Y5036D01*
X6144Y5036D02*
X6181Y5036D01*
X5346Y5035D02*
X5379Y5035D01*
X5446Y5035D02*
X5479Y5035D01*
X5546Y5035D02*
X5579Y5035D01*
X5646Y5035D02*
X5679Y5035D01*
X5746Y5035D02*
X5779Y5035D01*
X5846Y5035D02*
X5879Y5035D01*
X5946Y5035D02*
X5979Y5035D01*
X6046Y5035D02*
X6079Y5035D01*
X6146Y5035D02*
X6179Y5035D01*
X5348Y5034D02*
X5377Y5034D01*
X5448Y5034D02*
X5477Y5034D01*
X5548Y5034D02*
X5577Y5034D01*
X5648Y5034D02*
X5677Y5034D01*
X5748Y5034D02*
X5777Y5034D01*
X5848Y5034D02*
X5877Y5034D01*
X5948Y5034D02*
X5977Y5034D01*
X6048Y5034D02*
X6077Y5034D01*
X6148Y5034D02*
X6177Y5034D01*
X5351Y5033D02*
X5374Y5033D01*
X5451Y5033D02*
X5474Y5033D01*
X5551Y5033D02*
X5574Y5033D01*
X5651Y5033D02*
X5674Y5033D01*
X5751Y5033D02*
X5774Y5033D01*
X5851Y5033D02*
X5874Y5033D01*
X5951Y5033D02*
X5974Y5033D01*
X6051Y5033D02*
X6074Y5033D01*
X6151Y5033D02*
X6174Y5033D01*
X5354Y5032D02*
X5370Y5032D01*
X5454Y5032D02*
X5470Y5032D01*
X5554Y5032D02*
X5570Y5032D01*
X5654Y5032D02*
X5670Y5032D01*
X5754Y5032D02*
X5770Y5032D01*
X5854Y5032D02*
X5870Y5032D01*
X5954Y5032D02*
X5970Y5032D01*
X6054Y5032D02*
X6070Y5032D01*
X6154Y5032D02*
X6170Y5032D01*
X5361Y4811D02*
X5363Y4811D01*
X5461Y4811D02*
X5463Y4811D01*
X5561Y4811D02*
X5563Y4811D01*
X5661Y4811D02*
X5663Y4811D01*
X5761Y4811D02*
X5763Y4811D01*
X5861Y4811D02*
X5863Y4811D01*
X5961Y4811D02*
X5963Y4811D01*
X6061Y4811D02*
X6063Y4811D01*
X6161Y4811D02*
X6163Y4811D01*
X5354Y4810D02*
X5371Y4810D01*
X5454Y4810D02*
X5471Y4810D01*
X5554Y4810D02*
X5571Y4810D01*
X5654Y4810D02*
X5671Y4810D01*
X5754Y4810D02*
X5771Y4810D01*
X5854Y4810D02*
X5871Y4810D01*
X5954Y4810D02*
X5971Y4810D01*
X6054Y4810D02*
X6071Y4810D01*
X6154Y4810D02*
X6171Y4810D01*
X5350Y4809D02*
X5374Y4809D01*
X5450Y4809D02*
X5474Y4809D01*
X5550Y4809D02*
X5574Y4809D01*
X5650Y4809D02*
X5674Y4809D01*
X5750Y4809D02*
X5774Y4809D01*
X5850Y4809D02*
X5874Y4809D01*
X5950Y4809D02*
X5974Y4809D01*
X6050Y4809D02*
X6074Y4809D01*
X6150Y4809D02*
X6174Y4809D01*
X5347Y4808D02*
X5377Y4808D01*
X5447Y4808D02*
X5477Y4808D01*
X5547Y4808D02*
X5577Y4808D01*
X5647Y4808D02*
X5677Y4808D01*
X5747Y4808D02*
X5777Y4808D01*
X5847Y4808D02*
X5877Y4808D01*
X5947Y4808D02*
X5977Y4808D01*
X6047Y4808D02*
X6077Y4808D01*
X6147Y4808D02*
X6177Y4808D01*
X5345Y4807D02*
X5379Y4807D01*
X5445Y4807D02*
X5479Y4807D01*
X5545Y4807D02*
X5579Y4807D01*
X5645Y4807D02*
X5679Y4807D01*
X5745Y4807D02*
X5779Y4807D01*
X5845Y4807D02*
X5879Y4807D01*
X5945Y4807D02*
X5979Y4807D01*
X6045Y4807D02*
X6079Y4807D01*
X6145Y4807D02*
X6179Y4807D01*
X5343Y4806D02*
X5381Y4806D01*
X5443Y4806D02*
X5481Y4806D01*
X5543Y4806D02*
X5581Y4806D01*
X5643Y4806D02*
X5681Y4806D01*
X5743Y4806D02*
X5781Y4806D01*
X5843Y4806D02*
X5881Y4806D01*
X5943Y4806D02*
X5981Y4806D01*
X6043Y4806D02*
X6081Y4806D01*
X6143Y4806D02*
X6181Y4806D01*
X5342Y4805D02*
X5383Y4805D01*
X5442Y4805D02*
X5483Y4805D01*
X5542Y4805D02*
X5583Y4805D01*
X5642Y4805D02*
X5683Y4805D01*
X5742Y4805D02*
X5783Y4805D01*
X5842Y4805D02*
X5883Y4805D01*
X5942Y4805D02*
X5983Y4805D01*
X6042Y4805D02*
X6083Y4805D01*
X6142Y4805D02*
X6183Y4805D01*
X5340Y4804D02*
X5384Y4804D01*
X5440Y4804D02*
X5484Y4804D01*
X5540Y4804D02*
X5584Y4804D01*
X5640Y4804D02*
X5684Y4804D01*
X5740Y4804D02*
X5784Y4804D01*
X5840Y4804D02*
X5884Y4804D01*
X5940Y4804D02*
X5984Y4804D01*
X6040Y4804D02*
X6084Y4804D01*
X6140Y4804D02*
X6184Y4804D01*
X5339Y4803D02*
X5386Y4803D01*
X5439Y4803D02*
X5486Y4803D01*
X5539Y4803D02*
X5586Y4803D01*
X5639Y4803D02*
X5686Y4803D01*
X5739Y4803D02*
X5786Y4803D01*
X5839Y4803D02*
X5886Y4803D01*
X5939Y4803D02*
X5986Y4803D01*
X6039Y4803D02*
X6086Y4803D01*
X6139Y4803D02*
X6186Y4803D01*
X5337Y4802D02*
X5387Y4802D01*
X5437Y4802D02*
X5487Y4802D01*
X5537Y4802D02*
X5587Y4802D01*
X5637Y4802D02*
X5687Y4802D01*
X5737Y4802D02*
X5787Y4802D01*
X5837Y4802D02*
X5887Y4802D01*
X5937Y4802D02*
X5987Y4802D01*
X6037Y4802D02*
X6087Y4802D01*
X6137Y4802D02*
X6187Y4802D01*
X5336Y4801D02*
X5388Y4801D01*
X5436Y4801D02*
X5488Y4801D01*
X5536Y4801D02*
X5588Y4801D01*
X5636Y4801D02*
X5688Y4801D01*
X5736Y4801D02*
X5788Y4801D01*
X5836Y4801D02*
X5888Y4801D01*
X5936Y4801D02*
X5988Y4801D01*
X6036Y4801D02*
X6088Y4801D01*
X6136Y4801D02*
X6188Y4801D01*
X5335Y4800D02*
X5389Y4800D01*
X5435Y4800D02*
X5489Y4800D01*
X5535Y4800D02*
X5589Y4800D01*
X5635Y4800D02*
X5689Y4800D01*
X5735Y4800D02*
X5789Y4800D01*
X5835Y4800D02*
X5889Y4800D01*
X5935Y4800D02*
X5989Y4800D01*
X6035Y4800D02*
X6089Y4800D01*
X6135Y4800D02*
X6189Y4800D01*
X5334Y4799D02*
X5390Y4799D01*
X5434Y4799D02*
X5490Y4799D01*
X5534Y4799D02*
X5590Y4799D01*
X5634Y4799D02*
X5690Y4799D01*
X5734Y4799D02*
X5790Y4799D01*
X5834Y4799D02*
X5890Y4799D01*
X5934Y4799D02*
X5990Y4799D01*
X6034Y4799D02*
X6090Y4799D01*
X6134Y4799D02*
X6190Y4799D01*
X5333Y4798D02*
X5391Y4798D01*
X5433Y4798D02*
X5491Y4798D01*
X5533Y4798D02*
X5591Y4798D01*
X5633Y4798D02*
X5691Y4798D01*
X5733Y4798D02*
X5791Y4798D01*
X5833Y4798D02*
X5891Y4798D01*
X5933Y4798D02*
X5991Y4798D01*
X6033Y4798D02*
X6091Y4798D01*
X6133Y4798D02*
X6191Y4798D01*
X5332Y4797D02*
X5392Y4797D01*
X5432Y4797D02*
X5492Y4797D01*
X5532Y4797D02*
X5592Y4797D01*
X5632Y4797D02*
X5692Y4797D01*
X5732Y4797D02*
X5792Y4797D01*
X5832Y4797D02*
X5892Y4797D01*
X5932Y4797D02*
X5992Y4797D01*
X6032Y4797D02*
X6092Y4797D01*
X6132Y4797D02*
X6192Y4797D01*
X5332Y4796D02*
X5393Y4796D01*
X5432Y4796D02*
X5493Y4796D01*
X5532Y4796D02*
X5593Y4796D01*
X5632Y4796D02*
X5693Y4796D01*
X5732Y4796D02*
X5793Y4796D01*
X5832Y4796D02*
X5893Y4796D01*
X5932Y4796D02*
X5993Y4796D01*
X6032Y4796D02*
X6093Y4796D01*
X6132Y4796D02*
X6193Y4796D01*
X5331Y4795D02*
X5394Y4795D01*
X5431Y4795D02*
X5494Y4795D01*
X5531Y4795D02*
X5594Y4795D01*
X5631Y4795D02*
X5694Y4795D01*
X5731Y4795D02*
X5794Y4795D01*
X5831Y4795D02*
X5894Y4795D01*
X5931Y4795D02*
X5994Y4795D01*
X6031Y4795D02*
X6094Y4795D01*
X6131Y4795D02*
X6194Y4795D01*
X5330Y4794D02*
X5394Y4794D01*
X5430Y4794D02*
X5494Y4794D01*
X5530Y4794D02*
X5594Y4794D01*
X5630Y4794D02*
X5694Y4794D01*
X5730Y4794D02*
X5794Y4794D01*
X5830Y4794D02*
X5894Y4794D01*
X5930Y4794D02*
X5994Y4794D01*
X6030Y4794D02*
X6094Y4794D01*
X6130Y4794D02*
X6194Y4794D01*
X5329Y4793D02*
X5395Y4793D01*
X5429Y4793D02*
X5495Y4793D01*
X5529Y4793D02*
X5595Y4793D01*
X5629Y4793D02*
X5695Y4793D01*
X5729Y4793D02*
X5795Y4793D01*
X5829Y4793D02*
X5895Y4793D01*
X5929Y4793D02*
X5995Y4793D01*
X6029Y4793D02*
X6095Y4793D01*
X6129Y4793D02*
X6195Y4793D01*
X5329Y4792D02*
X5396Y4792D01*
X5429Y4792D02*
X5496Y4792D01*
X5529Y4792D02*
X5596Y4792D01*
X5629Y4792D02*
X5696Y4792D01*
X5729Y4792D02*
X5796Y4792D01*
X5829Y4792D02*
X5896Y4792D01*
X5929Y4792D02*
X5996Y4792D01*
X6029Y4792D02*
X6096Y4792D01*
X6129Y4792D02*
X6196Y4792D01*
X5328Y4791D02*
X5396Y4791D01*
X5428Y4791D02*
X5496Y4791D01*
X5528Y4791D02*
X5596Y4791D01*
X5628Y4791D02*
X5696Y4791D01*
X5728Y4791D02*
X5796Y4791D01*
X5828Y4791D02*
X5896Y4791D01*
X5928Y4791D02*
X5996Y4791D01*
X6028Y4791D02*
X6096Y4791D01*
X6128Y4791D02*
X6196Y4791D01*
X5328Y4790D02*
X5397Y4790D01*
X5428Y4790D02*
X5497Y4790D01*
X5528Y4790D02*
X5597Y4790D01*
X5628Y4790D02*
X5697Y4790D01*
X5728Y4790D02*
X5797Y4790D01*
X5828Y4790D02*
X5897Y4790D01*
X5928Y4790D02*
X5997Y4790D01*
X6028Y4790D02*
X6097Y4790D01*
X6128Y4790D02*
X6197Y4790D01*
X5327Y4789D02*
X5397Y4789D01*
X5427Y4789D02*
X5497Y4789D01*
X5527Y4789D02*
X5597Y4789D01*
X5627Y4789D02*
X5697Y4789D01*
X5727Y4789D02*
X5797Y4789D01*
X5827Y4789D02*
X5897Y4789D01*
X5927Y4789D02*
X5997Y4789D01*
X6027Y4789D02*
X6097Y4789D01*
X6127Y4789D02*
X6197Y4789D01*
X5327Y4788D02*
X5398Y4788D01*
X5427Y4788D02*
X5498Y4788D01*
X5527Y4788D02*
X5598Y4788D01*
X5627Y4788D02*
X5698Y4788D01*
X5727Y4788D02*
X5798Y4788D01*
X5827Y4788D02*
X5898Y4788D01*
X5927Y4788D02*
X5998Y4788D01*
X6027Y4788D02*
X6098Y4788D01*
X6127Y4788D02*
X6198Y4788D01*
X5326Y4787D02*
X5398Y4787D01*
X5426Y4787D02*
X5498Y4787D01*
X5526Y4787D02*
X5598Y4787D01*
X5626Y4787D02*
X5698Y4787D01*
X5726Y4787D02*
X5798Y4787D01*
X5826Y4787D02*
X5898Y4787D01*
X5926Y4787D02*
X5998Y4787D01*
X6026Y4787D02*
X6098Y4787D01*
X6126Y4787D02*
X6198Y4787D01*
X5326Y4786D02*
X5399Y4786D01*
X5426Y4786D02*
X5499Y4786D01*
X5526Y4786D02*
X5599Y4786D01*
X5626Y4786D02*
X5699Y4786D01*
X5726Y4786D02*
X5799Y4786D01*
X5826Y4786D02*
X5899Y4786D01*
X5926Y4786D02*
X5999Y4786D01*
X6026Y4786D02*
X6099Y4786D01*
X6126Y4786D02*
X6199Y4786D01*
X5325Y4785D02*
X5399Y4785D01*
X5425Y4785D02*
X5499Y4785D01*
X5525Y4785D02*
X5599Y4785D01*
X5625Y4785D02*
X5699Y4785D01*
X5725Y4785D02*
X5799Y4785D01*
X5825Y4785D02*
X5899Y4785D01*
X5925Y4785D02*
X5999Y4785D01*
X6025Y4785D02*
X6099Y4785D01*
X6125Y4785D02*
X6199Y4785D01*
X5325Y4784D02*
X5400Y4784D01*
X5425Y4784D02*
X5500Y4784D01*
X5525Y4784D02*
X5600Y4784D01*
X5625Y4784D02*
X5700Y4784D01*
X5725Y4784D02*
X5800Y4784D01*
X5825Y4784D02*
X5900Y4784D01*
X5925Y4784D02*
X6000Y4784D01*
X6025Y4784D02*
X6100Y4784D01*
X6125Y4784D02*
X6200Y4784D01*
X5325Y4783D02*
X5400Y4783D01*
X5425Y4783D02*
X5500Y4783D01*
X5525Y4783D02*
X5600Y4783D01*
X5625Y4783D02*
X5700Y4783D01*
X5725Y4783D02*
X5800Y4783D01*
X5825Y4783D02*
X5900Y4783D01*
X5925Y4783D02*
X6000Y4783D01*
X6025Y4783D02*
X6100Y4783D01*
X6125Y4783D02*
X6200Y4783D01*
X5324Y4782D02*
X5400Y4782D01*
X5424Y4782D02*
X5500Y4782D01*
X5524Y4782D02*
X5600Y4782D01*
X5624Y4782D02*
X5700Y4782D01*
X5724Y4782D02*
X5800Y4782D01*
X5824Y4782D02*
X5900Y4782D01*
X5924Y4782D02*
X6000Y4782D01*
X6024Y4782D02*
X6100Y4782D01*
X6124Y4782D02*
X6200Y4782D01*
X5324Y4781D02*
X5400Y4781D01*
X5424Y4781D02*
X5500Y4781D01*
X5524Y4781D02*
X5600Y4781D01*
X5624Y4781D02*
X5700Y4781D01*
X5724Y4781D02*
X5800Y4781D01*
X5824Y4781D02*
X5900Y4781D01*
X5924Y4781D02*
X6000Y4781D01*
X6024Y4781D02*
X6100Y4781D01*
X6124Y4781D02*
X6200Y4781D01*
X5324Y4780D02*
X5401Y4780D01*
X5424Y4780D02*
X5501Y4780D01*
X5524Y4780D02*
X5601Y4780D01*
X5624Y4780D02*
X5701Y4780D01*
X5724Y4780D02*
X5801Y4780D01*
X5824Y4780D02*
X5901Y4780D01*
X5924Y4780D02*
X6001Y4780D01*
X6024Y4780D02*
X6101Y4780D01*
X6124Y4780D02*
X6201Y4780D01*
X5324Y4779D02*
X5401Y4779D01*
X5424Y4779D02*
X5501Y4779D01*
X5524Y4779D02*
X5601Y4779D01*
X5624Y4779D02*
X5701Y4779D01*
X5724Y4779D02*
X5801Y4779D01*
X5824Y4779D02*
X5901Y4779D01*
X5924Y4779D02*
X6001Y4779D01*
X6024Y4779D02*
X6101Y4779D01*
X6124Y4779D02*
X6201Y4779D01*
X5323Y4778D02*
X5401Y4778D01*
X5423Y4778D02*
X5501Y4778D01*
X5523Y4778D02*
X5601Y4778D01*
X5623Y4778D02*
X5701Y4778D01*
X5723Y4778D02*
X5801Y4778D01*
X5823Y4778D02*
X5901Y4778D01*
X5923Y4778D02*
X6001Y4778D01*
X6023Y4778D02*
X6101Y4778D01*
X6123Y4778D02*
X6201Y4778D01*
X5323Y4777D02*
X5401Y4777D01*
X5423Y4777D02*
X5501Y4777D01*
X5523Y4777D02*
X5601Y4777D01*
X5623Y4777D02*
X5701Y4777D01*
X5723Y4777D02*
X5801Y4777D01*
X5823Y4777D02*
X5901Y4777D01*
X5923Y4777D02*
X6001Y4777D01*
X6023Y4777D02*
X6101Y4777D01*
X6123Y4777D02*
X6201Y4777D01*
X5323Y4776D02*
X5401Y4776D01*
X5423Y4776D02*
X5501Y4776D01*
X5523Y4776D02*
X5601Y4776D01*
X5623Y4776D02*
X5701Y4776D01*
X5723Y4776D02*
X5801Y4776D01*
X5823Y4776D02*
X5901Y4776D01*
X5923Y4776D02*
X6001Y4776D01*
X6023Y4776D02*
X6101Y4776D01*
X6123Y4776D02*
X6201Y4776D01*
X5323Y4775D02*
X5401Y4775D01*
X5423Y4775D02*
X5501Y4775D01*
X5523Y4775D02*
X5601Y4775D01*
X5623Y4775D02*
X5701Y4775D01*
X5723Y4775D02*
X5801Y4775D01*
X5823Y4775D02*
X5901Y4775D01*
X5923Y4775D02*
X6001Y4775D01*
X6023Y4775D02*
X6101Y4775D01*
X6123Y4775D02*
X6201Y4775D01*
X5323Y4774D02*
X5402Y4774D01*
X5423Y4774D02*
X5502Y4774D01*
X5523Y4774D02*
X5602Y4774D01*
X5623Y4774D02*
X5702Y4774D01*
X5723Y4774D02*
X5802Y4774D01*
X5823Y4774D02*
X5902Y4774D01*
X5923Y4774D02*
X6002Y4774D01*
X6023Y4774D02*
X6102Y4774D01*
X6123Y4774D02*
X6202Y4774D01*
X5323Y4773D02*
X5402Y4773D01*
X5423Y4773D02*
X5502Y4773D01*
X5523Y4773D02*
X5602Y4773D01*
X5623Y4773D02*
X5702Y4773D01*
X5723Y4773D02*
X5802Y4773D01*
X5823Y4773D02*
X5902Y4773D01*
X5923Y4773D02*
X6002Y4773D01*
X6023Y4773D02*
X6102Y4773D01*
X6123Y4773D02*
X6202Y4773D01*
X5323Y4772D02*
X5402Y4772D01*
X5423Y4772D02*
X5502Y4772D01*
X5523Y4772D02*
X5602Y4772D01*
X5623Y4772D02*
X5702Y4772D01*
X5723Y4772D02*
X5802Y4772D01*
X5823Y4772D02*
X5902Y4772D01*
X5923Y4772D02*
X6002Y4772D01*
X6023Y4772D02*
X6102Y4772D01*
X6123Y4772D02*
X6202Y4772D01*
X5323Y4771D02*
X5402Y4771D01*
X5423Y4771D02*
X5502Y4771D01*
X5523Y4771D02*
X5602Y4771D01*
X5623Y4771D02*
X5702Y4771D01*
X5723Y4771D02*
X5802Y4771D01*
X5823Y4771D02*
X5902Y4771D01*
X5923Y4771D02*
X6002Y4771D01*
X6023Y4771D02*
X6102Y4771D01*
X6123Y4771D02*
X6202Y4771D01*
X5323Y4770D02*
X5402Y4770D01*
X5423Y4770D02*
X5502Y4770D01*
X5523Y4770D02*
X5602Y4770D01*
X5623Y4770D02*
X5702Y4770D01*
X5723Y4770D02*
X5802Y4770D01*
X5823Y4770D02*
X5902Y4770D01*
X5923Y4770D02*
X6002Y4770D01*
X6023Y4770D02*
X6102Y4770D01*
X6123Y4770D02*
X6202Y4770D01*
X5323Y4769D02*
X5402Y4769D01*
X5423Y4769D02*
X5502Y4769D01*
X5523Y4769D02*
X5602Y4769D01*
X5623Y4769D02*
X5702Y4769D01*
X5723Y4769D02*
X5802Y4769D01*
X5823Y4769D02*
X5902Y4769D01*
X5923Y4769D02*
X6002Y4769D01*
X6023Y4769D02*
X6102Y4769D01*
X6123Y4769D02*
X6202Y4769D01*
X5323Y4768D02*
X5402Y4768D01*
X5423Y4768D02*
X5502Y4768D01*
X5523Y4768D02*
X5602Y4768D01*
X5623Y4768D02*
X5702Y4768D01*
X5723Y4768D02*
X5802Y4768D01*
X5823Y4768D02*
X5902Y4768D01*
X5923Y4768D02*
X6002Y4768D01*
X6023Y4768D02*
X6102Y4768D01*
X6123Y4768D02*
X6202Y4768D01*
X5323Y4767D02*
X5401Y4767D01*
X5423Y4767D02*
X5501Y4767D01*
X5523Y4767D02*
X5601Y4767D01*
X5623Y4767D02*
X5701Y4767D01*
X5723Y4767D02*
X5801Y4767D01*
X5823Y4767D02*
X5901Y4767D01*
X5923Y4767D02*
X6001Y4767D01*
X6023Y4767D02*
X6101Y4767D01*
X6123Y4767D02*
X6201Y4767D01*
X5323Y4766D02*
X5401Y4766D01*
X5423Y4766D02*
X5501Y4766D01*
X5523Y4766D02*
X5601Y4766D01*
X5623Y4766D02*
X5701Y4766D01*
X5723Y4766D02*
X5801Y4766D01*
X5823Y4766D02*
X5901Y4766D01*
X5923Y4766D02*
X6001Y4766D01*
X6023Y4766D02*
X6101Y4766D01*
X6123Y4766D02*
X6201Y4766D01*
X5323Y4765D02*
X5401Y4765D01*
X5423Y4765D02*
X5501Y4765D01*
X5523Y4765D02*
X5601Y4765D01*
X5623Y4765D02*
X5701Y4765D01*
X5723Y4765D02*
X5801Y4765D01*
X5823Y4765D02*
X5901Y4765D01*
X5923Y4765D02*
X6001Y4765D01*
X6023Y4765D02*
X6101Y4765D01*
X6123Y4765D02*
X6201Y4765D01*
X5323Y4764D02*
X5401Y4764D01*
X5423Y4764D02*
X5501Y4764D01*
X5523Y4764D02*
X5601Y4764D01*
X5623Y4764D02*
X5701Y4764D01*
X5723Y4764D02*
X5801Y4764D01*
X5823Y4764D02*
X5901Y4764D01*
X5923Y4764D02*
X6001Y4764D01*
X6023Y4764D02*
X6101Y4764D01*
X6123Y4764D02*
X6201Y4764D01*
X5324Y4763D02*
X5401Y4763D01*
X5424Y4763D02*
X5501Y4763D01*
X5524Y4763D02*
X5601Y4763D01*
X5624Y4763D02*
X5701Y4763D01*
X5724Y4763D02*
X5801Y4763D01*
X5824Y4763D02*
X5901Y4763D01*
X5924Y4763D02*
X6001Y4763D01*
X6024Y4763D02*
X6101Y4763D01*
X6124Y4763D02*
X6201Y4763D01*
X5324Y4762D02*
X5401Y4762D01*
X5424Y4762D02*
X5501Y4762D01*
X5524Y4762D02*
X5601Y4762D01*
X5624Y4762D02*
X5701Y4762D01*
X5724Y4762D02*
X5801Y4762D01*
X5824Y4762D02*
X5901Y4762D01*
X5924Y4762D02*
X6001Y4762D01*
X6024Y4762D02*
X6101Y4762D01*
X6124Y4762D02*
X6201Y4762D01*
X5324Y4761D02*
X5400Y4761D01*
X5424Y4761D02*
X5500Y4761D01*
X5524Y4761D02*
X5600Y4761D01*
X5624Y4761D02*
X5700Y4761D01*
X5724Y4761D02*
X5800Y4761D01*
X5824Y4761D02*
X5900Y4761D01*
X5924Y4761D02*
X6000Y4761D01*
X6024Y4761D02*
X6100Y4761D01*
X6124Y4761D02*
X6200Y4761D01*
X5324Y4760D02*
X5400Y4760D01*
X5424Y4760D02*
X5500Y4760D01*
X5524Y4760D02*
X5600Y4760D01*
X5624Y4760D02*
X5700Y4760D01*
X5724Y4760D02*
X5800Y4760D01*
X5824Y4760D02*
X5900Y4760D01*
X5924Y4760D02*
X6000Y4760D01*
X6024Y4760D02*
X6100Y4760D01*
X6124Y4760D02*
X6200Y4760D01*
X5325Y4759D02*
X5400Y4759D01*
X5425Y4759D02*
X5500Y4759D01*
X5525Y4759D02*
X5600Y4759D01*
X5625Y4759D02*
X5700Y4759D01*
X5725Y4759D02*
X5800Y4759D01*
X5825Y4759D02*
X5900Y4759D01*
X5925Y4759D02*
X6000Y4759D01*
X6025Y4759D02*
X6100Y4759D01*
X6125Y4759D02*
X6200Y4759D01*
X5325Y4758D02*
X5399Y4758D01*
X5425Y4758D02*
X5499Y4758D01*
X5525Y4758D02*
X5599Y4758D01*
X5625Y4758D02*
X5699Y4758D01*
X5725Y4758D02*
X5799Y4758D01*
X5825Y4758D02*
X5899Y4758D01*
X5925Y4758D02*
X5999Y4758D01*
X6025Y4758D02*
X6099Y4758D01*
X6125Y4758D02*
X6199Y4758D01*
X5325Y4757D02*
X5399Y4757D01*
X5425Y4757D02*
X5499Y4757D01*
X5525Y4757D02*
X5599Y4757D01*
X5625Y4757D02*
X5699Y4757D01*
X5725Y4757D02*
X5799Y4757D01*
X5825Y4757D02*
X5899Y4757D01*
X5925Y4757D02*
X5999Y4757D01*
X6025Y4757D02*
X6099Y4757D01*
X6125Y4757D02*
X6199Y4757D01*
X5326Y4756D02*
X5399Y4756D01*
X5426Y4756D02*
X5499Y4756D01*
X5526Y4756D02*
X5599Y4756D01*
X5626Y4756D02*
X5699Y4756D01*
X5726Y4756D02*
X5799Y4756D01*
X5826Y4756D02*
X5899Y4756D01*
X5926Y4756D02*
X5999Y4756D01*
X6026Y4756D02*
X6099Y4756D01*
X6126Y4756D02*
X6199Y4756D01*
X5326Y4755D02*
X5398Y4755D01*
X5426Y4755D02*
X5498Y4755D01*
X5526Y4755D02*
X5598Y4755D01*
X5626Y4755D02*
X5698Y4755D01*
X5726Y4755D02*
X5798Y4755D01*
X5826Y4755D02*
X5898Y4755D01*
X5926Y4755D02*
X5998Y4755D01*
X6026Y4755D02*
X6098Y4755D01*
X6126Y4755D02*
X6198Y4755D01*
X5327Y4754D02*
X5398Y4754D01*
X5427Y4754D02*
X5498Y4754D01*
X5527Y4754D02*
X5598Y4754D01*
X5627Y4754D02*
X5698Y4754D01*
X5727Y4754D02*
X5798Y4754D01*
X5827Y4754D02*
X5898Y4754D01*
X5927Y4754D02*
X5998Y4754D01*
X6027Y4754D02*
X6098Y4754D01*
X6127Y4754D02*
X6198Y4754D01*
X5327Y4753D02*
X5397Y4753D01*
X5427Y4753D02*
X5497Y4753D01*
X5527Y4753D02*
X5597Y4753D01*
X5627Y4753D02*
X5697Y4753D01*
X5727Y4753D02*
X5797Y4753D01*
X5827Y4753D02*
X5897Y4753D01*
X5927Y4753D02*
X5997Y4753D01*
X6027Y4753D02*
X6097Y4753D01*
X6127Y4753D02*
X6197Y4753D01*
X5328Y4752D02*
X5397Y4752D01*
X5428Y4752D02*
X5497Y4752D01*
X5528Y4752D02*
X5597Y4752D01*
X5628Y4752D02*
X5697Y4752D01*
X5728Y4752D02*
X5797Y4752D01*
X5828Y4752D02*
X5897Y4752D01*
X5928Y4752D02*
X5997Y4752D01*
X6028Y4752D02*
X6097Y4752D01*
X6128Y4752D02*
X6197Y4752D01*
X5328Y4751D02*
X5396Y4751D01*
X5428Y4751D02*
X5496Y4751D01*
X5528Y4751D02*
X5596Y4751D01*
X5628Y4751D02*
X5696Y4751D01*
X5728Y4751D02*
X5796Y4751D01*
X5828Y4751D02*
X5896Y4751D01*
X5928Y4751D02*
X5996Y4751D01*
X6028Y4751D02*
X6096Y4751D01*
X6128Y4751D02*
X6196Y4751D01*
X5329Y4750D02*
X5396Y4750D01*
X5429Y4750D02*
X5496Y4750D01*
X5529Y4750D02*
X5596Y4750D01*
X5629Y4750D02*
X5696Y4750D01*
X5729Y4750D02*
X5796Y4750D01*
X5829Y4750D02*
X5896Y4750D01*
X5929Y4750D02*
X5996Y4750D01*
X6029Y4750D02*
X6096Y4750D01*
X6129Y4750D02*
X6196Y4750D01*
X5329Y4749D02*
X5395Y4749D01*
X5429Y4749D02*
X5495Y4749D01*
X5529Y4749D02*
X5595Y4749D01*
X5629Y4749D02*
X5695Y4749D01*
X5729Y4749D02*
X5795Y4749D01*
X5829Y4749D02*
X5895Y4749D01*
X5929Y4749D02*
X5995Y4749D01*
X6029Y4749D02*
X6095Y4749D01*
X6129Y4749D02*
X6195Y4749D01*
X5330Y4748D02*
X5394Y4748D01*
X5430Y4748D02*
X5494Y4748D01*
X5530Y4748D02*
X5594Y4748D01*
X5630Y4748D02*
X5694Y4748D01*
X5730Y4748D02*
X5794Y4748D01*
X5830Y4748D02*
X5894Y4748D01*
X5930Y4748D02*
X5994Y4748D01*
X6030Y4748D02*
X6094Y4748D01*
X6130Y4748D02*
X6194Y4748D01*
X5331Y4747D02*
X5394Y4747D01*
X5431Y4747D02*
X5494Y4747D01*
X5531Y4747D02*
X5594Y4747D01*
X5631Y4747D02*
X5694Y4747D01*
X5731Y4747D02*
X5794Y4747D01*
X5831Y4747D02*
X5894Y4747D01*
X5931Y4747D02*
X5994Y4747D01*
X6031Y4747D02*
X6094Y4747D01*
X6131Y4747D02*
X6194Y4747D01*
X5332Y4746D02*
X5393Y4746D01*
X5432Y4746D02*
X5493Y4746D01*
X5532Y4746D02*
X5593Y4746D01*
X5632Y4746D02*
X5693Y4746D01*
X5732Y4746D02*
X5793Y4746D01*
X5832Y4746D02*
X5893Y4746D01*
X5932Y4746D02*
X5993Y4746D01*
X6032Y4746D02*
X6093Y4746D01*
X6132Y4746D02*
X6193Y4746D01*
X5332Y4745D02*
X5392Y4745D01*
X5432Y4745D02*
X5492Y4745D01*
X5532Y4745D02*
X5592Y4745D01*
X5632Y4745D02*
X5692Y4745D01*
X5732Y4745D02*
X5792Y4745D01*
X5832Y4745D02*
X5892Y4745D01*
X5932Y4745D02*
X5992Y4745D01*
X6032Y4745D02*
X6092Y4745D01*
X6132Y4745D02*
X6192Y4745D01*
X5333Y4744D02*
X5391Y4744D01*
X5433Y4744D02*
X5491Y4744D01*
X5533Y4744D02*
X5591Y4744D01*
X5633Y4744D02*
X5691Y4744D01*
X5733Y4744D02*
X5791Y4744D01*
X5833Y4744D02*
X5891Y4744D01*
X5933Y4744D02*
X5991Y4744D01*
X6033Y4744D02*
X6091Y4744D01*
X6133Y4744D02*
X6191Y4744D01*
X5334Y4743D02*
X5390Y4743D01*
X5434Y4743D02*
X5490Y4743D01*
X5534Y4743D02*
X5590Y4743D01*
X5634Y4743D02*
X5690Y4743D01*
X5734Y4743D02*
X5790Y4743D01*
X5834Y4743D02*
X5890Y4743D01*
X5934Y4743D02*
X5990Y4743D01*
X6034Y4743D02*
X6090Y4743D01*
X6134Y4743D02*
X6190Y4743D01*
X5335Y4742D02*
X5389Y4742D01*
X5435Y4742D02*
X5489Y4742D01*
X5535Y4742D02*
X5589Y4742D01*
X5635Y4742D02*
X5689Y4742D01*
X5735Y4742D02*
X5789Y4742D01*
X5835Y4742D02*
X5889Y4742D01*
X5935Y4742D02*
X5989Y4742D01*
X6035Y4742D02*
X6089Y4742D01*
X6135Y4742D02*
X6189Y4742D01*
X5336Y4741D02*
X5388Y4741D01*
X5436Y4741D02*
X5488Y4741D01*
X5536Y4741D02*
X5588Y4741D01*
X5636Y4741D02*
X5688Y4741D01*
X5736Y4741D02*
X5788Y4741D01*
X5836Y4741D02*
X5888Y4741D01*
X5936Y4741D02*
X5988Y4741D01*
X6036Y4741D02*
X6088Y4741D01*
X6136Y4741D02*
X6188Y4741D01*
X5338Y4740D02*
X5387Y4740D01*
X5438Y4740D02*
X5487Y4740D01*
X5538Y4740D02*
X5587Y4740D01*
X5638Y4740D02*
X5687Y4740D01*
X5738Y4740D02*
X5787Y4740D01*
X5838Y4740D02*
X5887Y4740D01*
X5938Y4740D02*
X5987Y4740D01*
X6038Y4740D02*
X6087Y4740D01*
X6138Y4740D02*
X6187Y4740D01*
X5339Y4739D02*
X5385Y4739D01*
X5439Y4739D02*
X5485Y4739D01*
X5539Y4739D02*
X5585Y4739D01*
X5639Y4739D02*
X5685Y4739D01*
X5739Y4739D02*
X5785Y4739D01*
X5839Y4739D02*
X5885Y4739D01*
X5939Y4739D02*
X5985Y4739D01*
X6039Y4739D02*
X6085Y4739D01*
X6139Y4739D02*
X6185Y4739D01*
X5340Y4738D02*
X5384Y4738D01*
X5440Y4738D02*
X5484Y4738D01*
X5540Y4738D02*
X5584Y4738D01*
X5640Y4738D02*
X5684Y4738D01*
X5740Y4738D02*
X5784Y4738D01*
X5840Y4738D02*
X5884Y4738D01*
X5940Y4738D02*
X5984Y4738D01*
X6040Y4738D02*
X6084Y4738D01*
X6140Y4738D02*
X6184Y4738D01*
X5342Y4737D02*
X5382Y4737D01*
X5442Y4737D02*
X5482Y4737D01*
X5542Y4737D02*
X5582Y4737D01*
X5642Y4737D02*
X5682Y4737D01*
X5742Y4737D02*
X5782Y4737D01*
X5842Y4737D02*
X5882Y4737D01*
X5942Y4737D02*
X5982Y4737D01*
X6042Y4737D02*
X6082Y4737D01*
X6142Y4737D02*
X6182Y4737D01*
X5344Y4736D02*
X5381Y4736D01*
X5444Y4736D02*
X5481Y4736D01*
X5544Y4736D02*
X5581Y4736D01*
X5644Y4736D02*
X5681Y4736D01*
X5744Y4736D02*
X5781Y4736D01*
X5844Y4736D02*
X5881Y4736D01*
X5944Y4736D02*
X5981Y4736D01*
X6044Y4736D02*
X6081Y4736D01*
X6144Y4736D02*
X6181Y4736D01*
X5346Y4735D02*
X5379Y4735D01*
X5446Y4735D02*
X5479Y4735D01*
X5546Y4735D02*
X5579Y4735D01*
X5646Y4735D02*
X5679Y4735D01*
X5746Y4735D02*
X5779Y4735D01*
X5846Y4735D02*
X5879Y4735D01*
X5946Y4735D02*
X5979Y4735D01*
X6046Y4735D02*
X6079Y4735D01*
X6146Y4735D02*
X6179Y4735D01*
X5348Y4734D02*
X5377Y4734D01*
X5448Y4734D02*
X5477Y4734D01*
X5548Y4734D02*
X5577Y4734D01*
X5648Y4734D02*
X5677Y4734D01*
X5748Y4734D02*
X5777Y4734D01*
X5848Y4734D02*
X5877Y4734D01*
X5948Y4734D02*
X5977Y4734D01*
X6048Y4734D02*
X6077Y4734D01*
X6148Y4734D02*
X6177Y4734D01*
X5351Y4733D02*
X5374Y4733D01*
X5451Y4733D02*
X5474Y4733D01*
X5551Y4733D02*
X5574Y4733D01*
X5651Y4733D02*
X5674Y4733D01*
X5751Y4733D02*
X5774Y4733D01*
X5851Y4733D02*
X5874Y4733D01*
X5951Y4733D02*
X5974Y4733D01*
X6051Y4733D02*
X6074Y4733D01*
X6151Y4733D02*
X6174Y4733D01*
X5355Y4732D02*
X5370Y4732D01*
X5455Y4732D02*
X5470Y4732D01*
X5555Y4732D02*
X5570Y4732D01*
X5655Y4732D02*
X5670Y4732D01*
X5755Y4732D02*
X5770Y4732D01*
X5855Y4732D02*
X5870Y4732D01*
X5955Y4732D02*
X5970Y4732D01*
X6055Y4732D02*
X6070Y4732D01*
X6155Y4732D02*
X6170Y4732D01*
X3361Y4586D02*
X3364Y4586D01*
X3461Y4586D02*
X3464Y4586D01*
X3561Y4586D02*
X3564Y4586D01*
X3355Y4585D02*
X3370Y4585D01*
X3455Y4585D02*
X3470Y4585D01*
X3554Y4585D02*
X3570Y4585D01*
X3351Y4584D02*
X3373Y4584D01*
X3451Y4584D02*
X3473Y4584D01*
X3551Y4584D02*
X3573Y4584D01*
X3349Y4583D02*
X3376Y4583D01*
X3449Y4583D02*
X3476Y4583D01*
X3549Y4583D02*
X3576Y4583D01*
X3347Y4582D02*
X3378Y4582D01*
X3447Y4582D02*
X3478Y4582D01*
X3547Y4582D02*
X3578Y4582D01*
X3345Y4581D02*
X3380Y4581D01*
X3445Y4581D02*
X3480Y4581D01*
X3545Y4581D02*
X3580Y4581D01*
X3343Y4580D02*
X3381Y4580D01*
X3443Y4580D02*
X3481Y4580D01*
X3543Y4580D02*
X3581Y4580D01*
X3342Y4579D02*
X3383Y4579D01*
X3442Y4579D02*
X3483Y4579D01*
X3542Y4579D02*
X3583Y4579D01*
X3340Y4578D02*
X3384Y4578D01*
X3440Y4578D02*
X3484Y4578D01*
X3540Y4578D02*
X3584Y4578D01*
X3339Y4577D02*
X3385Y4577D01*
X3439Y4577D02*
X3485Y4577D01*
X3539Y4577D02*
X3585Y4577D01*
X3338Y4576D02*
X3386Y4576D01*
X3438Y4576D02*
X3486Y4576D01*
X3538Y4576D02*
X3586Y4576D01*
X3337Y4575D02*
X3387Y4575D01*
X3437Y4575D02*
X3487Y4575D01*
X3537Y4575D02*
X3587Y4575D01*
X3336Y4574D02*
X3388Y4574D01*
X3436Y4574D02*
X3488Y4574D01*
X3536Y4574D02*
X3588Y4574D01*
X3336Y4573D02*
X3389Y4573D01*
X3436Y4573D02*
X3489Y4573D01*
X3536Y4573D02*
X3589Y4573D01*
X3335Y4572D02*
X3390Y4572D01*
X3435Y4572D02*
X3490Y4572D01*
X3535Y4572D02*
X3590Y4572D01*
X3334Y4571D02*
X3391Y4571D01*
X3434Y4571D02*
X3491Y4571D01*
X3534Y4571D02*
X3591Y4571D01*
X1226Y4570D02*
X1230Y4570D01*
X1326Y4570D02*
X1330Y4570D01*
X1426Y4570D02*
X1430Y4570D01*
X3333Y4570D02*
X3391Y4570D01*
X3433Y4570D02*
X3491Y4570D01*
X3533Y4570D02*
X3591Y4570D01*
X1221Y4569D02*
X1236Y4569D01*
X1321Y4569D02*
X1336Y4569D01*
X1420Y4569D02*
X1436Y4569D01*
X3333Y4569D02*
X3392Y4569D01*
X3433Y4569D02*
X3492Y4569D01*
X3533Y4569D02*
X3592Y4569D01*
X1217Y4568D02*
X1240Y4568D01*
X1317Y4568D02*
X1340Y4568D01*
X1417Y4568D02*
X1440Y4568D01*
X3332Y4568D02*
X3392Y4568D01*
X3432Y4568D02*
X3492Y4568D01*
X3532Y4568D02*
X3592Y4568D01*
X1215Y4567D02*
X1242Y4567D01*
X1315Y4567D02*
X1342Y4567D01*
X1415Y4567D02*
X1442Y4567D01*
X3332Y4567D02*
X3393Y4567D01*
X3432Y4567D02*
X3493Y4567D01*
X3532Y4567D02*
X3593Y4567D01*
X1213Y4566D02*
X1244Y4566D01*
X1313Y4566D02*
X1344Y4566D01*
X1413Y4566D02*
X1444Y4566D01*
X2321Y4566D02*
X2324Y4566D01*
X2421Y4566D02*
X2424Y4566D01*
X2521Y4566D02*
X2524Y4566D01*
X3331Y4566D02*
X3393Y4566D01*
X3431Y4566D02*
X3493Y4566D01*
X3531Y4566D02*
X3593Y4566D01*
X1211Y4565D02*
X1246Y4565D01*
X1311Y4565D02*
X1346Y4565D01*
X1411Y4565D02*
X1446Y4565D01*
X2315Y4565D02*
X2330Y4565D01*
X2415Y4565D02*
X2430Y4565D01*
X2514Y4565D02*
X2530Y4565D01*
X3331Y4565D02*
X3394Y4565D01*
X3431Y4565D02*
X3494Y4565D01*
X3531Y4565D02*
X3594Y4565D01*
X1209Y4564D02*
X1248Y4564D01*
X1309Y4564D02*
X1348Y4564D01*
X1409Y4564D02*
X1448Y4564D01*
X2311Y4564D02*
X2334Y4564D01*
X2411Y4564D02*
X2433Y4564D01*
X2511Y4564D02*
X2533Y4564D01*
X3330Y4564D02*
X3394Y4564D01*
X3430Y4564D02*
X3494Y4564D01*
X3530Y4564D02*
X3594Y4564D01*
X1208Y4563D02*
X1249Y4563D01*
X1308Y4563D02*
X1349Y4563D01*
X1408Y4563D02*
X1449Y4563D01*
X2309Y4563D02*
X2336Y4563D01*
X2409Y4563D02*
X2436Y4563D01*
X2509Y4563D02*
X2536Y4563D01*
X3330Y4563D02*
X3395Y4563D01*
X3430Y4563D02*
X3495Y4563D01*
X3530Y4563D02*
X3595Y4563D01*
X1207Y4562D02*
X1250Y4562D01*
X1307Y4562D02*
X1350Y4562D01*
X1407Y4562D02*
X1450Y4562D01*
X2307Y4562D02*
X2338Y4562D01*
X2407Y4562D02*
X2438Y4562D01*
X2507Y4562D02*
X2538Y4562D01*
X3330Y4562D02*
X3395Y4562D01*
X3430Y4562D02*
X3495Y4562D01*
X3530Y4562D02*
X3595Y4562D01*
X1205Y4561D02*
X1251Y4561D01*
X1305Y4561D02*
X1351Y4561D01*
X1405Y4561D02*
X1451Y4561D01*
X2305Y4561D02*
X2340Y4561D01*
X2405Y4561D02*
X2440Y4561D01*
X2505Y4561D02*
X2540Y4561D01*
X3329Y4561D02*
X3395Y4561D01*
X3429Y4561D02*
X3495Y4561D01*
X3529Y4561D02*
X3595Y4561D01*
X1204Y4560D02*
X1253Y4560D01*
X1304Y4560D02*
X1353Y4560D01*
X1404Y4560D02*
X1453Y4560D01*
X2303Y4560D02*
X2342Y4560D01*
X2403Y4560D02*
X2442Y4560D01*
X2503Y4560D02*
X2542Y4560D01*
X3329Y4560D02*
X3396Y4560D01*
X3429Y4560D02*
X3496Y4560D01*
X3529Y4560D02*
X3596Y4560D01*
X1203Y4559D02*
X1253Y4559D01*
X1303Y4559D02*
X1353Y4559D01*
X1403Y4559D02*
X1453Y4559D01*
X2302Y4559D02*
X2343Y4559D01*
X2402Y4559D02*
X2443Y4559D01*
X2502Y4559D02*
X2543Y4559D01*
X3329Y4559D02*
X3396Y4559D01*
X3429Y4559D02*
X3496Y4559D01*
X3529Y4559D02*
X3596Y4559D01*
X1202Y4558D02*
X1254Y4558D01*
X1302Y4558D02*
X1354Y4558D01*
X1402Y4558D02*
X1454Y4558D01*
X2301Y4558D02*
X2344Y4558D01*
X2401Y4558D02*
X2444Y4558D01*
X2501Y4558D02*
X2544Y4558D01*
X3329Y4558D02*
X3396Y4558D01*
X3429Y4558D02*
X3496Y4558D01*
X3529Y4558D02*
X3596Y4558D01*
X1202Y4557D02*
X1255Y4557D01*
X1302Y4557D02*
X1355Y4557D01*
X1402Y4557D02*
X1455Y4557D01*
X2299Y4557D02*
X2345Y4557D01*
X2399Y4557D02*
X2445Y4557D01*
X2499Y4557D02*
X2545Y4557D01*
X3328Y4557D02*
X3396Y4557D01*
X3428Y4557D02*
X3496Y4557D01*
X3528Y4557D02*
X3596Y4557D01*
X1201Y4556D02*
X1256Y4556D01*
X1301Y4556D02*
X1356Y4556D01*
X1401Y4556D02*
X1456Y4556D01*
X2298Y4556D02*
X2346Y4556D01*
X2398Y4556D02*
X2446Y4556D01*
X2498Y4556D02*
X2546Y4556D01*
X3328Y4556D02*
X3396Y4556D01*
X3428Y4556D02*
X3496Y4556D01*
X3528Y4556D02*
X3596Y4556D01*
X1200Y4555D02*
X1257Y4555D01*
X1300Y4555D02*
X1357Y4555D01*
X1400Y4555D02*
X1457Y4555D01*
X2297Y4555D02*
X2347Y4555D01*
X2397Y4555D02*
X2447Y4555D01*
X2497Y4555D02*
X2547Y4555D01*
X3328Y4555D02*
X3397Y4555D01*
X3428Y4555D02*
X3497Y4555D01*
X3528Y4555D02*
X3597Y4555D01*
X1200Y4554D02*
X1257Y4554D01*
X1300Y4554D02*
X1357Y4554D01*
X1400Y4554D02*
X1457Y4554D01*
X2296Y4554D02*
X2348Y4554D01*
X2396Y4554D02*
X2448Y4554D01*
X2496Y4554D02*
X2548Y4554D01*
X3328Y4554D02*
X3397Y4554D01*
X3428Y4554D02*
X3497Y4554D01*
X3528Y4554D02*
X3597Y4554D01*
X1199Y4553D02*
X1258Y4553D01*
X1299Y4553D02*
X1358Y4553D01*
X1399Y4553D02*
X1458Y4553D01*
X2296Y4553D02*
X2349Y4553D01*
X2396Y4553D02*
X2449Y4553D01*
X2496Y4553D02*
X2549Y4553D01*
X3328Y4553D02*
X3397Y4553D01*
X3428Y4553D02*
X3497Y4553D01*
X3528Y4553D02*
X3597Y4553D01*
X1198Y4552D02*
X1258Y4552D01*
X1298Y4552D02*
X1358Y4552D01*
X1398Y4552D02*
X1458Y4552D01*
X2295Y4552D02*
X2350Y4552D01*
X2395Y4552D02*
X2450Y4552D01*
X2495Y4552D02*
X2550Y4552D01*
X3328Y4552D02*
X3397Y4552D01*
X3428Y4552D02*
X3497Y4552D01*
X3528Y4552D02*
X3597Y4552D01*
X1198Y4551D02*
X1259Y4551D01*
X1298Y4551D02*
X1359Y4551D01*
X1398Y4551D02*
X1459Y4551D01*
X2294Y4551D02*
X2351Y4551D01*
X2394Y4551D02*
X2451Y4551D01*
X2494Y4551D02*
X2551Y4551D01*
X3328Y4551D02*
X3397Y4551D01*
X3428Y4551D02*
X3497Y4551D01*
X3528Y4551D02*
X3597Y4551D01*
X1197Y4550D02*
X1259Y4550D01*
X1297Y4550D02*
X1359Y4550D01*
X1397Y4550D02*
X1459Y4550D01*
X2294Y4550D02*
X2351Y4550D01*
X2394Y4550D02*
X2451Y4550D01*
X2494Y4550D02*
X2551Y4550D01*
X3328Y4550D02*
X3397Y4550D01*
X3428Y4550D02*
X3497Y4550D01*
X3528Y4550D02*
X3597Y4550D01*
X1197Y4549D02*
X1260Y4549D01*
X1297Y4549D02*
X1360Y4549D01*
X1397Y4549D02*
X1460Y4549D01*
X2293Y4549D02*
X2352Y4549D01*
X2393Y4549D02*
X2452Y4549D01*
X2493Y4549D02*
X2552Y4549D01*
X3328Y4549D02*
X3397Y4549D01*
X3428Y4549D02*
X3497Y4549D01*
X3528Y4549D02*
X3597Y4549D01*
X1196Y4548D02*
X1260Y4548D01*
X1296Y4548D02*
X1360Y4548D01*
X1396Y4548D02*
X1460Y4548D01*
X2292Y4548D02*
X2352Y4548D01*
X2392Y4548D02*
X2452Y4548D01*
X2492Y4548D02*
X2552Y4548D01*
X3328Y4548D02*
X3397Y4548D01*
X3428Y4548D02*
X3497Y4548D01*
X3528Y4548D02*
X3597Y4548D01*
X1196Y4547D02*
X1261Y4547D01*
X1296Y4547D02*
X1361Y4547D01*
X1396Y4547D02*
X1461Y4547D01*
X2292Y4547D02*
X2353Y4547D01*
X2392Y4547D02*
X2453Y4547D01*
X2492Y4547D02*
X2553Y4547D01*
X3328Y4547D02*
X3397Y4547D01*
X3428Y4547D02*
X3497Y4547D01*
X3528Y4547D02*
X3597Y4547D01*
X1196Y4546D02*
X1261Y4546D01*
X1296Y4546D02*
X1361Y4546D01*
X1396Y4546D02*
X1461Y4546D01*
X2291Y4546D02*
X2353Y4546D01*
X2391Y4546D02*
X2453Y4546D01*
X2491Y4546D02*
X2553Y4546D01*
X3328Y4546D02*
X3397Y4546D01*
X3428Y4546D02*
X3497Y4546D01*
X3528Y4546D02*
X3597Y4546D01*
X1195Y4545D02*
X1261Y4545D01*
X1295Y4545D02*
X1361Y4545D01*
X1395Y4545D02*
X1461Y4545D01*
X2291Y4545D02*
X2354Y4545D01*
X2391Y4545D02*
X2454Y4545D01*
X2491Y4545D02*
X2554Y4545D01*
X3328Y4545D02*
X3397Y4545D01*
X3428Y4545D02*
X3497Y4545D01*
X3528Y4545D02*
X3597Y4545D01*
X1195Y4544D02*
X1262Y4544D01*
X1295Y4544D02*
X1362Y4544D01*
X1395Y4544D02*
X1462Y4544D01*
X2290Y4544D02*
X2354Y4544D01*
X2390Y4544D02*
X2454Y4544D01*
X2490Y4544D02*
X2554Y4544D01*
X3328Y4544D02*
X3397Y4544D01*
X3428Y4544D02*
X3497Y4544D01*
X3528Y4544D02*
X3597Y4544D01*
X1195Y4543D02*
X1262Y4543D01*
X1295Y4543D02*
X1362Y4543D01*
X1395Y4543D02*
X1462Y4543D01*
X2290Y4543D02*
X2355Y4543D01*
X2390Y4543D02*
X2455Y4543D01*
X2490Y4543D02*
X2555Y4543D01*
X3328Y4543D02*
X3397Y4543D01*
X3428Y4543D02*
X3497Y4543D01*
X3528Y4543D02*
X3597Y4543D01*
X1195Y4542D02*
X1262Y4542D01*
X1295Y4542D02*
X1362Y4542D01*
X1395Y4542D02*
X1462Y4542D01*
X2290Y4542D02*
X2355Y4542D01*
X2390Y4542D02*
X2455Y4542D01*
X2490Y4542D02*
X2555Y4542D01*
X3328Y4542D02*
X3397Y4542D01*
X3428Y4542D02*
X3497Y4542D01*
X3528Y4542D02*
X3597Y4542D01*
X1194Y4541D02*
X1262Y4541D01*
X1294Y4541D02*
X1362Y4541D01*
X1394Y4541D02*
X1462Y4541D01*
X2289Y4541D02*
X2355Y4541D01*
X2389Y4541D02*
X2455Y4541D01*
X2489Y4541D02*
X2555Y4541D01*
X3328Y4541D02*
X3397Y4541D01*
X3428Y4541D02*
X3497Y4541D01*
X3528Y4541D02*
X3597Y4541D01*
X1194Y4540D02*
X1262Y4540D01*
X1294Y4540D02*
X1362Y4540D01*
X1394Y4540D02*
X1462Y4540D01*
X2289Y4540D02*
X2356Y4540D01*
X2389Y4540D02*
X2456Y4540D01*
X2489Y4540D02*
X2556Y4540D01*
X3328Y4540D02*
X3397Y4540D01*
X3428Y4540D02*
X3497Y4540D01*
X3528Y4540D02*
X3597Y4540D01*
X1194Y4539D02*
X1263Y4539D01*
X1294Y4539D02*
X1363Y4539D01*
X1394Y4539D02*
X1463Y4539D01*
X2289Y4539D02*
X2356Y4539D01*
X2389Y4539D02*
X2456Y4539D01*
X2489Y4539D02*
X2556Y4539D01*
X3328Y4539D02*
X3397Y4539D01*
X3428Y4539D02*
X3497Y4539D01*
X3528Y4539D02*
X3597Y4539D01*
X1194Y4538D02*
X1263Y4538D01*
X1294Y4538D02*
X1363Y4538D01*
X1394Y4538D02*
X1463Y4538D01*
X2289Y4538D02*
X2356Y4538D01*
X2389Y4538D02*
X2456Y4538D01*
X2489Y4538D02*
X2556Y4538D01*
X3328Y4538D02*
X3397Y4538D01*
X3428Y4538D02*
X3497Y4538D01*
X3528Y4538D02*
X3597Y4538D01*
X1194Y4537D02*
X1263Y4537D01*
X1294Y4537D02*
X1363Y4537D01*
X1394Y4537D02*
X1463Y4537D01*
X2288Y4537D02*
X2356Y4537D01*
X2388Y4537D02*
X2456Y4537D01*
X2488Y4537D02*
X2556Y4537D01*
X3328Y4537D02*
X3397Y4537D01*
X3428Y4537D02*
X3497Y4537D01*
X3528Y4537D02*
X3597Y4537D01*
X1194Y4536D02*
X1263Y4536D01*
X1294Y4536D02*
X1363Y4536D01*
X1394Y4536D02*
X1463Y4536D01*
X2288Y4536D02*
X2356Y4536D01*
X2388Y4536D02*
X2456Y4536D01*
X2488Y4536D02*
X2556Y4536D01*
X3328Y4536D02*
X3361Y4536D01*
X3364Y4536D02*
X3397Y4536D01*
X3428Y4536D02*
X3461Y4536D01*
X3464Y4536D02*
X3497Y4536D01*
X3528Y4536D02*
X3561Y4536D01*
X3564Y4536D02*
X3597Y4536D01*
X1194Y4535D02*
X1263Y4535D01*
X1294Y4535D02*
X1363Y4535D01*
X1394Y4535D02*
X1463Y4535D01*
X2288Y4535D02*
X2357Y4535D01*
X2388Y4535D02*
X2457Y4535D01*
X2488Y4535D02*
X2557Y4535D01*
X3328Y4535D02*
X3356Y4535D01*
X3369Y4535D02*
X3397Y4535D01*
X3428Y4535D02*
X3456Y4535D01*
X3469Y4535D02*
X3497Y4535D01*
X3528Y4535D02*
X3556Y4535D01*
X3569Y4535D02*
X3597Y4535D01*
X1194Y4534D02*
X1263Y4534D01*
X1294Y4534D02*
X1363Y4534D01*
X1394Y4534D02*
X1463Y4534D01*
X2288Y4534D02*
X2357Y4534D01*
X2388Y4534D02*
X2457Y4534D01*
X2488Y4534D02*
X2557Y4534D01*
X3328Y4534D02*
X3354Y4534D01*
X3371Y4534D02*
X3397Y4534D01*
X3428Y4534D02*
X3454Y4534D01*
X3471Y4534D02*
X3497Y4534D01*
X3528Y4534D02*
X3554Y4534D01*
X3571Y4534D02*
X3597Y4534D01*
X1194Y4533D02*
X1263Y4533D01*
X1294Y4533D02*
X1363Y4533D01*
X1394Y4533D02*
X1463Y4533D01*
X2288Y4533D02*
X2357Y4533D01*
X2388Y4533D02*
X2457Y4533D01*
X2488Y4533D02*
X2557Y4533D01*
X3328Y4533D02*
X3353Y4533D01*
X3372Y4533D02*
X3397Y4533D01*
X3428Y4533D02*
X3453Y4533D01*
X3472Y4533D02*
X3497Y4533D01*
X3528Y4533D02*
X3553Y4533D01*
X3572Y4533D02*
X3597Y4533D01*
X1194Y4532D02*
X1263Y4532D01*
X1294Y4532D02*
X1363Y4532D01*
X1394Y4532D02*
X1463Y4532D01*
X2288Y4532D02*
X2357Y4532D01*
X2388Y4532D02*
X2457Y4532D01*
X2488Y4532D02*
X2557Y4532D01*
X3328Y4532D02*
X3352Y4532D01*
X3373Y4532D02*
X3397Y4532D01*
X3428Y4532D02*
X3452Y4532D01*
X3473Y4532D02*
X3497Y4532D01*
X3528Y4532D02*
X3552Y4532D01*
X3573Y4532D02*
X3597Y4532D01*
X1194Y4531D02*
X1263Y4531D01*
X1294Y4531D02*
X1363Y4531D01*
X1394Y4531D02*
X1463Y4531D01*
X2288Y4531D02*
X2357Y4531D01*
X2388Y4531D02*
X2457Y4531D01*
X2488Y4531D02*
X2557Y4531D01*
X3328Y4531D02*
X3351Y4531D01*
X3374Y4531D02*
X3397Y4531D01*
X3428Y4531D02*
X3451Y4531D01*
X3474Y4531D02*
X3497Y4531D01*
X3528Y4531D02*
X3551Y4531D01*
X3574Y4531D02*
X3597Y4531D01*
X1194Y4530D02*
X1263Y4530D01*
X1294Y4530D02*
X1363Y4530D01*
X1394Y4530D02*
X1463Y4530D01*
X2288Y4530D02*
X2357Y4530D01*
X2388Y4530D02*
X2457Y4530D01*
X2488Y4530D02*
X2557Y4530D01*
X3328Y4530D02*
X3350Y4530D01*
X3375Y4530D02*
X3397Y4530D01*
X3428Y4530D02*
X3450Y4530D01*
X3475Y4530D02*
X3497Y4530D01*
X3528Y4530D02*
X3550Y4530D01*
X3575Y4530D02*
X3597Y4530D01*
X1194Y4529D02*
X1263Y4529D01*
X1294Y4529D02*
X1363Y4529D01*
X1394Y4529D02*
X1463Y4529D01*
X2288Y4529D02*
X2357Y4529D01*
X2388Y4529D02*
X2457Y4529D01*
X2488Y4529D02*
X2557Y4529D01*
X3328Y4529D02*
X3349Y4529D01*
X3376Y4529D02*
X3397Y4529D01*
X3428Y4529D02*
X3449Y4529D01*
X3476Y4529D02*
X3497Y4529D01*
X3528Y4529D02*
X3549Y4529D01*
X3576Y4529D02*
X3597Y4529D01*
X1194Y4528D02*
X1263Y4528D01*
X1294Y4528D02*
X1363Y4528D01*
X1394Y4528D02*
X1463Y4528D01*
X2288Y4528D02*
X2357Y4528D01*
X2388Y4528D02*
X2457Y4528D01*
X2488Y4528D02*
X2557Y4528D01*
X3328Y4528D02*
X3348Y4528D01*
X3376Y4528D02*
X3397Y4528D01*
X3428Y4528D02*
X3449Y4528D01*
X3476Y4528D02*
X3497Y4528D01*
X3528Y4528D02*
X3548Y4528D01*
X3576Y4528D02*
X3597Y4528D01*
X1194Y4527D02*
X1263Y4527D01*
X1294Y4527D02*
X1363Y4527D01*
X1394Y4527D02*
X1463Y4527D01*
X2288Y4527D02*
X2357Y4527D01*
X2388Y4527D02*
X2457Y4527D01*
X2488Y4527D02*
X2557Y4527D01*
X3328Y4527D02*
X3348Y4527D01*
X3377Y4527D02*
X3397Y4527D01*
X3428Y4527D02*
X3448Y4527D01*
X3477Y4527D02*
X3497Y4527D01*
X3528Y4527D02*
X3548Y4527D01*
X3577Y4527D02*
X3597Y4527D01*
X1194Y4526D02*
X1263Y4526D01*
X1294Y4526D02*
X1363Y4526D01*
X1394Y4526D02*
X1463Y4526D01*
X2288Y4526D02*
X2357Y4526D01*
X2388Y4526D02*
X2457Y4526D01*
X2488Y4526D02*
X2557Y4526D01*
X3328Y4526D02*
X3348Y4526D01*
X3377Y4526D02*
X3397Y4526D01*
X3428Y4526D02*
X3448Y4526D01*
X3477Y4526D02*
X3497Y4526D01*
X3528Y4526D02*
X3548Y4526D01*
X3577Y4526D02*
X3597Y4526D01*
X1194Y4525D02*
X1263Y4525D01*
X1294Y4525D02*
X1363Y4525D01*
X1394Y4525D02*
X1463Y4525D01*
X2288Y4525D02*
X2357Y4525D01*
X2388Y4525D02*
X2457Y4525D01*
X2488Y4525D02*
X2557Y4525D01*
X3328Y4525D02*
X3347Y4525D01*
X3377Y4525D02*
X3397Y4525D01*
X3428Y4525D02*
X3447Y4525D01*
X3477Y4525D02*
X3497Y4525D01*
X3528Y4525D02*
X3547Y4525D01*
X3577Y4525D02*
X3597Y4525D01*
X1194Y4524D02*
X1263Y4524D01*
X1294Y4524D02*
X1363Y4524D01*
X1394Y4524D02*
X1463Y4524D01*
X2288Y4524D02*
X2357Y4524D01*
X2388Y4524D02*
X2457Y4524D01*
X2488Y4524D02*
X2557Y4524D01*
X3328Y4524D02*
X3347Y4524D01*
X3378Y4524D02*
X3397Y4524D01*
X3428Y4524D02*
X3447Y4524D01*
X3478Y4524D02*
X3497Y4524D01*
X3528Y4524D02*
X3547Y4524D01*
X3578Y4524D02*
X3597Y4524D01*
X1194Y4523D02*
X1263Y4523D01*
X1294Y4523D02*
X1363Y4523D01*
X1394Y4523D02*
X1463Y4523D01*
X2288Y4523D02*
X2357Y4523D01*
X2388Y4523D02*
X2457Y4523D01*
X2488Y4523D02*
X2557Y4523D01*
X3328Y4523D02*
X3347Y4523D01*
X3378Y4523D02*
X3397Y4523D01*
X3428Y4523D02*
X3447Y4523D01*
X3478Y4523D02*
X3497Y4523D01*
X3528Y4523D02*
X3547Y4523D01*
X3578Y4523D02*
X3597Y4523D01*
X1194Y4522D02*
X1263Y4522D01*
X1294Y4522D02*
X1363Y4522D01*
X1394Y4522D02*
X1463Y4522D01*
X2288Y4522D02*
X2357Y4522D01*
X2388Y4522D02*
X2457Y4522D01*
X2488Y4522D02*
X2557Y4522D01*
X3328Y4522D02*
X3347Y4522D01*
X3378Y4522D02*
X3397Y4522D01*
X3428Y4522D02*
X3447Y4522D01*
X3478Y4522D02*
X3497Y4522D01*
X3528Y4522D02*
X3547Y4522D01*
X3578Y4522D02*
X3597Y4522D01*
X1194Y4521D02*
X1263Y4521D01*
X1294Y4521D02*
X1363Y4521D01*
X1394Y4521D02*
X1463Y4521D01*
X2288Y4521D02*
X2357Y4521D01*
X2388Y4521D02*
X2457Y4521D01*
X2488Y4521D02*
X2557Y4521D01*
X3328Y4521D02*
X3347Y4521D01*
X3378Y4521D02*
X3397Y4521D01*
X3428Y4521D02*
X3447Y4521D01*
X3478Y4521D02*
X3497Y4521D01*
X3528Y4521D02*
X3547Y4521D01*
X3578Y4521D02*
X3597Y4521D01*
X1194Y4520D02*
X1226Y4520D01*
X1230Y4520D02*
X1263Y4520D01*
X1294Y4520D02*
X1326Y4520D01*
X1330Y4520D02*
X1363Y4520D01*
X1394Y4520D02*
X1426Y4520D01*
X1430Y4520D02*
X1463Y4520D01*
X2288Y4520D02*
X2357Y4520D01*
X2388Y4520D02*
X2457Y4520D01*
X2488Y4520D02*
X2557Y4520D01*
X3328Y4520D02*
X3347Y4520D01*
X3378Y4520D02*
X3397Y4520D01*
X3428Y4520D02*
X3442Y4520D01*
X3478Y4520D02*
X3497Y4520D01*
X3528Y4520D02*
X3547Y4520D01*
X3578Y4520D02*
X3597Y4520D01*
X1194Y4519D02*
X1222Y4519D01*
X1235Y4519D02*
X1263Y4519D01*
X1294Y4519D02*
X1322Y4519D01*
X1335Y4519D02*
X1363Y4519D01*
X1394Y4519D02*
X1422Y4519D01*
X1435Y4519D02*
X1463Y4519D01*
X2288Y4519D02*
X2357Y4519D01*
X2388Y4519D02*
X2457Y4519D01*
X2488Y4519D02*
X2557Y4519D01*
X3328Y4519D02*
X3347Y4519D01*
X3378Y4519D02*
X3397Y4519D01*
X3428Y4519D02*
X3442Y4519D01*
X3447Y4519D02*
X3447Y4519D01*
X3478Y4519D02*
X3497Y4519D01*
X3528Y4519D02*
X3547Y4519D01*
X3578Y4519D02*
X3597Y4519D01*
X1194Y4518D02*
X1220Y4518D01*
X1237Y4518D02*
X1263Y4518D01*
X1294Y4518D02*
X1320Y4518D01*
X1337Y4518D02*
X1363Y4518D01*
X1394Y4518D02*
X1420Y4518D01*
X1437Y4518D02*
X1463Y4518D01*
X2288Y4518D02*
X2357Y4518D01*
X2388Y4518D02*
X2457Y4518D01*
X2488Y4518D02*
X2557Y4518D01*
X3328Y4518D02*
X3347Y4518D01*
X3378Y4518D02*
X3397Y4518D01*
X3428Y4518D02*
X3442Y4518D01*
X3447Y4518D02*
X3447Y4518D01*
X3478Y4518D02*
X3497Y4518D01*
X3528Y4518D02*
X3547Y4518D01*
X3578Y4518D02*
X3597Y4518D01*
X1194Y4517D02*
X1219Y4517D01*
X1238Y4517D02*
X1263Y4517D01*
X1294Y4517D02*
X1319Y4517D01*
X1338Y4517D02*
X1363Y4517D01*
X1394Y4517D02*
X1419Y4517D01*
X1438Y4517D02*
X1463Y4517D01*
X2288Y4517D02*
X2357Y4517D01*
X2388Y4517D02*
X2457Y4517D01*
X2488Y4517D02*
X2557Y4517D01*
X3328Y4517D02*
X3347Y4517D01*
X3377Y4517D02*
X3397Y4517D01*
X3428Y4517D02*
X3442Y4517D01*
X3445Y4517D02*
X3447Y4517D01*
X3477Y4517D02*
X3497Y4517D01*
X3528Y4517D02*
X3547Y4517D01*
X3577Y4517D02*
X3597Y4517D01*
X1194Y4516D02*
X1218Y4516D01*
X1239Y4516D02*
X1263Y4516D01*
X1294Y4516D02*
X1318Y4516D01*
X1339Y4516D02*
X1363Y4516D01*
X1394Y4516D02*
X1418Y4516D01*
X1439Y4516D02*
X1463Y4516D01*
X2288Y4516D02*
X2321Y4516D01*
X2324Y4516D02*
X2357Y4516D01*
X2388Y4516D02*
X2421Y4516D01*
X2424Y4516D02*
X2457Y4516D01*
X2488Y4516D02*
X2521Y4516D01*
X2524Y4516D02*
X2557Y4516D01*
X3328Y4516D02*
X3348Y4516D01*
X3377Y4516D02*
X3397Y4516D01*
X3428Y4516D02*
X3448Y4516D01*
X3477Y4516D02*
X3497Y4516D01*
X3528Y4516D02*
X3548Y4516D01*
X3577Y4516D02*
X3597Y4516D01*
X1194Y4515D02*
X1217Y4515D01*
X1240Y4515D02*
X1263Y4515D01*
X1294Y4515D02*
X1317Y4515D01*
X1340Y4515D02*
X1363Y4515D01*
X1394Y4515D02*
X1417Y4515D01*
X1440Y4515D02*
X1463Y4515D01*
X2288Y4515D02*
X2316Y4515D01*
X2329Y4515D02*
X2357Y4515D01*
X2388Y4515D02*
X2416Y4515D01*
X2429Y4515D02*
X2457Y4515D01*
X2488Y4515D02*
X2516Y4515D01*
X2529Y4515D02*
X2557Y4515D01*
X3328Y4515D02*
X3348Y4515D01*
X3377Y4515D02*
X3397Y4515D01*
X3428Y4515D02*
X3448Y4515D01*
X3477Y4515D02*
X3497Y4515D01*
X3528Y4515D02*
X3548Y4515D01*
X3577Y4515D02*
X3597Y4515D01*
X1194Y4514D02*
X1216Y4514D01*
X1241Y4514D02*
X1263Y4514D01*
X1294Y4514D02*
X1316Y4514D01*
X1341Y4514D02*
X1363Y4514D01*
X1394Y4514D02*
X1416Y4514D01*
X1441Y4514D02*
X1463Y4514D01*
X2288Y4514D02*
X2314Y4514D01*
X2331Y4514D02*
X2357Y4514D01*
X2388Y4514D02*
X2414Y4514D01*
X2431Y4514D02*
X2457Y4514D01*
X2488Y4514D02*
X2514Y4514D01*
X2531Y4514D02*
X2557Y4514D01*
X3328Y4514D02*
X3349Y4514D01*
X3376Y4514D02*
X3397Y4514D01*
X3428Y4514D02*
X3449Y4514D01*
X3476Y4514D02*
X3497Y4514D01*
X3528Y4514D02*
X3549Y4514D01*
X3576Y4514D02*
X3597Y4514D01*
X1194Y4513D02*
X1215Y4513D01*
X1242Y4513D02*
X1263Y4513D01*
X1294Y4513D02*
X1315Y4513D01*
X1342Y4513D02*
X1363Y4513D01*
X1394Y4513D02*
X1415Y4513D01*
X1442Y4513D02*
X1463Y4513D01*
X2288Y4513D02*
X2313Y4513D01*
X2332Y4513D02*
X2357Y4513D01*
X2388Y4513D02*
X2413Y4513D01*
X2432Y4513D02*
X2457Y4513D01*
X2488Y4513D02*
X2513Y4513D01*
X2532Y4513D02*
X2557Y4513D01*
X3328Y4513D02*
X3349Y4513D01*
X3375Y4513D02*
X3397Y4513D01*
X3428Y4513D02*
X3449Y4513D01*
X3475Y4513D02*
X3497Y4513D01*
X3528Y4513D02*
X3549Y4513D01*
X3575Y4513D02*
X3597Y4513D01*
X1194Y4512D02*
X1215Y4512D01*
X1242Y4512D02*
X1263Y4512D01*
X1294Y4512D02*
X1315Y4512D01*
X1342Y4512D02*
X1363Y4512D01*
X1394Y4512D02*
X1415Y4512D01*
X1442Y4512D02*
X1463Y4512D01*
X2288Y4512D02*
X2312Y4512D01*
X2333Y4512D02*
X2357Y4512D01*
X2388Y4512D02*
X2412Y4512D01*
X2433Y4512D02*
X2457Y4512D01*
X2488Y4512D02*
X2512Y4512D01*
X2533Y4512D02*
X2557Y4512D01*
X3328Y4512D02*
X3350Y4512D01*
X3375Y4512D02*
X3397Y4512D01*
X3428Y4512D02*
X3450Y4512D01*
X3475Y4512D02*
X3497Y4512D01*
X3528Y4512D02*
X3550Y4512D01*
X3575Y4512D02*
X3597Y4512D01*
X1194Y4511D02*
X1214Y4511D01*
X1243Y4511D02*
X1263Y4511D01*
X1294Y4511D02*
X1314Y4511D01*
X1343Y4511D02*
X1363Y4511D01*
X1394Y4511D02*
X1414Y4511D01*
X1443Y4511D02*
X1463Y4511D01*
X2288Y4511D02*
X2311Y4511D01*
X2334Y4511D02*
X2357Y4511D01*
X2388Y4511D02*
X2411Y4511D01*
X2434Y4511D02*
X2457Y4511D01*
X2488Y4511D02*
X2511Y4511D01*
X2534Y4511D02*
X2557Y4511D01*
X3328Y4511D02*
X3351Y4511D01*
X3374Y4511D02*
X3397Y4511D01*
X3428Y4511D02*
X3451Y4511D01*
X3474Y4511D02*
X3497Y4511D01*
X3528Y4511D02*
X3551Y4511D01*
X3574Y4511D02*
X3597Y4511D01*
X1194Y4510D02*
X1214Y4510D01*
X1243Y4510D02*
X1263Y4510D01*
X1294Y4510D02*
X1314Y4510D01*
X1343Y4510D02*
X1363Y4510D01*
X1394Y4510D02*
X1414Y4510D01*
X1443Y4510D02*
X1463Y4510D01*
X2288Y4510D02*
X2310Y4510D01*
X2335Y4510D02*
X2357Y4510D01*
X2388Y4510D02*
X2410Y4510D01*
X2435Y4510D02*
X2457Y4510D01*
X2488Y4510D02*
X2510Y4510D01*
X2535Y4510D02*
X2557Y4510D01*
X3328Y4510D02*
X3352Y4510D01*
X3373Y4510D02*
X3397Y4510D01*
X3428Y4510D02*
X3452Y4510D01*
X3473Y4510D02*
X3497Y4510D01*
X3528Y4510D02*
X3552Y4510D01*
X3573Y4510D02*
X3597Y4510D01*
X1194Y4509D02*
X1213Y4509D01*
X1243Y4509D02*
X1263Y4509D01*
X1294Y4509D02*
X1313Y4509D01*
X1343Y4509D02*
X1363Y4509D01*
X1394Y4509D02*
X1413Y4509D01*
X1443Y4509D02*
X1463Y4509D01*
X2288Y4509D02*
X2309Y4509D01*
X2336Y4509D02*
X2357Y4509D01*
X2388Y4509D02*
X2409Y4509D01*
X2436Y4509D02*
X2457Y4509D01*
X2488Y4509D02*
X2509Y4509D01*
X2536Y4509D02*
X2557Y4509D01*
X3328Y4509D02*
X3353Y4509D01*
X3372Y4509D02*
X3397Y4509D01*
X3428Y4509D02*
X3453Y4509D01*
X3472Y4509D02*
X3497Y4509D01*
X3528Y4509D02*
X3553Y4509D01*
X3572Y4509D02*
X3597Y4509D01*
X1194Y4508D02*
X1213Y4508D01*
X1244Y4508D02*
X1263Y4508D01*
X1294Y4508D02*
X1313Y4508D01*
X1344Y4508D02*
X1363Y4508D01*
X1394Y4508D02*
X1413Y4508D01*
X1444Y4508D02*
X1463Y4508D01*
X2288Y4508D02*
X2309Y4508D01*
X2336Y4508D02*
X2357Y4508D01*
X2388Y4508D02*
X2409Y4508D01*
X2436Y4508D02*
X2457Y4508D01*
X2488Y4508D02*
X2509Y4508D01*
X2536Y4508D02*
X2557Y4508D01*
X3328Y4508D02*
X3355Y4508D01*
X3370Y4508D02*
X3397Y4508D01*
X3428Y4508D02*
X3455Y4508D01*
X3470Y4508D02*
X3497Y4508D01*
X3528Y4508D02*
X3555Y4508D01*
X3570Y4508D02*
X3597Y4508D01*
X1194Y4507D02*
X1213Y4507D01*
X1244Y4507D02*
X1263Y4507D01*
X1294Y4507D02*
X1313Y4507D01*
X1344Y4507D02*
X1363Y4507D01*
X1394Y4507D02*
X1413Y4507D01*
X1444Y4507D02*
X1463Y4507D01*
X2288Y4507D02*
X2308Y4507D01*
X2337Y4507D02*
X2357Y4507D01*
X2388Y4507D02*
X2408Y4507D01*
X2437Y4507D02*
X2457Y4507D01*
X2488Y4507D02*
X2508Y4507D01*
X2537Y4507D02*
X2557Y4507D01*
X3328Y4507D02*
X3357Y4507D01*
X3368Y4507D02*
X3397Y4507D01*
X3428Y4507D02*
X3457Y4507D01*
X3468Y4507D02*
X3497Y4507D01*
X3528Y4507D02*
X3557Y4507D01*
X3568Y4507D02*
X3597Y4507D01*
X1194Y4506D02*
X1213Y4506D01*
X1244Y4506D02*
X1263Y4506D01*
X1294Y4506D02*
X1313Y4506D01*
X1344Y4506D02*
X1363Y4506D01*
X1394Y4506D02*
X1413Y4506D01*
X1444Y4506D02*
X1463Y4506D01*
X2288Y4506D02*
X2308Y4506D01*
X2337Y4506D02*
X2357Y4506D01*
X2388Y4506D02*
X2408Y4506D01*
X2437Y4506D02*
X2457Y4506D01*
X2488Y4506D02*
X2508Y4506D01*
X2537Y4506D02*
X2557Y4506D01*
X3328Y4506D02*
X3397Y4506D01*
X3428Y4506D02*
X3497Y4506D01*
X3528Y4506D02*
X3597Y4506D01*
X1194Y4505D02*
X1213Y4505D01*
X1244Y4505D02*
X1263Y4505D01*
X1294Y4505D02*
X1313Y4505D01*
X1344Y4505D02*
X1363Y4505D01*
X1394Y4505D02*
X1413Y4505D01*
X1444Y4505D02*
X1463Y4505D01*
X2288Y4505D02*
X2307Y4505D01*
X2337Y4505D02*
X2357Y4505D01*
X2388Y4505D02*
X2407Y4505D01*
X2437Y4505D02*
X2457Y4505D01*
X2488Y4505D02*
X2507Y4505D01*
X2537Y4505D02*
X2557Y4505D01*
X3328Y4505D02*
X3397Y4505D01*
X3428Y4505D02*
X3497Y4505D01*
X3528Y4505D02*
X3597Y4505D01*
X1194Y4504D02*
X1213Y4504D01*
X1244Y4504D02*
X1263Y4504D01*
X1294Y4504D02*
X1313Y4504D01*
X1344Y4504D02*
X1363Y4504D01*
X1394Y4504D02*
X1413Y4504D01*
X1444Y4504D02*
X1463Y4504D01*
X2288Y4504D02*
X2307Y4504D01*
X2338Y4504D02*
X2357Y4504D01*
X2388Y4504D02*
X2407Y4504D01*
X2438Y4504D02*
X2457Y4504D01*
X2488Y4504D02*
X2507Y4504D01*
X2538Y4504D02*
X2557Y4504D01*
X3328Y4504D02*
X3397Y4504D01*
X3428Y4504D02*
X3497Y4504D01*
X3528Y4504D02*
X3597Y4504D01*
X1194Y4503D02*
X1213Y4503D01*
X1244Y4503D02*
X1263Y4503D01*
X1294Y4503D02*
X1313Y4503D01*
X1344Y4503D02*
X1363Y4503D01*
X1394Y4503D02*
X1413Y4503D01*
X1444Y4503D02*
X1463Y4503D01*
X2288Y4503D02*
X2307Y4503D01*
X2338Y4503D02*
X2357Y4503D01*
X2388Y4503D02*
X2407Y4503D01*
X2438Y4503D02*
X2457Y4503D01*
X2488Y4503D02*
X2507Y4503D01*
X2538Y4503D02*
X2557Y4503D01*
X3328Y4503D02*
X3397Y4503D01*
X3428Y4503D02*
X3497Y4503D01*
X3528Y4503D02*
X3597Y4503D01*
X1194Y4502D02*
X1213Y4502D01*
X1244Y4502D02*
X1263Y4502D01*
X1294Y4502D02*
X1313Y4502D01*
X1344Y4502D02*
X1363Y4502D01*
X1394Y4502D02*
X1413Y4502D01*
X1444Y4502D02*
X1463Y4502D01*
X2288Y4502D02*
X2307Y4502D01*
X2338Y4502D02*
X2357Y4502D01*
X2388Y4502D02*
X2407Y4502D01*
X2438Y4502D02*
X2457Y4502D01*
X2488Y4502D02*
X2507Y4502D01*
X2538Y4502D02*
X2557Y4502D01*
X3328Y4502D02*
X3397Y4502D01*
X3428Y4502D02*
X3497Y4502D01*
X3528Y4502D02*
X3597Y4502D01*
X1194Y4501D02*
X1213Y4501D01*
X1243Y4501D02*
X1263Y4501D01*
X1294Y4501D02*
X1313Y4501D01*
X1343Y4501D02*
X1363Y4501D01*
X1394Y4501D02*
X1413Y4501D01*
X1443Y4501D02*
X1463Y4501D01*
X2288Y4501D02*
X2307Y4501D01*
X2338Y4501D02*
X2357Y4501D01*
X2388Y4501D02*
X2407Y4501D01*
X2438Y4501D02*
X2457Y4501D01*
X2488Y4501D02*
X2507Y4501D01*
X2538Y4501D02*
X2557Y4501D01*
X3328Y4501D02*
X3397Y4501D01*
X3428Y4501D02*
X3497Y4501D01*
X3528Y4501D02*
X3597Y4501D01*
X1194Y4500D02*
X1214Y4500D01*
X1243Y4500D02*
X1263Y4500D01*
X1294Y4500D02*
X1314Y4500D01*
X1343Y4500D02*
X1363Y4500D01*
X1394Y4500D02*
X1414Y4500D01*
X1443Y4500D02*
X1463Y4500D01*
X2288Y4500D02*
X2307Y4500D01*
X2338Y4500D02*
X2357Y4500D01*
X2388Y4500D02*
X2402Y4500D01*
X2438Y4500D02*
X2457Y4500D01*
X2488Y4500D02*
X2507Y4500D01*
X2538Y4500D02*
X2557Y4500D01*
X3328Y4500D02*
X3397Y4500D01*
X3428Y4500D02*
X3497Y4500D01*
X3528Y4500D02*
X3597Y4500D01*
X1194Y4499D02*
X1214Y4499D01*
X1243Y4499D02*
X1263Y4499D01*
X1294Y4499D02*
X1314Y4499D01*
X1343Y4499D02*
X1363Y4499D01*
X1394Y4499D02*
X1414Y4499D01*
X1443Y4499D02*
X1463Y4499D01*
X2288Y4499D02*
X2307Y4499D01*
X2338Y4499D02*
X2357Y4499D01*
X2388Y4499D02*
X2402Y4499D01*
X2407Y4499D02*
X2407Y4499D01*
X2438Y4499D02*
X2457Y4499D01*
X2488Y4499D02*
X2507Y4499D01*
X2538Y4499D02*
X2557Y4499D01*
X3328Y4499D02*
X3397Y4499D01*
X3428Y4499D02*
X3497Y4499D01*
X3528Y4499D02*
X3597Y4499D01*
X1194Y4498D02*
X1215Y4498D01*
X1242Y4498D02*
X1263Y4498D01*
X1294Y4498D02*
X1315Y4498D01*
X1342Y4498D02*
X1363Y4498D01*
X1394Y4498D02*
X1415Y4498D01*
X1442Y4498D02*
X1463Y4498D01*
X2288Y4498D02*
X2307Y4498D01*
X2338Y4498D02*
X2357Y4498D01*
X2388Y4498D02*
X2402Y4498D01*
X2407Y4498D02*
X2407Y4498D01*
X2438Y4498D02*
X2457Y4498D01*
X2488Y4498D02*
X2507Y4498D01*
X2538Y4498D02*
X2557Y4498D01*
X3328Y4498D02*
X3397Y4498D01*
X3428Y4498D02*
X3497Y4498D01*
X3528Y4498D02*
X3597Y4498D01*
X1194Y4497D02*
X1215Y4497D01*
X1242Y4497D02*
X1263Y4497D01*
X1294Y4497D02*
X1315Y4497D01*
X1342Y4497D02*
X1363Y4497D01*
X1394Y4497D02*
X1415Y4497D01*
X1442Y4497D02*
X1463Y4497D01*
X2288Y4497D02*
X2307Y4497D01*
X2337Y4497D02*
X2357Y4497D01*
X2388Y4497D02*
X2402Y4497D01*
X2406Y4497D02*
X2407Y4497D01*
X2437Y4497D02*
X2457Y4497D01*
X2488Y4497D02*
X2507Y4497D01*
X2537Y4497D02*
X2557Y4497D01*
X3328Y4497D02*
X3397Y4497D01*
X3428Y4497D02*
X3497Y4497D01*
X3528Y4497D02*
X3597Y4497D01*
X1194Y4496D02*
X1216Y4496D01*
X1241Y4496D02*
X1263Y4496D01*
X1294Y4496D02*
X1316Y4496D01*
X1341Y4496D02*
X1363Y4496D01*
X1394Y4496D02*
X1416Y4496D01*
X1441Y4496D02*
X1463Y4496D01*
X2288Y4496D02*
X2308Y4496D01*
X2337Y4496D02*
X2357Y4496D01*
X2388Y4496D02*
X2408Y4496D01*
X2437Y4496D02*
X2457Y4496D01*
X2488Y4496D02*
X2508Y4496D01*
X2537Y4496D02*
X2557Y4496D01*
X3328Y4496D02*
X3397Y4496D01*
X3428Y4496D02*
X3497Y4496D01*
X3528Y4496D02*
X3597Y4496D01*
X1194Y4495D02*
X1217Y4495D01*
X1240Y4495D02*
X1263Y4495D01*
X1294Y4495D02*
X1317Y4495D01*
X1340Y4495D02*
X1363Y4495D01*
X1394Y4495D02*
X1417Y4495D01*
X1440Y4495D02*
X1463Y4495D01*
X2288Y4495D02*
X2308Y4495D01*
X2337Y4495D02*
X2357Y4495D01*
X2388Y4495D02*
X2408Y4495D01*
X2437Y4495D02*
X2457Y4495D01*
X2488Y4495D02*
X2508Y4495D01*
X2537Y4495D02*
X2557Y4495D01*
X3328Y4495D02*
X3397Y4495D01*
X3428Y4495D02*
X3497Y4495D01*
X3528Y4495D02*
X3597Y4495D01*
X1194Y4494D02*
X1218Y4494D01*
X1239Y4494D02*
X1263Y4494D01*
X1294Y4494D02*
X1318Y4494D01*
X1339Y4494D02*
X1363Y4494D01*
X1394Y4494D02*
X1418Y4494D01*
X1439Y4494D02*
X1463Y4494D01*
X2288Y4494D02*
X2309Y4494D01*
X2336Y4494D02*
X2357Y4494D01*
X2388Y4494D02*
X2409Y4494D01*
X2436Y4494D02*
X2457Y4494D01*
X2488Y4494D02*
X2509Y4494D01*
X2536Y4494D02*
X2557Y4494D01*
X3328Y4494D02*
X3397Y4494D01*
X3428Y4494D02*
X3497Y4494D01*
X3528Y4494D02*
X3597Y4494D01*
X1194Y4493D02*
X1219Y4493D01*
X1238Y4493D02*
X1263Y4493D01*
X1294Y4493D02*
X1319Y4493D01*
X1338Y4493D02*
X1363Y4493D01*
X1394Y4493D02*
X1419Y4493D01*
X1438Y4493D02*
X1463Y4493D01*
X2288Y4493D02*
X2309Y4493D01*
X2336Y4493D02*
X2357Y4493D01*
X2388Y4493D02*
X2409Y4493D01*
X2436Y4493D02*
X2457Y4493D01*
X2488Y4493D02*
X2509Y4493D01*
X2535Y4493D02*
X2557Y4493D01*
X3328Y4493D02*
X3397Y4493D01*
X3428Y4493D02*
X3497Y4493D01*
X3528Y4493D02*
X3597Y4493D01*
X1194Y4492D02*
X1221Y4492D01*
X1236Y4492D02*
X1263Y4492D01*
X1294Y4492D02*
X1321Y4492D01*
X1336Y4492D02*
X1363Y4492D01*
X1394Y4492D02*
X1421Y4492D01*
X1436Y4492D02*
X1463Y4492D01*
X2288Y4492D02*
X2310Y4492D01*
X2335Y4492D02*
X2357Y4492D01*
X2388Y4492D02*
X2410Y4492D01*
X2435Y4492D02*
X2457Y4492D01*
X2488Y4492D02*
X2510Y4492D01*
X2535Y4492D02*
X2557Y4492D01*
X3328Y4492D02*
X3397Y4492D01*
X3428Y4492D02*
X3497Y4492D01*
X3528Y4492D02*
X3597Y4492D01*
X1194Y4491D02*
X1223Y4491D01*
X1234Y4491D02*
X1263Y4491D01*
X1294Y4491D02*
X1323Y4491D01*
X1334Y4491D02*
X1363Y4491D01*
X1394Y4491D02*
X1423Y4491D01*
X1434Y4491D02*
X1463Y4491D01*
X2288Y4491D02*
X2311Y4491D01*
X2334Y4491D02*
X2357Y4491D01*
X2388Y4491D02*
X2411Y4491D01*
X2434Y4491D02*
X2457Y4491D01*
X2488Y4491D02*
X2511Y4491D01*
X2534Y4491D02*
X2557Y4491D01*
X3328Y4491D02*
X3397Y4491D01*
X3428Y4491D02*
X3497Y4491D01*
X3528Y4491D02*
X3597Y4491D01*
X1194Y4490D02*
X1263Y4490D01*
X1294Y4490D02*
X1363Y4490D01*
X1394Y4490D02*
X1463Y4490D01*
X2288Y4490D02*
X2312Y4490D01*
X2333Y4490D02*
X2357Y4490D01*
X2388Y4490D02*
X2412Y4490D01*
X2433Y4490D02*
X2457Y4490D01*
X2488Y4490D02*
X2512Y4490D01*
X2533Y4490D02*
X2557Y4490D01*
X3328Y4490D02*
X3397Y4490D01*
X3428Y4490D02*
X3497Y4490D01*
X3528Y4490D02*
X3597Y4490D01*
X1194Y4489D02*
X1263Y4489D01*
X1294Y4489D02*
X1363Y4489D01*
X1394Y4489D02*
X1463Y4489D01*
X2288Y4489D02*
X2313Y4489D01*
X2332Y4489D02*
X2357Y4489D01*
X2388Y4489D02*
X2413Y4489D01*
X2432Y4489D02*
X2457Y4489D01*
X2488Y4489D02*
X2513Y4489D01*
X2532Y4489D02*
X2557Y4489D01*
X3328Y4489D02*
X3397Y4489D01*
X3428Y4489D02*
X3497Y4489D01*
X3528Y4489D02*
X3597Y4489D01*
X1194Y4488D02*
X1263Y4488D01*
X1294Y4488D02*
X1363Y4488D01*
X1394Y4488D02*
X1463Y4488D01*
X2288Y4488D02*
X2315Y4488D01*
X2330Y4488D02*
X2357Y4488D01*
X2388Y4488D02*
X2415Y4488D01*
X2430Y4488D02*
X2457Y4488D01*
X2488Y4488D02*
X2515Y4488D01*
X2530Y4488D02*
X2557Y4488D01*
X3328Y4488D02*
X3397Y4488D01*
X3428Y4488D02*
X3497Y4488D01*
X3528Y4488D02*
X3597Y4488D01*
X1194Y4487D02*
X1263Y4487D01*
X1294Y4487D02*
X1363Y4487D01*
X1394Y4487D02*
X1463Y4487D01*
X2288Y4487D02*
X2317Y4487D01*
X2328Y4487D02*
X2357Y4487D01*
X2388Y4487D02*
X2417Y4487D01*
X2428Y4487D02*
X2457Y4487D01*
X2488Y4487D02*
X2517Y4487D01*
X2528Y4487D02*
X2557Y4487D01*
X3328Y4487D02*
X3397Y4487D01*
X3428Y4487D02*
X3497Y4487D01*
X3528Y4487D02*
X3597Y4487D01*
X1194Y4486D02*
X1263Y4486D01*
X1294Y4486D02*
X1363Y4486D01*
X1394Y4486D02*
X1463Y4486D01*
X2288Y4486D02*
X2357Y4486D01*
X2388Y4486D02*
X2457Y4486D01*
X2488Y4486D02*
X2557Y4486D01*
X3328Y4486D02*
X3396Y4486D01*
X3428Y4486D02*
X3496Y4486D01*
X3528Y4486D02*
X3596Y4486D01*
X1194Y4485D02*
X1263Y4485D01*
X1294Y4485D02*
X1363Y4485D01*
X1394Y4485D02*
X1463Y4485D01*
X2288Y4485D02*
X2357Y4485D01*
X2388Y4485D02*
X2457Y4485D01*
X2488Y4485D02*
X2557Y4485D01*
X3328Y4485D02*
X3396Y4485D01*
X3428Y4485D02*
X3496Y4485D01*
X3528Y4485D02*
X3596Y4485D01*
X1194Y4484D02*
X1263Y4484D01*
X1294Y4484D02*
X1363Y4484D01*
X1394Y4484D02*
X1463Y4484D01*
X2288Y4484D02*
X2357Y4484D01*
X2388Y4484D02*
X2457Y4484D01*
X2488Y4484D02*
X2557Y4484D01*
X3329Y4484D02*
X3396Y4484D01*
X3429Y4484D02*
X3496Y4484D01*
X3529Y4484D02*
X3596Y4484D01*
X1194Y4483D02*
X1263Y4483D01*
X1294Y4483D02*
X1363Y4483D01*
X1394Y4483D02*
X1463Y4483D01*
X2288Y4483D02*
X2357Y4483D01*
X2388Y4483D02*
X2457Y4483D01*
X2488Y4483D02*
X2557Y4483D01*
X3329Y4483D02*
X3396Y4483D01*
X3429Y4483D02*
X3496Y4483D01*
X3529Y4483D02*
X3596Y4483D01*
X1194Y4482D02*
X1263Y4482D01*
X1294Y4482D02*
X1363Y4482D01*
X1394Y4482D02*
X1463Y4482D01*
X2288Y4482D02*
X2357Y4482D01*
X2388Y4482D02*
X2457Y4482D01*
X2488Y4482D02*
X2557Y4482D01*
X3329Y4482D02*
X3396Y4482D01*
X3429Y4482D02*
X3495Y4482D01*
X3529Y4482D02*
X3596Y4482D01*
X1194Y4481D02*
X1263Y4481D01*
X1294Y4481D02*
X1363Y4481D01*
X1394Y4481D02*
X1463Y4481D01*
X2288Y4481D02*
X2357Y4481D01*
X2388Y4481D02*
X2457Y4481D01*
X2488Y4481D02*
X2557Y4481D01*
X3329Y4481D02*
X3395Y4481D01*
X3429Y4481D02*
X3495Y4481D01*
X3529Y4481D02*
X3595Y4481D01*
X1194Y4480D02*
X1263Y4480D01*
X1294Y4480D02*
X1363Y4480D01*
X1394Y4480D02*
X1463Y4480D01*
X2288Y4480D02*
X2357Y4480D01*
X2388Y4480D02*
X2457Y4480D01*
X2488Y4480D02*
X2557Y4480D01*
X3330Y4480D02*
X3395Y4480D01*
X3430Y4480D02*
X3495Y4480D01*
X3530Y4480D02*
X3595Y4480D01*
X1194Y4479D02*
X1263Y4479D01*
X1294Y4479D02*
X1363Y4479D01*
X1394Y4479D02*
X1463Y4479D01*
X2288Y4479D02*
X2357Y4479D01*
X2388Y4479D02*
X2457Y4479D01*
X2488Y4479D02*
X2557Y4479D01*
X3330Y4479D02*
X3395Y4479D01*
X3430Y4479D02*
X3495Y4479D01*
X3530Y4479D02*
X3595Y4479D01*
X1194Y4478D02*
X1263Y4478D01*
X1294Y4478D02*
X1363Y4478D01*
X1394Y4478D02*
X1463Y4478D01*
X2288Y4478D02*
X2357Y4478D01*
X2388Y4478D02*
X2457Y4478D01*
X2488Y4478D02*
X2557Y4478D01*
X3331Y4478D02*
X3394Y4478D01*
X3431Y4478D02*
X3494Y4478D01*
X3531Y4478D02*
X3594Y4478D01*
X1194Y4477D02*
X1263Y4477D01*
X1294Y4477D02*
X1363Y4477D01*
X1394Y4477D02*
X1463Y4477D01*
X2288Y4477D02*
X2357Y4477D01*
X2388Y4477D02*
X2457Y4477D01*
X2488Y4477D02*
X2557Y4477D01*
X3331Y4477D02*
X3394Y4477D01*
X3431Y4477D02*
X3494Y4477D01*
X3531Y4477D02*
X3594Y4477D01*
X1194Y4476D02*
X1263Y4476D01*
X1294Y4476D02*
X1363Y4476D01*
X1394Y4476D02*
X1463Y4476D01*
X2288Y4476D02*
X2357Y4476D01*
X2388Y4476D02*
X2457Y4476D01*
X2488Y4476D02*
X2557Y4476D01*
X3331Y4476D02*
X3393Y4476D01*
X3431Y4476D02*
X3493Y4476D01*
X3531Y4476D02*
X3593Y4476D01*
X1194Y4475D02*
X1263Y4475D01*
X1294Y4475D02*
X1363Y4475D01*
X1394Y4475D02*
X1463Y4475D01*
X2288Y4475D02*
X2357Y4475D01*
X2388Y4475D02*
X2457Y4475D01*
X2488Y4475D02*
X2557Y4475D01*
X3332Y4475D02*
X3393Y4475D01*
X3432Y4475D02*
X3493Y4475D01*
X3532Y4475D02*
X3593Y4475D01*
X1194Y4474D02*
X1263Y4474D01*
X1294Y4474D02*
X1363Y4474D01*
X1394Y4474D02*
X1463Y4474D01*
X2288Y4474D02*
X2357Y4474D01*
X2388Y4474D02*
X2457Y4474D01*
X2488Y4474D02*
X2557Y4474D01*
X3332Y4474D02*
X3392Y4474D01*
X3432Y4474D02*
X3492Y4474D01*
X3532Y4474D02*
X3592Y4474D01*
X1194Y4473D02*
X1263Y4473D01*
X1294Y4473D02*
X1363Y4473D01*
X1394Y4473D02*
X1463Y4473D01*
X2288Y4473D02*
X2357Y4473D01*
X2388Y4473D02*
X2457Y4473D01*
X2488Y4473D02*
X2557Y4473D01*
X3333Y4473D02*
X3392Y4473D01*
X3433Y4473D02*
X3492Y4473D01*
X3533Y4473D02*
X3592Y4473D01*
X1194Y4472D02*
X1263Y4472D01*
X1294Y4472D02*
X1363Y4472D01*
X1394Y4472D02*
X1463Y4472D01*
X2288Y4472D02*
X2357Y4472D01*
X2388Y4472D02*
X2457Y4472D01*
X2488Y4472D02*
X2557Y4472D01*
X3334Y4472D02*
X3391Y4472D01*
X3434Y4472D02*
X3491Y4472D01*
X3534Y4472D02*
X3591Y4472D01*
X1194Y4471D02*
X1263Y4471D01*
X1294Y4471D02*
X1363Y4471D01*
X1394Y4471D02*
X1463Y4471D01*
X2288Y4471D02*
X2357Y4471D01*
X2388Y4471D02*
X2457Y4471D01*
X2488Y4471D02*
X2557Y4471D01*
X3334Y4471D02*
X3390Y4471D01*
X3434Y4471D02*
X3490Y4471D01*
X3534Y4471D02*
X3590Y4471D01*
X1194Y4470D02*
X1262Y4470D01*
X1294Y4470D02*
X1362Y4470D01*
X1394Y4470D02*
X1462Y4470D01*
X2288Y4470D02*
X2357Y4470D01*
X2388Y4470D02*
X2457Y4470D01*
X2488Y4470D02*
X2557Y4470D01*
X3335Y4470D02*
X3390Y4470D01*
X3435Y4470D02*
X3490Y4470D01*
X3535Y4470D02*
X3590Y4470D01*
X1195Y4469D02*
X1262Y4469D01*
X1295Y4469D02*
X1362Y4469D01*
X1395Y4469D02*
X1462Y4469D01*
X2288Y4469D02*
X2357Y4469D01*
X2388Y4469D02*
X2457Y4469D01*
X2488Y4469D02*
X2557Y4469D01*
X3336Y4469D02*
X3389Y4469D01*
X3436Y4469D02*
X3489Y4469D01*
X3536Y4469D02*
X3589Y4469D01*
X1195Y4468D02*
X1262Y4468D01*
X1295Y4468D02*
X1362Y4468D01*
X1395Y4468D02*
X1462Y4468D01*
X2288Y4468D02*
X2357Y4468D01*
X2388Y4468D02*
X2457Y4468D01*
X2488Y4468D02*
X2557Y4468D01*
X3337Y4468D02*
X3388Y4468D01*
X3437Y4468D02*
X3488Y4468D01*
X3537Y4468D02*
X3588Y4468D01*
X1195Y4467D02*
X1262Y4467D01*
X1295Y4467D02*
X1362Y4467D01*
X1395Y4467D02*
X1462Y4467D01*
X2288Y4467D02*
X2357Y4467D01*
X2388Y4467D02*
X2457Y4467D01*
X2488Y4467D02*
X2557Y4467D01*
X3338Y4467D02*
X3387Y4467D01*
X3438Y4467D02*
X3487Y4467D01*
X3538Y4467D02*
X3587Y4467D01*
X1195Y4466D02*
X1262Y4466D01*
X1295Y4466D02*
X1362Y4466D01*
X1395Y4466D02*
X1462Y4466D01*
X2288Y4466D02*
X2356Y4466D01*
X2388Y4466D02*
X2456Y4466D01*
X2488Y4466D02*
X2556Y4466D01*
X3339Y4466D02*
X3386Y4466D01*
X3439Y4466D02*
X3486Y4466D01*
X3539Y4466D02*
X3586Y4466D01*
X1195Y4465D02*
X1261Y4465D01*
X1295Y4465D02*
X1361Y4465D01*
X1395Y4465D02*
X1461Y4465D01*
X2289Y4465D02*
X2356Y4465D01*
X2388Y4465D02*
X2456Y4465D01*
X2489Y4465D02*
X2556Y4465D01*
X3340Y4465D02*
X3385Y4465D01*
X3440Y4465D02*
X3485Y4465D01*
X3540Y4465D02*
X3585Y4465D01*
X1196Y4464D02*
X1261Y4464D01*
X1296Y4464D02*
X1361Y4464D01*
X1396Y4464D02*
X1461Y4464D01*
X2289Y4464D02*
X2356Y4464D01*
X2389Y4464D02*
X2456Y4464D01*
X2489Y4464D02*
X2556Y4464D01*
X3341Y4464D02*
X3384Y4464D01*
X3441Y4464D02*
X3484Y4464D01*
X3541Y4464D02*
X3584Y4464D01*
X1196Y4463D02*
X1261Y4463D01*
X1296Y4463D02*
X1361Y4463D01*
X1396Y4463D02*
X1461Y4463D01*
X2289Y4463D02*
X2356Y4463D01*
X2389Y4463D02*
X2456Y4463D01*
X2489Y4463D02*
X2556Y4463D01*
X3342Y4463D02*
X3382Y4463D01*
X3442Y4463D02*
X3482Y4463D01*
X3542Y4463D02*
X3582Y4463D01*
X1197Y4462D02*
X1260Y4462D01*
X1297Y4462D02*
X1360Y4462D01*
X1397Y4462D02*
X1460Y4462D01*
X2289Y4462D02*
X2356Y4462D01*
X2389Y4462D02*
X2456Y4462D01*
X2489Y4462D02*
X2556Y4462D01*
X3344Y4462D02*
X3381Y4462D01*
X3444Y4462D02*
X3481Y4462D01*
X3544Y4462D02*
X3581Y4462D01*
X1197Y4461D02*
X1260Y4461D01*
X1297Y4461D02*
X1360Y4461D01*
X1397Y4461D02*
X1460Y4461D01*
X2289Y4461D02*
X2355Y4461D01*
X2389Y4461D02*
X2455Y4461D01*
X2489Y4461D02*
X2555Y4461D01*
X3345Y4461D02*
X3379Y4461D01*
X3445Y4461D02*
X3479Y4461D01*
X3545Y4461D02*
X3579Y4461D01*
X1197Y4460D02*
X1259Y4460D01*
X1297Y4460D02*
X1359Y4460D01*
X1397Y4460D02*
X1459Y4460D01*
X2290Y4460D02*
X2355Y4460D01*
X2390Y4460D02*
X2455Y4460D01*
X2490Y4460D02*
X2555Y4460D01*
X3347Y4460D02*
X3378Y4460D01*
X3447Y4460D02*
X3477Y4460D01*
X3547Y4460D02*
X3577Y4460D01*
X1198Y4459D02*
X1259Y4459D01*
X1298Y4459D02*
X1359Y4459D01*
X1398Y4459D02*
X1459Y4459D01*
X2290Y4459D02*
X2355Y4459D01*
X2390Y4459D02*
X2455Y4459D01*
X2490Y4459D02*
X2555Y4459D01*
X3349Y4459D02*
X3375Y4459D01*
X3449Y4459D02*
X3475Y4459D01*
X3549Y4459D02*
X3575Y4459D01*
X1199Y4458D02*
X1258Y4458D01*
X1299Y4458D02*
X1358Y4458D01*
X1398Y4458D02*
X1458Y4458D01*
X2291Y4458D02*
X2354Y4458D01*
X2391Y4458D02*
X2454Y4458D01*
X2491Y4458D02*
X2554Y4458D01*
X3352Y4458D02*
X3373Y4458D01*
X3452Y4458D02*
X3473Y4458D01*
X3552Y4458D02*
X3573Y4458D01*
X1199Y4457D02*
X1258Y4457D01*
X1299Y4457D02*
X1358Y4457D01*
X1399Y4457D02*
X1458Y4457D01*
X2291Y4457D02*
X2354Y4457D01*
X2391Y4457D02*
X2454Y4457D01*
X2491Y4457D02*
X2554Y4457D01*
X3356Y4457D02*
X3369Y4457D01*
X3456Y4457D02*
X3469Y4457D01*
X3556Y4457D02*
X3569Y4457D01*
X1200Y4456D02*
X1257Y4456D01*
X1300Y4456D02*
X1357Y4456D01*
X1400Y4456D02*
X1457Y4456D01*
X2291Y4456D02*
X2353Y4456D01*
X2391Y4456D02*
X2453Y4456D01*
X2491Y4456D02*
X2553Y4456D01*
X1200Y4455D02*
X1256Y4455D01*
X1300Y4455D02*
X1356Y4455D01*
X1400Y4455D02*
X1456Y4455D01*
X2292Y4455D02*
X2353Y4455D01*
X2392Y4455D02*
X2453Y4455D01*
X2492Y4455D02*
X2553Y4455D01*
X1201Y4454D02*
X1256Y4454D01*
X1301Y4454D02*
X1356Y4454D01*
X1401Y4454D02*
X1456Y4454D01*
X2292Y4454D02*
X2352Y4454D01*
X2392Y4454D02*
X2452Y4454D01*
X2492Y4454D02*
X2552Y4454D01*
X1202Y4453D02*
X1255Y4453D01*
X1302Y4453D02*
X1355Y4453D01*
X1402Y4453D02*
X1455Y4453D01*
X2293Y4453D02*
X2352Y4453D01*
X2393Y4453D02*
X2452Y4453D01*
X2493Y4453D02*
X2552Y4453D01*
X1203Y4452D02*
X1254Y4452D01*
X1303Y4452D02*
X1354Y4452D01*
X1403Y4452D02*
X1454Y4452D01*
X2294Y4452D02*
X2351Y4452D01*
X2394Y4452D02*
X2451Y4452D01*
X2494Y4452D02*
X2551Y4452D01*
X1204Y4451D02*
X1253Y4451D01*
X1304Y4451D02*
X1353Y4451D01*
X1404Y4451D02*
X1453Y4451D01*
X2294Y4451D02*
X2350Y4451D01*
X2394Y4451D02*
X2450Y4451D01*
X2494Y4451D02*
X2550Y4451D01*
X1205Y4450D02*
X1252Y4450D01*
X1305Y4450D02*
X1352Y4450D01*
X1405Y4450D02*
X1452Y4450D01*
X2295Y4450D02*
X2350Y4450D01*
X2395Y4450D02*
X2450Y4450D01*
X2495Y4450D02*
X2550Y4450D01*
X1206Y4449D02*
X1251Y4449D01*
X1306Y4449D02*
X1351Y4449D01*
X1406Y4449D02*
X1451Y4449D01*
X2296Y4449D02*
X2349Y4449D01*
X2396Y4449D02*
X2449Y4449D01*
X2496Y4449D02*
X2549Y4449D01*
X1207Y4448D02*
X1250Y4448D01*
X1307Y4448D02*
X1350Y4448D01*
X1407Y4448D02*
X1450Y4448D01*
X2297Y4448D02*
X2348Y4448D01*
X2397Y4448D02*
X2448Y4448D01*
X2497Y4448D02*
X2548Y4448D01*
X1208Y4447D02*
X1249Y4447D01*
X1308Y4447D02*
X1349Y4447D01*
X1408Y4447D02*
X1449Y4447D01*
X2298Y4447D02*
X2347Y4447D01*
X2398Y4447D02*
X2447Y4447D01*
X2498Y4447D02*
X2547Y4447D01*
X1210Y4446D02*
X1247Y4446D01*
X1310Y4446D02*
X1347Y4446D01*
X1410Y4446D02*
X1447Y4446D01*
X2299Y4446D02*
X2346Y4446D01*
X2399Y4446D02*
X2446Y4446D01*
X2499Y4446D02*
X2546Y4446D01*
X1211Y4445D02*
X1245Y4445D01*
X1311Y4445D02*
X1345Y4445D01*
X1411Y4445D02*
X1445Y4445D01*
X2300Y4445D02*
X2345Y4445D01*
X2400Y4445D02*
X2445Y4445D01*
X2500Y4445D02*
X2545Y4445D01*
X1213Y4444D02*
X1244Y4444D01*
X1313Y4444D02*
X1344Y4444D01*
X1413Y4444D02*
X1444Y4444D01*
X2301Y4444D02*
X2344Y4444D01*
X2401Y4444D02*
X2444Y4444D01*
X2501Y4444D02*
X2544Y4444D01*
X1215Y4443D02*
X1241Y4443D01*
X1315Y4443D02*
X1341Y4443D01*
X1415Y4443D02*
X1441Y4443D01*
X2302Y4443D02*
X2343Y4443D01*
X2402Y4443D02*
X2443Y4443D01*
X2502Y4443D02*
X2543Y4443D01*
X1218Y4442D02*
X1239Y4442D01*
X1318Y4442D02*
X1339Y4442D01*
X1418Y4442D02*
X1439Y4442D01*
X2304Y4442D02*
X2341Y4442D01*
X2404Y4442D02*
X2441Y4442D01*
X2504Y4442D02*
X2541Y4442D01*
X1222Y4441D02*
X1235Y4441D01*
X1322Y4441D02*
X1335Y4441D01*
X1422Y4441D02*
X1435Y4441D01*
X2305Y4441D02*
X2339Y4441D01*
X2405Y4441D02*
X2439Y4441D01*
X2505Y4441D02*
X2539Y4441D01*
X2307Y4440D02*
X2338Y4440D01*
X2407Y4440D02*
X2438Y4440D01*
X2507Y4440D02*
X2538Y4440D01*
X2309Y4439D02*
X2335Y4439D01*
X2409Y4439D02*
X2435Y4439D01*
X2509Y4439D02*
X2535Y4439D01*
X2312Y4438D02*
X2333Y4438D01*
X2412Y4438D02*
X2433Y4438D01*
X2512Y4438D02*
X2533Y4438D01*
X2316Y4437D02*
X2329Y4437D01*
X2416Y4437D02*
X2429Y4437D01*
X2516Y4437D02*
X2529Y4437D01*
X4459Y3661D02*
X4466Y3661D01*
X4559Y3661D02*
X4566Y3661D01*
X4659Y3661D02*
X4666Y3661D01*
X4759Y3661D02*
X4766Y3661D01*
X4859Y3661D02*
X4866Y3661D01*
X4959Y3661D02*
X4966Y3661D01*
X5059Y3661D02*
X5066Y3661D01*
X5159Y3661D02*
X5166Y3661D01*
X5259Y3661D02*
X5266Y3661D01*
X5359Y3661D02*
X5366Y3661D01*
X5459Y3661D02*
X5466Y3661D01*
X5559Y3661D02*
X5566Y3661D01*
X5659Y3661D02*
X5666Y3661D01*
X5759Y3661D02*
X5766Y3661D01*
X4453Y3660D02*
X4471Y3660D01*
X4553Y3660D02*
X4571Y3660D01*
X4653Y3660D02*
X4671Y3660D01*
X4753Y3660D02*
X4771Y3660D01*
X4853Y3660D02*
X4871Y3660D01*
X4953Y3660D02*
X4971Y3660D01*
X5053Y3660D02*
X5071Y3660D01*
X5153Y3660D02*
X5171Y3660D01*
X5253Y3660D02*
X5271Y3660D01*
X5353Y3660D02*
X5371Y3660D01*
X5453Y3660D02*
X5471Y3660D01*
X5553Y3660D02*
X5571Y3660D01*
X5653Y3660D02*
X5671Y3660D01*
X5753Y3660D02*
X5771Y3660D01*
X4450Y3659D02*
X4475Y3659D01*
X4550Y3659D02*
X4575Y3659D01*
X4650Y3659D02*
X4675Y3659D01*
X4750Y3659D02*
X4775Y3659D01*
X4850Y3659D02*
X4875Y3659D01*
X4950Y3659D02*
X4975Y3659D01*
X5050Y3659D02*
X5075Y3659D01*
X5150Y3659D02*
X5175Y3659D01*
X5250Y3659D02*
X5275Y3659D01*
X5350Y3659D02*
X5375Y3659D01*
X5450Y3659D02*
X5475Y3659D01*
X5550Y3659D02*
X5575Y3659D01*
X5650Y3659D02*
X5675Y3659D01*
X5750Y3659D02*
X5775Y3659D01*
X4447Y3658D02*
X4478Y3658D01*
X4547Y3658D02*
X4578Y3658D01*
X4647Y3658D02*
X4678Y3658D01*
X4747Y3658D02*
X4778Y3658D01*
X4847Y3658D02*
X4878Y3658D01*
X4947Y3658D02*
X4978Y3658D01*
X5047Y3658D02*
X5078Y3658D01*
X5147Y3658D02*
X5178Y3658D01*
X5247Y3658D02*
X5278Y3658D01*
X5347Y3658D02*
X5378Y3658D01*
X5447Y3658D02*
X5478Y3658D01*
X5547Y3658D02*
X5578Y3658D01*
X5647Y3658D02*
X5678Y3658D01*
X5747Y3658D02*
X5778Y3658D01*
X4445Y3657D02*
X4480Y3657D01*
X4545Y3657D02*
X4580Y3657D01*
X4645Y3657D02*
X4680Y3657D01*
X4745Y3657D02*
X4780Y3657D01*
X4845Y3657D02*
X4880Y3657D01*
X4945Y3657D02*
X4980Y3657D01*
X5045Y3657D02*
X5080Y3657D01*
X5145Y3657D02*
X5180Y3657D01*
X5245Y3657D02*
X5280Y3657D01*
X5345Y3657D02*
X5380Y3657D01*
X5445Y3657D02*
X5480Y3657D01*
X5545Y3657D02*
X5580Y3657D01*
X5645Y3657D02*
X5680Y3657D01*
X5745Y3657D02*
X5780Y3657D01*
X4443Y3656D02*
X4481Y3656D01*
X4543Y3656D02*
X4581Y3656D01*
X4643Y3656D02*
X4681Y3656D01*
X4743Y3656D02*
X4781Y3656D01*
X4843Y3656D02*
X4881Y3656D01*
X4943Y3656D02*
X4981Y3656D01*
X5043Y3656D02*
X5081Y3656D01*
X5143Y3656D02*
X5181Y3656D01*
X5243Y3656D02*
X5281Y3656D01*
X5343Y3656D02*
X5381Y3656D01*
X5443Y3656D02*
X5481Y3656D01*
X5543Y3656D02*
X5581Y3656D01*
X5643Y3656D02*
X5681Y3656D01*
X5743Y3656D02*
X5781Y3656D01*
X4441Y3655D02*
X4483Y3655D01*
X4541Y3655D02*
X4583Y3655D01*
X4641Y3655D02*
X4683Y3655D01*
X4741Y3655D02*
X4783Y3655D01*
X4841Y3655D02*
X4883Y3655D01*
X4941Y3655D02*
X4983Y3655D01*
X5041Y3655D02*
X5083Y3655D01*
X5141Y3655D02*
X5183Y3655D01*
X5241Y3655D02*
X5283Y3655D01*
X5341Y3655D02*
X5383Y3655D01*
X5441Y3655D02*
X5483Y3655D01*
X5541Y3655D02*
X5583Y3655D01*
X5641Y3655D02*
X5683Y3655D01*
X5741Y3655D02*
X5783Y3655D01*
X4440Y3654D02*
X4485Y3654D01*
X4540Y3654D02*
X4585Y3654D01*
X4640Y3654D02*
X4685Y3654D01*
X4740Y3654D02*
X4785Y3654D01*
X4840Y3654D02*
X4885Y3654D01*
X4940Y3654D02*
X4985Y3654D01*
X5040Y3654D02*
X5085Y3654D01*
X5140Y3654D02*
X5185Y3654D01*
X5240Y3654D02*
X5285Y3654D01*
X5340Y3654D02*
X5385Y3654D01*
X5440Y3654D02*
X5485Y3654D01*
X5540Y3654D02*
X5585Y3654D01*
X5640Y3654D02*
X5685Y3654D01*
X5740Y3654D02*
X5785Y3654D01*
X4439Y3653D02*
X4486Y3653D01*
X4539Y3653D02*
X4586Y3653D01*
X4639Y3653D02*
X4686Y3653D01*
X4739Y3653D02*
X4786Y3653D01*
X4839Y3653D02*
X4886Y3653D01*
X4939Y3653D02*
X4986Y3653D01*
X5039Y3653D02*
X5086Y3653D01*
X5139Y3653D02*
X5186Y3653D01*
X5239Y3653D02*
X5286Y3653D01*
X5339Y3653D02*
X5386Y3653D01*
X5439Y3653D02*
X5486Y3653D01*
X5539Y3653D02*
X5586Y3653D01*
X5639Y3653D02*
X5686Y3653D01*
X5739Y3653D02*
X5786Y3653D01*
X4437Y3652D02*
X4487Y3652D01*
X4537Y3652D02*
X4587Y3652D01*
X4637Y3652D02*
X4687Y3652D01*
X4737Y3652D02*
X4787Y3652D01*
X4837Y3652D02*
X4887Y3652D01*
X4937Y3652D02*
X4987Y3652D01*
X5037Y3652D02*
X5087Y3652D01*
X5137Y3652D02*
X5187Y3652D01*
X5237Y3652D02*
X5287Y3652D01*
X5337Y3652D02*
X5387Y3652D01*
X5437Y3652D02*
X5487Y3652D01*
X5537Y3652D02*
X5587Y3652D01*
X5637Y3652D02*
X5687Y3652D01*
X5737Y3652D02*
X5787Y3652D01*
X4436Y3651D02*
X4488Y3651D01*
X4536Y3651D02*
X4588Y3651D01*
X4636Y3651D02*
X4688Y3651D01*
X4736Y3651D02*
X4788Y3651D01*
X4836Y3651D02*
X4888Y3651D01*
X4936Y3651D02*
X4988Y3651D01*
X5036Y3651D02*
X5088Y3651D01*
X5136Y3651D02*
X5188Y3651D01*
X5236Y3651D02*
X5288Y3651D01*
X5336Y3651D02*
X5388Y3651D01*
X5436Y3651D02*
X5488Y3651D01*
X5536Y3651D02*
X5588Y3651D01*
X5636Y3651D02*
X5688Y3651D01*
X5736Y3651D02*
X5788Y3651D01*
X4435Y3650D02*
X4490Y3650D01*
X4535Y3650D02*
X4590Y3650D01*
X4635Y3650D02*
X4690Y3650D01*
X4735Y3650D02*
X4790Y3650D01*
X4835Y3650D02*
X4890Y3650D01*
X4935Y3650D02*
X4990Y3650D01*
X5035Y3650D02*
X5090Y3650D01*
X5135Y3650D02*
X5190Y3650D01*
X5235Y3650D02*
X5290Y3650D01*
X5335Y3650D02*
X5390Y3650D01*
X5435Y3650D02*
X5490Y3650D01*
X5535Y3650D02*
X5590Y3650D01*
X5635Y3650D02*
X5690Y3650D01*
X5735Y3650D02*
X5790Y3650D01*
X4434Y3649D02*
X4491Y3649D01*
X4534Y3649D02*
X4591Y3649D01*
X4634Y3649D02*
X4691Y3649D01*
X4734Y3649D02*
X4791Y3649D01*
X4834Y3649D02*
X4891Y3649D01*
X4934Y3649D02*
X4991Y3649D01*
X5034Y3649D02*
X5091Y3649D01*
X5134Y3649D02*
X5191Y3649D01*
X5234Y3649D02*
X5291Y3649D01*
X5334Y3649D02*
X5391Y3649D01*
X5434Y3649D02*
X5491Y3649D01*
X5534Y3649D02*
X5591Y3649D01*
X5634Y3649D02*
X5691Y3649D01*
X5734Y3649D02*
X5791Y3649D01*
X4433Y3648D02*
X4491Y3648D01*
X4533Y3648D02*
X4591Y3648D01*
X4633Y3648D02*
X4691Y3648D01*
X4733Y3648D02*
X4791Y3648D01*
X4833Y3648D02*
X4891Y3648D01*
X4933Y3648D02*
X4991Y3648D01*
X5033Y3648D02*
X5091Y3648D01*
X5133Y3648D02*
X5191Y3648D01*
X5233Y3648D02*
X5291Y3648D01*
X5333Y3648D02*
X5391Y3648D01*
X5433Y3648D02*
X5491Y3648D01*
X5533Y3648D02*
X5591Y3648D01*
X5633Y3648D02*
X5691Y3648D01*
X5733Y3648D02*
X5791Y3648D01*
X4432Y3647D02*
X4492Y3647D01*
X4532Y3647D02*
X4592Y3647D01*
X4632Y3647D02*
X4692Y3647D01*
X4732Y3647D02*
X4792Y3647D01*
X4832Y3647D02*
X4892Y3647D01*
X4932Y3647D02*
X4992Y3647D01*
X5032Y3647D02*
X5092Y3647D01*
X5132Y3647D02*
X5192Y3647D01*
X5232Y3647D02*
X5292Y3647D01*
X5332Y3647D02*
X5392Y3647D01*
X5432Y3647D02*
X5492Y3647D01*
X5532Y3647D02*
X5592Y3647D01*
X5632Y3647D02*
X5692Y3647D01*
X5732Y3647D02*
X5792Y3647D01*
X4431Y3646D02*
X4493Y3646D01*
X4531Y3646D02*
X4593Y3646D01*
X4631Y3646D02*
X4693Y3646D01*
X4731Y3646D02*
X4793Y3646D01*
X4831Y3646D02*
X4893Y3646D01*
X4931Y3646D02*
X4993Y3646D01*
X5031Y3646D02*
X5093Y3646D01*
X5131Y3646D02*
X5193Y3646D01*
X5231Y3646D02*
X5293Y3646D01*
X5331Y3646D02*
X5393Y3646D01*
X5431Y3646D02*
X5493Y3646D01*
X5531Y3646D02*
X5593Y3646D01*
X5631Y3646D02*
X5693Y3646D01*
X5731Y3646D02*
X5793Y3646D01*
X4431Y3645D02*
X4494Y3645D01*
X4531Y3645D02*
X4594Y3645D01*
X4631Y3645D02*
X4694Y3645D01*
X4731Y3645D02*
X4794Y3645D01*
X4831Y3645D02*
X4894Y3645D01*
X4931Y3645D02*
X4994Y3645D01*
X5031Y3645D02*
X5094Y3645D01*
X5131Y3645D02*
X5194Y3645D01*
X5231Y3645D02*
X5294Y3645D01*
X5331Y3645D02*
X5394Y3645D01*
X5431Y3645D02*
X5494Y3645D01*
X5531Y3645D02*
X5594Y3645D01*
X5631Y3645D02*
X5694Y3645D01*
X5731Y3645D02*
X5794Y3645D01*
X4430Y3644D02*
X4495Y3644D01*
X4530Y3644D02*
X4595Y3644D01*
X4630Y3644D02*
X4695Y3644D01*
X4730Y3644D02*
X4795Y3644D01*
X4830Y3644D02*
X4895Y3644D01*
X4930Y3644D02*
X4995Y3644D01*
X5030Y3644D02*
X5095Y3644D01*
X5130Y3644D02*
X5195Y3644D01*
X5230Y3644D02*
X5295Y3644D01*
X5330Y3644D02*
X5395Y3644D01*
X5430Y3644D02*
X5495Y3644D01*
X5530Y3644D02*
X5595Y3644D01*
X5630Y3644D02*
X5695Y3644D01*
X5730Y3644D02*
X5795Y3644D01*
X4429Y3643D02*
X4495Y3643D01*
X4529Y3643D02*
X4595Y3643D01*
X4629Y3643D02*
X4695Y3643D01*
X4729Y3643D02*
X4795Y3643D01*
X4829Y3643D02*
X4895Y3643D01*
X4929Y3643D02*
X4995Y3643D01*
X5029Y3643D02*
X5095Y3643D01*
X5129Y3643D02*
X5195Y3643D01*
X5229Y3643D02*
X5295Y3643D01*
X5329Y3643D02*
X5395Y3643D01*
X5429Y3643D02*
X5495Y3643D01*
X5529Y3643D02*
X5595Y3643D01*
X5629Y3643D02*
X5695Y3643D01*
X5729Y3643D02*
X5795Y3643D01*
X4429Y3642D02*
X4496Y3642D01*
X4529Y3642D02*
X4596Y3642D01*
X4629Y3642D02*
X4696Y3642D01*
X4729Y3642D02*
X4796Y3642D01*
X4829Y3642D02*
X4896Y3642D01*
X4929Y3642D02*
X4996Y3642D01*
X5029Y3642D02*
X5096Y3642D01*
X5129Y3642D02*
X5196Y3642D01*
X5229Y3642D02*
X5296Y3642D01*
X5329Y3642D02*
X5396Y3642D01*
X5429Y3642D02*
X5496Y3642D01*
X5529Y3642D02*
X5596Y3642D01*
X5629Y3642D02*
X5696Y3642D01*
X5729Y3642D02*
X5796Y3642D01*
X4428Y3641D02*
X4496Y3641D01*
X4528Y3641D02*
X4596Y3641D01*
X4628Y3641D02*
X4696Y3641D01*
X4728Y3641D02*
X4796Y3641D01*
X4828Y3641D02*
X4896Y3641D01*
X4928Y3641D02*
X4996Y3641D01*
X5028Y3641D02*
X5096Y3641D01*
X5128Y3641D02*
X5196Y3641D01*
X5228Y3641D02*
X5296Y3641D01*
X5328Y3641D02*
X5396Y3641D01*
X5428Y3641D02*
X5496Y3641D01*
X5528Y3641D02*
X5596Y3641D01*
X5628Y3641D02*
X5696Y3641D01*
X5728Y3641D02*
X5796Y3641D01*
X4427Y3640D02*
X4497Y3640D01*
X4527Y3640D02*
X4597Y3640D01*
X4627Y3640D02*
X4697Y3640D01*
X4727Y3640D02*
X4797Y3640D01*
X4827Y3640D02*
X4897Y3640D01*
X4927Y3640D02*
X4997Y3640D01*
X5027Y3640D02*
X5097Y3640D01*
X5127Y3640D02*
X5197Y3640D01*
X5227Y3640D02*
X5297Y3640D01*
X5327Y3640D02*
X5397Y3640D01*
X5427Y3640D02*
X5497Y3640D01*
X5527Y3640D02*
X5597Y3640D01*
X5627Y3640D02*
X5697Y3640D01*
X5727Y3640D02*
X5797Y3640D01*
X4427Y3639D02*
X4498Y3639D01*
X4527Y3639D02*
X4598Y3639D01*
X4627Y3639D02*
X4698Y3639D01*
X4727Y3639D02*
X4798Y3639D01*
X4827Y3639D02*
X4898Y3639D01*
X4927Y3639D02*
X4998Y3639D01*
X5027Y3639D02*
X5098Y3639D01*
X5127Y3639D02*
X5198Y3639D01*
X5227Y3639D02*
X5298Y3639D01*
X5327Y3639D02*
X5398Y3639D01*
X5427Y3639D02*
X5498Y3639D01*
X5527Y3639D02*
X5598Y3639D01*
X5627Y3639D02*
X5698Y3639D01*
X5727Y3639D02*
X5798Y3639D01*
X4426Y3638D02*
X4498Y3638D01*
X4526Y3638D02*
X4598Y3638D01*
X4626Y3638D02*
X4698Y3638D01*
X4726Y3638D02*
X4798Y3638D01*
X4826Y3638D02*
X4898Y3638D01*
X4926Y3638D02*
X4998Y3638D01*
X5026Y3638D02*
X5098Y3638D01*
X5126Y3638D02*
X5198Y3638D01*
X5226Y3638D02*
X5298Y3638D01*
X5326Y3638D02*
X5398Y3638D01*
X5426Y3638D02*
X5498Y3638D01*
X5526Y3638D02*
X5598Y3638D01*
X5626Y3638D02*
X5698Y3638D01*
X5726Y3638D02*
X5798Y3638D01*
X4426Y3637D02*
X4499Y3637D01*
X4526Y3637D02*
X4599Y3637D01*
X4626Y3637D02*
X4699Y3637D01*
X4726Y3637D02*
X4799Y3637D01*
X4826Y3637D02*
X4899Y3637D01*
X4926Y3637D02*
X4999Y3637D01*
X5026Y3637D02*
X5099Y3637D01*
X5126Y3637D02*
X5199Y3637D01*
X5226Y3637D02*
X5299Y3637D01*
X5326Y3637D02*
X5399Y3637D01*
X5426Y3637D02*
X5499Y3637D01*
X5526Y3637D02*
X5599Y3637D01*
X5626Y3637D02*
X5699Y3637D01*
X5726Y3637D02*
X5799Y3637D01*
X4426Y3636D02*
X4499Y3636D01*
X4526Y3636D02*
X4599Y3636D01*
X4626Y3636D02*
X4699Y3636D01*
X4726Y3636D02*
X4799Y3636D01*
X4826Y3636D02*
X4899Y3636D01*
X4926Y3636D02*
X4999Y3636D01*
X5026Y3636D02*
X5099Y3636D01*
X5126Y3636D02*
X5199Y3636D01*
X5226Y3636D02*
X5299Y3636D01*
X5326Y3636D02*
X5399Y3636D01*
X5426Y3636D02*
X5499Y3636D01*
X5526Y3636D02*
X5599Y3636D01*
X5626Y3636D02*
X5699Y3636D01*
X5726Y3636D02*
X5799Y3636D01*
X4425Y3635D02*
X4499Y3635D01*
X4525Y3635D02*
X4599Y3635D01*
X4625Y3635D02*
X4699Y3635D01*
X4725Y3635D02*
X4799Y3635D01*
X4825Y3635D02*
X4899Y3635D01*
X4925Y3635D02*
X4999Y3635D01*
X5025Y3635D02*
X5099Y3635D01*
X5125Y3635D02*
X5199Y3635D01*
X5225Y3635D02*
X5299Y3635D01*
X5325Y3635D02*
X5399Y3635D01*
X5425Y3635D02*
X5499Y3635D01*
X5525Y3635D02*
X5599Y3635D01*
X5625Y3635D02*
X5699Y3635D01*
X5725Y3635D02*
X5799Y3635D01*
X4425Y3634D02*
X4500Y3634D01*
X4525Y3634D02*
X4600Y3634D01*
X4625Y3634D02*
X4700Y3634D01*
X4725Y3634D02*
X4800Y3634D01*
X4825Y3634D02*
X4900Y3634D01*
X4925Y3634D02*
X5000Y3634D01*
X5025Y3634D02*
X5100Y3634D01*
X5125Y3634D02*
X5200Y3634D01*
X5225Y3634D02*
X5300Y3634D01*
X5325Y3634D02*
X5400Y3634D01*
X5425Y3634D02*
X5500Y3634D01*
X5525Y3634D02*
X5600Y3634D01*
X5625Y3634D02*
X5700Y3634D01*
X5725Y3634D02*
X5800Y3634D01*
X4425Y3633D02*
X4500Y3633D01*
X4525Y3633D02*
X4600Y3633D01*
X4625Y3633D02*
X4700Y3633D01*
X4725Y3633D02*
X4800Y3633D01*
X4825Y3633D02*
X4900Y3633D01*
X4925Y3633D02*
X5000Y3633D01*
X5025Y3633D02*
X5100Y3633D01*
X5125Y3633D02*
X5200Y3633D01*
X5225Y3633D02*
X5300Y3633D01*
X5325Y3633D02*
X5400Y3633D01*
X5425Y3633D02*
X5500Y3633D01*
X5525Y3633D02*
X5600Y3633D01*
X5625Y3633D02*
X5700Y3633D01*
X5725Y3633D02*
X5800Y3633D01*
X4424Y3632D02*
X4500Y3632D01*
X4524Y3632D02*
X4600Y3632D01*
X4624Y3632D02*
X4700Y3632D01*
X4724Y3632D02*
X4800Y3632D01*
X4824Y3632D02*
X4900Y3632D01*
X4924Y3632D02*
X5000Y3632D01*
X5024Y3632D02*
X5100Y3632D01*
X5124Y3632D02*
X5200Y3632D01*
X5224Y3632D02*
X5300Y3632D01*
X5324Y3632D02*
X5400Y3632D01*
X5424Y3632D02*
X5500Y3632D01*
X5524Y3632D02*
X5600Y3632D01*
X5624Y3632D02*
X5700Y3632D01*
X5724Y3632D02*
X5800Y3632D01*
X4424Y3631D02*
X4500Y3631D01*
X4524Y3631D02*
X4600Y3631D01*
X4624Y3631D02*
X4700Y3631D01*
X4724Y3631D02*
X4800Y3631D01*
X4824Y3631D02*
X4900Y3631D01*
X4924Y3631D02*
X5000Y3631D01*
X5024Y3631D02*
X5100Y3631D01*
X5124Y3631D02*
X5200Y3631D01*
X5224Y3631D02*
X5300Y3631D01*
X5324Y3631D02*
X5400Y3631D01*
X5424Y3631D02*
X5500Y3631D01*
X5524Y3631D02*
X5600Y3631D01*
X5624Y3631D02*
X5700Y3631D01*
X5724Y3631D02*
X5800Y3631D01*
X4424Y3630D02*
X4501Y3630D01*
X4524Y3630D02*
X4601Y3630D01*
X4624Y3630D02*
X4701Y3630D01*
X4724Y3630D02*
X4801Y3630D01*
X4824Y3630D02*
X4901Y3630D01*
X4924Y3630D02*
X5001Y3630D01*
X5024Y3630D02*
X5101Y3630D01*
X5124Y3630D02*
X5201Y3630D01*
X5224Y3630D02*
X5301Y3630D01*
X5324Y3630D02*
X5401Y3630D01*
X5424Y3630D02*
X5501Y3630D01*
X5524Y3630D02*
X5601Y3630D01*
X5624Y3630D02*
X5701Y3630D01*
X5724Y3630D02*
X5801Y3630D01*
X4424Y3629D02*
X4501Y3629D01*
X4524Y3629D02*
X4601Y3629D01*
X4624Y3629D02*
X4701Y3629D01*
X4724Y3629D02*
X4801Y3629D01*
X4824Y3629D02*
X4901Y3629D01*
X4924Y3629D02*
X5001Y3629D01*
X5024Y3629D02*
X5101Y3629D01*
X5124Y3629D02*
X5201Y3629D01*
X5224Y3629D02*
X5301Y3629D01*
X5324Y3629D02*
X5401Y3629D01*
X5424Y3629D02*
X5501Y3629D01*
X5524Y3629D02*
X5601Y3629D01*
X5624Y3629D02*
X5701Y3629D01*
X5724Y3629D02*
X5801Y3629D01*
X4423Y3628D02*
X4501Y3628D01*
X4523Y3628D02*
X4601Y3628D01*
X4623Y3628D02*
X4701Y3628D01*
X4723Y3628D02*
X4801Y3628D01*
X4823Y3628D02*
X4901Y3628D01*
X4923Y3628D02*
X5001Y3628D01*
X5023Y3628D02*
X5101Y3628D01*
X5123Y3628D02*
X5201Y3628D01*
X5223Y3628D02*
X5301Y3628D01*
X5323Y3628D02*
X5401Y3628D01*
X5423Y3628D02*
X5501Y3628D01*
X5523Y3628D02*
X5601Y3628D01*
X5623Y3628D02*
X5701Y3628D01*
X5723Y3628D02*
X5801Y3628D01*
X4423Y3627D02*
X4501Y3627D01*
X4523Y3627D02*
X4601Y3627D01*
X4623Y3627D02*
X4701Y3627D01*
X4723Y3627D02*
X4801Y3627D01*
X4823Y3627D02*
X4901Y3627D01*
X4923Y3627D02*
X5001Y3627D01*
X5023Y3627D02*
X5101Y3627D01*
X5123Y3627D02*
X5201Y3627D01*
X5223Y3627D02*
X5301Y3627D01*
X5323Y3627D02*
X5401Y3627D01*
X5423Y3627D02*
X5501Y3627D01*
X5523Y3627D02*
X5601Y3627D01*
X5623Y3627D02*
X5701Y3627D01*
X5723Y3627D02*
X5801Y3627D01*
X4423Y3626D02*
X4501Y3626D01*
X4523Y3626D02*
X4601Y3626D01*
X4623Y3626D02*
X4701Y3626D01*
X4723Y3626D02*
X4801Y3626D01*
X4823Y3626D02*
X4901Y3626D01*
X4923Y3626D02*
X5001Y3626D01*
X5023Y3626D02*
X5101Y3626D01*
X5123Y3626D02*
X5201Y3626D01*
X5223Y3626D02*
X5301Y3626D01*
X5323Y3626D02*
X5401Y3626D01*
X5423Y3626D02*
X5501Y3626D01*
X5523Y3626D02*
X5601Y3626D01*
X5623Y3626D02*
X5701Y3626D01*
X5723Y3626D02*
X5801Y3626D01*
X4423Y3625D02*
X4502Y3625D01*
X4523Y3625D02*
X4602Y3625D01*
X4623Y3625D02*
X4702Y3625D01*
X4723Y3625D02*
X4802Y3625D01*
X4823Y3625D02*
X4902Y3625D01*
X4923Y3625D02*
X5002Y3625D01*
X5023Y3625D02*
X5102Y3625D01*
X5123Y3625D02*
X5202Y3625D01*
X5223Y3625D02*
X5302Y3625D01*
X5323Y3625D02*
X5402Y3625D01*
X5423Y3625D02*
X5502Y3625D01*
X5523Y3625D02*
X5602Y3625D01*
X5623Y3625D02*
X5702Y3625D01*
X5723Y3625D02*
X5801Y3625D01*
X4423Y3624D02*
X4502Y3624D01*
X4523Y3624D02*
X4602Y3624D01*
X4623Y3624D02*
X4702Y3624D01*
X4723Y3624D02*
X4802Y3624D01*
X4823Y3624D02*
X4902Y3624D01*
X4923Y3624D02*
X5002Y3624D01*
X5023Y3624D02*
X5102Y3624D01*
X5123Y3624D02*
X5202Y3624D01*
X5223Y3624D02*
X5302Y3624D01*
X5323Y3624D02*
X5402Y3624D01*
X5423Y3624D02*
X5502Y3624D01*
X5523Y3624D02*
X5602Y3624D01*
X5623Y3624D02*
X5702Y3624D01*
X5723Y3624D02*
X5802Y3624D01*
X4423Y3623D02*
X4502Y3623D01*
X4523Y3623D02*
X4602Y3623D01*
X4623Y3623D02*
X4702Y3623D01*
X4723Y3623D02*
X4802Y3623D01*
X4823Y3623D02*
X4902Y3623D01*
X4923Y3623D02*
X5002Y3623D01*
X5023Y3623D02*
X5102Y3623D01*
X5123Y3623D02*
X5202Y3623D01*
X5223Y3623D02*
X5302Y3623D01*
X5323Y3623D02*
X5402Y3623D01*
X5423Y3623D02*
X5502Y3623D01*
X5523Y3623D02*
X5602Y3623D01*
X5623Y3623D02*
X5702Y3623D01*
X5723Y3623D02*
X5802Y3623D01*
X4423Y3622D02*
X4502Y3622D01*
X4523Y3622D02*
X4602Y3622D01*
X4623Y3622D02*
X4702Y3622D01*
X4723Y3622D02*
X4802Y3622D01*
X4823Y3622D02*
X4902Y3622D01*
X4923Y3622D02*
X5002Y3622D01*
X5023Y3622D02*
X5102Y3622D01*
X5123Y3622D02*
X5202Y3622D01*
X5223Y3622D02*
X5302Y3622D01*
X5323Y3622D02*
X5402Y3622D01*
X5423Y3622D02*
X5502Y3622D01*
X5523Y3622D02*
X5602Y3622D01*
X5623Y3622D02*
X5702Y3622D01*
X5723Y3622D02*
X5802Y3622D01*
X4423Y3621D02*
X4502Y3621D01*
X4523Y3621D02*
X4602Y3621D01*
X4623Y3621D02*
X4702Y3621D01*
X4723Y3621D02*
X4802Y3621D01*
X4823Y3621D02*
X4902Y3621D01*
X4923Y3621D02*
X5002Y3621D01*
X5023Y3621D02*
X5102Y3621D01*
X5123Y3621D02*
X5202Y3621D01*
X5223Y3621D02*
X5302Y3621D01*
X5323Y3621D02*
X5402Y3621D01*
X5423Y3621D02*
X5502Y3621D01*
X5523Y3621D02*
X5602Y3621D01*
X5623Y3621D02*
X5702Y3621D01*
X5723Y3621D02*
X5802Y3621D01*
X4423Y3620D02*
X4502Y3620D01*
X4523Y3620D02*
X4602Y3620D01*
X4623Y3620D02*
X4702Y3620D01*
X4723Y3620D02*
X4802Y3620D01*
X4823Y3620D02*
X4902Y3620D01*
X4923Y3620D02*
X5002Y3620D01*
X5023Y3620D02*
X5102Y3620D01*
X5123Y3620D02*
X5202Y3620D01*
X5223Y3620D02*
X5302Y3620D01*
X5323Y3620D02*
X5402Y3620D01*
X5423Y3620D02*
X5502Y3620D01*
X5523Y3620D02*
X5602Y3620D01*
X5623Y3620D02*
X5702Y3620D01*
X5723Y3620D02*
X5802Y3620D01*
X4423Y3619D02*
X4502Y3619D01*
X4523Y3619D02*
X4602Y3619D01*
X4623Y3619D02*
X4702Y3619D01*
X4723Y3619D02*
X4802Y3619D01*
X4823Y3619D02*
X4902Y3619D01*
X4923Y3619D02*
X5002Y3619D01*
X5023Y3619D02*
X5102Y3619D01*
X5123Y3619D02*
X5202Y3619D01*
X5223Y3619D02*
X5302Y3619D01*
X5323Y3619D02*
X5402Y3619D01*
X5423Y3619D02*
X5502Y3619D01*
X5523Y3619D02*
X5602Y3619D01*
X5623Y3619D02*
X5702Y3619D01*
X5723Y3619D02*
X5802Y3619D01*
X4423Y3618D02*
X4502Y3618D01*
X4523Y3618D02*
X4602Y3618D01*
X4623Y3618D02*
X4702Y3618D01*
X4723Y3618D02*
X4802Y3618D01*
X4823Y3618D02*
X4902Y3618D01*
X4923Y3618D02*
X5002Y3618D01*
X5023Y3618D02*
X5102Y3618D01*
X5123Y3618D02*
X5202Y3618D01*
X5223Y3618D02*
X5302Y3618D01*
X5323Y3618D02*
X5402Y3618D01*
X5423Y3618D02*
X5502Y3618D01*
X5523Y3618D02*
X5602Y3618D01*
X5623Y3618D02*
X5702Y3618D01*
X5723Y3618D02*
X5802Y3618D01*
X4423Y3617D02*
X4501Y3617D01*
X4523Y3617D02*
X4601Y3617D01*
X4623Y3617D02*
X4701Y3617D01*
X4723Y3617D02*
X4801Y3617D01*
X4823Y3617D02*
X4901Y3617D01*
X4923Y3617D02*
X5001Y3617D01*
X5023Y3617D02*
X5101Y3617D01*
X5123Y3617D02*
X5201Y3617D01*
X5223Y3617D02*
X5301Y3617D01*
X5323Y3617D02*
X5401Y3617D01*
X5423Y3617D02*
X5501Y3617D01*
X5523Y3617D02*
X5601Y3617D01*
X5623Y3617D02*
X5701Y3617D01*
X5723Y3617D02*
X5801Y3617D01*
X4423Y3616D02*
X4501Y3616D01*
X4523Y3616D02*
X4601Y3616D01*
X4623Y3616D02*
X4701Y3616D01*
X4723Y3616D02*
X4801Y3616D01*
X4823Y3616D02*
X4901Y3616D01*
X4923Y3616D02*
X5001Y3616D01*
X5023Y3616D02*
X5101Y3616D01*
X5123Y3616D02*
X5201Y3616D01*
X5223Y3616D02*
X5301Y3616D01*
X5323Y3616D02*
X5401Y3616D01*
X5423Y3616D02*
X5501Y3616D01*
X5523Y3616D02*
X5601Y3616D01*
X5623Y3616D02*
X5701Y3616D01*
X5723Y3616D02*
X5801Y3616D01*
X4423Y3615D02*
X4501Y3615D01*
X4523Y3615D02*
X4601Y3615D01*
X4623Y3615D02*
X4701Y3615D01*
X4723Y3615D02*
X4801Y3615D01*
X4823Y3615D02*
X4901Y3615D01*
X4923Y3615D02*
X5001Y3615D01*
X5023Y3615D02*
X5101Y3615D01*
X5123Y3615D02*
X5201Y3615D01*
X5223Y3615D02*
X5301Y3615D01*
X5323Y3615D02*
X5401Y3615D01*
X5423Y3615D02*
X5501Y3615D01*
X5523Y3615D02*
X5601Y3615D01*
X5623Y3615D02*
X5701Y3615D01*
X5723Y3615D02*
X5801Y3615D01*
X4424Y3614D02*
X4501Y3614D01*
X4524Y3614D02*
X4601Y3614D01*
X4624Y3614D02*
X4701Y3614D01*
X4724Y3614D02*
X4801Y3614D01*
X4824Y3614D02*
X4901Y3614D01*
X4924Y3614D02*
X5001Y3614D01*
X5024Y3614D02*
X5101Y3614D01*
X5124Y3614D02*
X5201Y3614D01*
X5224Y3614D02*
X5301Y3614D01*
X5324Y3614D02*
X5401Y3614D01*
X5423Y3614D02*
X5501Y3614D01*
X5523Y3614D02*
X5601Y3614D01*
X5623Y3614D02*
X5701Y3614D01*
X5723Y3614D02*
X5801Y3614D01*
X4424Y3613D02*
X4501Y3613D01*
X4524Y3613D02*
X4601Y3613D01*
X4624Y3613D02*
X4701Y3613D01*
X4724Y3613D02*
X4801Y3613D01*
X4824Y3613D02*
X4901Y3613D01*
X4924Y3613D02*
X5001Y3613D01*
X5024Y3613D02*
X5101Y3613D01*
X5124Y3613D02*
X5201Y3613D01*
X5224Y3613D02*
X5301Y3613D01*
X5324Y3613D02*
X5401Y3613D01*
X5424Y3613D02*
X5501Y3613D01*
X5524Y3613D02*
X5601Y3613D01*
X5624Y3613D02*
X5701Y3613D01*
X5724Y3613D02*
X5801Y3613D01*
X4424Y3612D02*
X4501Y3612D01*
X4524Y3612D02*
X4601Y3612D01*
X4624Y3612D02*
X4701Y3612D01*
X4724Y3612D02*
X4801Y3612D01*
X4824Y3612D02*
X4901Y3612D01*
X4924Y3612D02*
X5001Y3612D01*
X5024Y3612D02*
X5101Y3612D01*
X5124Y3612D02*
X5201Y3612D01*
X5224Y3612D02*
X5301Y3612D01*
X5324Y3612D02*
X5401Y3612D01*
X5424Y3612D02*
X5501Y3612D01*
X5524Y3612D02*
X5601Y3612D01*
X5624Y3612D02*
X5701Y3612D01*
X5724Y3612D02*
X5801Y3612D01*
X4424Y3611D02*
X4500Y3611D01*
X4524Y3611D02*
X4600Y3611D01*
X4624Y3611D02*
X4700Y3611D01*
X4724Y3611D02*
X4800Y3611D01*
X4824Y3611D02*
X4900Y3611D01*
X4924Y3611D02*
X5000Y3611D01*
X5024Y3611D02*
X5100Y3611D01*
X5124Y3611D02*
X5200Y3611D01*
X5224Y3611D02*
X5300Y3611D01*
X5324Y3611D02*
X5400Y3611D01*
X5424Y3611D02*
X5500Y3611D01*
X5524Y3611D02*
X5600Y3611D01*
X5624Y3611D02*
X5700Y3611D01*
X5724Y3611D02*
X5800Y3611D01*
X4424Y3610D02*
X4500Y3610D01*
X4524Y3610D02*
X4600Y3610D01*
X4624Y3610D02*
X4700Y3610D01*
X4724Y3610D02*
X4800Y3610D01*
X4824Y3610D02*
X4900Y3610D01*
X4924Y3610D02*
X5000Y3610D01*
X5024Y3610D02*
X5100Y3610D01*
X5124Y3610D02*
X5200Y3610D01*
X5224Y3610D02*
X5300Y3610D01*
X5324Y3610D02*
X5400Y3610D01*
X5424Y3610D02*
X5500Y3610D01*
X5524Y3610D02*
X5600Y3610D01*
X5624Y3610D02*
X5700Y3610D01*
X5724Y3610D02*
X5800Y3610D01*
X4425Y3609D02*
X4500Y3609D01*
X4525Y3609D02*
X4600Y3609D01*
X4625Y3609D02*
X4700Y3609D01*
X4725Y3609D02*
X4800Y3609D01*
X4825Y3609D02*
X4900Y3609D01*
X4925Y3609D02*
X5000Y3609D01*
X5025Y3609D02*
X5100Y3609D01*
X5125Y3609D02*
X5200Y3609D01*
X5225Y3609D02*
X5300Y3609D01*
X5325Y3609D02*
X5400Y3609D01*
X5425Y3609D02*
X5500Y3609D01*
X5525Y3609D02*
X5600Y3609D01*
X5625Y3609D02*
X5700Y3609D01*
X5725Y3609D02*
X5800Y3609D01*
X4425Y3608D02*
X4499Y3608D01*
X4525Y3608D02*
X4599Y3608D01*
X4625Y3608D02*
X4699Y3608D01*
X4725Y3608D02*
X4799Y3608D01*
X4825Y3608D02*
X4899Y3608D01*
X4925Y3608D02*
X4999Y3608D01*
X5025Y3608D02*
X5099Y3608D01*
X5125Y3608D02*
X5199Y3608D01*
X5225Y3608D02*
X5299Y3608D01*
X5325Y3608D02*
X5399Y3608D01*
X5425Y3608D02*
X5499Y3608D01*
X5525Y3608D02*
X5599Y3608D01*
X5625Y3608D02*
X5699Y3608D01*
X5725Y3608D02*
X5799Y3608D01*
X4425Y3607D02*
X4499Y3607D01*
X4525Y3607D02*
X4599Y3607D01*
X4625Y3607D02*
X4699Y3607D01*
X4725Y3607D02*
X4799Y3607D01*
X4825Y3607D02*
X4899Y3607D01*
X4925Y3607D02*
X4999Y3607D01*
X5025Y3607D02*
X5099Y3607D01*
X5125Y3607D02*
X5199Y3607D01*
X5225Y3607D02*
X5299Y3607D01*
X5325Y3607D02*
X5399Y3607D01*
X5425Y3607D02*
X5499Y3607D01*
X5525Y3607D02*
X5599Y3607D01*
X5625Y3607D02*
X5699Y3607D01*
X5725Y3607D02*
X5799Y3607D01*
X4426Y3606D02*
X4499Y3606D01*
X4526Y3606D02*
X4599Y3606D01*
X4626Y3606D02*
X4699Y3606D01*
X4726Y3606D02*
X4799Y3606D01*
X4826Y3606D02*
X4899Y3606D01*
X4926Y3606D02*
X4999Y3606D01*
X5026Y3606D02*
X5099Y3606D01*
X5126Y3606D02*
X5199Y3606D01*
X5226Y3606D02*
X5299Y3606D01*
X5326Y3606D02*
X5399Y3606D01*
X5426Y3606D02*
X5499Y3606D01*
X5526Y3606D02*
X5599Y3606D01*
X5626Y3606D02*
X5699Y3606D01*
X5726Y3606D02*
X5799Y3606D01*
X4426Y3605D02*
X4498Y3605D01*
X4526Y3605D02*
X4598Y3605D01*
X4626Y3605D02*
X4698Y3605D01*
X4726Y3605D02*
X4798Y3605D01*
X4826Y3605D02*
X4898Y3605D01*
X4926Y3605D02*
X4998Y3605D01*
X5026Y3605D02*
X5098Y3605D01*
X5126Y3605D02*
X5198Y3605D01*
X5226Y3605D02*
X5298Y3605D01*
X5326Y3605D02*
X5398Y3605D01*
X5426Y3605D02*
X5498Y3605D01*
X5526Y3605D02*
X5598Y3605D01*
X5626Y3605D02*
X5698Y3605D01*
X5726Y3605D02*
X5798Y3605D01*
X4427Y3604D02*
X4498Y3604D01*
X4527Y3604D02*
X4598Y3604D01*
X4627Y3604D02*
X4698Y3604D01*
X4727Y3604D02*
X4798Y3604D01*
X4827Y3604D02*
X4898Y3604D01*
X4927Y3604D02*
X4998Y3604D01*
X5027Y3604D02*
X5098Y3604D01*
X5127Y3604D02*
X5198Y3604D01*
X5227Y3604D02*
X5298Y3604D01*
X5327Y3604D02*
X5398Y3604D01*
X5427Y3604D02*
X5498Y3604D01*
X5527Y3604D02*
X5598Y3604D01*
X5627Y3604D02*
X5698Y3604D01*
X5727Y3604D02*
X5798Y3604D01*
X4427Y3603D02*
X4497Y3603D01*
X4527Y3603D02*
X4597Y3603D01*
X4627Y3603D02*
X4697Y3603D01*
X4727Y3603D02*
X4797Y3603D01*
X4827Y3603D02*
X4897Y3603D01*
X4927Y3603D02*
X4997Y3603D01*
X5027Y3603D02*
X5097Y3603D01*
X5127Y3603D02*
X5197Y3603D01*
X5227Y3603D02*
X5297Y3603D01*
X5327Y3603D02*
X5397Y3603D01*
X5427Y3603D02*
X5497Y3603D01*
X5527Y3603D02*
X5597Y3603D01*
X5627Y3603D02*
X5697Y3603D01*
X5727Y3603D02*
X5797Y3603D01*
X4428Y3602D02*
X4497Y3602D01*
X4528Y3602D02*
X4597Y3602D01*
X4628Y3602D02*
X4697Y3602D01*
X4728Y3602D02*
X4797Y3602D01*
X4828Y3602D02*
X4897Y3602D01*
X4928Y3602D02*
X4997Y3602D01*
X5028Y3602D02*
X5097Y3602D01*
X5128Y3602D02*
X5197Y3602D01*
X5228Y3602D02*
X5297Y3602D01*
X5328Y3602D02*
X5397Y3602D01*
X5428Y3602D02*
X5497Y3602D01*
X5528Y3602D02*
X5597Y3602D01*
X5628Y3602D02*
X5697Y3602D01*
X5728Y3602D02*
X5797Y3602D01*
X4428Y3601D02*
X4496Y3601D01*
X4528Y3601D02*
X4596Y3601D01*
X4628Y3601D02*
X4696Y3601D01*
X4728Y3601D02*
X4796Y3601D01*
X4828Y3601D02*
X4896Y3601D01*
X4928Y3601D02*
X4996Y3601D01*
X5028Y3601D02*
X5096Y3601D01*
X5128Y3601D02*
X5196Y3601D01*
X5228Y3601D02*
X5296Y3601D01*
X5328Y3601D02*
X5396Y3601D01*
X5428Y3601D02*
X5496Y3601D01*
X5528Y3601D02*
X5596Y3601D01*
X5628Y3601D02*
X5696Y3601D01*
X5728Y3601D02*
X5796Y3601D01*
X4429Y3600D02*
X4496Y3600D01*
X4529Y3600D02*
X4596Y3600D01*
X4629Y3600D02*
X4696Y3600D01*
X4729Y3600D02*
X4796Y3600D01*
X4829Y3600D02*
X4896Y3600D01*
X4929Y3600D02*
X4996Y3600D01*
X5029Y3600D02*
X5096Y3600D01*
X5129Y3600D02*
X5195Y3600D01*
X5229Y3600D02*
X5295Y3600D01*
X5329Y3600D02*
X5395Y3600D01*
X5429Y3600D02*
X5495Y3600D01*
X5529Y3600D02*
X5595Y3600D01*
X5629Y3600D02*
X5695Y3600D01*
X5729Y3600D02*
X5795Y3600D01*
X4430Y3599D02*
X4495Y3599D01*
X4530Y3599D02*
X4595Y3599D01*
X4630Y3599D02*
X4695Y3599D01*
X4730Y3599D02*
X4795Y3599D01*
X4830Y3599D02*
X4895Y3599D01*
X4930Y3599D02*
X4995Y3599D01*
X5030Y3599D02*
X5095Y3599D01*
X5130Y3599D02*
X5195Y3599D01*
X5230Y3599D02*
X5295Y3599D01*
X5330Y3599D02*
X5395Y3599D01*
X5430Y3599D02*
X5495Y3599D01*
X5530Y3599D02*
X5595Y3599D01*
X5630Y3599D02*
X5695Y3599D01*
X5730Y3599D02*
X5795Y3599D01*
X4430Y3598D02*
X4494Y3598D01*
X4530Y3598D02*
X4594Y3598D01*
X4630Y3598D02*
X4694Y3598D01*
X4730Y3598D02*
X4794Y3598D01*
X4830Y3598D02*
X4894Y3598D01*
X4930Y3598D02*
X4994Y3598D01*
X5030Y3598D02*
X5094Y3598D01*
X5130Y3598D02*
X5194Y3598D01*
X5230Y3598D02*
X5294Y3598D01*
X5330Y3598D02*
X5394Y3598D01*
X5430Y3598D02*
X5494Y3598D01*
X5530Y3598D02*
X5594Y3598D01*
X5630Y3598D02*
X5694Y3598D01*
X5730Y3598D02*
X5794Y3598D01*
X4431Y3597D02*
X4493Y3597D01*
X4531Y3597D02*
X4593Y3597D01*
X4631Y3597D02*
X4693Y3597D01*
X4731Y3597D02*
X4793Y3597D01*
X4831Y3597D02*
X4893Y3597D01*
X4931Y3597D02*
X4993Y3597D01*
X5031Y3597D02*
X5093Y3597D01*
X5131Y3597D02*
X5193Y3597D01*
X5231Y3597D02*
X5293Y3597D01*
X5331Y3597D02*
X5393Y3597D01*
X5431Y3597D02*
X5493Y3597D01*
X5531Y3597D02*
X5593Y3597D01*
X5631Y3597D02*
X5693Y3597D01*
X5731Y3597D02*
X5793Y3597D01*
X4432Y3596D02*
X4493Y3596D01*
X4532Y3596D02*
X4593Y3596D01*
X4632Y3596D02*
X4693Y3596D01*
X4732Y3596D02*
X4793Y3596D01*
X4832Y3596D02*
X4893Y3596D01*
X4932Y3596D02*
X4993Y3596D01*
X5032Y3596D02*
X5093Y3596D01*
X5132Y3596D02*
X5193Y3596D01*
X5232Y3596D02*
X5293Y3596D01*
X5332Y3596D02*
X5393Y3596D01*
X5432Y3596D02*
X5493Y3596D01*
X5532Y3596D02*
X5593Y3596D01*
X5632Y3596D02*
X5693Y3596D01*
X5732Y3596D02*
X5793Y3596D01*
X4433Y3595D02*
X4492Y3595D01*
X4533Y3595D02*
X4592Y3595D01*
X4633Y3595D02*
X4692Y3595D01*
X4733Y3595D02*
X4792Y3595D01*
X4833Y3595D02*
X4892Y3595D01*
X4933Y3595D02*
X4992Y3595D01*
X5033Y3595D02*
X5092Y3595D01*
X5133Y3595D02*
X5192Y3595D01*
X5233Y3595D02*
X5292Y3595D01*
X5333Y3595D02*
X5392Y3595D01*
X5433Y3595D02*
X5492Y3595D01*
X5533Y3595D02*
X5592Y3595D01*
X5633Y3595D02*
X5692Y3595D01*
X5733Y3595D02*
X5792Y3595D01*
X4434Y3594D02*
X4491Y3594D01*
X4534Y3594D02*
X4591Y3594D01*
X4634Y3594D02*
X4691Y3594D01*
X4734Y3594D02*
X4791Y3594D01*
X4834Y3594D02*
X4891Y3594D01*
X4934Y3594D02*
X4991Y3594D01*
X5034Y3594D02*
X5091Y3594D01*
X5134Y3594D02*
X5191Y3594D01*
X5234Y3594D02*
X5291Y3594D01*
X5334Y3594D02*
X5391Y3594D01*
X5434Y3594D02*
X5491Y3594D01*
X5534Y3594D02*
X5591Y3594D01*
X5634Y3594D02*
X5691Y3594D01*
X5734Y3594D02*
X5791Y3594D01*
X4435Y3593D02*
X4490Y3593D01*
X4535Y3593D02*
X4590Y3593D01*
X4635Y3593D02*
X4690Y3593D01*
X4735Y3593D02*
X4790Y3593D01*
X4835Y3593D02*
X4890Y3593D01*
X4935Y3593D02*
X4990Y3593D01*
X5034Y3593D02*
X5090Y3593D01*
X5134Y3593D02*
X5190Y3593D01*
X5234Y3593D02*
X5290Y3593D01*
X5334Y3593D02*
X5390Y3593D01*
X5434Y3593D02*
X5490Y3593D01*
X5534Y3593D02*
X5590Y3593D01*
X5634Y3593D02*
X5690Y3593D01*
X5734Y3593D02*
X5790Y3593D01*
X4436Y3592D02*
X4489Y3592D01*
X4536Y3592D02*
X4589Y3592D01*
X4636Y3592D02*
X4689Y3592D01*
X4736Y3592D02*
X4789Y3592D01*
X4836Y3592D02*
X4889Y3592D01*
X4936Y3592D02*
X4989Y3592D01*
X5036Y3592D02*
X5089Y3592D01*
X5136Y3592D02*
X5189Y3592D01*
X5236Y3592D02*
X5289Y3592D01*
X5336Y3592D02*
X5389Y3592D01*
X5436Y3592D02*
X5489Y3592D01*
X5536Y3592D02*
X5589Y3592D01*
X5636Y3592D02*
X5689Y3592D01*
X5736Y3592D02*
X5789Y3592D01*
X4437Y3591D02*
X4488Y3591D01*
X4537Y3591D02*
X4588Y3591D01*
X4637Y3591D02*
X4688Y3591D01*
X4737Y3591D02*
X4788Y3591D01*
X4837Y3591D02*
X4888Y3591D01*
X4937Y3591D02*
X4988Y3591D01*
X5037Y3591D02*
X5088Y3591D01*
X5137Y3591D02*
X5188Y3591D01*
X5237Y3591D02*
X5288Y3591D01*
X5337Y3591D02*
X5388Y3591D01*
X5437Y3591D02*
X5488Y3591D01*
X5537Y3591D02*
X5588Y3591D01*
X5637Y3591D02*
X5688Y3591D01*
X5737Y3591D02*
X5788Y3591D01*
X4438Y3590D02*
X4487Y3590D01*
X4538Y3590D02*
X4587Y3590D01*
X4638Y3590D02*
X4687Y3590D01*
X4738Y3590D02*
X4787Y3590D01*
X4838Y3590D02*
X4887Y3590D01*
X4938Y3590D02*
X4987Y3590D01*
X5038Y3590D02*
X5087Y3590D01*
X5138Y3590D02*
X5187Y3590D01*
X5238Y3590D02*
X5287Y3590D01*
X5338Y3590D02*
X5387Y3590D01*
X5438Y3590D02*
X5487Y3590D01*
X5538Y3590D02*
X5587Y3590D01*
X5638Y3590D02*
X5687Y3590D01*
X5738Y3590D02*
X5787Y3590D01*
X4439Y3589D02*
X4485Y3589D01*
X4539Y3589D02*
X4585Y3589D01*
X4639Y3589D02*
X4685Y3589D01*
X4739Y3589D02*
X4785Y3589D01*
X4839Y3589D02*
X4885Y3589D01*
X4939Y3589D02*
X4985Y3589D01*
X5039Y3589D02*
X5085Y3589D01*
X5139Y3589D02*
X5185Y3589D01*
X5239Y3589D02*
X5285Y3589D01*
X5339Y3589D02*
X5385Y3589D01*
X5439Y3589D02*
X5485Y3589D01*
X5539Y3589D02*
X5585Y3589D01*
X5639Y3589D02*
X5685Y3589D01*
X5739Y3589D02*
X5785Y3589D01*
X4441Y3588D02*
X4484Y3588D01*
X4541Y3588D02*
X4584Y3588D01*
X4641Y3588D02*
X4684Y3588D01*
X4741Y3588D02*
X4784Y3588D01*
X4841Y3588D02*
X4884Y3588D01*
X4941Y3588D02*
X4984Y3588D01*
X5041Y3588D02*
X5084Y3588D01*
X5141Y3588D02*
X5184Y3588D01*
X5241Y3588D02*
X5284Y3588D01*
X5341Y3588D02*
X5384Y3588D01*
X5441Y3588D02*
X5484Y3588D01*
X5541Y3588D02*
X5584Y3588D01*
X5641Y3588D02*
X5684Y3588D01*
X5741Y3588D02*
X5784Y3588D01*
X4442Y3587D02*
X4482Y3587D01*
X4542Y3587D02*
X4582Y3587D01*
X4642Y3587D02*
X4682Y3587D01*
X4742Y3587D02*
X4782Y3587D01*
X4842Y3587D02*
X4882Y3587D01*
X4942Y3587D02*
X4982Y3587D01*
X5042Y3587D02*
X5082Y3587D01*
X5142Y3587D02*
X5182Y3587D01*
X5242Y3587D02*
X5282Y3587D01*
X5342Y3587D02*
X5382Y3587D01*
X5442Y3587D02*
X5482Y3587D01*
X5542Y3587D02*
X5582Y3587D01*
X5642Y3587D02*
X5682Y3587D01*
X5742Y3587D02*
X5782Y3587D01*
X4444Y3586D02*
X4481Y3586D01*
X4544Y3586D02*
X4581Y3586D01*
X4644Y3586D02*
X4681Y3586D01*
X4744Y3586D02*
X4781Y3586D01*
X4844Y3586D02*
X4881Y3586D01*
X4944Y3586D02*
X4981Y3586D01*
X5044Y3586D02*
X5080Y3586D01*
X5144Y3586D02*
X5180Y3586D01*
X5244Y3586D02*
X5280Y3586D01*
X5344Y3586D02*
X5380Y3586D01*
X5444Y3586D02*
X5480Y3586D01*
X5544Y3586D02*
X5580Y3586D01*
X5644Y3586D02*
X5680Y3586D01*
X5744Y3586D02*
X5780Y3586D01*
X4446Y3585D02*
X4478Y3585D01*
X4546Y3585D02*
X4578Y3585D01*
X4646Y3585D02*
X4678Y3585D01*
X4746Y3585D02*
X4778Y3585D01*
X4846Y3585D02*
X4878Y3585D01*
X4946Y3585D02*
X4978Y3585D01*
X5046Y3585D02*
X5078Y3585D01*
X5146Y3585D02*
X5178Y3585D01*
X5246Y3585D02*
X5278Y3585D01*
X5346Y3585D02*
X5378Y3585D01*
X5446Y3585D02*
X5478Y3585D01*
X5546Y3585D02*
X5578Y3585D01*
X5646Y3585D02*
X5678Y3585D01*
X5746Y3585D02*
X5778Y3585D01*
X4448Y3584D02*
X4476Y3584D01*
X4548Y3584D02*
X4576Y3584D01*
X4648Y3584D02*
X4676Y3584D01*
X4748Y3584D02*
X4776Y3584D01*
X4848Y3584D02*
X4876Y3584D01*
X4948Y3584D02*
X4976Y3584D01*
X5048Y3584D02*
X5076Y3584D01*
X5148Y3584D02*
X5176Y3584D01*
X5248Y3584D02*
X5276Y3584D01*
X5348Y3584D02*
X5376Y3584D01*
X5448Y3584D02*
X5476Y3584D01*
X5548Y3584D02*
X5576Y3584D01*
X5648Y3584D02*
X5676Y3584D01*
X5748Y3584D02*
X5776Y3584D01*
X4451Y3583D02*
X4473Y3583D01*
X4551Y3583D02*
X4573Y3583D01*
X4651Y3583D02*
X4673Y3583D01*
X4751Y3583D02*
X4773Y3583D01*
X4851Y3583D02*
X4873Y3583D01*
X4951Y3583D02*
X4973Y3583D01*
X5051Y3583D02*
X5073Y3583D01*
X5151Y3583D02*
X5173Y3583D01*
X5251Y3583D02*
X5273Y3583D01*
X5351Y3583D02*
X5373Y3583D01*
X5451Y3583D02*
X5473Y3583D01*
X5551Y3583D02*
X5573Y3583D01*
X5651Y3583D02*
X5673Y3583D01*
X5751Y3583D02*
X5773Y3583D01*
X4456Y3582D02*
X4469Y3582D01*
X4556Y3582D02*
X4569Y3582D01*
X4656Y3582D02*
X4669Y3582D01*
X4756Y3582D02*
X4769Y3582D01*
X4856Y3582D02*
X4869Y3582D01*
X4956Y3582D02*
X4969Y3582D01*
X5056Y3582D02*
X5069Y3582D01*
X5156Y3582D02*
X5169Y3582D01*
X5256Y3582D02*
X5269Y3582D01*
X5356Y3582D02*
X5369Y3582D01*
X5456Y3582D02*
X5469Y3582D01*
X5556Y3582D02*
X5569Y3582D01*
X5656Y3582D02*
X5669Y3582D01*
X5756Y3582D02*
X5769Y3582D01*
X4458Y3361D02*
X4466Y3361D01*
X4558Y3361D02*
X4566Y3361D01*
X4658Y3361D02*
X4666Y3361D01*
X4758Y3361D02*
X4766Y3361D01*
X4858Y3361D02*
X4866Y3361D01*
X4958Y3361D02*
X4966Y3361D01*
X5058Y3361D02*
X5066Y3361D01*
X5158Y3361D02*
X5166Y3361D01*
X5258Y3361D02*
X5266Y3361D01*
X5358Y3361D02*
X5366Y3361D01*
X5458Y3361D02*
X5466Y3361D01*
X5558Y3361D02*
X5566Y3361D01*
X5658Y3361D02*
X5666Y3361D01*
X5758Y3361D02*
X5766Y3361D01*
X4453Y3360D02*
X4472Y3360D01*
X4553Y3360D02*
X4572Y3360D01*
X4653Y3360D02*
X4672Y3360D01*
X4753Y3360D02*
X4772Y3360D01*
X4853Y3360D02*
X4872Y3360D01*
X4953Y3360D02*
X4972Y3360D01*
X5053Y3360D02*
X5072Y3360D01*
X5153Y3360D02*
X5172Y3360D01*
X5253Y3360D02*
X5272Y3360D01*
X5353Y3360D02*
X5372Y3360D01*
X5453Y3360D02*
X5472Y3360D01*
X5553Y3360D02*
X5572Y3360D01*
X5653Y3360D02*
X5672Y3360D01*
X5753Y3360D02*
X5772Y3360D01*
X4450Y3359D02*
X4475Y3359D01*
X4550Y3359D02*
X4575Y3359D01*
X4650Y3359D02*
X4675Y3359D01*
X4749Y3359D02*
X4775Y3359D01*
X4849Y3359D02*
X4875Y3359D01*
X4949Y3359D02*
X4975Y3359D01*
X5049Y3359D02*
X5075Y3359D01*
X5149Y3359D02*
X5175Y3359D01*
X5249Y3359D02*
X5275Y3359D01*
X5349Y3359D02*
X5375Y3359D01*
X5449Y3359D02*
X5475Y3359D01*
X5549Y3359D02*
X5575Y3359D01*
X5649Y3359D02*
X5675Y3359D01*
X5749Y3359D02*
X5775Y3359D01*
X4447Y3358D02*
X4478Y3358D01*
X4547Y3358D02*
X4578Y3358D01*
X4647Y3358D02*
X4678Y3358D01*
X4747Y3358D02*
X4778Y3358D01*
X4847Y3358D02*
X4878Y3358D01*
X4947Y3358D02*
X4978Y3358D01*
X5047Y3358D02*
X5078Y3358D01*
X5147Y3358D02*
X5178Y3358D01*
X5247Y3358D02*
X5278Y3358D01*
X5347Y3358D02*
X5378Y3358D01*
X5447Y3358D02*
X5478Y3358D01*
X5547Y3358D02*
X5578Y3358D01*
X5647Y3358D02*
X5678Y3358D01*
X5747Y3358D02*
X5778Y3358D01*
X4445Y3357D02*
X4480Y3357D01*
X4545Y3357D02*
X4580Y3357D01*
X4645Y3357D02*
X4680Y3357D01*
X4745Y3357D02*
X4780Y3357D01*
X4845Y3357D02*
X4880Y3357D01*
X4945Y3357D02*
X4980Y3357D01*
X5045Y3357D02*
X5080Y3357D01*
X5145Y3357D02*
X5180Y3357D01*
X5245Y3357D02*
X5280Y3357D01*
X5345Y3357D02*
X5380Y3357D01*
X5445Y3357D02*
X5480Y3357D01*
X5545Y3357D02*
X5580Y3357D01*
X5645Y3357D02*
X5680Y3357D01*
X5745Y3357D02*
X5780Y3357D01*
X4443Y3356D02*
X4482Y3356D01*
X4543Y3356D02*
X4582Y3356D01*
X4643Y3356D02*
X4682Y3356D01*
X4743Y3356D02*
X4782Y3356D01*
X4843Y3356D02*
X4882Y3356D01*
X4943Y3356D02*
X4982Y3356D01*
X5043Y3356D02*
X5082Y3356D01*
X5143Y3356D02*
X5182Y3356D01*
X5243Y3356D02*
X5282Y3356D01*
X5343Y3356D02*
X5382Y3356D01*
X5443Y3356D02*
X5482Y3356D01*
X5543Y3356D02*
X5582Y3356D01*
X5643Y3356D02*
X5682Y3356D01*
X5743Y3356D02*
X5782Y3356D01*
X4441Y3355D02*
X4483Y3355D01*
X4541Y3355D02*
X4583Y3355D01*
X4641Y3355D02*
X4683Y3355D01*
X4741Y3355D02*
X4783Y3355D01*
X4841Y3355D02*
X4883Y3355D01*
X4941Y3355D02*
X4983Y3355D01*
X5041Y3355D02*
X5083Y3355D01*
X5141Y3355D02*
X5183Y3355D01*
X5241Y3355D02*
X5283Y3355D01*
X5341Y3355D02*
X5383Y3355D01*
X5441Y3355D02*
X5483Y3355D01*
X5541Y3355D02*
X5583Y3355D01*
X5641Y3355D02*
X5683Y3355D01*
X5741Y3355D02*
X5783Y3355D01*
X4440Y3354D02*
X4485Y3354D01*
X4540Y3354D02*
X4585Y3354D01*
X4640Y3354D02*
X4685Y3354D01*
X4740Y3354D02*
X4785Y3354D01*
X4840Y3354D02*
X4885Y3354D01*
X4940Y3354D02*
X4985Y3354D01*
X5040Y3354D02*
X5085Y3354D01*
X5140Y3354D02*
X5185Y3354D01*
X5240Y3354D02*
X5285Y3354D01*
X5340Y3354D02*
X5385Y3354D01*
X5440Y3354D02*
X5485Y3354D01*
X5540Y3354D02*
X5585Y3354D01*
X5640Y3354D02*
X5685Y3354D01*
X5740Y3354D02*
X5785Y3354D01*
X4439Y3353D02*
X4486Y3353D01*
X4539Y3353D02*
X4586Y3353D01*
X4638Y3353D02*
X4686Y3353D01*
X4738Y3353D02*
X4786Y3353D01*
X4838Y3353D02*
X4886Y3353D01*
X4938Y3353D02*
X4986Y3353D01*
X5038Y3353D02*
X5086Y3353D01*
X5138Y3353D02*
X5186Y3353D01*
X5238Y3353D02*
X5286Y3353D01*
X5338Y3353D02*
X5386Y3353D01*
X5438Y3353D02*
X5486Y3353D01*
X5538Y3353D02*
X5586Y3353D01*
X5638Y3353D02*
X5686Y3353D01*
X5738Y3353D02*
X5786Y3353D01*
X4437Y3352D02*
X4487Y3352D01*
X4537Y3352D02*
X4587Y3352D01*
X4637Y3352D02*
X4687Y3352D01*
X4737Y3352D02*
X4787Y3352D01*
X4837Y3352D02*
X4887Y3352D01*
X4937Y3352D02*
X4987Y3352D01*
X5037Y3352D02*
X5087Y3352D01*
X5137Y3352D02*
X5187Y3352D01*
X5237Y3352D02*
X5287Y3352D01*
X5337Y3352D02*
X5387Y3352D01*
X5437Y3352D02*
X5487Y3352D01*
X5537Y3352D02*
X5587Y3352D01*
X5637Y3352D02*
X5687Y3352D01*
X5737Y3352D02*
X5787Y3352D01*
X4436Y3351D02*
X4489Y3351D01*
X4536Y3351D02*
X4589Y3351D01*
X4636Y3351D02*
X4688Y3351D01*
X4736Y3351D02*
X4788Y3351D01*
X4836Y3351D02*
X4888Y3351D01*
X4936Y3351D02*
X4988Y3351D01*
X5036Y3351D02*
X5088Y3351D01*
X5136Y3351D02*
X5188Y3351D01*
X5236Y3351D02*
X5288Y3351D01*
X5336Y3351D02*
X5388Y3351D01*
X5436Y3351D02*
X5488Y3351D01*
X5536Y3351D02*
X5588Y3351D01*
X5636Y3351D02*
X5688Y3351D01*
X5736Y3351D02*
X5788Y3351D01*
X4435Y3350D02*
X4490Y3350D01*
X4535Y3350D02*
X4590Y3350D01*
X4635Y3350D02*
X4690Y3350D01*
X4735Y3350D02*
X4790Y3350D01*
X4835Y3350D02*
X4890Y3350D01*
X4935Y3350D02*
X4990Y3350D01*
X5035Y3350D02*
X5090Y3350D01*
X5135Y3350D02*
X5190Y3350D01*
X5235Y3350D02*
X5290Y3350D01*
X5335Y3350D02*
X5390Y3350D01*
X5435Y3350D02*
X5490Y3350D01*
X5535Y3350D02*
X5590Y3350D01*
X5635Y3350D02*
X5690Y3350D01*
X5735Y3350D02*
X5790Y3350D01*
X4434Y3349D02*
X4491Y3349D01*
X4534Y3349D02*
X4591Y3349D01*
X4634Y3349D02*
X4691Y3349D01*
X4734Y3349D02*
X4791Y3349D01*
X4834Y3349D02*
X4891Y3349D01*
X4934Y3349D02*
X4991Y3349D01*
X5034Y3349D02*
X5091Y3349D01*
X5134Y3349D02*
X5191Y3349D01*
X5234Y3349D02*
X5291Y3349D01*
X5334Y3349D02*
X5391Y3349D01*
X5434Y3349D02*
X5491Y3349D01*
X5534Y3349D02*
X5591Y3349D01*
X5634Y3349D02*
X5691Y3349D01*
X5734Y3349D02*
X5791Y3349D01*
X4433Y3348D02*
X4491Y3348D01*
X4533Y3348D02*
X4591Y3348D01*
X4633Y3348D02*
X4691Y3348D01*
X4733Y3348D02*
X4791Y3348D01*
X4833Y3348D02*
X4891Y3348D01*
X4933Y3348D02*
X4991Y3348D01*
X5033Y3348D02*
X5091Y3348D01*
X5133Y3348D02*
X5191Y3348D01*
X5233Y3348D02*
X5291Y3348D01*
X5333Y3348D02*
X5391Y3348D01*
X5433Y3348D02*
X5491Y3348D01*
X5533Y3348D02*
X5591Y3348D01*
X5633Y3348D02*
X5691Y3348D01*
X5733Y3348D02*
X5791Y3348D01*
X4432Y3347D02*
X4492Y3347D01*
X4532Y3347D02*
X4592Y3347D01*
X4632Y3347D02*
X4692Y3347D01*
X4732Y3347D02*
X4792Y3347D01*
X4832Y3347D02*
X4892Y3347D01*
X4932Y3347D02*
X4992Y3347D01*
X5032Y3347D02*
X5092Y3347D01*
X5132Y3347D02*
X5192Y3347D01*
X5232Y3347D02*
X5292Y3347D01*
X5332Y3347D02*
X5392Y3347D01*
X5432Y3347D02*
X5492Y3347D01*
X5532Y3347D02*
X5592Y3347D01*
X5632Y3347D02*
X5692Y3347D01*
X5732Y3347D02*
X5792Y3347D01*
X4431Y3346D02*
X4493Y3346D01*
X4531Y3346D02*
X4593Y3346D01*
X4631Y3346D02*
X4693Y3346D01*
X4731Y3346D02*
X4793Y3346D01*
X4831Y3346D02*
X4893Y3346D01*
X4931Y3346D02*
X4993Y3346D01*
X5031Y3346D02*
X5093Y3346D01*
X5131Y3346D02*
X5193Y3346D01*
X5231Y3346D02*
X5293Y3346D01*
X5331Y3346D02*
X5393Y3346D01*
X5431Y3346D02*
X5493Y3346D01*
X5531Y3346D02*
X5593Y3346D01*
X5631Y3346D02*
X5693Y3346D01*
X5731Y3346D02*
X5793Y3346D01*
X4431Y3345D02*
X4494Y3345D01*
X4531Y3345D02*
X4594Y3345D01*
X4631Y3345D02*
X4694Y3345D01*
X4731Y3345D02*
X4794Y3345D01*
X4831Y3345D02*
X4894Y3345D01*
X4931Y3345D02*
X4994Y3345D01*
X5031Y3345D02*
X5094Y3345D01*
X5131Y3345D02*
X5194Y3345D01*
X5231Y3345D02*
X5294Y3345D01*
X5331Y3345D02*
X5394Y3345D01*
X5431Y3345D02*
X5494Y3345D01*
X5531Y3345D02*
X5594Y3345D01*
X5631Y3345D02*
X5694Y3345D01*
X5731Y3345D02*
X5794Y3345D01*
X4430Y3344D02*
X4495Y3344D01*
X4530Y3344D02*
X4595Y3344D01*
X4630Y3344D02*
X4695Y3344D01*
X4730Y3344D02*
X4795Y3344D01*
X4830Y3344D02*
X4895Y3344D01*
X4930Y3344D02*
X4995Y3344D01*
X5030Y3344D02*
X5095Y3344D01*
X5130Y3344D02*
X5195Y3344D01*
X5230Y3344D02*
X5295Y3344D01*
X5330Y3344D02*
X5395Y3344D01*
X5430Y3344D02*
X5495Y3344D01*
X5530Y3344D02*
X5595Y3344D01*
X5630Y3344D02*
X5695Y3344D01*
X5730Y3344D02*
X5795Y3344D01*
X4429Y3343D02*
X4495Y3343D01*
X4529Y3343D02*
X4595Y3343D01*
X4629Y3343D02*
X4695Y3343D01*
X4729Y3343D02*
X4795Y3343D01*
X4829Y3343D02*
X4895Y3343D01*
X4929Y3343D02*
X4995Y3343D01*
X5029Y3343D02*
X5095Y3343D01*
X5129Y3343D02*
X5195Y3343D01*
X5229Y3343D02*
X5295Y3343D01*
X5329Y3343D02*
X5395Y3343D01*
X5429Y3343D02*
X5495Y3343D01*
X5529Y3343D02*
X5595Y3343D01*
X5629Y3343D02*
X5695Y3343D01*
X5729Y3343D02*
X5795Y3343D01*
X4429Y3342D02*
X4496Y3342D01*
X4529Y3342D02*
X4596Y3342D01*
X4629Y3342D02*
X4696Y3342D01*
X4729Y3342D02*
X4796Y3342D01*
X4829Y3342D02*
X4896Y3342D01*
X4929Y3342D02*
X4996Y3342D01*
X5029Y3342D02*
X5096Y3342D01*
X5129Y3342D02*
X5196Y3342D01*
X5229Y3342D02*
X5296Y3342D01*
X5329Y3342D02*
X5396Y3342D01*
X5429Y3342D02*
X5496Y3342D01*
X5529Y3342D02*
X5596Y3342D01*
X5629Y3342D02*
X5696Y3342D01*
X5729Y3342D02*
X5796Y3342D01*
X4428Y3341D02*
X4497Y3341D01*
X4528Y3341D02*
X4597Y3341D01*
X4628Y3341D02*
X4697Y3341D01*
X4728Y3341D02*
X4797Y3341D01*
X4828Y3341D02*
X4897Y3341D01*
X4928Y3341D02*
X4997Y3341D01*
X5028Y3341D02*
X5097Y3341D01*
X5128Y3341D02*
X5196Y3341D01*
X5228Y3341D02*
X5296Y3341D01*
X5328Y3341D02*
X5396Y3341D01*
X5428Y3341D02*
X5496Y3341D01*
X5528Y3341D02*
X5596Y3341D01*
X5628Y3341D02*
X5696Y3341D01*
X5728Y3341D02*
X5796Y3341D01*
X4427Y3340D02*
X4497Y3340D01*
X4527Y3340D02*
X4597Y3340D01*
X4627Y3340D02*
X4697Y3340D01*
X4727Y3340D02*
X4797Y3340D01*
X4827Y3340D02*
X4897Y3340D01*
X4927Y3340D02*
X4997Y3340D01*
X5027Y3340D02*
X5097Y3340D01*
X5127Y3340D02*
X5197Y3340D01*
X5227Y3340D02*
X5297Y3340D01*
X5327Y3340D02*
X5397Y3340D01*
X5427Y3340D02*
X5497Y3340D01*
X5527Y3340D02*
X5597Y3340D01*
X5627Y3340D02*
X5697Y3340D01*
X5727Y3340D02*
X5797Y3340D01*
X4427Y3339D02*
X4498Y3339D01*
X4527Y3339D02*
X4598Y3339D01*
X4627Y3339D02*
X4698Y3339D01*
X4727Y3339D02*
X4798Y3339D01*
X4827Y3339D02*
X4898Y3339D01*
X4927Y3339D02*
X4998Y3339D01*
X5027Y3339D02*
X5098Y3339D01*
X5127Y3339D02*
X5198Y3339D01*
X5227Y3339D02*
X5298Y3339D01*
X5327Y3339D02*
X5398Y3339D01*
X5427Y3339D02*
X5498Y3339D01*
X5527Y3339D02*
X5598Y3339D01*
X5627Y3339D02*
X5698Y3339D01*
X5727Y3339D02*
X5798Y3339D01*
X4426Y3338D02*
X4498Y3338D01*
X4526Y3338D02*
X4598Y3338D01*
X4626Y3338D02*
X4698Y3338D01*
X4726Y3338D02*
X4798Y3338D01*
X4826Y3338D02*
X4898Y3338D01*
X4926Y3338D02*
X4998Y3338D01*
X5026Y3338D02*
X5098Y3338D01*
X5126Y3338D02*
X5198Y3338D01*
X5226Y3338D02*
X5298Y3338D01*
X5326Y3338D02*
X5398Y3338D01*
X5426Y3338D02*
X5498Y3338D01*
X5526Y3338D02*
X5598Y3338D01*
X5626Y3338D02*
X5698Y3338D01*
X5726Y3338D02*
X5798Y3338D01*
X4426Y3337D02*
X4499Y3337D01*
X4526Y3337D02*
X4599Y3337D01*
X4626Y3337D02*
X4699Y3337D01*
X4726Y3337D02*
X4799Y3337D01*
X4826Y3337D02*
X4899Y3337D01*
X4926Y3337D02*
X4999Y3337D01*
X5026Y3337D02*
X5099Y3337D01*
X5126Y3337D02*
X5199Y3337D01*
X5226Y3337D02*
X5299Y3337D01*
X5326Y3337D02*
X5399Y3337D01*
X5426Y3337D02*
X5499Y3337D01*
X5526Y3337D02*
X5599Y3337D01*
X5626Y3337D02*
X5699Y3337D01*
X5726Y3337D02*
X5799Y3337D01*
X4426Y3336D02*
X4499Y3336D01*
X4526Y3336D02*
X4599Y3336D01*
X4626Y3336D02*
X4699Y3336D01*
X4726Y3336D02*
X4799Y3336D01*
X4826Y3336D02*
X4899Y3336D01*
X4926Y3336D02*
X4999Y3336D01*
X5026Y3336D02*
X5099Y3336D01*
X5126Y3336D02*
X5199Y3336D01*
X5226Y3336D02*
X5299Y3336D01*
X5326Y3336D02*
X5399Y3336D01*
X5426Y3336D02*
X5499Y3336D01*
X5526Y3336D02*
X5599Y3336D01*
X5626Y3336D02*
X5699Y3336D01*
X5726Y3336D02*
X5799Y3336D01*
X4425Y3335D02*
X4499Y3335D01*
X4525Y3335D02*
X4599Y3335D01*
X4625Y3335D02*
X4699Y3335D01*
X4725Y3335D02*
X4799Y3335D01*
X4825Y3335D02*
X4899Y3335D01*
X4925Y3335D02*
X4999Y3335D01*
X5025Y3335D02*
X5099Y3335D01*
X5125Y3335D02*
X5199Y3335D01*
X5225Y3335D02*
X5299Y3335D01*
X5325Y3335D02*
X5399Y3335D01*
X5425Y3335D02*
X5499Y3335D01*
X5525Y3335D02*
X5599Y3335D01*
X5625Y3335D02*
X5699Y3335D01*
X5725Y3335D02*
X5799Y3335D01*
X4425Y3334D02*
X4500Y3334D01*
X4525Y3334D02*
X4600Y3334D01*
X4625Y3334D02*
X4700Y3334D01*
X4725Y3334D02*
X4800Y3334D01*
X4825Y3334D02*
X4900Y3334D01*
X4925Y3334D02*
X5000Y3334D01*
X5025Y3334D02*
X5100Y3334D01*
X5125Y3334D02*
X5200Y3334D01*
X5225Y3334D02*
X5300Y3334D01*
X5325Y3334D02*
X5400Y3334D01*
X5425Y3334D02*
X5500Y3334D01*
X5525Y3334D02*
X5600Y3334D01*
X5625Y3334D02*
X5700Y3334D01*
X5725Y3334D02*
X5800Y3334D01*
X4425Y3333D02*
X4500Y3333D01*
X4525Y3333D02*
X4600Y3333D01*
X4625Y3333D02*
X4700Y3333D01*
X4725Y3333D02*
X4800Y3333D01*
X4825Y3333D02*
X4900Y3333D01*
X4925Y3333D02*
X5000Y3333D01*
X5025Y3333D02*
X5100Y3333D01*
X5125Y3333D02*
X5200Y3333D01*
X5225Y3333D02*
X5300Y3333D01*
X5325Y3333D02*
X5400Y3333D01*
X5425Y3333D02*
X5500Y3333D01*
X5525Y3333D02*
X5600Y3333D01*
X5625Y3333D02*
X5700Y3333D01*
X5725Y3333D02*
X5800Y3333D01*
X4424Y3332D02*
X4500Y3332D01*
X4524Y3332D02*
X4600Y3332D01*
X4624Y3332D02*
X4700Y3332D01*
X4724Y3332D02*
X4800Y3332D01*
X4824Y3332D02*
X4900Y3332D01*
X4924Y3332D02*
X5000Y3332D01*
X5024Y3332D02*
X5100Y3332D01*
X5124Y3332D02*
X5200Y3332D01*
X5224Y3332D02*
X5300Y3332D01*
X5324Y3332D02*
X5400Y3332D01*
X5424Y3332D02*
X5500Y3332D01*
X5524Y3332D02*
X5600Y3332D01*
X5624Y3332D02*
X5700Y3332D01*
X5724Y3332D02*
X5800Y3332D01*
X4424Y3331D02*
X4500Y3331D01*
X4524Y3331D02*
X4600Y3331D01*
X4624Y3331D02*
X4700Y3331D01*
X4724Y3331D02*
X4800Y3331D01*
X4824Y3331D02*
X4900Y3331D01*
X4924Y3331D02*
X5000Y3331D01*
X5024Y3331D02*
X5100Y3331D01*
X5124Y3331D02*
X5200Y3331D01*
X5224Y3331D02*
X5300Y3331D01*
X5324Y3331D02*
X5400Y3331D01*
X5424Y3331D02*
X5500Y3331D01*
X5524Y3331D02*
X5600Y3331D01*
X5624Y3331D02*
X5700Y3331D01*
X5724Y3331D02*
X5800Y3331D01*
X4424Y3330D02*
X4501Y3330D01*
X4524Y3330D02*
X4601Y3330D01*
X4624Y3330D02*
X4701Y3330D01*
X4724Y3330D02*
X4801Y3330D01*
X4824Y3330D02*
X4901Y3330D01*
X4924Y3330D02*
X5001Y3330D01*
X5024Y3330D02*
X5101Y3330D01*
X5124Y3330D02*
X5201Y3330D01*
X5224Y3330D02*
X5301Y3330D01*
X5324Y3330D02*
X5401Y3330D01*
X5424Y3330D02*
X5501Y3330D01*
X5524Y3330D02*
X5601Y3330D01*
X5624Y3330D02*
X5701Y3330D01*
X5724Y3330D02*
X5801Y3330D01*
X4424Y3329D02*
X4501Y3329D01*
X4524Y3329D02*
X4601Y3329D01*
X4624Y3329D02*
X4701Y3329D01*
X4724Y3329D02*
X4801Y3329D01*
X4824Y3329D02*
X4901Y3329D01*
X4924Y3329D02*
X5001Y3329D01*
X5024Y3329D02*
X5101Y3329D01*
X5124Y3329D02*
X5201Y3329D01*
X5224Y3329D02*
X5301Y3329D01*
X5324Y3329D02*
X5401Y3329D01*
X5424Y3329D02*
X5501Y3329D01*
X5524Y3329D02*
X5601Y3329D01*
X5624Y3329D02*
X5701Y3329D01*
X5724Y3329D02*
X5801Y3329D01*
X4423Y3328D02*
X4501Y3328D01*
X4523Y3328D02*
X4601Y3328D01*
X4623Y3328D02*
X4701Y3328D01*
X4723Y3328D02*
X4801Y3328D01*
X4823Y3328D02*
X4901Y3328D01*
X4923Y3328D02*
X5001Y3328D01*
X5023Y3328D02*
X5101Y3328D01*
X5123Y3328D02*
X5201Y3328D01*
X5223Y3328D02*
X5301Y3328D01*
X5323Y3328D02*
X5401Y3328D01*
X5423Y3328D02*
X5501Y3328D01*
X5523Y3328D02*
X5601Y3328D01*
X5623Y3328D02*
X5701Y3328D01*
X5723Y3328D02*
X5801Y3328D01*
X4423Y3327D02*
X4501Y3327D01*
X4523Y3327D02*
X4601Y3327D01*
X4623Y3327D02*
X4701Y3327D01*
X4723Y3327D02*
X4801Y3327D01*
X4823Y3327D02*
X4901Y3327D01*
X4923Y3327D02*
X5001Y3327D01*
X5023Y3327D02*
X5101Y3327D01*
X5123Y3327D02*
X5201Y3327D01*
X5223Y3327D02*
X5301Y3327D01*
X5323Y3327D02*
X5401Y3327D01*
X5423Y3327D02*
X5501Y3327D01*
X5523Y3327D02*
X5601Y3327D01*
X5623Y3327D02*
X5701Y3327D01*
X5723Y3327D02*
X5801Y3327D01*
X4423Y3326D02*
X4501Y3326D01*
X4523Y3326D02*
X4601Y3326D01*
X4623Y3326D02*
X4701Y3326D01*
X4723Y3326D02*
X4801Y3326D01*
X4823Y3326D02*
X4901Y3326D01*
X4923Y3326D02*
X5001Y3326D01*
X5023Y3326D02*
X5101Y3326D01*
X5123Y3326D02*
X5201Y3326D01*
X5223Y3326D02*
X5301Y3326D01*
X5323Y3326D02*
X5401Y3326D01*
X5423Y3326D02*
X5501Y3326D01*
X5523Y3326D02*
X5601Y3326D01*
X5623Y3326D02*
X5701Y3326D01*
X5723Y3326D02*
X5801Y3326D01*
X4423Y3325D02*
X4502Y3325D01*
X4523Y3325D02*
X4602Y3325D01*
X4623Y3325D02*
X4702Y3325D01*
X4723Y3325D02*
X4802Y3325D01*
X4823Y3325D02*
X4902Y3325D01*
X4923Y3325D02*
X5002Y3325D01*
X5023Y3325D02*
X5102Y3325D01*
X5123Y3325D02*
X5202Y3325D01*
X5223Y3325D02*
X5302Y3325D01*
X5323Y3325D02*
X5402Y3325D01*
X5423Y3325D02*
X5502Y3325D01*
X5523Y3325D02*
X5602Y3325D01*
X5623Y3325D02*
X5702Y3325D01*
X5723Y3325D02*
X5802Y3325D01*
X4423Y3324D02*
X4502Y3324D01*
X4523Y3324D02*
X4602Y3324D01*
X4623Y3324D02*
X4702Y3324D01*
X4723Y3324D02*
X4802Y3324D01*
X4823Y3324D02*
X4902Y3324D01*
X4923Y3324D02*
X5002Y3324D01*
X5023Y3324D02*
X5102Y3324D01*
X5123Y3324D02*
X5202Y3324D01*
X5223Y3324D02*
X5302Y3324D01*
X5323Y3324D02*
X5402Y3324D01*
X5423Y3324D02*
X5502Y3324D01*
X5523Y3324D02*
X5602Y3324D01*
X5623Y3324D02*
X5702Y3324D01*
X5723Y3324D02*
X5802Y3324D01*
X4423Y3323D02*
X4502Y3323D01*
X4523Y3323D02*
X4602Y3323D01*
X4623Y3323D02*
X4702Y3323D01*
X4723Y3323D02*
X4802Y3323D01*
X4823Y3323D02*
X4902Y3323D01*
X4923Y3323D02*
X5002Y3323D01*
X5023Y3323D02*
X5102Y3323D01*
X5123Y3323D02*
X5202Y3323D01*
X5223Y3323D02*
X5302Y3323D01*
X5323Y3323D02*
X5402Y3323D01*
X5423Y3323D02*
X5502Y3323D01*
X5523Y3323D02*
X5602Y3323D01*
X5623Y3323D02*
X5702Y3323D01*
X5723Y3323D02*
X5802Y3323D01*
X4423Y3322D02*
X4502Y3322D01*
X4523Y3322D02*
X4602Y3322D01*
X4623Y3322D02*
X4702Y3322D01*
X4723Y3322D02*
X4802Y3322D01*
X4823Y3322D02*
X4902Y3322D01*
X4923Y3322D02*
X5002Y3322D01*
X5023Y3322D02*
X5102Y3322D01*
X5123Y3322D02*
X5202Y3322D01*
X5223Y3322D02*
X5302Y3322D01*
X5323Y3322D02*
X5402Y3322D01*
X5423Y3322D02*
X5502Y3322D01*
X5523Y3322D02*
X5602Y3322D01*
X5623Y3322D02*
X5702Y3322D01*
X5723Y3322D02*
X5802Y3322D01*
X4423Y3321D02*
X4502Y3321D01*
X4523Y3321D02*
X4602Y3321D01*
X4623Y3321D02*
X4702Y3321D01*
X4723Y3321D02*
X4802Y3321D01*
X4823Y3321D02*
X4902Y3321D01*
X4923Y3321D02*
X5002Y3321D01*
X5023Y3321D02*
X5102Y3321D01*
X5123Y3321D02*
X5202Y3321D01*
X5223Y3321D02*
X5302Y3321D01*
X5323Y3321D02*
X5402Y3321D01*
X5423Y3321D02*
X5502Y3321D01*
X5523Y3321D02*
X5602Y3321D01*
X5623Y3321D02*
X5702Y3321D01*
X5723Y3321D02*
X5802Y3321D01*
X4423Y3320D02*
X4502Y3320D01*
X4523Y3320D02*
X4602Y3320D01*
X4623Y3320D02*
X4702Y3320D01*
X4723Y3320D02*
X4802Y3320D01*
X4823Y3320D02*
X4902Y3320D01*
X4923Y3320D02*
X5002Y3320D01*
X5023Y3320D02*
X5102Y3320D01*
X5123Y3320D02*
X5202Y3320D01*
X5223Y3320D02*
X5302Y3320D01*
X5323Y3320D02*
X5402Y3320D01*
X5423Y3320D02*
X5502Y3320D01*
X5523Y3320D02*
X5602Y3320D01*
X5623Y3320D02*
X5702Y3320D01*
X5723Y3320D02*
X5802Y3320D01*
X4423Y3319D02*
X4502Y3319D01*
X4523Y3319D02*
X4602Y3319D01*
X4623Y3319D02*
X4702Y3319D01*
X4723Y3319D02*
X4802Y3319D01*
X4823Y3319D02*
X4902Y3319D01*
X4923Y3319D02*
X5002Y3319D01*
X5023Y3319D02*
X5102Y3319D01*
X5123Y3319D02*
X5202Y3319D01*
X5223Y3319D02*
X5302Y3319D01*
X5323Y3319D02*
X5402Y3319D01*
X5423Y3319D02*
X5502Y3319D01*
X5523Y3319D02*
X5602Y3319D01*
X5623Y3319D02*
X5702Y3319D01*
X5723Y3319D02*
X5802Y3319D01*
X4423Y3318D02*
X4502Y3318D01*
X4523Y3318D02*
X4602Y3318D01*
X4623Y3318D02*
X4702Y3318D01*
X4723Y3318D02*
X4802Y3318D01*
X4823Y3318D02*
X4902Y3318D01*
X4923Y3318D02*
X5002Y3318D01*
X5023Y3318D02*
X5102Y3318D01*
X5123Y3318D02*
X5202Y3318D01*
X5223Y3318D02*
X5302Y3318D01*
X5323Y3318D02*
X5402Y3318D01*
X5423Y3318D02*
X5502Y3318D01*
X5523Y3318D02*
X5602Y3318D01*
X5623Y3318D02*
X5702Y3318D01*
X5723Y3318D02*
X5802Y3318D01*
X4423Y3317D02*
X4501Y3317D01*
X4523Y3317D02*
X4601Y3317D01*
X4623Y3317D02*
X4701Y3317D01*
X4723Y3317D02*
X4801Y3317D01*
X4823Y3317D02*
X4901Y3317D01*
X4923Y3317D02*
X5001Y3317D01*
X5023Y3317D02*
X5101Y3317D01*
X5123Y3317D02*
X5201Y3317D01*
X5223Y3317D02*
X5301Y3317D01*
X5323Y3317D02*
X5401Y3317D01*
X5423Y3317D02*
X5501Y3317D01*
X5523Y3317D02*
X5601Y3317D01*
X5623Y3317D02*
X5701Y3317D01*
X5723Y3317D02*
X5801Y3317D01*
X4423Y3316D02*
X4501Y3316D01*
X4523Y3316D02*
X4601Y3316D01*
X4623Y3316D02*
X4701Y3316D01*
X4723Y3316D02*
X4801Y3316D01*
X4823Y3316D02*
X4901Y3316D01*
X4923Y3316D02*
X5001Y3316D01*
X5023Y3316D02*
X5101Y3316D01*
X5123Y3316D02*
X5201Y3316D01*
X5223Y3316D02*
X5301Y3316D01*
X5323Y3316D02*
X5401Y3316D01*
X5423Y3316D02*
X5501Y3316D01*
X5523Y3316D02*
X5601Y3316D01*
X5623Y3316D02*
X5701Y3316D01*
X5723Y3316D02*
X5801Y3316D01*
X4423Y3315D02*
X4501Y3315D01*
X4523Y3315D02*
X4601Y3315D01*
X4623Y3315D02*
X4701Y3315D01*
X4723Y3315D02*
X4801Y3315D01*
X4823Y3315D02*
X4901Y3315D01*
X4923Y3315D02*
X5001Y3315D01*
X5023Y3315D02*
X5101Y3315D01*
X5123Y3315D02*
X5201Y3315D01*
X5223Y3315D02*
X5301Y3315D01*
X5323Y3315D02*
X5401Y3315D01*
X5423Y3315D02*
X5501Y3315D01*
X5523Y3315D02*
X5601Y3315D01*
X5623Y3315D02*
X5701Y3315D01*
X5723Y3315D02*
X5801Y3315D01*
X4424Y3314D02*
X4501Y3314D01*
X4524Y3314D02*
X4601Y3314D01*
X4624Y3314D02*
X4701Y3314D01*
X4724Y3314D02*
X4801Y3314D01*
X4824Y3314D02*
X4901Y3314D01*
X4924Y3314D02*
X5001Y3314D01*
X5024Y3314D02*
X5101Y3314D01*
X5124Y3314D02*
X5201Y3314D01*
X5224Y3314D02*
X5301Y3314D01*
X5324Y3314D02*
X5401Y3314D01*
X5424Y3314D02*
X5501Y3314D01*
X5524Y3314D02*
X5601Y3314D01*
X5624Y3314D02*
X5701Y3314D01*
X5724Y3314D02*
X5801Y3314D01*
X4424Y3313D02*
X4501Y3313D01*
X4524Y3313D02*
X4601Y3313D01*
X4624Y3313D02*
X4701Y3313D01*
X4724Y3313D02*
X4801Y3313D01*
X4824Y3313D02*
X4901Y3313D01*
X4924Y3313D02*
X5001Y3313D01*
X5024Y3313D02*
X5101Y3313D01*
X5124Y3313D02*
X5201Y3313D01*
X5224Y3313D02*
X5301Y3313D01*
X5324Y3313D02*
X5401Y3313D01*
X5424Y3313D02*
X5501Y3313D01*
X5524Y3313D02*
X5601Y3313D01*
X5624Y3313D02*
X5701Y3313D01*
X5724Y3313D02*
X5801Y3313D01*
X4424Y3312D02*
X4501Y3312D01*
X4524Y3312D02*
X4601Y3312D01*
X4624Y3312D02*
X4701Y3312D01*
X4724Y3312D02*
X4801Y3312D01*
X4824Y3312D02*
X4901Y3312D01*
X4924Y3312D02*
X5001Y3312D01*
X5024Y3312D02*
X5101Y3312D01*
X5124Y3312D02*
X5201Y3312D01*
X5224Y3312D02*
X5301Y3312D01*
X5324Y3312D02*
X5401Y3312D01*
X5424Y3312D02*
X5501Y3312D01*
X5524Y3312D02*
X5601Y3312D01*
X5624Y3312D02*
X5701Y3312D01*
X5724Y3312D02*
X5801Y3312D01*
X4424Y3311D02*
X4500Y3311D01*
X4524Y3311D02*
X4600Y3311D01*
X4624Y3311D02*
X4700Y3311D01*
X4724Y3311D02*
X4800Y3311D01*
X4824Y3311D02*
X4900Y3311D01*
X4924Y3311D02*
X5000Y3311D01*
X5024Y3311D02*
X5100Y3311D01*
X5124Y3311D02*
X5200Y3311D01*
X5224Y3311D02*
X5300Y3311D01*
X5324Y3311D02*
X5400Y3311D01*
X5424Y3311D02*
X5500Y3311D01*
X5524Y3311D02*
X5600Y3311D01*
X5624Y3311D02*
X5700Y3311D01*
X5724Y3311D02*
X5800Y3311D01*
X4424Y3310D02*
X4500Y3310D01*
X4524Y3310D02*
X4600Y3310D01*
X4624Y3310D02*
X4700Y3310D01*
X4724Y3310D02*
X4800Y3310D01*
X4824Y3310D02*
X4900Y3310D01*
X4924Y3310D02*
X5000Y3310D01*
X5024Y3310D02*
X5100Y3310D01*
X5124Y3310D02*
X5200Y3310D01*
X5224Y3310D02*
X5300Y3310D01*
X5324Y3310D02*
X5400Y3310D01*
X5424Y3310D02*
X5500Y3310D01*
X5524Y3310D02*
X5600Y3310D01*
X5624Y3310D02*
X5700Y3310D01*
X5724Y3310D02*
X5800Y3310D01*
X4425Y3309D02*
X4500Y3309D01*
X4525Y3309D02*
X4600Y3309D01*
X4625Y3309D02*
X4700Y3309D01*
X4725Y3309D02*
X4800Y3309D01*
X4825Y3309D02*
X4900Y3309D01*
X4925Y3309D02*
X5000Y3309D01*
X5025Y3309D02*
X5100Y3309D01*
X5125Y3309D02*
X5200Y3309D01*
X5225Y3309D02*
X5300Y3309D01*
X5325Y3309D02*
X5400Y3309D01*
X5425Y3309D02*
X5500Y3309D01*
X5525Y3309D02*
X5600Y3309D01*
X5625Y3309D02*
X5700Y3309D01*
X5725Y3309D02*
X5800Y3309D01*
X4425Y3308D02*
X4499Y3308D01*
X4525Y3308D02*
X4599Y3308D01*
X4625Y3308D02*
X4699Y3308D01*
X4725Y3308D02*
X4799Y3308D01*
X4825Y3308D02*
X4899Y3308D01*
X4925Y3308D02*
X4999Y3308D01*
X5025Y3308D02*
X5099Y3308D01*
X5125Y3308D02*
X5199Y3308D01*
X5225Y3308D02*
X5299Y3308D01*
X5325Y3308D02*
X5399Y3308D01*
X5425Y3308D02*
X5499Y3308D01*
X5525Y3308D02*
X5599Y3308D01*
X5625Y3308D02*
X5699Y3308D01*
X5725Y3308D02*
X5799Y3308D01*
X4425Y3307D02*
X4499Y3307D01*
X4525Y3307D02*
X4599Y3307D01*
X4625Y3307D02*
X4699Y3307D01*
X4725Y3307D02*
X4799Y3307D01*
X4825Y3307D02*
X4899Y3307D01*
X4925Y3307D02*
X4999Y3307D01*
X5025Y3307D02*
X5099Y3307D01*
X5125Y3307D02*
X5199Y3307D01*
X5225Y3307D02*
X5299Y3307D01*
X5325Y3307D02*
X5399Y3307D01*
X5425Y3307D02*
X5499Y3307D01*
X5525Y3307D02*
X5599Y3307D01*
X5625Y3307D02*
X5699Y3307D01*
X5725Y3307D02*
X5799Y3307D01*
X4426Y3306D02*
X4499Y3306D01*
X4526Y3306D02*
X4599Y3306D01*
X4626Y3306D02*
X4699Y3306D01*
X4726Y3306D02*
X4799Y3306D01*
X4826Y3306D02*
X4899Y3306D01*
X4926Y3306D02*
X4999Y3306D01*
X5026Y3306D02*
X5099Y3306D01*
X5126Y3306D02*
X5199Y3306D01*
X5226Y3306D02*
X5299Y3306D01*
X5326Y3306D02*
X5399Y3306D01*
X5426Y3306D02*
X5499Y3306D01*
X5526Y3306D02*
X5599Y3306D01*
X5626Y3306D02*
X5699Y3306D01*
X5726Y3306D02*
X5799Y3306D01*
X4426Y3305D02*
X4498Y3305D01*
X4526Y3305D02*
X4598Y3305D01*
X4626Y3305D02*
X4698Y3305D01*
X4726Y3305D02*
X4798Y3305D01*
X4826Y3305D02*
X4898Y3305D01*
X4926Y3305D02*
X4998Y3305D01*
X5026Y3305D02*
X5098Y3305D01*
X5126Y3305D02*
X5198Y3305D01*
X5226Y3305D02*
X5298Y3305D01*
X5326Y3305D02*
X5398Y3305D01*
X5426Y3305D02*
X5498Y3305D01*
X5526Y3305D02*
X5598Y3305D01*
X5626Y3305D02*
X5698Y3305D01*
X5726Y3305D02*
X5798Y3305D01*
X4427Y3304D02*
X4498Y3304D01*
X4527Y3304D02*
X4598Y3304D01*
X4627Y3304D02*
X4698Y3304D01*
X4727Y3304D02*
X4798Y3304D01*
X4827Y3304D02*
X4898Y3304D01*
X4927Y3304D02*
X4998Y3304D01*
X5027Y3304D02*
X5098Y3304D01*
X5127Y3304D02*
X5198Y3304D01*
X5227Y3304D02*
X5298Y3304D01*
X5327Y3304D02*
X5398Y3304D01*
X5427Y3304D02*
X5498Y3304D01*
X5527Y3304D02*
X5598Y3304D01*
X5627Y3304D02*
X5698Y3304D01*
X5727Y3304D02*
X5798Y3304D01*
X4427Y3303D02*
X4497Y3303D01*
X4527Y3303D02*
X4597Y3303D01*
X4627Y3303D02*
X4697Y3303D01*
X4727Y3303D02*
X4797Y3303D01*
X4827Y3303D02*
X4897Y3303D01*
X4927Y3303D02*
X4997Y3303D01*
X5027Y3303D02*
X5097Y3303D01*
X5127Y3303D02*
X5197Y3303D01*
X5227Y3303D02*
X5297Y3303D01*
X5327Y3303D02*
X5397Y3303D01*
X5427Y3303D02*
X5497Y3303D01*
X5527Y3303D02*
X5597Y3303D01*
X5627Y3303D02*
X5697Y3303D01*
X5727Y3303D02*
X5797Y3303D01*
X4428Y3302D02*
X4497Y3302D01*
X4528Y3302D02*
X4597Y3302D01*
X4628Y3302D02*
X4697Y3302D01*
X4728Y3302D02*
X4797Y3302D01*
X4828Y3302D02*
X4897Y3302D01*
X4928Y3302D02*
X4997Y3302D01*
X5028Y3302D02*
X5097Y3302D01*
X5128Y3302D02*
X5197Y3302D01*
X5228Y3302D02*
X5297Y3302D01*
X5328Y3302D02*
X5397Y3302D01*
X5428Y3302D02*
X5497Y3302D01*
X5528Y3302D02*
X5597Y3302D01*
X5628Y3302D02*
X5697Y3302D01*
X5728Y3302D02*
X5797Y3302D01*
X4428Y3301D02*
X4496Y3301D01*
X4528Y3301D02*
X4596Y3301D01*
X4628Y3301D02*
X4696Y3301D01*
X4728Y3301D02*
X4796Y3301D01*
X4828Y3301D02*
X4896Y3301D01*
X4928Y3301D02*
X4996Y3301D01*
X5028Y3301D02*
X5096Y3301D01*
X5128Y3301D02*
X5196Y3301D01*
X5228Y3301D02*
X5296Y3301D01*
X5328Y3301D02*
X5396Y3301D01*
X5428Y3301D02*
X5496Y3301D01*
X5528Y3301D02*
X5596Y3301D01*
X5628Y3301D02*
X5696Y3301D01*
X5728Y3301D02*
X5796Y3301D01*
X4429Y3300D02*
X4495Y3300D01*
X4529Y3300D02*
X4595Y3300D01*
X4629Y3300D02*
X4695Y3300D01*
X4729Y3300D02*
X4795Y3300D01*
X4829Y3300D02*
X4895Y3300D01*
X4929Y3300D02*
X4995Y3300D01*
X5029Y3300D02*
X5095Y3300D01*
X5129Y3300D02*
X5195Y3300D01*
X5229Y3300D02*
X5295Y3300D01*
X5329Y3300D02*
X5395Y3300D01*
X5429Y3300D02*
X5495Y3300D01*
X5529Y3300D02*
X5595Y3300D01*
X5629Y3300D02*
X5695Y3300D01*
X5729Y3300D02*
X5795Y3300D01*
X4430Y3299D02*
X4495Y3299D01*
X4530Y3299D02*
X4595Y3299D01*
X4630Y3299D02*
X4695Y3299D01*
X4730Y3299D02*
X4795Y3299D01*
X4830Y3299D02*
X4895Y3299D01*
X4930Y3299D02*
X4995Y3299D01*
X5030Y3299D02*
X5095Y3299D01*
X5130Y3299D02*
X5195Y3299D01*
X5230Y3299D02*
X5295Y3299D01*
X5330Y3299D02*
X5395Y3299D01*
X5430Y3299D02*
X5495Y3299D01*
X5530Y3299D02*
X5595Y3299D01*
X5630Y3299D02*
X5695Y3299D01*
X5730Y3299D02*
X5795Y3299D01*
X4430Y3298D02*
X4494Y3298D01*
X4530Y3298D02*
X4594Y3298D01*
X4630Y3298D02*
X4694Y3298D01*
X4730Y3298D02*
X4794Y3298D01*
X4830Y3298D02*
X4894Y3298D01*
X4930Y3298D02*
X4994Y3298D01*
X5030Y3298D02*
X5094Y3298D01*
X5130Y3298D02*
X5194Y3298D01*
X5230Y3298D02*
X5294Y3298D01*
X5330Y3298D02*
X5394Y3298D01*
X5430Y3298D02*
X5494Y3298D01*
X5530Y3298D02*
X5594Y3298D01*
X5630Y3298D02*
X5694Y3298D01*
X5730Y3298D02*
X5794Y3298D01*
X4431Y3297D02*
X4493Y3297D01*
X4531Y3297D02*
X4593Y3297D01*
X4631Y3297D02*
X4693Y3297D01*
X4731Y3297D02*
X4793Y3297D01*
X4831Y3297D02*
X4893Y3297D01*
X4931Y3297D02*
X4993Y3297D01*
X5031Y3297D02*
X5093Y3297D01*
X5131Y3297D02*
X5193Y3297D01*
X5231Y3297D02*
X5293Y3297D01*
X5331Y3297D02*
X5393Y3297D01*
X5431Y3297D02*
X5493Y3297D01*
X5531Y3297D02*
X5593Y3297D01*
X5631Y3297D02*
X5693Y3297D01*
X5731Y3297D02*
X5793Y3297D01*
X4432Y3296D02*
X4493Y3296D01*
X4532Y3296D02*
X4593Y3296D01*
X4632Y3296D02*
X4693Y3296D01*
X4732Y3296D02*
X4793Y3296D01*
X4832Y3296D02*
X4893Y3296D01*
X4932Y3296D02*
X4993Y3296D01*
X5032Y3296D02*
X5093Y3296D01*
X5132Y3296D02*
X5193Y3296D01*
X5232Y3296D02*
X5293Y3296D01*
X5332Y3296D02*
X5393Y3296D01*
X5432Y3296D02*
X5493Y3296D01*
X5532Y3296D02*
X5593Y3296D01*
X5632Y3296D02*
X5693Y3296D01*
X5732Y3296D02*
X5793Y3296D01*
X4433Y3295D02*
X4492Y3295D01*
X4533Y3295D02*
X4592Y3295D01*
X4633Y3295D02*
X4692Y3295D01*
X4733Y3295D02*
X4792Y3295D01*
X4833Y3295D02*
X4892Y3295D01*
X4933Y3295D02*
X4992Y3295D01*
X5033Y3295D02*
X5092Y3295D01*
X5133Y3295D02*
X5192Y3295D01*
X5233Y3295D02*
X5292Y3295D01*
X5333Y3295D02*
X5392Y3295D01*
X5433Y3295D02*
X5492Y3295D01*
X5533Y3295D02*
X5592Y3295D01*
X5633Y3295D02*
X5692Y3295D01*
X5733Y3295D02*
X5792Y3295D01*
X4434Y3294D02*
X4491Y3294D01*
X4534Y3294D02*
X4591Y3294D01*
X4634Y3294D02*
X4691Y3294D01*
X4734Y3294D02*
X4791Y3294D01*
X4834Y3294D02*
X4891Y3294D01*
X4934Y3294D02*
X4991Y3294D01*
X5034Y3294D02*
X5091Y3294D01*
X5134Y3294D02*
X5191Y3294D01*
X5234Y3294D02*
X5291Y3294D01*
X5334Y3294D02*
X5391Y3294D01*
X5434Y3294D02*
X5491Y3294D01*
X5534Y3294D02*
X5591Y3294D01*
X5634Y3294D02*
X5691Y3294D01*
X5734Y3294D02*
X5791Y3294D01*
X4435Y3293D02*
X4490Y3293D01*
X4535Y3293D02*
X4590Y3293D01*
X4635Y3293D02*
X4690Y3293D01*
X4735Y3293D02*
X4790Y3293D01*
X4835Y3293D02*
X4890Y3293D01*
X4935Y3293D02*
X4990Y3293D01*
X5035Y3293D02*
X5090Y3293D01*
X5135Y3293D02*
X5190Y3293D01*
X5235Y3293D02*
X5290Y3293D01*
X5335Y3293D02*
X5390Y3293D01*
X5435Y3293D02*
X5490Y3293D01*
X5535Y3293D02*
X5590Y3293D01*
X5635Y3293D02*
X5690Y3293D01*
X5735Y3293D02*
X5790Y3293D01*
X4436Y3292D02*
X4489Y3292D01*
X4536Y3292D02*
X4589Y3292D01*
X4636Y3292D02*
X4689Y3292D01*
X4736Y3292D02*
X4789Y3292D01*
X4836Y3292D02*
X4889Y3292D01*
X4936Y3292D02*
X4989Y3292D01*
X5036Y3292D02*
X5089Y3292D01*
X5136Y3292D02*
X5189Y3292D01*
X5236Y3292D02*
X5289Y3292D01*
X5336Y3292D02*
X5389Y3292D01*
X5436Y3292D02*
X5489Y3292D01*
X5536Y3292D02*
X5589Y3292D01*
X5636Y3292D02*
X5689Y3292D01*
X5736Y3292D02*
X5789Y3292D01*
X4437Y3291D02*
X4488Y3291D01*
X4537Y3291D02*
X4588Y3291D01*
X4637Y3291D02*
X4688Y3291D01*
X4737Y3291D02*
X4788Y3291D01*
X4837Y3291D02*
X4888Y3291D01*
X4937Y3291D02*
X4988Y3291D01*
X5037Y3291D02*
X5088Y3291D01*
X5137Y3291D02*
X5188Y3291D01*
X5237Y3291D02*
X5288Y3291D01*
X5337Y3291D02*
X5388Y3291D01*
X5437Y3291D02*
X5488Y3291D01*
X5537Y3291D02*
X5588Y3291D01*
X5637Y3291D02*
X5688Y3291D01*
X5737Y3291D02*
X5788Y3291D01*
X4438Y3290D02*
X4487Y3290D01*
X4538Y3290D02*
X4587Y3290D01*
X4638Y3290D02*
X4686Y3290D01*
X4738Y3290D02*
X4786Y3290D01*
X4838Y3290D02*
X4886Y3290D01*
X4938Y3290D02*
X4986Y3290D01*
X5038Y3290D02*
X5086Y3290D01*
X5138Y3290D02*
X5186Y3290D01*
X5238Y3290D02*
X5286Y3290D01*
X5338Y3290D02*
X5386Y3290D01*
X5438Y3290D02*
X5486Y3290D01*
X5538Y3290D02*
X5586Y3290D01*
X5638Y3290D02*
X5686Y3290D01*
X5738Y3290D02*
X5786Y3290D01*
X4439Y3289D02*
X4485Y3289D01*
X4539Y3289D02*
X4585Y3289D01*
X4639Y3289D02*
X4685Y3289D01*
X4739Y3289D02*
X4785Y3289D01*
X4839Y3289D02*
X4885Y3289D01*
X4939Y3289D02*
X4985Y3289D01*
X5039Y3289D02*
X5085Y3289D01*
X5139Y3289D02*
X5185Y3289D01*
X5239Y3289D02*
X5285Y3289D01*
X5339Y3289D02*
X5385Y3289D01*
X5439Y3289D02*
X5485Y3289D01*
X5539Y3289D02*
X5585Y3289D01*
X5639Y3289D02*
X5685Y3289D01*
X5739Y3289D02*
X5785Y3289D01*
X4441Y3288D02*
X4484Y3288D01*
X4541Y3288D02*
X4584Y3288D01*
X4641Y3288D02*
X4684Y3288D01*
X4741Y3288D02*
X4784Y3288D01*
X4841Y3288D02*
X4884Y3288D01*
X4941Y3288D02*
X4984Y3288D01*
X5041Y3288D02*
X5084Y3288D01*
X5141Y3288D02*
X5184Y3288D01*
X5241Y3288D02*
X5284Y3288D01*
X5341Y3288D02*
X5384Y3288D01*
X5441Y3288D02*
X5484Y3288D01*
X5541Y3288D02*
X5584Y3288D01*
X5641Y3288D02*
X5684Y3288D01*
X5741Y3288D02*
X5784Y3288D01*
X4442Y3287D02*
X4482Y3287D01*
X4542Y3287D02*
X4582Y3287D01*
X4642Y3287D02*
X4682Y3287D01*
X4742Y3287D02*
X4782Y3287D01*
X4842Y3287D02*
X4882Y3287D01*
X4942Y3287D02*
X4982Y3287D01*
X5042Y3287D02*
X5082Y3287D01*
X5142Y3287D02*
X5182Y3287D01*
X5242Y3287D02*
X5282Y3287D01*
X5342Y3287D02*
X5382Y3287D01*
X5442Y3287D02*
X5482Y3287D01*
X5542Y3287D02*
X5582Y3287D01*
X5642Y3287D02*
X5682Y3287D01*
X5742Y3287D02*
X5782Y3287D01*
X4444Y3286D02*
X4480Y3286D01*
X4544Y3286D02*
X4580Y3286D01*
X4644Y3286D02*
X4680Y3286D01*
X4744Y3286D02*
X4780Y3286D01*
X4844Y3286D02*
X4880Y3286D01*
X4944Y3286D02*
X4980Y3286D01*
X5044Y3286D02*
X5080Y3286D01*
X5144Y3286D02*
X5180Y3286D01*
X5244Y3286D02*
X5280Y3286D01*
X5344Y3286D02*
X5380Y3286D01*
X5444Y3286D02*
X5480Y3286D01*
X5544Y3286D02*
X5580Y3286D01*
X5644Y3286D02*
X5680Y3286D01*
X5744Y3286D02*
X5780Y3286D01*
X4446Y3285D02*
X4478Y3285D01*
X4546Y3285D02*
X4578Y3285D01*
X4646Y3285D02*
X4678Y3285D01*
X4746Y3285D02*
X4778Y3285D01*
X4846Y3285D02*
X4878Y3285D01*
X4946Y3285D02*
X4978Y3285D01*
X5046Y3285D02*
X5078Y3285D01*
X5146Y3285D02*
X5178Y3285D01*
X5246Y3285D02*
X5278Y3285D01*
X5346Y3285D02*
X5378Y3285D01*
X5446Y3285D02*
X5478Y3285D01*
X5546Y3285D02*
X5578Y3285D01*
X5646Y3285D02*
X5678Y3285D01*
X5746Y3285D02*
X5778Y3285D01*
X4449Y3284D02*
X4476Y3284D01*
X4549Y3284D02*
X4576Y3284D01*
X4649Y3284D02*
X4676Y3284D01*
X4749Y3284D02*
X4776Y3284D01*
X4849Y3284D02*
X4876Y3284D01*
X4949Y3284D02*
X4976Y3284D01*
X5049Y3284D02*
X5076Y3284D01*
X5149Y3284D02*
X5176Y3284D01*
X5249Y3284D02*
X5276Y3284D01*
X5349Y3284D02*
X5376Y3284D01*
X5449Y3284D02*
X5476Y3284D01*
X5549Y3284D02*
X5576Y3284D01*
X5649Y3284D02*
X5676Y3284D01*
X5749Y3284D02*
X5776Y3284D01*
X4452Y3283D02*
X4473Y3283D01*
X4552Y3283D02*
X4573Y3283D01*
X4652Y3283D02*
X4673Y3283D01*
X4752Y3283D02*
X4773Y3283D01*
X4852Y3283D02*
X4873Y3283D01*
X4952Y3283D02*
X4973Y3283D01*
X5052Y3283D02*
X5073Y3283D01*
X5152Y3283D02*
X5173Y3283D01*
X5252Y3283D02*
X5273Y3283D01*
X5352Y3283D02*
X5373Y3283D01*
X5452Y3283D02*
X5473Y3283D01*
X5552Y3283D02*
X5573Y3283D01*
X5652Y3283D02*
X5673Y3283D01*
X5752Y3283D02*
X5773Y3283D01*
X4456Y3282D02*
X4468Y3282D01*
X4556Y3282D02*
X4568Y3282D01*
X4656Y3282D02*
X4668Y3282D01*
X4756Y3282D02*
X4768Y3282D01*
X4856Y3282D02*
X4868Y3282D01*
X4956Y3282D02*
X4968Y3282D01*
X5056Y3282D02*
X5068Y3282D01*
X5156Y3282D02*
X5168Y3282D01*
X5256Y3282D02*
X5268Y3282D01*
X5356Y3282D02*
X5368Y3282D01*
X5456Y3282D02*
X5468Y3282D01*
X5556Y3282D02*
X5568Y3282D01*
X5656Y3282D02*
X5668Y3282D01*
X5756Y3282D02*
X5768Y3282D01*
D02*
G04 End of Mask0*
M02*