; NON-PLATED HOLES START AT T1
; THROUGH (PLATED) HOLES START AT T100
M48
INCH
T1C0.125984
T2C0.130000
T100C0.030000
T101C0.046472
T102C0.038000
T103C0.035000
T104C0.051181
T105C0.015748
T106C0.031555
T107C0.040000
T108C0.031496
T109C0.031497
%
T1
X039629Y055203
X001629Y055203
X001629Y001703
X085129Y055203
X039129Y013203
X085129Y001703
T2
X034629Y051103
X013289Y050943
X024229Y050903
T100
X054629Y050703
X058629Y050703
X056629Y050703
X056629Y033203
X052629Y033203
X054629Y033203
X080527Y015003
X049629Y036203
X059629Y050703
X057629Y047703
X055629Y047703
X053629Y047703
X027129Y042203
X058629Y047703
X056629Y047703
X054629Y047703
X050629Y036203
X059629Y047703
X060629Y050703
X016129Y043203
X062631Y052203
X051629Y036203
X053629Y036203
X055629Y036203
X057629Y036203
X037629Y043203
X061629Y050703
X052629Y036203
X054629Y036203
X056629Y036203
X031129Y042203
X060629Y047703
X061629Y047703
X049729Y037503
X061629Y052203
X021129Y043203
X009629Y043203
X081529Y015003
X027129Y043205
X031129Y043203
X047629Y033203
X045629Y033203
X046629Y033203
X048629Y033203
X044629Y033203
X016129Y042203
X037629Y042203
X049629Y033203
X048727Y037503
X050629Y033203
X047629Y036203
X045629Y036203
X053629Y050703
X057629Y050703
X055629Y050703
X057629Y033203
X053629Y033203
X055629Y033203
X051629Y033203
X048629Y036203
X046629Y036203
X044629Y036203
X021129Y042203
X009629Y042202
T101
X025229Y045003
X024229Y045003
X023229Y045003
X035629Y045203
X034629Y045203
X033629Y045203
T102
X008129Y036203
X007129Y028203
X012629Y035703
X008129Y020203
X007129Y031203
X008129Y035203
X007129Y027203
X043129Y005703
X012629Y034703
X033129Y035703
X007129Y030203
X008129Y034203
X007129Y026203
X043129Y004703
X012629Y033703
X033129Y034703
X046129Y005703
X008129Y033203
X007129Y025203
X046129Y004703
X008129Y029203
X008129Y032203
X007129Y024203
X008129Y028203
X008129Y031203
X007129Y023203
X008129Y027203
X007129Y019203
X044129Y005703
X008129Y030203
X007129Y022203
X028629Y036703
X008129Y026203
X007129Y018203
X044129Y004703
X007129Y037203
X047129Y005703
X007129Y021203
X028629Y035703
X008129Y025203
X007129Y036203
X047129Y004703
X007129Y020203
X028629Y034703
X008129Y024203
X007129Y035203
X042129Y005703
X028629Y033703
X008129Y023203
X007129Y034203
X042129Y004703
X008129Y019203
X045129Y005703
X008129Y022203
X007129Y033203
X008129Y018203
X045129Y004703
X008129Y037203
X007129Y029203
X012629Y036703
X008129Y021203
X007129Y032203
T103
X031129Y012203
X052629Y007703
X022629Y012203
X029629Y019203
X031129Y008203
X023629Y016203
X022629Y008203
X055629Y011703
X021629Y019203
X034129Y012203
X032629Y016203
X030629Y019203
X055629Y007703
X025629Y012203
X034129Y008203
X027129Y039203
X026629Y016203
X025629Y008203
X024629Y019203
X043629Y031203
X033629Y019203
X028629Y012203
X020129Y012203
X018629Y019203
X028629Y008203
X029629Y016203
X020129Y008203
X027629Y019203
X021629Y016203
X068629Y033703
X064629Y050203
X031129Y039203
X030629Y016203
X064629Y039703
X075929Y015003
X065129Y011703
X017129Y012203
X024629Y016203
X065129Y007703
X017129Y008203
X033629Y016203
X022629Y019203
X075929Y014003
X064629Y045203
X031629Y019203
X078929Y015003
X068129Y011703
X018629Y016203
X027629Y016203
X059629Y011703
X068129Y007703
X075929Y013003
X025629Y019203
X078929Y014003
X059629Y007703
X075929Y012003
X019629Y019203
X078929Y013003
X028629Y019203
X047629Y031203
X022629Y016203
X031629Y016203
X020629Y019203
X063629Y011703
X078929Y012003
X009629Y013203
X057129Y011703
X063629Y007703
X057129Y007703
X025629Y016203
X068629Y050203
X023629Y019203
X068629Y039703
X032629Y019203
X064629Y033703
X036629Y012203
X019629Y016203
X028629Y016203
X026629Y019203
X013629Y013203
X036629Y008203
X061129Y011703
X068629Y045203
X020629Y016203
X052629Y011703
X061129Y007703
T104
X074629Y044203
X078779Y044203
X074629Y041203
X081529Y022203
X074629Y049203
X078779Y049203
X074629Y046203
X079629Y041203
X074629Y038703
X078779Y038703
X080629Y044203
X074629Y033203
X074629Y035703
X078779Y033203
X074629Y030203
X079629Y046203
X080629Y049203
X079629Y035703
X080629Y038703
X079629Y030203
X080629Y033203
X073655Y022203
T105
X063129Y042703
X060166Y035166
X032629Y029703
X043129Y028685
X048418Y034381
X041629Y029703
X024129Y039203
X056629Y042203
X028129Y029203
X054629Y045203
X001629Y025203
X049611Y023203
X071629Y056203
X034129Y027203
X025129Y041092
X049648Y003203
X048648Y029685
X006129Y017685
X009629Y023203
X034129Y026203
X012166Y026203
X033129Y037203
X029648Y024203
X046129Y027203
X069629Y019703
X006129Y020203
X029648Y023203
X053629Y053203
X070629Y019703
X042629Y040203
X036129Y021203
X034129Y024203
X040648Y028203
X064629Y030203
X012129Y029203
X034129Y023203
X028629Y040703
X063129Y048703
X012129Y032203
X009629Y035203
X025129Y038203
X072129Y055203
X008351Y040981
X043629Y039203
X058629Y045203
X052629Y039203
X043129Y003203
X061129Y038203
X030629Y032203
X012129Y027203
X029129Y030203
X001648Y019203
X037129Y022203
X010629Y034203
X012129Y030203
X072629Y054203
X056629Y043703
X027648Y031240
X050129Y004685
X050129Y024203
X036611Y038203
X047129Y026203
X001629Y033203
X042629Y032203
X011611Y010685
X000648Y009722
X045129Y028722
X039648Y038203
X032129Y038203
X009629Y028203
X036129Y028203
X061629Y048703
X009629Y031203
X027129Y027203
X005629Y018203
X038740Y037425
X029648Y032203
X062129Y039203
X014611Y026203
X011648Y024203
X041629Y041203
X054629Y043703
X037129Y027703
X035907Y037425
X013129Y031203
X029648Y030685
T106
X073129Y014272
T107
X002329Y044581
X021495Y005703
X013289Y045043
X032519Y005703
X083629Y035825
X074251Y005703
X052751Y005703
X017361Y005703
X036653Y005703
X027007Y005703
X015983Y005703
X066531Y005703
X025629Y005703
X035275Y005703
X083629Y030325
X061019Y005703
X083629Y037203
X033897Y005703
X029763Y005703
X055507Y005703
X065153Y005703
X031141Y005703
X083629Y041325
X063775Y005703
X083629Y046325
X018739Y005703
X028385Y005703
X083629Y031703
X054129Y005703
X075629Y005703
X020117Y005703
X059641Y005703
X062397Y005703
X002329Y043203
X058263Y005703
X024251Y005703
X083629Y042703
X067909Y005703
X083629Y047703
X056885Y005703
X022873Y005703
X014289Y045043
X012289Y045043
T108
X073129Y016203
T109
X068629Y031219
X068629Y048703
X068629Y042719
X068629Y038203
X068629Y032203
X068629Y043703
X034114Y039203
X033129Y039203
X064629Y027219
X006645Y013203
X007629Y013203
X064629Y028203
X068629Y047719
X068629Y037219
T00
M30
