; NON-PLATED HOLES START AT T1
; THROUGH (PLATED) HOLES START AT T100
M48
INCH
T1C0.130000
T2C0.125984
T100C0.046472
T101C0.038000
T102C0.035433
T103C0.098425
T104C0.035000
T105C0.042000
T106C0.051181
T107C0.015748
T108C0.031555
T109C0.040000
T110C0.031496
T111C0.031497
T112C0.030000
%
T1
X030181Y045151
X008680Y045151
X018681Y045151
T2
X037680Y047251
X001680Y047251
X074680Y001251
X001180Y001251
X037680Y001251
X074680Y047251
T100
X031180Y039251
X030181Y039251
X029181Y039251
X019680Y039251
X018681Y039251
X017681Y039251
T101
X034680Y011251
X033680Y011251
X031680Y011251
X016680Y018751
X015680Y018751
X013680Y018751
X012680Y018751
X034680Y010251
X033680Y010251
X036680Y011251
X035680Y011251
X031680Y010251
X041680Y034251
X032680Y011251
X017680Y018751
X040680Y034251
X014680Y018751
X036680Y010251
X035680Y010251
X032680Y010251
T102
X003182Y023334
X009680Y020751
X014681Y020751
X017681Y028751
X013681Y020751
X016681Y028751
X006680Y020751
X014681Y028751
X009680Y028751
X005680Y020751
X010681Y020751
X013681Y028751
X010681Y028751
X019681Y020751
X018681Y020751
X019681Y028751
X015681Y020751
X018681Y028751
X008680Y020751
X007680Y020751
X012681Y020751
X015681Y028751
X011681Y020751
X003182Y026168
X008680Y028751
X004680Y020751
X012681Y028751
X011681Y028751
X017681Y020751
X016681Y020751
T103
X003180Y028251
X003180Y021251
T104
X010180Y006251
X069180Y009251
X004680Y011251
X013680Y011251
X043180Y005751
X058680Y031751
X062680Y037251
X022680Y011251
X019180Y009251
X066180Y007251
X050680Y009751
X052180Y005751
X004180Y006251
X069180Y008251
X013180Y006251
X066180Y010251
X007680Y011251
X022180Y006251
X016680Y011251
X046180Y005751
X025680Y011251
X069180Y007251
X055180Y005751
X007180Y006251
X016180Y006251
X069180Y010251
X025180Y006251
X070680Y008251
X019680Y011251
X062680Y031751
X047680Y009751
X019680Y030251
X056680Y009751
X019180Y006251
X070680Y007251
X059680Y009751
X050680Y005751
X058680Y042751
X003180Y009251
X058680Y026251
X012180Y009251
X021180Y009251
X022680Y033751
X018680Y034251
X006180Y009251
X047680Y005751
X015180Y009251
X056680Y005751
X010680Y015251
X024180Y009251
X062680Y042751
X062680Y026251
X009180Y009251
X004680Y015251
X018180Y009251
X074680Y008251
X059680Y005751
X013680Y015251
X003180Y006251
X043180Y009751
X022680Y015251
X012180Y006251
X052180Y009751
X021180Y006251
X010180Y009251
X074680Y007251
X007680Y015251
X038680Y025251
X016680Y015251
X006180Y006251
X046180Y009751
X025680Y015251
X015180Y006251
X004180Y009251
X055180Y009751
X013180Y009251
X024180Y006251
X058680Y037251
X022180Y009251
X018680Y030251
X066180Y009251
X019680Y015251
X009180Y006251
X019680Y034251
X010680Y011251
X018180Y006251
X007180Y009251
X016180Y009251
X042680Y025251
X025180Y009251
X066180Y008251
X026680Y033751
T105
X021180Y011271
X003180Y011271
X012180Y011271
X015180Y014251
X024180Y014251
X006180Y014251
X015180Y011271
X024180Y011271
X006180Y011271
X018180Y014251
X009180Y014251
X021180Y014251
X018180Y011271
X003180Y014251
X012180Y014251
X009180Y011271
T106
X069830Y026751
X070680Y023751
X071680Y032251
X065680Y037751
X065680Y032251
X065680Y034751
X069830Y043251
X070680Y029251
X070680Y040251
X071680Y026751
X071680Y017251
X063806Y017251
X065680Y026751
X069830Y037751
X070680Y034751
X071680Y043251
X065680Y023751
X069830Y032251
X065680Y043251
X065680Y029251
X065680Y040251
X071680Y037751
T107
X007677Y017738
X054680Y022751
X060195Y046264
X024171Y041254
X001679Y027247
X033680Y018762
X056684Y031233
X033180Y022251
X049698Y046264
X061680Y005751
X036167Y035256
X045675Y035256
X024171Y031745
X033680Y038255
X004662Y016233
X052697Y013751
X026694Y025747
X028669Y019749
X036167Y027759
X047687Y038255
X006177Y017262
X011663Y022748
X035680Y007751
X016674Y025747
X032680Y032251
X038680Y008751
X037191Y033244
X014680Y024751
X037680Y026251
X034680Y021751
X042164Y018250
X045680Y018251
X055696Y023736
X029680Y026751
X048674Y045240
X021172Y027759
X050686Y047252
X027180Y016251
X046663Y039242
X046663Y044253
X025680Y023251
X035180Y027251
X061182Y045240
X006177Y027247
X057671Y013751
X009176Y019749
X015174Y016238
X044688Y037267
X027180Y011751
X056684Y044253
X037191Y014263
X059171Y047252
X017680Y026251
X038690Y028234
X046663Y016750
X041177Y001756
X071680Y004751
X041177Y016750
X054680Y034251
X022196Y016238
X013675Y024760
X068180Y005751
X027680Y010751
X053685Y014739
X002191Y024760
X014699Y026735
X025680Y016251
X061680Y017251
X045675Y036755
X035680Y024251
X043664Y036243
X058695Y014739
X023183Y025235
X022196Y026735
X001679Y017262
X023183Y019749
X036680Y024751
X068180Y022751
X055696Y036755
X018680Y027251
X035180Y015751
X012680Y024251
X038180Y023251
X027680Y023751
X038680Y020751
X006177Y021761
X020184Y022748
X059680Y025251
X046663Y033244
X038180Y015751
X032180Y037267
T108
X063181Y009320
T109
X022180Y003251
X074180Y042251
X025180Y003251
X044680Y003251
X047680Y003251
X074180Y024373
X008802Y003251
X002802Y003251
X017803Y003251
X011803Y003251
X005802Y003251
X014803Y003251
X074180Y035373
X056680Y003251
X050680Y003251
X020803Y003251
X059680Y003251
X053680Y003251
X043303Y003251
X074180Y025751
X023803Y003251
X046303Y003251
X004180Y003251
X049303Y003251
X007180Y003251
X074180Y036751
X055303Y003251
X058303Y003251
X052303Y003251
X074180Y040873
X016180Y003251
X010180Y003251
X019180Y003251
X013180Y003251
X008680Y039251
X074180Y031251
X074180Y029873
X009680Y039251
X007680Y039251
X001680Y032251
X001680Y033629
T110
X004285Y023452
X004285Y026050
X063180Y011251
T111
X060680Y019267
X062680Y041251
X062680Y023767
X012680Y031767
X062680Y029267
X062680Y024751
X062680Y034767
X012680Y032751
X028181Y033751
X029165Y033751
X060680Y020251
X062680Y035751
X062680Y030251
X062680Y040267
T112
X051680Y029751
X005680Y037251
X050680Y029751
X052680Y029751
X044682Y031251
X022680Y036251
X025680Y036251
X014680Y037251
X057680Y043249
X039680Y026751
X011180Y036251
X034680Y036251
X074680Y005753
X048680Y042751
X005680Y036249
X041680Y026751
X049680Y042751
X022680Y037253
X048680Y026751
X046680Y026751
X042680Y026751
X044680Y026751
X040680Y026751
X048680Y039751
X039680Y029751
X025680Y037251
X047680Y026751
X049680Y026751
X045680Y026751
X043680Y026751
X049680Y039751
X043680Y031251
X051680Y042751
X056680Y042751
X054680Y042751
X052680Y042751
X050680Y042751
X041680Y029751
X051680Y026751
X011180Y037251
X055680Y042751
X053680Y042751
X051680Y039751
X044680Y029751
X046680Y029751
X042680Y029751
X040680Y029751
X048680Y029751
X034680Y037251
X052680Y026751
X050680Y026751
X056680Y039751
X054680Y039751
X052680Y039751
X050680Y039751
X043680Y029751
X045680Y029751
X047680Y029751
X049680Y029751
X014680Y036251
X055680Y039751
X053680Y039751
X057680Y044251
X074680Y004751
T00
M30
